<svg xmlns="http://www.w3.org/2000/svg" width="500" height="500" viewBox="0 0 500 500"><path fill="currentColor" d="M249.865 474.507l90.684-279.097H159.181l90.684 279.097z"/><path fill="currentColor" d="M249.864 474.505L159.18 195.41H32.088l217.776 279.095z" opacity=".7"/><path fill="currentColor" d="M32.089 195.411L4.53 280.226a18.773 18.773 0 006.821 20.99l238.514 173.29L32.089 195.411z" opacity=".5"/><path fill="currentColor" d="M32.089 195.412h127.092L104.562 27.314c-2.811-8.649-15.047-8.649-17.856 0L32.089 195.412z"/><path fill="currentColor" d="M249.865 474.505l90.684-279.095h127.092L249.865 474.505z" opacity=".7"/><path fill="currentColor" d="M467.641 195.411l27.559 84.815a18.772 18.772 0 01-6.821 20.99l-238.515 173.29 217.777-279.095z" opacity=".5"/><path fill="currentColor" d="M467.641 195.412H340.549l54.618-168.098c2.811-8.649 15.047-8.649 17.856 0l54.618 168.098z"/></svg>