<svg id="Group_222" data-name="Group 222" xmlns="http://www.w3.org/2000/svg" width="517.908" height="309.706" viewBox="0 0 517.908 309.706">
  <path id="Path_152" data-name="Path 152" d="M138.637,110.447a52.116,52.116,0,0,0,1.895,15.33,92.2,92.2,0,0,0,5.512,12.4,7.493,7.493,0,0,1,1.206,3.962c0,1.722-1.033,3.445-3.273,5.167l-10.852,7.234a8.259,8.259,0,0,1-4.479,1.55,7.926,7.926,0,0,1-5.168-2.412,53.291,53.291,0,0,1-6.2-8.1c-1.722-2.928-3.445-6.2-5.34-10.163Q91.785,159.193,61.3,159.193c-14.469,0-26.01-4.134-34.45-12.4S14.1,127.5,14.1,113.719c0-14.641,5.168-26.527,15.675-35.484S54.234,64.8,71.976,64.8a136.382,136.382,0,0,1,18.259,1.378c6.373.861,12.919,2.239,19.809,3.79V57.393c0-13.091-2.756-22.22-8.1-27.56-5.512-5.34-14.814-7.924-28.077-7.924a78.371,78.371,0,0,0-18.6,2.239,137.252,137.252,0,0,0-18.6,5.857,49.425,49.425,0,0,1-6.029,2.239,10.565,10.565,0,0,1-2.756.517c-2.411,0-3.617-1.722-3.617-5.34v-8.44c0-2.756.344-4.823,1.206-6.029a12.9,12.9,0,0,1,4.823-3.617A99.167,99.167,0,0,1,52,1.584,104.432,104.432,0,0,1,78.866-1.689c20.5,0,35.484,4.651,45.13,13.952,9.474,9.3,14.3,23.426,14.3,42.374v55.809ZM68.7,136.629a55.824,55.824,0,0,0,17.742-3.1A38.384,38.384,0,0,0,102.809,122.5a27.34,27.34,0,0,0,5.857-11.024,61.837,61.837,0,0,0,1.723-14.986V89.26a143.852,143.852,0,0,0-15.847-2.928A129.795,129.795,0,0,0,78.35,85.3c-11.541,0-19.981,2.239-25.665,6.89s-8.44,11.2-8.44,19.809c0,8.1,2.067,14.125,6.373,18.259C54.751,134.562,60.78,136.629,68.7,136.629Zm138.318,18.6c-3.1,0-5.168-.517-6.546-1.722-1.378-1.033-2.584-3.445-3.617-6.718L156.379,13.642a30.174,30.174,0,0,1-1.55-6.89c0-2.756,1.378-4.306,4.134-4.306h16.881c3.273,0,5.512.517,6.718,1.723,1.378,1.034,2.412,3.445,3.445,6.718l28.938,114.03,26.871-114.03c.861-3.445,1.895-5.684,3.273-6.718s3.79-1.723,6.89-1.723h13.78c3.273,0,5.512.517,6.89,1.723,1.378,1.034,2.584,3.445,3.273,6.718l27.216,115.408,29.8-115.408c1.034-3.445,2.239-5.684,3.445-6.718C337.759,3.135,340,2.446,343.1,2.446h16.019c2.756,0,4.306,1.378,4.306,4.306a17.177,17.177,0,0,1-.345,2.756,24.508,24.508,0,0,1-1.206,4.306l-41.513,133.15q-1.55,5.167-3.617,6.718A11.02,11.02,0,0,1,310.2,155.4H295.386c-3.273,0-5.512-.517-6.89-1.723s-2.584-3.445-3.273-6.89l-26.7-111.1L232,146.619c-.861,3.445-1.895,5.684-3.273,6.89s-3.789,1.722-6.89,1.722Zm221.342,4.651a113.989,113.989,0,0,1-26.527-3.1c-8.613-2.067-15.33-4.306-19.809-6.89-2.756-1.55-4.651-3.273-5.34-4.823a12.158,12.158,0,0,1-1.034-4.823v-8.785c0-3.617,1.378-5.34,3.962-5.34a9.755,9.755,0,0,1,3.1.517c1.033.344,2.584,1.033,4.306,1.723a93.7,93.7,0,0,0,18.948,6.029,103.444,103.444,0,0,0,20.5,2.067c10.852,0,19.292-1.895,25.149-5.684a18.549,18.549,0,0,0,8.957-16.364,16.775,16.775,0,0,0-4.651-12.058c-3.1-3.273-8.957-6.2-17.4-8.957L413.55,85.642c-12.574-3.962-21.876-9.818-27.56-17.57A41.039,41.039,0,0,1,377.377,43.1a38.335,38.335,0,0,1,4.651-19.12,44.288,44.288,0,0,1,12.4-14.125A54.67,54.67,0,0,1,412.344.9a75.074,75.074,0,0,1,21.7-2.928,86.472,86.472,0,0,1,11.541.689c3.962.517,7.579,1.206,11.2,1.895,3.445.861,6.718,1.723,9.818,2.756a37.593,37.593,0,0,1,7.235,3.1,14.9,14.9,0,0,1,5.168,4.306,9.283,9.283,0,0,1,1.55,5.684v8.1c0,3.617-1.378,5.512-3.962,5.512-1.378,0-3.617-.689-6.546-2.067q-14.727-6.718-33.072-6.718c-9.818,0-17.57,1.55-22.909,4.823s-8.1,8.268-8.1,15.33a16.265,16.265,0,0,0,5.168,12.23c3.445,3.273,9.818,6.546,18.948,9.474l24.46,7.751c12.4,3.962,21.359,9.474,26.7,16.536a38.978,38.978,0,0,1,7.923,24.115,44.281,44.281,0,0,1-4.478,19.981,46.324,46.324,0,0,1-12.574,15.158A55.524,55.524,0,0,1,453,156.265,81.908,81.908,0,0,1,428.363,159.882Z" transform="translate(7.314 2.033)" fill="#252f3e"/>
  <g id="Group_88" data-name="Group 88" transform="translate(0 193.079)">
    <path id="Path_153" data-name="Path 153" d="M469.9,158.31c-56.671,41.857-139.006,64.077-209.8,64.077-99.216,0-188.615-36.689-256.137-97.666-5.34-4.823-.517-11.369,5.857-7.579,73.034,42.374,163.122,68.039,256.309,68.039,62.872,0,131.944-13.091,195.5-39.962C471.107,140.912,479.2,151.419,469.9,158.31Z" transform="translate(-1.668 -105.76)" fill="#f90" fill-rule="evenodd"/>
    <path id="Path_154" data-name="Path 154" d="M316.977,135.738c-7.235-9.3-47.886-4.479-66.317-2.239-5.512.689-6.373-4.134-1.378-7.751,32.383-22.737,85.609-16.192,91.809-8.613,6.2,7.751-1.722,60.977-32.038,86.47-4.651,3.962-9.13,1.895-7.062-3.273C308.881,183.279,324.211,144.867,316.977,135.738Z" transform="translate(174.854 -110.059)" fill="#f90" fill-rule="evenodd"/>
  </g>
</svg>
