<svg xmlns="http://www.w3.org/2000/svg" width="222.389" height="150.094" viewBox="0 0 222.389 150.094">
  <g id="Group_221" data-name="Group 221" transform="translate(81.96 -8.552)">
    <path id="Path_185" data-name="Path 185" d="M140.554,15.23c-14.174,0-27.231,7.974-39.849,21.907C88.305,22.985,75.029,15.23,60.2,15.23,35.64,15.23,17.72,32.756,17.72,56.35s17.92,40.9,42.478,40.9c15.094,0,26.793-7.076,39.849-21.184,12.619,14.152,25.456,21.228,40.506,21.228,24.558-.044,42.478-17.285,42.478-40.945S165.112,15.23,140.554,15.23ZM60.373,72.5c-10.406,0-16.606-6.857-16.606-15.927s6.2-16.124,16.606-16.124c8.763,0,15.927,7.054,23.682,16.562C76.738,65.858,69,72.5,60.373,72.5Zm79.436,0c-8.631,0-15.927-6.857-23.682-15.927,7.974-9.508,14.831-16.124,23.682-16.124,10.406,0,16.54,7.142,16.54,16.124S150.215,72.5,139.809,72.5Z" transform="translate(-71.228 -6.678)" fill="#484848"/>
    <path id="Path_186" data-name="Path 186" d="M73.79,68.992,90.308,49.276C83.736,47.3,77.667,41.389,71.38,34.05L55.3,53.657A72.255,72.255,0,0,0,73.79,68.992Z" transform="translate(-26.48 15.732)" fill="#20a7c9"/>
    <g id="Main" transform="translate(-81.96 108.77)">
      <g id="Superset" transform="translate(0 0)">
        <g id="Full-Lockup-With-Text">
          <g id="Group-7">
            <g id="Group-17">
              <g id="Superset-Copy">
                <g id="Group_130" data-name="Group 130">
                  <path id="Path_187" data-name="Path 187" d="M123.848,49.716a4.432,4.432,0,0,0-1.566-3.532,15.926,15.926,0,0,0-5.512-2.542,31.022,31.022,0,0,1-10.343-4.7,8.872,8.872,0,0,1-3.517-7.388,9.217,9.217,0,0,1,4.034-7.713,16.659,16.659,0,0,1,10.343-2.955,15.459,15.459,0,0,1,10.343,3.369,10.1,10.1,0,0,1,3.842,8.3v.148H124a5.6,5.6,0,0,0-1.788-4.315,7.093,7.093,0,0,0-4.994-1.64,7.506,7.506,0,0,0-4.788,1.359,4.435,4.435,0,0,0-1.685,3.517,3.771,3.771,0,0,0,1.7,3.073,24.851,24.851,0,0,0,6.206,2.615,24.19,24.19,0,0,1,9.634,4.669,9.71,9.71,0,0,1,3.28,7.639,9.143,9.143,0,0,1-3.9,7.787,16.94,16.94,0,0,1-10.343,2.852,18.736,18.736,0,0,1-10.949-3.236,10.118,10.118,0,0,1-4.551-9.073v-.163h7.669a5.917,5.917,0,0,0,2.1,5.039,9.506,9.506,0,0,0,5.911,1.6,7.631,7.631,0,0,0,4.8-1.3A4.113,4.113,0,0,0,123.848,49.716Z" transform="translate(-101.797 -20.866)" fill="#484848"/>
                  <path id="Path_188" data-name="Path 188" d="M142.727,52.3a9.667,9.667,0,0,1-3.354,3.458,9.922,9.922,0,0,1-11.821-1.685q-2.542-2.955-2.542-8.984V27.85h7.684V45.183a7.523,7.523,0,0,0,1.049,4.433,3.728,3.728,0,0,0,3.118,1.359,7.907,7.907,0,0,0,3.177-.591,5.36,5.36,0,0,0,2.157-1.773V27.85h7.713V56.413h-6.575Z" transform="translate(-90.71 -17.53)" fill="#484848"/>
                  <path id="Path_189" data-name="Path 189" d="M171.2,43.1a16.339,16.339,0,0,1-2.955,10.2,9.7,9.7,0,0,1-8.186,3.857,9.307,9.307,0,0,1-3.99-.827,8.318,8.318,0,0,1-2.955-2.453V67.581H145.43V28.024h6.945l.458,3.369a9.245,9.245,0,0,1,3.044-2.881,8.3,8.3,0,0,1,4.167-1.02,9.51,9.51,0,0,1,8.23,4.152,18.425,18.425,0,0,1,2.955,10.9Zm-7.713-.591a14.026,14.026,0,0,0-1.345-6.561,4.439,4.439,0,0,0-4.123-2.512,5.824,5.824,0,0,0-2.955.709,5.289,5.289,0,0,0-1.95,2.039V48.726a4.792,4.792,0,0,0,1.95,1.847,6.41,6.41,0,0,0,2.955.635,4.437,4.437,0,0,0,4.108-2.2,11.572,11.572,0,0,0,1.315-5.911Z" transform="translate(-80.957 -17.704)" fill="#484848"/>
                  <path id="Path_190" data-name="Path 190" d="M178.6,57.138a12.881,12.881,0,0,1-9.885-3.96,14.179,14.179,0,0,1-3.694-10.063V42.066a15.627,15.627,0,0,1,3.5-10.491,13.108,13.108,0,0,1,18.367-.606,13.42,13.42,0,0,1,3.221,9.427v4.2h-17.1v.163a7.389,7.389,0,0,0,1.891,4.625A5.912,5.912,0,0,0,179.46,51.2a14.986,14.986,0,0,0,4.256-.517,19.591,19.591,0,0,0,3.694-1.625l2.083,4.773a14.2,14.2,0,0,1-4.566,2.364A19.625,19.625,0,0,1,178.6,57.138ZM177.909,33.5a4.038,4.038,0,0,0-3.384,1.64,8.505,8.505,0,0,0-1.478,4.3l.074.133h9.457v-.68a6.2,6.2,0,0,0-1.153-3.931,4.143,4.143,0,0,0-3.517-1.537Z" transform="translate(-71.604 -17.693)" fill="#484848"/>
                  <path id="Path_191" data-name="Path 191" d="M200.158,34.642h-2.837a5.154,5.154,0,0,0-2.822.709,4.52,4.52,0,0,0-1.684,2.01V56.585H185.13V28.022h7.2l.34,4.226a8.991,8.991,0,0,1,2.615-3.5,6.133,6.133,0,0,1,4.758-1.167l.99.222Z" transform="translate(-61.995 -17.702)" fill="#484848"/>
                  <path id="Path_192" data-name="Path 192" d="M213.727,48.73a2.691,2.691,0,0,0-1.226-2.2,12.64,12.64,0,0,0-4.551-1.625,18.416,18.416,0,0,1-7.639-3.059,6.594,6.594,0,0,1-2.586-5.5,7.883,7.883,0,0,1,3.1-6.28,12.622,12.622,0,0,1,8.3-2.571,13.688,13.688,0,0,1,8.7,2.556,7.589,7.589,0,0,1,3.1,6.472v.163H213.55a3.8,3.8,0,0,0-1.093-2.808,5.289,5.289,0,0,0-6.177-.163,2.867,2.867,0,0,0-1.064,2.276,2.588,2.588,0,0,0,1.123,2.172,12.252,12.252,0,0,0,4.551,1.478,18.478,18.478,0,0,1,7.846,3.1,6.818,6.818,0,0,1,2.556,5.63,7.543,7.543,0,0,1-3.3,6.309,14.352,14.352,0,0,1-8.718,2.438,13.206,13.206,0,0,1-9.014-2.955,8.073,8.073,0,0,1-3.266-6.5v-.148h7.048a3.974,3.974,0,0,0,1.478,3.325,6.244,6.244,0,0,0,3.724,1.034,5.337,5.337,0,0,0,3.251-.857A2.708,2.708,0,0,0,213.727,48.73Z" transform="translate(-56.325 -17.708)" fill="#484848"/>
                  <path id="Path_193" data-name="Path 193" d="M229.249,57.138a12.847,12.847,0,0,1-9.871-3.96,14.179,14.179,0,0,1-3.694-10.063V42.066a15.7,15.7,0,0,1,3.487-10.491,13.108,13.108,0,0,1,18.367-.606,13.3,13.3,0,0,1,3.206,9.427v4.2H223.678v.163a7.389,7.389,0,0,0,1.877,4.625A5.911,5.911,0,0,0,230.12,51.2a14.884,14.884,0,0,0,4.241-.517,19.31,19.31,0,0,0,3.709-1.625l2.083,4.773a14.346,14.346,0,0,1-4.566,2.364A19.714,19.714,0,0,1,229.249,57.138Zm-.68-23.642a4.006,4.006,0,0,0-3.384,1.64,8.523,8.523,0,0,0-1.478,4.3l.089.133h9.457v-.68a6.2,6.2,0,0,0-1.153-3.931,4.141,4.141,0,0,0-3.532-1.537Z" transform="translate(-47.407 -17.693)" fill="#484848"/>
                  <path id="Path_194" data-name="Path 194" d="M246.19,23.11v7h4.817v5.408H246.19V50.077a3.369,3.369,0,0,0,.695,2.379,2.439,2.439,0,0,0,1.847.709,6.738,6.738,0,0,0,1.034-.074,9.211,9.211,0,0,0,1.02-.222l.665,5.571a15.7,15.7,0,0,1-2.276.606,15.1,15.1,0,0,1-2.394.192,8.217,8.217,0,0,1-6.147-2.187,9.633,9.633,0,0,1-2.157-6.945V35.522H234.31V30.114h4.167v-7Z" transform="translate(-38.505 -19.794)" fill="#484848"/>
                </g>
              </g>
            </g>
          </g>
        </g>
      </g>
    </g>
    <path id="Path_195" data-name="Path 195" d="M74.58,33.746A74.343,74.343,0,0,0,56.2,18.06L39.66,38c6.287,2.191,11.852,7.843,17.767,15.05l.657.46Z" transform="translate(-45.103 -3.308)" fill="#20a7c9"/>
    <g id="Group_132" data-name="Group 132" transform="translate(-4.56 96.05)">
      <path id="Path_196" data-name="Path 196" d="M133.832,25.637h-4.821l-.936,2.723H125.3l4.682-12.66h2.827l4.717,12.66h-2.792Zm-4.145-1.994h3.468l-1.734-4.977Z" transform="translate(-125.3 -14.798)" fill="#484848"/>
      <path id="Path_197" data-name="Path 197" d="M142.174,22.615a4.994,4.994,0,0,1-1.058,3.347,3.907,3.907,0,0,1-4.336,1.006,2.908,2.908,0,0,1-1.075-.815v4.509H133V17.655h2.48l.156,1.11a3.031,3.031,0,0,1,1.093-.954,3.108,3.108,0,0,1,1.491-.33,3.469,3.469,0,0,1,2.931,1.353,5.711,5.711,0,0,1,1.058,3.59Zm-2.757-.191a4.19,4.19,0,0,0-.486-2.168,1.58,1.58,0,0,0-1.474-.832,2.22,2.22,0,0,0-1.058.243,1.736,1.736,0,0,0-.694.676v4.127a1.725,1.725,0,0,0,.694.607,2.515,2.515,0,0,0,1.075.208,1.616,1.616,0,0,0,1.474-.728,3.554,3.554,0,0,0,.468-1.96Z" transform="translate(-119.647 -13.493)" fill="#484848"/>
      <path id="Path_198" data-name="Path 198" d="M145.519,27.026q-.138-.312-.26-.676a3.6,3.6,0,0,1-.139-.728,3.68,3.68,0,0,1-1.127,1.127,2.881,2.881,0,0,1-1.734.468,3.664,3.664,0,0,1-2.48-.763,2.605,2.605,0,0,1-.867-2.081,2.413,2.413,0,0,1,1.145-2.133,6.1,6.1,0,0,1,3.382-.763h1.543v-.746a1.461,1.461,0,0,0-.382-1.058,1.629,1.629,0,0,0-1.145-.382,1.558,1.558,0,0,0-1.041.312.988.988,0,0,0-.364.832H139.4a2.293,2.293,0,0,1,1.127-2.046,5.2,5.2,0,0,1,3.122-.867,4.806,4.806,0,0,1,2.965.85,2.88,2.88,0,0,1,1.145,2.445V24.7a5.64,5.64,0,0,0,.121,1.231,5.518,5.518,0,0,0,.329,1.162ZM143,25.292a2.493,2.493,0,0,0,1.3-.33,1.727,1.727,0,0,0,.763-.763V22.864h-1.543a1.924,1.924,0,0,0-1.335.416,1.269,1.269,0,0,0-.451.971.973.973,0,0,0,.347.763A1.389,1.389,0,0,0,143,25.292Z" transform="translate(-115.309 -13.464)" fill="#484848"/>
      <path id="Path_199" data-name="Path 199" d="M149.737,25.375a1.737,1.737,0,0,0,1.179-.4,1.316,1.316,0,0,0,.434-1.041h2.515a2.829,2.829,0,0,1-1.162,2.376,4.634,4.634,0,0,1-2.983.971,4.562,4.562,0,0,1-3.468-1.335A4.787,4.787,0,0,1,145,22.479v-.26a4.853,4.853,0,0,1,1.231-3.468,5.219,5.219,0,0,1,6.573-.347,3.139,3.139,0,0,1,1.11,2.6H151.4a1.731,1.731,0,0,0-.434-1.214,1.527,1.527,0,0,0-1.2-.486,1.616,1.616,0,0,0-1.543.8,4.011,4.011,0,0,0-.451,2.012v.26a3.975,3.975,0,0,0,.451,2.012A1.736,1.736,0,0,0,149.737,25.375Z" transform="translate(-110.839 -13.548)" fill="#484848"/>
      <path id="Path_200" data-name="Path 200" d="M153.74,20.521a3.469,3.469,0,0,1,5.2-.382,4.253,4.253,0,0,1,.919,3.018v5.584H157.1v-5.6a2.267,2.267,0,0,0-.416-1.561,1.576,1.576,0,0,0-1.249-.468,2.594,2.594,0,0,0-1.006.191,1.841,1.841,0,0,0-.711.538v6.937H151V15.18h2.757Z" transform="translate(-106.431 -15.18)" fill="#484848"/>
      <path id="Path_201" data-name="Path 201" d="M161.948,27.255a4.843,4.843,0,0,1-3.468-1.318,4.423,4.423,0,0,1-1.318-3.312v-.347a4.906,4.906,0,0,1,1.249-3.468,4.254,4.254,0,0,1,3.347-1.335,4.318,4.318,0,0,1,3.208,1.145,4.2,4.2,0,0,1,1.145,3.1v1.37h-6.087a2.255,2.255,0,0,0,.659,1.526,2.219,2.219,0,0,0,1.63.607,6.116,6.116,0,0,0,1.526-.173,7.842,7.842,0,0,0,1.318-.538l.746,1.578a5.2,5.2,0,0,1-1.63.78A7.621,7.621,0,0,1,161.948,27.255Zm-.243-7.821a1.477,1.477,0,0,0-1.2.555,2.638,2.638,0,0,0-.555,1.4h3.468v-.225a1.957,1.957,0,0,0-.416-1.3A1.593,1.593,0,0,0,161.705,19.433Z" transform="translate(-101.91 -13.502)" fill="#484848"/>
    </g>
    <path id="Path_202" data-name="Path 202" d="M249.53,23.782h-1.137v3.559h-.736V23.782H246.52V23.14h3.01Zm4.228.87-1.177,2.676h-.4l-1.217-2.809v2.8h-.722V23.14h.91l1.258,3.05,1.338-3.05h.87v4.2h-.736Z" transform="translate(-114.185 88.607)" fill="#484848"/>
  </g>
</svg>
