<svg id="Group_209" data-name="Group 209" xmlns="http://www.w3.org/2000/svg" width="397.631" height="116.683" viewBox="0 0 397.631 116.683">
  <g id="Group_24" data-name="Group 24" transform="translate(0 0)">
    <g id="Group_22" data-name="Group 22" transform="translate(152.15 16.522)">
      <g id="Group_16" data-name="Group 16" transform="translate(48.777)">
        <g id="Group_15" data-name="Group 15">
          <path id="Path_8" data-name="Path 8" d="M-3116.792-1892.975a18.259,18.259,0,0,1,3.321.271,3.261,3.261,0,0,1,1.52.65,3.178,3.178,0,0,1,.9,1.365,9.453,9.453,0,0,1,.437,3.278v21.259l4.281-1.806a29.054,29.054,0,0,1,3.494-1.106,19.152,19.152,0,0,1,4.961-.6c5.718,0,9.991,1.462,13.067,4.47,3.014,2.947,4.542,7.569,4.542,13.737v28.979c-.153.025-.315.052-.488.077a25.993,25.993,0,0,1-3.92.29,18.339,18.339,0,0,1-3.32-.27,3.289,3.289,0,0,1-1.519-.65,3.176,3.176,0,0,1-.9-1.37c-.08-.2-.151-.383-.217-.544a2.64,2.64,0,0,1-.22-1.441v-23.99c0-3.861-1.029-6.729-3.061-8.521a10.268,10.268,0,0,0-7.013-2.556,15.971,15.971,0,0,0-4.646.673,13.156,13.156,0,0,0-3.721,1.718l-1.316.921v35.664c-.153.025-.314.052-.487.077a25.972,25.972,0,0,1-3.918.29,18.3,18.3,0,0,1-3.321-.27,3.31,3.31,0,0,1-1.521-.65,3.187,3.187,0,0,1-.9-1.37c-.079-.2-.152-.383-.218-.544a2.647,2.647,0,0,1-.219-1.441v-66.144l.662-.119a21.438,21.438,0,0,1,3.746-.33" transform="translate(3121.2 1892.975)"/>
        </g>
      </g>
      <g id="Group_18" data-name="Group 18" transform="translate(146.881 23.307)">
        <g id="Group_17" data-name="Group 17">
          <path id="Path_9" data-name="Path 9" d="M-2643.913-1784.541c6.61,0,11.689,1.538,15.1,4.57,3.349,2.983,4.979,7.091,4.979,12.559v30.065c-.153.025-.316.051-.488.077a25.989,25.989,0,0,1-3.918.288,18.131,18.131,0,0,1-3.321-.27,3.281,3.281,0,0,1-1.522-.648,3.166,3.166,0,0,1-.9-1.371c-.079-.206-.151-.383-.217-.545a2.636,2.636,0,0,1-.219-1.44v-25.506c0-3.126-.92-5.547-2.735-7.2a9.7,9.7,0,0,0-6.75-2.364,17.512,17.512,0,0,0-4.729.654,12.584,12.584,0,0,0-4.363,2.16l-1.184.926v35.24q-.226.038-.487.077a25.974,25.974,0,0,1-3.917.288,18.129,18.129,0,0,1-3.321-.27,3.279,3.279,0,0,1-1.521-.648,3.179,3.179,0,0,1-.9-1.371c-.079-.206-.15-.384-.218-.545a2.631,2.631,0,0,1-.219-1.44v-32.424a6.036,6.036,0,0,1,.675-3.137,9.6,9.6,0,0,1,2.368-2.532,24.227,24.227,0,0,1,7.476-3.716,34.03,34.03,0,0,1,10.344-1.476" transform="translate(2664.776 1784.541)"/>
        </g>
      </g>
      <g id="Group_19" data-name="Group 19" transform="translate(0 23.79)">
        <path id="Path_10" data-name="Path 10" d="M-3329.637-1782.3a33.4,33.4,0,0,1,8.678,1.053,17.433,17.433,0,0,1,6.225,2.99,12.53,12.53,0,0,1,3.76,4.86,17.944,17.944,0,0,1,1.367,7.346v23.724l0,.063a3.117,3.117,0,0,1-.719,2.435,9.586,9.586,0,0,1-4.561,3.25l-.136.042-.134.053c-2.063.84-6.867,1.744-12.54,1.744a54.674,54.674,0,0,1-10.058-.925c-4.974-1.168-6.973-2.511-9.148-6.171a14.382,14.382,0,0,1-1.23-6.154c0-4.038.994-6.985,3.037-9.007,2.117-2.1,5.623-3.437,10.42-3.989l12.615-1.478,2.724-.319v-3.482a7.683,7.683,0,0,0-4.079-7.1,17.989,17.989,0,0,0-8.534-1.686,33.3,33.3,0,0,0-7.858.934,41.826,41.826,0,0,0-4.616,1.4c-.072-.136-.145-.285-.215-.449a6.807,6.807,0,0,1-.6-2.818,4.346,4.346,0,0,1,.607-2.558,6.4,6.4,0,0,1,2.464-1.8,24.114,24.114,0,0,1,5.778-1.459,49.38,49.38,0,0,1,6.755-.5m.121,26.171a13,13,0,0,0-5.771,1.707,6.549,6.549,0,0,0-3.21,5.8,7.44,7.44,0,0,0,2.531,5.74c1.59,1.41,3.914,2.094,7.1,2.094a22.816,22.816,0,0,0,4.178-.421,11.1,11.1,0,0,0,4.063-1.455l1.391-.913v-13.488l-3.362.307-6.917.631" transform="translate(3348.131 1782.296)"/>
      </g>
      <g id="Group_20" data-name="Group 20" transform="translate(98.104 23.79)">
        <path id="Path_11" data-name="Path 11" d="M-2873.213-1782.3a33.393,33.393,0,0,1,8.676,1.053,17.436,17.436,0,0,1,6.226,2.99,12.538,12.538,0,0,1,3.76,4.86,17.921,17.921,0,0,1,1.366,7.346v23.724l0,.063a3.12,3.12,0,0,1-.719,2.435,9.586,9.586,0,0,1-4.563,3.25l-.134.042-.133.053c-2.064.84-6.869,1.744-12.542,1.744a54.684,54.684,0,0,1-10.057-.925c-4.974-1.168-6.971-2.511-9.146-6.171a14.35,14.35,0,0,1-1.23-6.154c0-4.038.994-6.985,3.035-9.007,2.119-2.1,5.622-3.437,10.421-3.989l12.614-1.478,2.724-.319v-3.482a7.686,7.686,0,0,0-4.079-7.1,18,18,0,0,0-8.538-1.686,33.315,33.315,0,0,0-7.856.934,41.753,41.753,0,0,0-4.616,1.4c-.072-.136-.142-.285-.216-.449a6.838,6.838,0,0,1-.6-2.818,4.369,4.369,0,0,1,.607-2.558,6.4,6.4,0,0,1,2.465-1.8,24.108,24.108,0,0,1,5.779-1.459,49.333,49.333,0,0,1,6.753-.5m.119,26.171a13.01,13.01,0,0,0-5.772,1.707,6.559,6.559,0,0,0-3.21,5.8,7.438,7.438,0,0,0,2.531,5.74c1.592,1.41,3.913,2.094,7.1,2.094a22.815,22.815,0,0,0,4.18-.421,11.082,11.082,0,0,0,4.059-1.455l1.393-.913v-13.488l-3.362.307-6.919.631" transform="translate(2891.706 1782.296)"/>
      </g>
      <g id="Group_21" data-name="Group 21" transform="translate(196.214 23.79)">
        <path id="Path_12" data-name="Path 12" d="M-2416.768-1782.3a33.38,33.38,0,0,1,8.677,1.053,17.434,17.434,0,0,1,6.229,2.99,12.545,12.545,0,0,1,3.759,4.86,17.924,17.924,0,0,1,1.367,7.346v23.724l0,.063a3.119,3.119,0,0,1-.72,2.435,9.584,9.584,0,0,1-4.559,3.25l-.138.042-.13.053c-2.065.84-6.87,1.744-12.542,1.744a54.721,54.721,0,0,1-10.061-.925c-4.972-1.168-6.969-2.511-9.145-6.171a14.346,14.346,0,0,1-1.229-6.154c0-4.038.992-6.985,3.034-9.007,2.119-2.1,5.622-3.437,10.421-3.989l12.617-1.478,2.721-.319v-3.482a7.679,7.679,0,0,0-4.079-7.1,18,18,0,0,0-8.534-1.686,33.3,33.3,0,0,0-7.858.934,41.814,41.814,0,0,0-4.616,1.4c-.07-.136-.142-.285-.216-.449a6.8,6.8,0,0,1-.6-2.818,4.357,4.357,0,0,1,.606-2.558,6.388,6.388,0,0,1,2.467-1.8,24.075,24.075,0,0,1,5.778-1.459,49.312,49.312,0,0,1,6.751-.5m.124,26.171a13.007,13.007,0,0,0-5.774,1.707,6.552,6.552,0,0,0-3.208,5.8,7.44,7.44,0,0,0,2.53,5.74c1.591,1.41,3.913,2.094,7.1,2.094a22.8,22.8,0,0,0,4.178-.421,11.1,11.1,0,0,0,4.062-1.455l1.392-.913v-13.488l-3.363.307-6.915.631" transform="translate(2435.258 1782.296)"/>
      </g>
    </g>
    <g id="Group_23" data-name="Group 23">
      <ellipse id="Ellipse_60" data-name="Ellipse 60" cx="4.97" cy="4.97" rx="4.97" ry="4.97" transform="translate(59.686 47.058)" fill="#ff8000"/>
      <ellipse id="Ellipse_61" data-name="Ellipse 61" cx="5.352" cy="5.352" rx="5.352" ry="5.352" transform="translate(66.955 31.372)" fill="#ff8000"/>
      <ellipse id="Ellipse_62" data-name="Ellipse 62" cx="5.352" cy="5.352" rx="5.352" ry="5.352" transform="translate(51.651 31.372)" fill="#ff8000"/>
      <ellipse id="Ellipse_63" data-name="Ellipse 63" cx="3.441" cy="3.441" rx="3.441" ry="3.441" transform="translate(0 109.802)" fill="#ff8000"/>
      <ellipse id="Ellipse_64" data-name="Ellipse 64" cx="3.441" cy="3.441" rx="3.441" ry="3.441" transform="translate(15.304 109.802)" fill="#ff8000"/>
      <ellipse id="Ellipse_65" data-name="Ellipse 65" cx="3.441" cy="3.441" rx="3.441" ry="3.441" transform="translate(30.607 109.802)" fill="#ff8000"/>
      <ellipse id="Ellipse_66" data-name="Ellipse 66" cx="3.823" cy="3.823" rx="3.823" ry="3.823" transform="translate(7.27 94.116)" fill="#ff8000"/>
      <ellipse id="Ellipse_67" data-name="Ellipse 67" cx="3.823" cy="3.823" rx="3.823" ry="3.823" transform="translate(22.573 94.116)" fill="#ff8000"/>
      <ellipse id="Ellipse_68" data-name="Ellipse 68" cx="3.823" cy="3.823" rx="3.823" ry="3.823" transform="translate(37.877 94.116)" fill="#ff8000"/>
      <ellipse id="Ellipse_69" data-name="Ellipse 69" cx="4.205" cy="4.205" rx="4.205" ry="4.205" transform="translate(14.539 78.43)" fill="#ff8000"/>
      <ellipse id="Ellipse_70" data-name="Ellipse 70" cx="4.205" cy="4.205" rx="4.205" ry="4.205" transform="translate(29.843 78.43)" fill="#ff8000"/>
      <ellipse id="Ellipse_71" data-name="Ellipse 71" cx="4.205" cy="4.205" rx="4.205" ry="4.205" transform="translate(45.146 78.43)" fill="#ff8000"/>
      <ellipse id="Ellipse_72" data-name="Ellipse 72" cx="4.587" cy="4.587" rx="4.587" ry="4.587" transform="translate(21.809 62.744)" fill="#ff8000"/>
      <ellipse id="Ellipse_73" data-name="Ellipse 73" cx="4.587" cy="4.587" rx="4.587" ry="4.587" transform="translate(37.112 62.744)" fill="#ff8000"/>
      <ellipse id="Ellipse_74" data-name="Ellipse 74" cx="4.587" cy="4.587" rx="4.587" ry="4.587" transform="translate(52.416 62.744)" fill="#ff8000"/>
      <ellipse id="Ellipse_75" data-name="Ellipse 75" cx="4.97" cy="4.97" rx="4.97" ry="4.97" transform="translate(29.078 47.058)" fill="#ff8000"/>
      <ellipse id="Ellipse_76" data-name="Ellipse 76" cx="4.97" cy="4.97" rx="4.97" ry="4.97" transform="translate(44.382 47.058)" fill="#ff8000"/>
      <ellipse id="Ellipse_77" data-name="Ellipse 77" cx="5.352" cy="5.352" rx="5.352" ry="5.352" transform="translate(36.348 31.372)" fill="#ff8000"/>
      <ellipse id="Ellipse_78" data-name="Ellipse 78" cx="5.734" cy="5.734" rx="5.734" ry="5.734" transform="translate(43.617 15.686)" fill="#ff8000"/>
      <ellipse id="Ellipse_79" data-name="Ellipse 79" cx="5.734" cy="5.734" rx="5.734" ry="5.734" transform="translate(58.921 15.686)" fill="#ff8000"/>
      <ellipse id="Ellipse_80" data-name="Ellipse 80" cx="5.734" cy="5.734" rx="5.734" ry="5.734" transform="translate(74.225 15.686)" fill="#ff8000"/>
      <ellipse id="Ellipse_81" data-name="Ellipse 81" cx="6.117" cy="6.117" rx="6.117" ry="6.117" transform="translate(50.887)" fill="#ff8000"/>
      <ellipse id="Ellipse_82" data-name="Ellipse 82" cx="6.117" cy="6.117" rx="6.117" ry="6.117" transform="translate(66.19)" fill="#ff8000"/>
      <ellipse id="Ellipse_83" data-name="Ellipse 83" cx="3.441" cy="3.441" rx="3.441" ry="3.441" transform="translate(122.429 109.802)" fill="#db1600"/>
      <ellipse id="Ellipse_84" data-name="Ellipse 84" cx="3.441" cy="3.441" rx="3.441" ry="3.441" transform="translate(107.126 109.802)" fill="#6826ff"/>
      <ellipse id="Ellipse_85" data-name="Ellipse 85" cx="3.441" cy="3.441" rx="3.441" ry="3.441" transform="translate(91.822 109.802)" fill="#1950ff"/>
      <ellipse id="Ellipse_86" data-name="Ellipse 86" cx="3.823" cy="3.823" rx="3.823" ry="3.823" transform="translate(114.395 94.116)" fill="#db1600"/>
      <ellipse id="Ellipse_87" data-name="Ellipse 87" cx="3.823" cy="3.823" rx="3.823" ry="3.823" transform="translate(99.092 94.116)" fill="#6826ff"/>
      <ellipse id="Ellipse_88" data-name="Ellipse 88" cx="3.823" cy="3.823" rx="3.823" ry="3.823" transform="translate(83.788 94.116)" fill="#1950ff"/>
      <ellipse id="Ellipse_89" data-name="Ellipse 89" cx="4.205" cy="4.205" rx="4.205" ry="4.205" transform="translate(106.361 78.43)" fill="#db1600"/>
      <ellipse id="Ellipse_90" data-name="Ellipse 90" cx="4.205" cy="4.205" rx="4.205" ry="4.205" transform="translate(91.057 78.43)" fill="#6826ff"/>
      <ellipse id="Ellipse_91" data-name="Ellipse 91" cx="4.205" cy="4.205" rx="4.205" ry="4.205" transform="translate(75.754 78.43)" fill="#1950ff"/>
      <ellipse id="Ellipse_92" data-name="Ellipse 92" cx="4.587" cy="4.587" rx="4.587" ry="4.587" transform="translate(98.327 62.744)" fill="#db1600"/>
      <ellipse id="Ellipse_93" data-name="Ellipse 93" cx="4.587" cy="4.587" rx="4.587" ry="4.587" transform="translate(83.023 62.744)" fill="#6826ff"/>
      <ellipse id="Ellipse_94" data-name="Ellipse 94" cx="4.587" cy="4.587" rx="4.587" ry="4.587" transform="translate(67.72 62.744)" fill="#1950ff"/>
      <ellipse id="Ellipse_95" data-name="Ellipse 95" cx="4.97" cy="4.97" rx="4.97" ry="4.97" transform="translate(90.293 47.058)" fill="#db1600"/>
      <ellipse id="Ellipse_96" data-name="Ellipse 96" cx="4.97" cy="4.97" rx="4.97" ry="4.97" transform="translate(74.989 47.058)" fill="#6826ff"/>
      <ellipse id="Ellipse_97" data-name="Ellipse 97" cx="5.352" cy="5.352" rx="5.352" ry="5.352" transform="translate(82.259 31.372)" fill="#db1600"/>
    </g>
  </g>
  <g id="Group_25" data-name="Group 25" transform="translate(387.345 34.166)">
    <path id="Path_13" data-name="Path 13" d="M-2251.166-1805.559h-1.081v-4.4h-1.652v-.93h4.333v.93h-1.6Zm3.253,0h-1.015v-5.329h1.691l.962,3.677.97-3.677h1.692v5.329h-1.027v-4.249l-1.159,4.249h-.969l-1.145-4.249Z" transform="translate(2253.899 1810.888)"/>
  </g>
</svg>
