<svg xmlns="http://www.w3.org/2000/svg" width="311" height="120.879" viewBox="0 0 311 120.879">
  <g id="Group_406" data-name="Group 406" transform="translate(0 -0.007)">
    <path id="Path_451" data-name="Path 451" d="M178,2.3c-6,3-8.6,8.6-8.6,23.8a23.882,23.882,0,0,1,7.8-4.8A31.872,31.872,0,0,0,185,17c5.2-3.9,6-8.6,6-16.8C190.9.2,182.7-.3,178,2.3Z" fill="#fbbd71"/>
    <path id="Path_452" data-name="Path 452" d="M141.3,5.8c-5.2,4.3-6.5,11.7-6.5,11.7L118,81.9,104.2,29.2c-1.3-5.6-3.9-12.5-7.8-17.3-4.8-6.1-14.8-6.5-16-6.5-.9,0-10.8.4-16,6.5-3.9,4.8-6.5,11.7-7.8,17.3l-13,52.7L26.8,17.5A23.689,23.689,0,0,0,20.3,5.8C12.1-1.6,0,.2,0,.2L32,120.7s10.4.9,15.6-1.7c6.9-3.5,10.4-6,14.3-22.5C65.8,81.8,76.2,39,77,36c.4-1.3,1.3-5.2,3.9-5.2s3.5,3.5,3.9,5.2c.9,3,11.2,45.8,15.1,60.5,4.3,16.4,7.3,19,14.3,22.5,5.2,2.6,15.6,1.7,15.6,1.7L161.6.2S149.5-1.5,141.3,5.8Z"/>
    <path id="Path_453" data-name="Path 453" d="M190.9,19.6a24.048,24.048,0,0,1-6.5,5.6c-3,1.7-5.6,2.6-8.6,4.3-5.2,2.6-6.5,5.2-6.5,9.1v7.8h0v73.9s8.2.9,13.4-1.7c6.9-3.5,8.2-6.9,8.2-21.6V24.4h0V19.6Z"/>
    <path id="Path_454" data-name="Path 454" d="M270.4,60.7,311,.6s-16.8-3-25.5,4.8c-5.6,4.8-11.2,13.8-11.2,13.8L259.6,40.8c-.9,1.3-1.7,2.2-3,2.2a3.9,3.9,0,0,1-3-2.2L238.9,19.2A125.4,125.4,0,0,0,227.7,5.4C219.1-2.4,202.2.6,202.2.6l39.3,60-40.2,60s17.7,2.2,26.4-5.6c5.6-4.8,10.8-13,10.8-13l14.7-21.6c.9-1.3,1.7-2.2,3-2.2a3.9,3.9,0,0,1,3,2.2L273.9,102s5.6,8.2,10.8,13c8.6,7.8,25.9,5.6,25.9,5.6Z"/>
  </g>
</svg>
