<svg xmlns="http://www.w3.org/2000/svg" width="2436.615" height="425.676" viewBox="0 0 2436.615 425.676">
  <g id="Group_405" data-name="Group 405" transform="translate(260.615 -4934)">
    <g id="Group_370" data-name="Group 370" transform="translate(2283.354 5359.676) rotate(180)" opacity="0.148">
      <circle id="Ellipse_154" data-name="Ellipse 154" cx="22.218" cy="22.218" r="22.218" transform="translate(344.499 31.421) rotate(-45)" fill="#fff"/>
      <circle id="Ellipse_155" data-name="Ellipse 155" cx="24.683" cy="24.683" r="24.683" transform="translate(402.09 92.503) rotate(-45)" fill="#fff"/>
      <circle id="Ellipse_156" data-name="Ellipse 156" cx="27.148" cy="27.148" r="27.148" transform="translate(459.679 153.59) rotate(-45)" fill="#fff"/>
      <circle id="Ellipse_157" data-name="Ellipse 157" cx="29.613" cy="29.613" r="29.613" transform="translate(517.211 214.601) rotate(-45)" fill="#fff"/>
      <circle id="Ellipse_158" data-name="Ellipse 158" cx="19.753" cy="19.753" r="19.753" transform="translate(225.893 31.421) rotate(-45)" fill="#fff"/>
      <circle id="Ellipse_159" data-name="Ellipse 159" cx="22.218" cy="22.218" r="22.218" transform="translate(283.483 92.503) rotate(-45)" fill="#fff"/>
      <circle id="Ellipse_160" data-name="Ellipse 160" cx="24.683" cy="24.683" r="24.683" transform="translate(341.017 153.523) rotate(-45)" fill="#fff"/>
      <circle id="Ellipse_161" data-name="Ellipse 161" cx="27.148" cy="27.148" r="27.148" transform="translate(398.582 214.569) rotate(-45)" fill="#fff"/>
      <circle id="Ellipse_162" data-name="Ellipse 162" cx="29.613" cy="29.613" r="29.613" transform="translate(456.186 275.685) rotate(-45)" fill="#fff"/>
      <circle id="Ellipse_163" data-name="Ellipse 163" cx="17.288" cy="17.288" r="17.288" transform="translate(107.354 31.492) rotate(-45)" fill="#fff"/>
      <circle id="Ellipse_164" data-name="Ellipse 164" cx="19.753" cy="19.753" r="19.753" transform="translate(164.849 92.467) rotate(-45)" fill="#fff"/>
      <circle id="Ellipse_165" data-name="Ellipse 165" cx="22.218" cy="22.218" r="22.218" transform="translate(222.47 153.587) rotate(-45)" fill="#fff"/>
      <circle id="Ellipse_166" data-name="Ellipse 166" cx="24.683" cy="24.683" r="24.683" transform="translate(280.027 214.629) rotate(-45)" fill="#fff"/>
      <circle id="Ellipse_167" data-name="Ellipse 167" cx="27.148" cy="27.148" r="27.148" transform="translate(337.586 275.691) rotate(-45)" fill="#fff"/>
      <circle id="Ellipse_168" data-name="Ellipse 168" cx="29.613" cy="29.613" r="29.613" transform="translate(395.1 336.66) rotate(-45)" fill="#fff"/>
      <g id="Group_120" data-name="Group 120" transform="translate(112.018 247.663)">
        <circle id="Ellipse_169" data-name="Ellipse 169" cx="19.753" cy="19.753" r="19.753" transform="translate(113.884 27.935) rotate(-45)" fill="#fff"/>
        <ellipse id="Ellipse_170" data-name="Ellipse 170" cx="19.753" cy="19.753" rx="19.753" ry="19.753" transform="translate(61.026 69.224)" fill="#fff"/>
        <ellipse id="Ellipse_171" data-name="Ellipse 171" cx="19.753" cy="19.753" rx="19.753" ry="19.753" transform="translate(0 130.314)" fill="#fff"/>
        <ellipse id="Ellipse_172" data-name="Ellipse 172" cx="19.753" cy="19.753" rx="19.753" ry="19.753" transform="translate(122.072 130.279)" fill="#fff"/>
        <circle id="Ellipse_173" data-name="Ellipse 173" cx="19.753" cy="19.753" r="19.753" transform="translate(235.994 150.078) rotate(-45)" fill="#fff"/>
        <circle id="Ellipse_174" data-name="Ellipse 174" cx="19.753" cy="19.753" r="19.753" transform="translate(174.927 88.976) rotate(-45)" fill="#fff"/>
      </g>
    </g>
    <g id="Group_371" data-name="Group 371" transform="translate(-367.97 4934)" opacity="0.148">
      <circle id="Ellipse_154-2" data-name="Ellipse 154" cx="22.218" cy="22.218" r="22.218" transform="translate(344.499 31.421) rotate(-45)" fill="#fff"/>
      <circle id="Ellipse_155-2" data-name="Ellipse 155" cx="24.683" cy="24.683" r="24.683" transform="translate(402.09 92.503) rotate(-45)" fill="#fff"/>
      <circle id="Ellipse_156-2" data-name="Ellipse 156" cx="27.148" cy="27.148" r="27.148" transform="translate(459.679 153.59) rotate(-45)" fill="#fff"/>
      <circle id="Ellipse_157-2" data-name="Ellipse 157" cx="29.613" cy="29.613" r="29.613" transform="translate(517.211 214.601) rotate(-45)" fill="#fff"/>
      <circle id="Ellipse_158-2" data-name="Ellipse 158" cx="19.753" cy="19.753" r="19.753" transform="translate(225.893 31.421) rotate(-45)" fill="#fff"/>
      <circle id="Ellipse_159-2" data-name="Ellipse 159" cx="22.218" cy="22.218" r="22.218" transform="translate(283.483 92.503) rotate(-45)" fill="#fff"/>
      <circle id="Ellipse_160-2" data-name="Ellipse 160" cx="24.683" cy="24.683" r="24.683" transform="translate(341.017 153.523) rotate(-45)" fill="#fff"/>
      <circle id="Ellipse_161-2" data-name="Ellipse 161" cx="27.148" cy="27.148" r="27.148" transform="translate(398.582 214.569) rotate(-45)" fill="#fff"/>
      <circle id="Ellipse_162-2" data-name="Ellipse 162" cx="29.613" cy="29.613" r="29.613" transform="translate(456.186 275.685) rotate(-45)" fill="#fff"/>
      <circle id="Ellipse_163-2" data-name="Ellipse 163" cx="17.288" cy="17.288" r="17.288" transform="translate(107.354 31.492) rotate(-45)" fill="#fff"/>
      <circle id="Ellipse_164-2" data-name="Ellipse 164" cx="19.753" cy="19.753" r="19.753" transform="translate(164.849 92.467) rotate(-45)" fill="#fff"/>
      <circle id="Ellipse_165-2" data-name="Ellipse 165" cx="22.218" cy="22.218" r="22.218" transform="translate(222.47 153.587) rotate(-45)" fill="#fff"/>
      <circle id="Ellipse_166-2" data-name="Ellipse 166" cx="24.683" cy="24.683" r="24.683" transform="translate(280.027 214.629) rotate(-45)" fill="#fff"/>
      <circle id="Ellipse_167-2" data-name="Ellipse 167" cx="27.148" cy="27.148" r="27.148" transform="translate(337.586 275.691) rotate(-45)" fill="#fff"/>
      <circle id="Ellipse_168-2" data-name="Ellipse 168" cx="29.613" cy="29.613" r="29.613" transform="translate(395.1 336.66) rotate(-45)" fill="#fff"/>
      <g id="Group_120-2" data-name="Group 120" transform="translate(112.018 247.663)">
        <circle id="Ellipse_169-2" data-name="Ellipse 169" cx="19.753" cy="19.753" r="19.753" transform="translate(113.884 27.935) rotate(-45)" fill="#fff"/>
        <ellipse id="Ellipse_170-2" data-name="Ellipse 170" cx="19.753" cy="19.753" rx="19.753" ry="19.753" transform="translate(61.026 69.224)" fill="#fff"/>
        <ellipse id="Ellipse_171-2" data-name="Ellipse 171" cx="19.753" cy="19.753" rx="19.753" ry="19.753" transform="translate(0 130.314)" fill="#fff"/>
        <ellipse id="Ellipse_172-2" data-name="Ellipse 172" cx="19.753" cy="19.753" rx="19.753" ry="19.753" transform="translate(122.072 130.279)" fill="#fff"/>
        <circle id="Ellipse_173-2" data-name="Ellipse 173" cx="19.753" cy="19.753" r="19.753" transform="translate(235.994 150.078) rotate(-45)" fill="#fff"/>
        <circle id="Ellipse_174-2" data-name="Ellipse 174" cx="19.753" cy="19.753" r="19.753" transform="translate(174.927 88.976) rotate(-45)" fill="#fff"/>
      </g>
    </g>
  </g>
</svg>
