<?xml version="1.0" encoding="UTF-8" standalone="no"?>
<!-- Created with Keyshape -->
<svg xmlns="http://www.w3.org/2000/svg" id="_a0" viewBox="0 0 420 420" text-rendering="geometricPrecision" shape-rendering="geometricPrecision" style="white-space: pre;">
    <style>
@keyframes a0_t { 0% { transform: translate(209.317px,209.317px) rotate(-90deg); animation-timing-function: cubic-bezier(0,0,0,1); } 100% { transform: translate(209.317px,209.317px) rotate(0deg); } }
@keyframes a0_s { 0% { stroke: rgba(56,219,252,0.00); } 100% { stroke: #38dbfc; } }
@keyframes Group_310_o { 0% { opacity: 0; } 100% { opacity: 1; } }
@keyframes Group_310-2_o { 0% { opacity: 0; } 100% { opacity: 1; } }
    </style>
    <g id="Ellipse_302" data-name="Ellipse 302" fill="none" stroke="#38dbfc" stroke-linecap="round" stroke-linejoin="round" stroke-width="11" stroke-dasharray="1 21" transform="translate(209.317,209.317) translate(-209.317,-209.317)">
        <ellipse fill="none" rx="203.817" ry="203.817" stroke-dashoffset="-600" stroke-dasharray="1 31" stroke="rgba(56,219,252,0.00)" transform="translate(209.317,209.317) rotate(-90)" style="animation: 1.433s linear both a0_t, 1.433s linear both a0_s; animation-play-state: paused"/>
    </g>
    <g id="Group_310" data-name="Group 310" opacity="0" transform="translate(222.542,209.317) translate(-147.709,-91.911)" style="animation: 1.433s linear both Group_310_o; animation-play-state: paused">
        <rect id="Rectangle_84" data-name="Rectangle 84" width="26.257" height="39.388" rx="1.667" fill="none" stroke="#5d88d6" stroke-linecap="round" stroke-miterlimit="10" stroke-width="6" transform="translate(65.6475,19.696) translate(-13.1285,-19.694)"/>
        <path id="Path_322" data-name="Path 322" d="M631.54,2128.78L631.54,2095.96C631.538,2092.33,628.6,2089.4,624.977,2089.4L611.847,2089.4C610.107,2089.4,608.438,2090.09,607.207,2091.32C605.976,2092.55,605.284,2094.22,605.284,2095.96L605.284,2109.09" fill="none" stroke="#5d88d6" stroke-linecap="round" stroke-miterlimit="10" stroke-width="6" transform="translate(249.469,19.6955) translate(-618.412,-2109.09)"/>
        <path id="Path_323" data-name="Path 323" d="M608.2,2109.09L608.2,2095.96C608.2,2094.22,607.509,2092.55,606.278,2091.32C605.047,2090.09,603.378,2089.4,601.637,2089.4L588.5,2089.4C586.759,2089.4,585.09,2090.09,583.859,2091.32C582.628,2092.55,581.937,2094.22,581.937,2095.96L581.937,2128.78" fill="none" stroke="#5d88d6" stroke-linecap="round" stroke-miterlimit="10" stroke-width="6" transform="translate(157.559,19.6935) translate(-595.069,-2109.09)"/>
        <path id="Line_1" data-name="Line 1" fill="none" stroke="#5d88d6" stroke-linecap="round" stroke-miterlimit="10" stroke-width="6" d="M0,0L0,39.389" transform="translate(111.603,19.6945) translate(0,-19.6945)"/>
        <path id="Line_2" data-name="Line 2" fill="none" stroke="#5d88d6" stroke-linecap="round" stroke-miterlimit="10" stroke-width="6" d="M0,0L0,13.131" transform="translate(203.512,6.5655) translate(0,-6.5655)"/>
        <path id="Line_3" data-name="Line 3" fill="none" stroke="#5d88d6" stroke-linecap="round" stroke-miterlimit="10" stroke-width="6" d="M0,0L0,39.389" transform="translate(0,164.124) translate(0,-19.6945)"/>
        <path id="Rectangle_85" data-name="Rectangle 85" d="M1.667,0L24.589,0C25.5102,0,26.257,0.746789,26.257,1.668L26.257,37.721C26.257,38.1631,26.0814,38.5871,25.7687,38.8997C25.4561,39.2124,25.0321,39.388,24.59,39.388L1.667,39.388C1.22488,39.388,0.800876,39.2124,0.488253,38.8997C0.17563,38.5871,0,38.1631,0,37.721L0,1.667C0,0.746341,0.746341,0,1.667,0Z" fill="none" stroke="#5d88d6" stroke-linecap="round" stroke-miterlimit="10" stroke-width="6" transform="translate(13.1305,19.696) translate(-13.1285,-19.694)"/>
        <path id="Rectangle_86" data-name="Rectangle 86" d="M1.667,0L24.589,0C25.5102,0,26.257,0.746789,26.257,1.668L26.257,37.721C26.257,38.1631,26.0814,38.5871,25.7687,38.8997C25.4561,39.2124,25.0321,39.388,24.59,39.388L1.667,39.388C1.22488,39.388,0.800876,39.2124,0.488253,38.8997C0.17563,38.5871,0,38.1631,0,37.721L0,1.667C0,0.746341,0.746341,0,1.667,0Z" fill="none" stroke="#5d88d6" stroke-linecap="round" stroke-miterlimit="10" stroke-width="6" transform="translate(13.1305,91.91) translate(-13.1285,-19.694)"/>
        <rect id="Rectangle_87" data-name="Rectangle 87" width="26.257" height="39.388" rx="1.667" fill="none" stroke="#5d88d6" stroke-linecap="round" stroke-miterlimit="10" stroke-width="6" transform="translate(98.4725,91.91) translate(-13.1285,-19.694)"/>
        <path id="Line_4" data-name="Line 4" fill="none" stroke="#5d88d6" stroke-linecap="round" stroke-miterlimit="10" stroke-width="6" d="M0,0L0,39.389" transform="translate(52.518,91.9085) translate(0,-19.6945)"/>
        <path id="Rectangle_88" data-name="Rectangle 88" d="M1.667,0L24.589,0C25.5102,0,26.257,0.746789,26.257,1.668L26.257,37.721C26.257,38.1631,26.0814,38.5871,25.7687,38.8997C25.4561,39.2124,25.0321,39.388,24.59,39.388L1.667,39.388C1.22488,39.388,0.800876,39.2124,0.488253,38.8997C0.17563,38.5871,0,38.1631,0,37.721L0,1.667C0,0.746341,0.746341,0,1.667,0Z" fill="none" stroke="#5d88d6" stroke-linecap="round" stroke-miterlimit="10" stroke-width="6" transform="translate(45.9525,164.124) translate(-13.1285,-19.694)"/>
        <path id="Path_324" data-name="Path 324" d="M626.541,2131.08L626.541,2144.21C626.541,2147.83,623.603,2150.77,619.978,2150.78L606.847,2150.78C603.22,2150.77,600.281,2147.83,600.28,2144.21L600.28,2137.64" fill="none" stroke="#5d88d6" stroke-linecap="round" stroke-miterlimit="10" stroke-width="6" transform="translate(229.772,173.977) translate(-613.41,-2140.93)"/>
        <path id="Path_325" data-name="Path 325" d="M611.531,2142.55L611.531,2149.11C611.529,2152.74,608.593,2155.68,604.968,2155.68L591.837,2155.68C588.212,2155.68,585.274,2152.74,585.274,2149.11L585.274,2129.41" fill="none" stroke="#5d88d6" stroke-linecap="round" stroke-miterlimit="10" stroke-width="6" transform="translate(170.688,170.688) translate(-598.402,-2142.55)"/>
        <path id="Line_5" data-name="Line 5" fill="none" stroke="#5d88d6" stroke-linecap="round" stroke-miterlimit="10" stroke-width="6" d="M0,0L0,39.389" transform="translate(91.907,164.124) translate(0,-19.6945)"/>
        <path id="Line_6" data-name="Line 6" fill="none" stroke="#5d88d6" stroke-linecap="round" stroke-miterlimit="10" stroke-width="6" d="M0,0L0,39.389" transform="translate(124.733,164.124) translate(0,-19.6945)"/>
        <path id="Path_326" data-name="Path 326" d="M700.107,2156.82C700.106,2189.45,673.652,2215.9,641.021,2215.9C608.39,2215.9,581.938,2189.45,581.939,2156.82C581.94,2124.18,608.394,2097.73,641.025,2097.73C673.656,2097.74,700.107,2124.19,700.107,2156.82Z" fill="none" stroke="#5d88d6" stroke-linecap="round" stroke-miterlimit="10" stroke-width="6" transform="translate(203.513,91.908) translate(-641.023,-2156.82)"/>
        <rect id="Rectangle_89" data-name="Rectangle 89" width="26.257" height="39.388" rx="1.667" fill="none" stroke="#5d88d6" stroke-linecap="round" stroke-miterlimit="10" stroke-width="6" transform="translate(190.381,91.91) translate(-13.1285,-19.694)"/>
        <path id="Line_7" data-name="Line 7" fill="none" stroke="#5d88d6" stroke-linecap="round" stroke-miterlimit="10" stroke-width="6" d="M0,0L0,39.389" transform="translate(229.772,91.9085) translate(0,-19.6945)"/>
        <path id="Line_8" data-name="Line 8" fill="none" stroke="#5d88d6" stroke-linecap="round" stroke-miterlimit="10" stroke-width="6" d="M0,0L50.129,50.129" transform="translate(270.354,158.753) translate(-25.0645,-25.0645)"/>
    </g>
    <g id="Group_310-2" data-name="Group 310" opacity="0" transform="translate(222.542,209.317) translate(-147.709,-91.911)" style="animation: 1.433s linear both Group_310-2_o; animation-play-state: paused">
        <rect id="Rectangle_84-2" data-name="Rectangle 84" width="26.257" height="39.388" rx="1.667" fill="none" stroke="#5d88d6" stroke-linecap="round" stroke-miterlimit="10" stroke-width="6" transform="translate(65.6475,19.696) translate(-13.1285,-19.694)"/>
        <path id="Path_322-2" data-name="Path 322" d="M631.54,2128.78L631.54,2095.96C631.538,2092.33,628.6,2089.4,624.977,2089.4L611.847,2089.4C610.107,2089.4,608.438,2090.09,607.207,2091.32C605.976,2092.55,605.284,2094.22,605.284,2095.96L605.284,2109.09" fill="none" stroke="#5d88d6" stroke-linecap="round" stroke-miterlimit="10" stroke-width="6" transform="translate(249.469,19.6955) translate(-618.412,-2109.09)"/>
        <path id="Path_323-2" data-name="Path 323" d="M608.2,2109.09L608.2,2095.96C608.2,2094.22,607.509,2092.55,606.278,2091.32C605.047,2090.09,603.378,2089.4,601.637,2089.4L588.5,2089.4C586.759,2089.4,585.09,2090.09,583.859,2091.32C582.628,2092.55,581.937,2094.22,581.937,2095.96L581.937,2128.78" fill="none" stroke="#5d88d6" stroke-linecap="round" stroke-miterlimit="10" stroke-width="6" transform="translate(157.559,19.6935) translate(-595.069,-2109.09)"/>
        <path id="Line_1-2" data-name="Line 1" fill="none" stroke="#5d88d6" stroke-linecap="round" stroke-miterlimit="10" stroke-width="6" d="M0,0L0,39.389" transform="translate(111.603,19.6945) translate(0,-19.6945)"/>
        <path id="Line_2-2" data-name="Line 2" fill="none" stroke="#5d88d6" stroke-linecap="round" stroke-miterlimit="10" stroke-width="6" d="M0,0L0,13.131" transform="translate(203.512,6.5655) translate(0,-6.5655)"/>
        <path id="Line_3-2" data-name="Line 3" fill="none" stroke="#5d88d6" stroke-linecap="round" stroke-miterlimit="10" stroke-width="6" d="M0,0L0,39.389" transform="translate(0,164.124) translate(0,-19.6945)"/>
        <path id="Rectangle_85-2" data-name="Rectangle 85" d="M1.667,0L24.589,0C25.5102,0,26.257,0.746789,26.257,1.668L26.257,37.721C26.257,38.1631,26.0814,38.5871,25.7687,38.8997C25.4561,39.2124,25.0321,39.388,24.59,39.388L1.667,39.388C1.22488,39.388,0.800876,39.2124,0.488253,38.8997C0.17563,38.5871,0,38.1631,0,37.721L0,1.667C0,0.746341,0.746341,0,1.667,0Z" fill="none" stroke="#5d88d6" stroke-linecap="round" stroke-miterlimit="10" stroke-width="6" transform="translate(13.1305,19.696) translate(-13.1285,-19.694)"/>
        <path id="Rectangle_86-2" data-name="Rectangle 86" d="M1.667,0L24.589,0C25.5102,0,26.257,0.746789,26.257,1.668L26.257,37.721C26.257,38.1631,26.0814,38.5871,25.7687,38.8997C25.4561,39.2124,25.0321,39.388,24.59,39.388L1.667,39.388C1.22488,39.388,0.800876,39.2124,0.488253,38.8997C0.17563,38.5871,0,38.1631,0,37.721L0,1.667C0,0.746341,0.746341,0,1.667,0Z" fill="none" stroke="#5d88d6" stroke-linecap="round" stroke-miterlimit="10" stroke-width="6" transform="translate(13.1305,91.91) translate(-13.1285,-19.694)"/>
        <rect id="Rectangle_87-2" data-name="Rectangle 87" width="26.257" height="39.388" rx="1.667" fill="none" stroke="#5d88d6" stroke-linecap="round" stroke-miterlimit="10" stroke-width="6" transform="translate(98.4725,91.91) translate(-13.1285,-19.694)"/>
        <path id="Line_4-2" data-name="Line 4" fill="none" stroke="#5d88d6" stroke-linecap="round" stroke-miterlimit="10" stroke-width="6" d="M0,0L0,39.389" transform="translate(52.518,91.9085) translate(0,-19.6945)"/>
        <path id="Rectangle_88-2" data-name="Rectangle 88" d="M1.667,0L24.589,0C25.5102,0,26.257,0.746789,26.257,1.668L26.257,37.721C26.257,38.1631,26.0814,38.5871,25.7687,38.8997C25.4561,39.2124,25.0321,39.388,24.59,39.388L1.667,39.388C1.22488,39.388,0.800876,39.2124,0.488253,38.8997C0.17563,38.5871,0,38.1631,0,37.721L0,1.667C0,0.746341,0.746341,0,1.667,0Z" fill="none" stroke="#5d88d6" stroke-linecap="round" stroke-miterlimit="10" stroke-width="6" transform="translate(45.9525,164.124) translate(-13.1285,-19.694)"/>
        <path id="Path_324-2" data-name="Path 324" d="M626.541,2131.08L626.541,2144.21C626.541,2147.83,623.603,2150.77,619.978,2150.78L606.847,2150.78C603.22,2150.77,600.281,2147.83,600.28,2144.21L600.28,2137.64" fill="none" stroke="#5d88d6" stroke-linecap="round" stroke-miterlimit="10" stroke-width="6" transform="translate(229.772,173.977) translate(-613.41,-2140.93)"/>
        <path id="Path_325-2" data-name="Path 325" d="M611.531,2142.55L611.531,2149.11C611.529,2152.74,608.593,2155.68,604.968,2155.68L591.837,2155.68C588.212,2155.68,585.274,2152.74,585.274,2149.11L585.274,2129.41" fill="none" stroke="#5d88d6" stroke-linecap="round" stroke-miterlimit="10" stroke-width="6" transform="translate(170.688,170.688) translate(-598.402,-2142.55)"/>
        <path id="Line_5-2" data-name="Line 5" fill="none" stroke="#5d88d6" stroke-linecap="round" stroke-miterlimit="10" stroke-width="6" d="M0,0L0,39.389" transform="translate(91.907,164.124) translate(0,-19.6945)"/>
        <path id="Line_6-2" data-name="Line 6" fill="none" stroke="#5d88d6" stroke-linecap="round" stroke-miterlimit="10" stroke-width="6" d="M0,0L0,39.389" transform="translate(124.733,164.124) translate(0,-19.6945)"/>
        <path id="Path_326-2" data-name="Path 326" d="M700.107,2156.82C700.106,2189.45,673.652,2215.9,641.021,2215.9C608.39,2215.9,581.938,2189.45,581.939,2156.82C581.94,2124.18,608.394,2097.73,641.025,2097.73C673.656,2097.74,700.107,2124.19,700.107,2156.82Z" fill="none" stroke="#5d88d6" stroke-linecap="round" stroke-miterlimit="10" stroke-width="6" transform="translate(203.513,91.908) translate(-641.023,-2156.82)"/>
        <rect id="Rectangle_89-2" data-name="Rectangle 89" width="26.257" height="39.388" rx="1.667" fill="none" stroke="#5d88d6" stroke-linecap="round" stroke-miterlimit="10" stroke-width="6" transform="translate(190.381,91.91) translate(-13.1285,-19.694)"/>
        <path id="Line_7-2" data-name="Line 7" fill="none" stroke="#5d88d6" stroke-linecap="round" stroke-miterlimit="10" stroke-width="6" d="M0,0L0,39.389" transform="translate(229.772,91.9085) translate(0,-19.6945)"/>
        <path id="Line_8-2" data-name="Line 8" fill="none" stroke="#5d88d6" stroke-linecap="round" stroke-miterlimit="10" stroke-width="6" d="M0,0L50.129,50.129" transform="translate(270.354,158.753) translate(-25.0645,-25.0645)"/>
    </g>
    <script><![CDATA[
new IntersectionObserver(function(es) {
    es.forEach(function(e) {
      if (e.isIntersecting) {
        var as=document.getElementById('_a0').getAnimations({subtree:true});if(as.length&&as[0].playState!='running'&&as[0].playState!='finished')as.forEach(function(a){a.play()})
      }
    })
}, {threshold:.25}).observe(document.getElementById("_a0"));]]></script>
</svg>
