<?xml version="1.0" encoding="UTF-8" standalone="no"?>
<!-- Created with Keyshape -->
<svg xmlns="http://www.w3.org/2000/svg" id="_a0" viewBox="0 0 420 420" text-rendering="geometricPrecision" shape-rendering="geometricPrecision" style="white-space: pre;">
    <style>
@keyframes a0_t { 0% { transform: translate(209.317px,209.317px) rotate(-90deg); animation-timing-function: cubic-bezier(0,0,0,1); } 100% { transform: translate(209.317px,209.317px) rotate(0deg); } }
@keyframes a0_s { 0% { stroke: rgba(56,219,252,0.00); } 100% { stroke: #38dbfc; } }
@keyframes Group_394_o { 0% { opacity: 0; } 100% { opacity: 1; } }
    </style>
    <g id="Ellipse_302" data-name="Ellipse 302" fill="none" stroke="#38dbfc" stroke-linecap="round" stroke-linejoin="round" stroke-width="11" stroke-dasharray="1 21" transform="translate(209.317,209.317) translate(-209.317,-209.317)">
        <ellipse fill="none" rx="203.817" ry="203.817" stroke-dashoffset="-600" stroke-dasharray="1 31" stroke="rgba(56,219,252,0.00)" transform="translate(209.317,209.317) rotate(-90)" style="animation: 1.433s linear both a0_t, 1.433s linear both a0_s; animation-play-state: paused"/>
    </g>
    <g id="Group_394" data-name="Group 394" opacity="0" transform="translate(210,209.317) translate(-144.202,-144.404)" style="animation: 1.433s linear both Group_394_o; animation-play-state: paused">
        <path id="Path_450" data-name="Path 450" d="M94.879,275.25L94.879,275.25C38.0155,255.433,-0.061897,201.781,0,141.563C-0.00229762,131.981,0.961239,122.422,2.876,113.033C6.58437,94.9254,13.822,77.7252,24.176,62.414C39.5404,39.654,61.1755,21.8382,86.46,11.125C95.0237,7.50504,103.925,4.7419,113.033,2.876C131.86,-0.958754,151.266,-0.958754,170.093,2.876C188.201,6.58429,205.401,13.822,220.713,24.176C243.472,39.5407,261.287,61.1757,272,86.46C275.62,95.0237,278.383,103.925,280.249,113.033C285.188,137.248,283.748,162.331,276.069,185.821C262.26,227.645,229.812,260.685,188.245,275.249L160.235,195.038C186.271,185.931,201.94,159.373,197.322,132.18C192.704,104.987,169.144,85.0915,141.561,85.0915C113.979,85.0915,90.4195,104.987,85.801,132.18C81.1825,159.373,96.8524,185.931,122.888,195.038L94.878,275.249Z" fill="none" stroke="#5d88d6" stroke-linecap="round" stroke-width="6" transform="translate(144.202,145.087) translate(-141.563,-137.625)"/>
    </g>
    <script><![CDATA[
new IntersectionObserver(function(es) {
    es.forEach(function(e) {
      if (e.isIntersecting) {
        var as=document.getElementById('_a0').getAnimations({subtree:true});if(as.length&&as[0].playState!='running'&&as[0].playState!='finished')as.forEach(function(a){a.play()})
      }
    })
}, {threshold:.25}).observe(document.getElementById("_a0"));]]></script>
</svg>
