<svg xmlns="http://www.w3.org/2000/svg" width="419" height="419" viewBox="0 0 419 419">
  <g id="Group_488" data-name="Group 488" transform="translate(0 419)">
    <g id="Group_487" data-name="Group 487" transform="translate(0 -419)">
      <path id="Path_529" data-name="Path 529" d="M0,0H419V419H0Z" fill="rgba(0,0,0,0)"/>
      <g id="Group_473" data-name="Group 473" transform="translate(209.317 209.317)">
        <path id="Path_530" data-name="Path 530" d="M207.874,24.539l-.035.295-.086.706a5.5,5.5,0,1,1-10.92-1.324l.082-.68.035-.295a5.5,5.5,0,0,1,10.923,1.3Zm-6.414,32.274-.276.97a5.5,5.5,0,1,1-10.58-3.011l.276-.97a5.5,5.5,0,0,1,10.58,3.011ZM190.113,87.582l-.058.125-.369.8a5.5,5.5,0,1,1-9.978-4.63l.358-.771.058-.125a5.5,5.5,0,0,1,9.99,4.605Zm-16.069,28.7-.556.828a5.5,5.5,0,1,1-9.132-6.133l.556-.828a5.5,5.5,0,0,1,9.132,6.133Zm-20.334,25.8-.681.733a5.5,5.5,0,1,1-8.06-7.486l.681-.733a5.5,5.5,0,0,1,8.06,7.486Zm-24.13,22.305-.789.619A5.5,5.5,0,1,1,122,156.35l.789-.619a5.5,5.5,0,0,1,6.789,8.655ZM102.256,182.64l-.485.271-.4.221a5.5,5.5,0,1,1-5.337-9.618l.375-.208.485-.271a5.5,5.5,0,0,1,5.361,9.605ZM72.413,196.392l-.945.346a5.5,5.5,0,1,1-3.781-10.33l.945-.346a5.5,5.5,0,0,1,3.781,10.33ZM40.81,205.3l-.971.191A5.5,5.5,0,1,1,37.72,194.7l.971-.191A5.5,5.5,0,0,1,40.81,205.3ZM8.152,209.158l-.736.027-.274.01A5.5,5.5,0,1,1,6.759,198.2l.248-.009.736-.027a5.5,5.5,0,0,1,.409,10.992Zm-32.663-1.281-.135-.016-.866-.1a5.448,5.448,0,0,1-2.039-.668,5.448,5.448,0,0,1-1.629-1.4,5.448,5.448,0,0,1-.97-1.914,5.448,5.448,0,0,1-.163-2.14,5.448,5.448,0,0,1,.668-2.039,5.447,5.447,0,0,1,1.4-1.629,5.447,5.447,0,0,1,1.914-.97,5.447,5.447,0,0,1,2.14-.163l.84.1.135.016a5.447,5.447,0,0,1,2.041.663,5.447,5.447,0,0,1,1.632,1.394,5.447,5.447,0,0,1,.974,1.912,5.448,5.448,0,0,1,.169,2.139,5.448,5.448,0,0,1-.663,2.041,5.448,5.448,0,0,1-1.394,1.632,5.448,5.448,0,0,1-1.912.974A5.448,5.448,0,0,1-24.511,207.877Zm-32.276-6.41-.97-.276a5.448,5.448,0,0,1-1.91-.979,5.448,5.448,0,0,1-1.39-1.635,5.448,5.448,0,0,1-.659-2.042,5.448,5.448,0,0,1,.173-2.139,5.448,5.448,0,0,1,.979-1.91,5.448,5.448,0,0,1,1.635-1.39,5.448,5.448,0,0,1,2.042-.659,5.447,5.447,0,0,1,2.139.173l.97.276a5.447,5.447,0,0,1,1.91.979,5.448,5.448,0,0,1,1.39,1.635,5.448,5.448,0,0,1,.659,2.042,5.448,5.448,0,0,1-.173,2.139,5.448,5.448,0,0,1-.979,1.91,5.448,5.448,0,0,1-1.635,1.39,5.448,5.448,0,0,1-2.042.659A5.448,5.448,0,0,1-56.788,201.467Zm-30.782-11.348-.909-.421a5.448,5.448,0,0,1-1.734-1.265A5.448,5.448,0,0,1-91.33,186.6a5.448,5.448,0,0,1-.331-2.12,5.447,5.447,0,0,1,.505-2.086,5.448,5.448,0,0,1,1.265-1.734,5.448,5.448,0,0,1,1.832-1.118,5.448,5.448,0,0,1,2.12-.331,5.448,5.448,0,0,1,2.086.505l.909.421A5.447,5.447,0,0,1-81.21,181.4a5.448,5.448,0,0,1,1.118,1.832,5.447,5.447,0,0,1,.331,2.12,5.448,5.448,0,0,1-.505,2.086,5.448,5.448,0,0,1-1.265,1.734,5.448,5.448,0,0,1-1.832,1.118,5.448,5.448,0,0,1-2.12.331A5.448,5.448,0,0,1-87.569,190.119Zm-28.687-16.056-.309-.207-.53-.357a5.448,5.448,0,0,1-1.513-1.522,5.448,5.448,0,0,1-.815-1.985,5.448,5.448,0,0,1,.007-2.146,5.448,5.448,0,0,1,.827-1.98,5.448,5.448,0,0,1,1.522-1.513,5.448,5.448,0,0,1,1.985-.815,5.448,5.448,0,0,1,2.146.007,5.447,5.447,0,0,1,1.98.827l.508.342.309.207a5.447,5.447,0,0,1,1.516,1.519,5.447,5.447,0,0,1,.82,1.983,5.448,5.448,0,0,1,0,2.146,5.448,5.448,0,0,1-.823,1.982,5.447,5.447,0,0,1-1.519,1.516,5.448,5.448,0,0,1-1.983.82,5.448,5.448,0,0,1-2.146,0A5.448,5.448,0,0,1-116.257,174.063Zm-25.8-20.335-.734-.681a5.448,5.448,0,0,1-1.257-1.739,5.447,5.447,0,0,1-.5-2.088,5.448,5.448,0,0,1,.34-2.119,5.448,5.448,0,0,1,1.125-1.827,5.448,5.448,0,0,1,1.739-1.258,5.447,5.447,0,0,1,2.088-.5,5.447,5.447,0,0,1,2.119.34,5.447,5.447,0,0,1,1.827,1.125l.734.681a5.448,5.448,0,0,1,1.258,1.739,5.448,5.448,0,0,1,.5,2.088,5.447,5.447,0,0,1-.34,2.119,5.448,5.448,0,0,1-1.125,1.827,5.447,5.447,0,0,1-1.739,1.257,5.448,5.448,0,0,1-2.088.5,5.448,5.448,0,0,1-2.119-.34A5.448,5.448,0,0,1-142.061,153.728ZM-164.369,129.6l-.619-.789a5.448,5.448,0,0,1-.97-1.914,5.448,5.448,0,0,1-.163-2.14,5.448,5.448,0,0,1,.668-2.039,5.447,5.447,0,0,1,1.4-1.629,5.447,5.447,0,0,1,1.914-.97,5.448,5.448,0,0,1,2.14-.163,5.447,5.447,0,0,1,2.039.668,5.448,5.448,0,0,1,1.629,1.4l.619.789a5.447,5.447,0,0,1,.97,1.914,5.448,5.448,0,0,1,.163,2.14,5.448,5.448,0,0,1-.668,2.039,5.448,5.448,0,0,1-1.4,1.629,5.448,5.448,0,0,1-1.914.97,5.448,5.448,0,0,1-2.14.163,5.448,5.448,0,0,1-2.039-.668A5.448,5.448,0,0,1-164.369,129.6Zm-18.26-27.327-.486-.872a5.448,5.448,0,0,1-.658-2.043,5.447,5.447,0,0,1,.173-2.139,5.448,5.448,0,0,1,.979-1.91,5.448,5.448,0,0,1,1.635-1.39,5.448,5.448,0,0,1,2.043-.658,5.448,5.448,0,0,1,2.139.174,5.447,5.447,0,0,1,1.91.979,5.447,5.447,0,0,1,1.39,1.635l.486.872a5.448,5.448,0,0,1,.658,2.043,5.447,5.447,0,0,1-.174,2.139,5.447,5.447,0,0,1-.979,1.91,5.448,5.448,0,0,1-1.635,1.39,5.448,5.448,0,0,1-2.043.658,5.448,5.448,0,0,1-2.139-.173,5.448,5.448,0,0,1-1.91-.979A5.448,5.448,0,0,1-182.63,102.274Zm-13.754-29.837-.346-.945a5.448,5.448,0,0,1-.33-2.12,5.448,5.448,0,0,1,.506-2.085,5.448,5.448,0,0,1,1.266-1.733,5.448,5.448,0,0,1,1.833-1.117,5.448,5.448,0,0,1,2.12-.33,5.447,5.447,0,0,1,2.085.506,5.447,5.447,0,0,1,1.733,1.266,5.448,5.448,0,0,1,1.117,1.833l.346.945a5.447,5.447,0,0,1,.331,2.12,5.447,5.447,0,0,1-.506,2.085,5.448,5.448,0,0,1-1.266,1.733,5.448,5.448,0,0,1-1.833,1.117,5.448,5.448,0,0,1-2.12.33,5.448,5.448,0,0,1-2.085-.506,5.448,5.448,0,0,1-1.733-1.266A5.448,5.448,0,0,1-196.383,72.437Zm-8.912-31.6-.191-.971a5.448,5.448,0,0,1,.005-2.146,5.448,5.448,0,0,1,.826-1.981,5.448,5.448,0,0,1,1.521-1.514,5.448,5.448,0,0,1,1.985-.817,5.448,5.448,0,0,1,2.146.005,5.448,5.448,0,0,1,1.981.826,5.448,5.448,0,0,1,1.514,1.521,5.448,5.448,0,0,1,.817,1.985l.191.971a5.448,5.448,0,0,1-.005,2.146,5.448,5.448,0,0,1-.826,1.981,5.448,5.448,0,0,1-1.521,1.514,5.448,5.448,0,0,1-1.985.817,5.448,5.448,0,0,1-2.146-.005,5.448,5.448,0,0,1-1.981-.826,5.448,5.448,0,0,1-1.514-1.521A5.449,5.449,0,0,1-205.3,40.836Zm-3.862-32.661-.037-1a5.448,5.448,0,0,1,.341-2.119,5.448,5.448,0,0,1,1.126-1.827,5.448,5.448,0,0,1,1.739-1.257,5.448,5.448,0,0,1,2.088-.5,5.448,5.448,0,0,1,2.119.341,5.448,5.448,0,0,1,1.827,1.126A5.448,5.448,0,0,1-198.7,4.686a5.448,5.448,0,0,1,.5,2.088l.037,1a5.447,5.447,0,0,1-.341,2.119,5.448,5.448,0,0,1-1.126,1.827,5.448,5.448,0,0,1-1.739,1.257,5.448,5.448,0,0,1-2.088.5,5.448,5.448,0,0,1-2.119-.341A5.448,5.448,0,0,1-207.4,12a5.448,5.448,0,0,1-1.257-1.739A5.448,5.448,0,0,1-209.157,8.174Zm1.279-32.671.119-.988a5.448,5.448,0,0,1,.667-2.04,5.448,5.448,0,0,1,1.4-1.629,5.448,5.448,0,0,1,1.914-.971,5.448,5.448,0,0,1,2.14-.164,5.448,5.448,0,0,1,2.04.667,5.448,5.448,0,0,1,1.629,1.4A5.447,5.447,0,0,1-197-26.311a5.447,5.447,0,0,1,.164,2.14l-.119.988a5.447,5.447,0,0,1-.667,2.04,5.447,5.447,0,0,1-1.4,1.629,5.448,5.448,0,0,1-1.914.971,5.448,5.448,0,0,1-2.14.164,5.448,5.448,0,0,1-2.04-.667,5.448,5.448,0,0,1-1.629-1.4,5.448,5.448,0,0,1-.971-1.914A5.448,5.448,0,0,1-207.879-24.5Zm6.4-32.254.008-.029.271-.954a5.448,5.448,0,0,1,.979-1.91,5.448,5.448,0,0,1,1.635-1.39,5.448,5.448,0,0,1,2.042-.659,5.448,5.448,0,0,1,2.139.173,5.448,5.448,0,0,1,1.91.979,5.447,5.447,0,0,1,1.39,1.635,5.447,5.447,0,0,1,.659,2.042,5.448,5.448,0,0,1-.173,2.139l-.264.93-.008.029a5.448,5.448,0,0,1-.974,1.912,5.448,5.448,0,0,1-1.632,1.394,5.448,5.448,0,0,1-2.041.663,5.448,5.448,0,0,1-2.139-.168,5.448,5.448,0,0,1-1.912-.974,5.448,5.448,0,0,1-1.394-1.632,5.448,5.448,0,0,1-.663-2.041A5.448,5.448,0,0,1-201.477-56.75Zm11.347-30.8.421-.909a5.448,5.448,0,0,1,1.265-1.734,5.448,5.448,0,0,1,1.832-1.118,5.448,5.448,0,0,1,2.12-.332,5.448,5.448,0,0,1,2.086.5,5.448,5.448,0,0,1,1.734,1.265,5.448,5.448,0,0,1,1.118,1.832,5.448,5.448,0,0,1,.332,2.12,5.447,5.447,0,0,1-.505,2.086l-.421.909a5.447,5.447,0,0,1-1.265,1.734,5.447,5.447,0,0,1-1.832,1.118,5.448,5.448,0,0,1-2.12.332,5.448,5.448,0,0,1-2.086-.505,5.447,5.447,0,0,1-1.734-1.265A5.448,5.448,0,0,1-190.3-83.34a5.448,5.448,0,0,1-.332-2.12A5.448,5.448,0,0,1-190.13-87.546Zm16.057-28.7.556-.828A5.448,5.448,0,0,1-172-118.584a5.448,5.448,0,0,1,1.984-.817,5.448,5.448,0,0,1,2.146,0,5.447,5.447,0,0,1,1.981.825,5.448,5.448,0,0,1,1.514,1.521,5.448,5.448,0,0,1,.817,1.984,5.447,5.447,0,0,1,0,2.146,5.447,5.447,0,0,1-.825,1.981l-.556.828a5.448,5.448,0,0,1-1.521,1.514,5.448,5.448,0,0,1-1.984.817,5.447,5.447,0,0,1-2.146,0,5.448,5.448,0,0,1-1.981-.825,5.447,5.447,0,0,1-1.514-1.521,5.448,5.448,0,0,1-.817-1.984,5.448,5.448,0,0,1,0-2.146A5.448,5.448,0,0,1-174.073-116.242Zm20.328-25.8.681-.734a5.448,5.448,0,0,1,1.739-1.258,5.448,5.448,0,0,1,2.088-.5,5.448,5.448,0,0,1,2.119.34,5.447,5.447,0,0,1,1.827,1.125,5.448,5.448,0,0,1,1.258,1.739,5.447,5.447,0,0,1,.5,2.088,5.448,5.448,0,0,1-.34,2.119A5.447,5.447,0,0,1-145-135.292l-.681.734a5.447,5.447,0,0,1-1.739,1.258,5.448,5.448,0,0,1-2.088.5,5.448,5.448,0,0,1-2.119-.34,5.448,5.448,0,0,1-1.827-1.125,5.447,5.447,0,0,1-1.258-1.739,5.448,5.448,0,0,1-.5-2.088,5.448,5.448,0,0,1,.34-2.119A5.448,5.448,0,0,1-153.746-142.042Zm24.121-22.309.577-.454.223-.174a5.448,5.448,0,0,1,1.916-.967,5.448,5.448,0,0,1,2.14-.16,5.448,5.448,0,0,1,2.038.671,5.448,5.448,0,0,1,1.626,1.4,5.448,5.448,0,0,1,.967,1.916,5.447,5.447,0,0,1,.16,2.14,5.447,5.447,0,0,1-.671,2.038,5.448,5.448,0,0,1-1.4,1.626l-.2.157-.577.454a5.447,5.447,0,0,1-1.914.971,5.448,5.448,0,0,1-2.14.165,5.448,5.448,0,0,1-2.04-.666,5.448,5.448,0,0,1-1.63-1.4,5.448,5.448,0,0,1-.971-1.914,5.448,5.448,0,0,1-.165-2.14,5.448,5.448,0,0,1,.666-2.04A5.447,5.447,0,0,1-129.624-164.351Zm27.327-18.266.872-.486a5.448,5.448,0,0,1,2.042-.658,5.448,5.448,0,0,1,2.139.173,5.447,5.447,0,0,1,1.91.979,5.447,5.447,0,0,1,1.39,1.635,5.448,5.448,0,0,1,.659,2.042,5.448,5.448,0,0,1-.173,2.139,5.447,5.447,0,0,1-.979,1.91,5.447,5.447,0,0,1-1.635,1.39l-.872.486a5.447,5.447,0,0,1-2.042.659,5.447,5.447,0,0,1-2.139-.173,5.448,5.448,0,0,1-1.91-.979,5.448,5.448,0,0,1-1.39-1.635,5.447,5.447,0,0,1-.659-2.042,5.448,5.448,0,0,1,.173-2.139,5.448,5.448,0,0,1,.979-1.91A5.448,5.448,0,0,1-102.3-182.617Zm29.835-13.757.945-.346a5.448,5.448,0,0,1,2.12-.331,5.447,5.447,0,0,1,2.086.506,5.448,5.448,0,0,1,1.733,1.265,5.448,5.448,0,0,1,1.117,1.832,5.448,5.448,0,0,1,.331,2.12,5.448,5.448,0,0,1-.506,2.086,5.447,5.447,0,0,1-1.265,1.733,5.448,5.448,0,0,1-1.832,1.117l-.945.346a5.448,5.448,0,0,1-2.12.331,5.447,5.447,0,0,1-2.086-.506,5.448,5.448,0,0,1-1.733-1.265,5.448,5.448,0,0,1-1.117-1.832,5.448,5.448,0,0,1-.331-2.12,5.448,5.448,0,0,1,.506-2.086,5.448,5.448,0,0,1,1.265-1.733A5.448,5.448,0,0,1-72.462-196.374Zm31.6-8.916.971-.191a5.448,5.448,0,0,1,2.146,0,5.448,5.448,0,0,1,1.981.826,5.447,5.447,0,0,1,1.514,1.521,5.447,5.447,0,0,1,.817,1.984,5.448,5.448,0,0,1,0,2.146,5.447,5.447,0,0,1-.826,1.981,5.448,5.448,0,0,1-1.521,1.514,5.447,5.447,0,0,1-1.984.817l-.971.191a5.447,5.447,0,0,1-2.146,0,5.448,5.448,0,0,1-1.981-.826,5.448,5.448,0,0,1-1.514-1.521,5.448,5.448,0,0,1-.817-1.984,5.448,5.448,0,0,1,0-2.146,5.448,5.448,0,0,1,.826-1.981,5.448,5.448,0,0,1,1.521-1.514A5.448,5.448,0,0,1-40.861-205.29ZM-8.2-209.156l1-.037a5.448,5.448,0,0,1,2.119.341,5.448,5.448,0,0,1,1.827,1.126A5.448,5.448,0,0,1-2-205.987a5.448,5.448,0,0,1,.5,2.088,5.448,5.448,0,0,1-.341,2.119,5.448,5.448,0,0,1-1.126,1.827A5.447,5.447,0,0,1-4.711-198.7a5.448,5.448,0,0,1-2.088.5l-1,.037a5.447,5.447,0,0,1-2.119-.341,5.447,5.447,0,0,1-1.827-1.126A5.447,5.447,0,0,1-13-201.37a5.448,5.448,0,0,1-.5-2.088,5.448,5.448,0,0,1,.341-2.119,5.448,5.448,0,0,1,1.126-1.827,5.448,5.448,0,0,1,1.739-1.257A5.448,5.448,0,0,1-8.2-209.156Zm32.665,1.274.51.061.491.06a5.448,5.448,0,0,1,2.039.669,5.448,5.448,0,0,1,1.628,1.4,5.448,5.448,0,0,1,.968,1.915,5.447,5.447,0,0,1,.162,2.14,5.448,5.448,0,0,1-.669,2.039,5.447,5.447,0,0,1-1.4,1.628A5.447,5.447,0,0,1,26.28-197a5.448,5.448,0,0,1-2.14.162l-.464-.056-.51-.061a5.448,5.448,0,0,1-2.041-.664,5.447,5.447,0,0,1-1.631-1.395,5.448,5.448,0,0,1-.973-1.913,5.448,5.448,0,0,1-.167-2.14,5.448,5.448,0,0,1,.664-2.041,5.448,5.448,0,0,1,1.395-1.631,5.448,5.448,0,0,1,1.913-.973A5.448,5.448,0,0,1,24.465-207.882Zm32.272,6.4.972.276a5.448,5.448,0,0,1,1.91.978,5.448,5.448,0,0,1,1.39,1.635,5.448,5.448,0,0,1,.659,2.042,5.448,5.448,0,0,1-.173,2.139,5.448,5.448,0,0,1-.978,1.91,5.448,5.448,0,0,1-1.635,1.39,5.448,5.448,0,0,1-2.042.659,5.448,5.448,0,0,1-2.139-.173l-.972-.276a5.447,5.447,0,0,1-1.91-.978,5.447,5.447,0,0,1-1.39-1.635,5.448,5.448,0,0,1-.659-2.042,5.448,5.448,0,0,1,.173-2.139,5.447,5.447,0,0,1,.978-1.91,5.448,5.448,0,0,1,1.635-1.39,5.448,5.448,0,0,1,2.042-.659A5.448,5.448,0,0,1,56.737-201.481Zm30.785,11.34.909.421a5.448,5.448,0,0,1,1.734,1.265,5.448,5.448,0,0,1,1.118,1.832,5.448,5.448,0,0,1,.332,2.12,5.448,5.448,0,0,1-.5,2.086,5.448,5.448,0,0,1-1.265,1.734,5.447,5.447,0,0,1-1.832,1.118,5.447,5.447,0,0,1-2.12.332,5.448,5.448,0,0,1-2.086-.5l-.909-.421a5.447,5.447,0,0,1-1.734-1.265,5.448,5.448,0,0,1-1.118-1.832,5.447,5.447,0,0,1-.332-2.12,5.448,5.448,0,0,1,.5-2.086,5.448,5.448,0,0,1,1.265-1.734,5.448,5.448,0,0,1,1.832-1.118,5.448,5.448,0,0,1,2.12-.332A5.448,5.448,0,0,1,87.522-190.141Zm28.694,16.05.515.345.323.218A5.448,5.448,0,0,1,118.567-172a5.448,5.448,0,0,1,.814,1.985,5.448,5.448,0,0,1-.007,2.146,5.448,5.448,0,0,1-.828,1.98,5.448,5.448,0,0,1-1.523,1.512,5.447,5.447,0,0,1-1.985.814,5.447,5.447,0,0,1-2.146-.007,5.447,5.447,0,0,1-1.98-.828l-.3-.2-.515-.345a5.447,5.447,0,0,1-1.516-1.519,5.447,5.447,0,0,1-.819-1.984,5.447,5.447,0,0,1,0-2.146,5.448,5.448,0,0,1,.823-1.982A5.447,5.447,0,0,1,110.1-174.1a5.448,5.448,0,0,1,1.984-.819,5.447,5.447,0,0,1,2.146,0A5.448,5.448,0,0,1,116.216-174.09Zm25.806,20.326.653.606.091.084a5.448,5.448,0,0,1,1.254,1.741,5.448,5.448,0,0,1,.492,2.089,5.448,5.448,0,0,1-.344,2.118,5.448,5.448,0,0,1-1.129,1.825,5.448,5.448,0,0,1-1.741,1.254,5.447,5.447,0,0,1-2.089.492,5.448,5.448,0,0,1-2.118-.344,5.448,5.448,0,0,1-1.825-1.129l-.071-.066-.653-.606a5.447,5.447,0,0,1-1.258-1.738,5.447,5.447,0,0,1-.5-2.088,5.448,5.448,0,0,1,.339-2.119,5.448,5.448,0,0,1,1.124-1.828,5.447,5.447,0,0,1,1.738-1.258,5.448,5.448,0,0,1,2.088-.5,5.448,5.448,0,0,1,2.119.339A5.448,5.448,0,0,1,142.021-153.764Zm22.315,24.123.619.789a5.448,5.448,0,0,1,.97,1.914,5.448,5.448,0,0,1,.164,2.14,5.448,5.448,0,0,1-.667,2.04,5.448,5.448,0,0,1-1.4,1.629,5.448,5.448,0,0,1-1.914.97,5.447,5.447,0,0,1-2.14.164,5.448,5.448,0,0,1-2.04-.667,5.447,5.447,0,0,1-1.629-1.4l-.619-.789a5.448,5.448,0,0,1-.97-1.914,5.448,5.448,0,0,1-.164-2.14,5.448,5.448,0,0,1,.667-2.04,5.448,5.448,0,0,1,1.4-1.629,5.448,5.448,0,0,1,1.914-.97,5.448,5.448,0,0,1,2.14-.164,5.448,5.448,0,0,1,2.04.667A5.448,5.448,0,0,1,164.337-129.642ZM182.6-102.32l.486.872a5.448,5.448,0,0,1,.659,2.042,5.448,5.448,0,0,1-.173,2.139,5.448,5.448,0,0,1-.978,1.91,5.448,5.448,0,0,1-1.635,1.39,5.448,5.448,0,0,1-2.042.659,5.448,5.448,0,0,1-2.139-.173,5.447,5.447,0,0,1-1.91-.978,5.447,5.447,0,0,1-1.39-1.635L173-96.965a5.447,5.447,0,0,1-.659-2.042,5.447,5.447,0,0,1,.173-2.139,5.448,5.448,0,0,1,.978-1.91,5.448,5.448,0,0,1,1.635-1.39,5.447,5.447,0,0,1,2.042-.659,5.448,5.448,0,0,1,2.139.173,5.448,5.448,0,0,1,1.91.978A5.448,5.448,0,0,1,182.6-102.32Zm13.761,29.833.346.945a5.448,5.448,0,0,1,.331,2.12,5.448,5.448,0,0,1-.506,2.086,5.448,5.448,0,0,1-1.265,1.733,5.448,5.448,0,0,1-1.832,1.117,5.448,5.448,0,0,1-2.12.331,5.448,5.448,0,0,1-2.086-.506,5.448,5.448,0,0,1-1.733-1.265,5.448,5.448,0,0,1-1.117-1.832l-.346-.945a5.448,5.448,0,0,1-.331-2.12,5.448,5.448,0,0,1,.506-2.086,5.447,5.447,0,0,1,1.265-1.733,5.448,5.448,0,0,1,1.832-1.117,5.448,5.448,0,0,1,2.12-.331,5.448,5.448,0,0,1,2.086.506,5.448,5.448,0,0,1,1.733,1.265A5.448,5.448,0,0,1,196.365-72.487Zm8.92,31.6.191.971a5.448,5.448,0,0,1,0,2.146,5.448,5.448,0,0,1-.825,1.981,5.448,5.448,0,0,1-1.521,1.514,5.448,5.448,0,0,1-1.984.817,5.448,5.448,0,0,1-2.146,0,5.447,5.447,0,0,1-1.981-.825,5.447,5.447,0,0,1-1.514-1.521,5.447,5.447,0,0,1-.817-1.984l-.191-.971a5.447,5.447,0,0,1,0-2.146,5.448,5.448,0,0,1,.825-1.981,5.447,5.447,0,0,1,1.521-1.514,5.448,5.448,0,0,1,1.984-.817,5.448,5.448,0,0,1,2.146,0,5.448,5.448,0,0,1,1.981.825,5.448,5.448,0,0,1,1.514,1.521A5.448,5.448,0,0,1,205.285-40.887Zm3.87,32.66.037,1a5.448,5.448,0,0,1-.341,2.119,5.448,5.448,0,0,1-1.126,1.827,5.448,5.448,0,0,1-1.739,1.257,5.448,5.448,0,0,1-2.088.5,5.448,5.448,0,0,1-2.119-.341A5.447,5.447,0,0,1,199.953-3,5.447,5.447,0,0,1,198.7-4.736a5.448,5.448,0,0,1-.5-2.088l-.037-1A5.448,5.448,0,0,1,198.5-9.94a5.448,5.448,0,0,1,1.126-1.827,5.447,5.447,0,0,1,1.739-1.257,5.448,5.448,0,0,1,2.088-.5,5.448,5.448,0,0,1,2.119.341,5.448,5.448,0,0,1,1.827,1.126,5.448,5.448,0,0,1,1.257,1.739A5.448,5.448,0,0,1,209.155-8.227Z" fill="#37dafb"/>
      </g>
      <g id="Group_474" data-name="Group 474" transform="translate(54.9 131.354)">
        <path id="Path_531" data-name="Path 531" d="M.015,70.831H0V13.28H.72C4.283,5.717,20.642,0,40.285,0s36,5.717,39.565,13.28h.72v57.55h-.015c-.576,8.842-18.385,15.937-40.27,15.937S.591,79.672.015,70.831Z" fill="none" stroke="#5c87d5" stroke-linecap="round" stroke-linejoin="bevel" stroke-width="7.437"/>
      </g>
      <g id="Group_475" data-name="Group 475" transform="translate(170.178 177.217)">
        <path id="Path_532" data-name="Path 532" d="M40.9,0A40.9,40.9,0,1,1,11.981,11.981,40.9,40.9,0,0,1,40.9,0Z" fill="none" stroke="#5c87d5" stroke-linecap="round" stroke-width="7.437"/>
      </g>
      <g id="Group_476" data-name="Group 476" transform="translate(142.602 276.105)">
        <path id="Path_533" data-name="Path 533" d="M68.483,13.16c37.822,0,68.483,2.319,68.483,17.541S106.305,70.438,68.483,70.438,0,45.922,0,30.7,30.661,13.16,68.483,13.16Z" fill="none" stroke="#5c87d5" stroke-linecap="round" stroke-width="7.437"/>
      </g>
      <g id="Group_477" data-name="Group 477" transform="translate(264.639 74.336)">
        <path id="Path_534" data-name="Path 534" d="M30.816,100.4V90.461H15.906V80.52H0V0H61.633V9.941H77.539v9.941H92.45V100.4Z" fill="none" stroke="#5c87d5" stroke-linecap="round" stroke-width="7.437"/>
      </g>
      <g id="Group_478" data-name="Group 478" transform="translate(113.223 236.092)">
        <path id="Path_535" data-name="Path 535" d="M0,31,58.878,0" fill="none" stroke="#5c87d5" stroke-linecap="round" stroke-width="7.437"/>
      </g>
      <g id="Group_479" data-name="Group 479" transform="translate(245.797 162.75)">
        <path id="Path_536" data-name="Path 536" d="M2.959,32.405,39.665,0" fill="none" stroke="#5c87d5" stroke-linecap="round" stroke-width="7.437"/>
      </g>
      <g id="Group_480" data-name="Group 480" transform="translate(136.09 185.273)">
        <path id="Path_537" data-name="Path 537" d="M0,0,34.707,18.593" fill="none" stroke="#5c87d5" stroke-linecap="round" stroke-width="7.437"/>
      </g>
      <g id="Group_481" data-name="Group 481" transform="translate(250.373 227.697)">
        <path id="Path_538" data-name="Path 538" d="M0,0,35.707,8.366" fill="none" stroke="#5c87d5" stroke-linecap="round" stroke-width="7.437"/>
      </g>
      <g id="Group_482" data-name="Group 482" transform="translate(211.703 259.646)">
        <path id="Path_539" data-name="Path 539" d="M0,0V24.791" fill="none" stroke="#5c87d5" stroke-linecap="round" stroke-width="7.437"/>
      </g>
      <g id="Group_483" data-name="Group 483" transform="translate(194.35 124.537)">
        <path id="Path_540" data-name="Path 540" d="M0,0,8.677,50.821" fill="none" stroke="#5c87d5" stroke-linecap="round" stroke-width="7.437"/>
      </g>
      <g id="Group_484" data-name="Group 484" transform="translate(156.543 59.461)">
        <path id="Path_541" data-name="Path 541" d="M37.186,0,74.372,64.456H0Z" fill="none" stroke="#5c87d5" stroke-linecap="round" stroke-width="7.437"/>
      </g>
      <g id="Group_485" data-name="Group 485" transform="translate(285.455 218.121)">
        <path id="Path_542" data-name="Path 542" d="M0,0H57.019V54.54H0Z" fill="none" stroke="#5c87d5" stroke-linecap="round" stroke-width="7.437"/>
      </g>
      <g id="Group_486" data-name="Group 486" transform="translate(67.297 252.828)">
        <path id="Path_543" data-name="Path 543" d="M22.931,0A22.931,22.931,0,1,1,6.716,6.716,22.931,22.931,0,0,1,22.931,0Z" fill="none" stroke="#5c87d5" stroke-linecap="round" stroke-width="7.437"/>
      </g>
    </g>
  </g>
</svg>
