<?xml version="1.0" encoding="UTF-8" standalone="no"?>
<!-- Created with Keyshape -->
<svg xmlns="http://www.w3.org/2000/svg" id="_a0" viewBox="0 0 420 420" text-rendering="geometricPrecision" shape-rendering="geometricPrecision" opacity="1" style="white-space: pre;">
    <style>
@keyframes a0_t { 0% { transform: translate(209.317px,209.317px) rotate(-90deg); animation-timing-function: cubic-bezier(0,0,0,1); } 100% { transform: translate(209.317px,209.317px) rotate(0deg); } }
@keyframes a0_s { 0% { stroke: rgba(56,219,252,0.00); } 100% { stroke: #38dbfc; } }
@keyframes Group_406_t { 0% { transform: translate(206px,203px) scale(0.9,0.9) translate(-17613.8955px,-14421.7785px); } 100% { transform: translate(206px,203px) scale(1.239537,1.239537) translate(-17613.8955px,-14421.7785px); } }
@keyframes Group_406_o { 0% { opacity: 0; } 100% { opacity: 1; } }
    </style>
    <g id="Ellipse_302" data-name="Ellipse 302" fill="none" stroke="#38dbfc" stroke-linecap="round" stroke-linejoin="round" stroke-width="11" stroke-dasharray="1 21" transform="translate(209.317,209.317) translate(-209.317,-209.317)">
        <ellipse fill="none" rx="203.817" ry="203.817" stroke-dashoffset="-600" stroke-dasharray="1 31" stroke="rgba(56,219,252,0.00)" transform="translate(209.317,209.317) rotate(-90)" style="animation: 1.433s linear both a0_t, 1.433s linear both a0_s; animation-play-state: paused"/>
    </g>
    <g id="Group_406" data-name="Group 406" opacity="0" transform="translate(206,203) scale(0.9,0.9) translate(-17613.9,-14421.8)" style="animation: 1.433s linear both Group_406_t, 1.433s linear both Group_406_o; animation-play-state: paused">
        <path id="Path_453" data-name="Path 453" d="M0.012,57.143L0,57.143L0,10.714L0.581,10.714C3.455,4.612,16.653,0,32.5,0C48.347,0,61.545,4.612,64.419,10.714L65,10.714L65,57.143L64.988,57.143C64.523,64.276,50.156,70,32.5,70C14.844,70,0.477,64.276,0.012,57.143Z" fill="none" stroke="#5d88d6" stroke-linecap="round" stroke-linejoin="bevel" stroke-width="6" transform="translate(17524.5,14399) translate(-32.5,-35)"/>
        <path id="Path_455" data-name="Path 455" d="M33,0C51.2254,0,66,14.7746,66,33C66,51.2254,51.2254,66,33,66C14.7746,66,0,51.2254,0,33C0,24.2479,3.47678,15.8542,9.66548,9.66548C15.8542,3.47678,24.2479,0,33,0Z" fill="none" stroke="#5d88d6" stroke-linecap="round" stroke-width="6" transform="translate(17618,14434) translate(-33,-33)"/>
        <path id="Path_451" data-name="Path 451" d="M55.249,10.617C85.762,10.617,110.498,12.488,110.498,24.768C110.498,37.048,85.762,56.826,55.249,56.826C24.736,56.826,0,37.048,0,24.768C0,12.488,24.736,10.617,55.249,10.617Z" fill="none" stroke="#5d88d6" stroke-linecap="round" stroke-width="6" transform="translate(17618,14514.5) translate(-55.249,-33.7215)"/>
        <path id="Path_454" data-name="Path 454" d="M24.861,81L24.861,72.98L12.832,72.98L12.832,64.96L0,64.96L0,0L49.723,0L49.723,8.02L62.555,8.02L62.555,16.04L74.584,16.04L74.584,81Z" fill="none" stroke="#5d88d6" stroke-linecap="round" stroke-width="6" transform="translate(17698.5,14358.5) translate(-37.292,-40.5)"/>
        <path id="Path_459" data-name="Path 459" d="M0,25.006L47.5,0" fill="none" stroke="#5d88d6" stroke-linecap="round" stroke-width="6" transform="translate(17562.8,14461) translate(-23.75,-12.503)"/>
        <path id="Path_456" data-name="Path 456" d="M2.387,26.143L32,0" fill="none" stroke="#5d88d6" stroke-linecap="round" stroke-width="6" transform="translate(17663.2,14402.4) translate(-17.1935,-13.0715)"/>
        <path id="Path_457" data-name="Path 457" d="M0,0L28,15" fill="none" stroke="#5d88d6" stroke-linecap="round" stroke-width="6" transform="translate(17571.5,14415) translate(-14,-7.5)"/>
        <path id="Path_463" data-name="Path 463" d="M0,0L28.807,6.749" fill="none" stroke="#5d88d6" stroke-linecap="round" stroke-width="6" transform="translate(17664.1,14445.1) translate(-14.4035,-3.3745)"/>
        <path id="Path_462" data-name="Path 462" d="M0,0L0,20" fill="none" stroke="#5d88d6" stroke-linecap="round" stroke-width="6" transform="translate(17618.5,14477.5) translate(0,-10)"/>
        <path id="Path_460" data-name="Path 460" d="M0,0L7,41" fill="none" stroke="#5d88d6" stroke-linecap="round" stroke-width="6" transform="translate(17608,14379) translate(-3.5,-20.5)"/>
        <path id="Path_458" data-name="Path 458" d="M30,0L60,52L0,52Z" fill="none" stroke="#5d88d6" stroke-linecap="round" stroke-width="6" transform="translate(17604,14332) translate(-30,-26)"/>
        <path id="Path_464" data-name="Path 464" d="M0,0L46,0L46,44L0,44Z" fill="none" stroke="#5d88d6" stroke-linecap="round" stroke-width="6" transform="translate(17701,14456) translate(-23,-22)"/>
        <path id="Path_461" data-name="Path 461" d="M18.5,0C28.7173,0,37,8.28273,37,18.5C37,28.7173,28.7173,37,18.5,37C8.28273,37,0,28.7173,0,18.5C0,13.5935,1.9491,8.88795,5.41852,5.41852C8.88795,1.9491,13.5935,0,18.5,0Z" fill="none" stroke="#5d88d6" stroke-linecap="round" stroke-width="6" transform="translate(17520.5,14480.5) translate(-18.5,-18.5)"/>
    </g>
    <script><![CDATA[
new IntersectionObserver(function(es) {
    es.forEach(function(e) {
      if (e.isIntersecting) {
        var as=document.getElementById('_a0').getAnimations({subtree:true});if(as.length&&as[0].playState!='running'&&as[0].playState!='finished')as.forEach(function(a){a.play()})
      }
    })
}, {threshold:.25}).observe(document.getElementById("_a0"));]]></script>
</svg>
