<svg xmlns="http://www.w3.org/2000/svg" width="348.418" height="300.463" viewBox="0 0 348.418 300.463">
  <g id="Group_406" data-name="Group 406" transform="translate(-107.354)">
    <circle id="Ellipse_154" data-name="Ellipse 154" cx="15.683" cy="15.683" r="15.683" transform="translate(274.742 22.179) rotate(-45)" fill="#5d88d6"/>
    <circle id="Ellipse_155" data-name="Ellipse 155" cx="17.423" cy="17.423" r="17.423" transform="translate(315.393 65.293) rotate(-45)" fill="#5d88d6"/>
    <circle id="Ellipse_156" data-name="Ellipse 156" cx="19.163" cy="19.163" r="19.163" transform="translate(356.041 108.411) rotate(-45)" fill="#5d88d6"/>
    <circle id="Ellipse_157" data-name="Ellipse 157" cx="20.902" cy="20.902" r="20.902" transform="translate(396.651 151.475) rotate(-45)" fill="#5d88d6"/>
    <circle id="Ellipse_158" data-name="Ellipse 158" cx="13.943" cy="13.943" r="13.943" transform="translate(191.024 22.179) rotate(-45)" fill="#32dbfc"/>
    <circle id="Ellipse_159" data-name="Ellipse 159" cx="15.683" cy="15.683" r="15.683" transform="translate(231.674 65.293) rotate(-45)" fill="#32dbfc"/>
    <circle id="Ellipse_160" data-name="Ellipse 160" cx="17.423" cy="17.423" r="17.423" transform="translate(272.284 108.364) rotate(-45)" fill="#32dbfc"/>
    <circle id="Ellipse_161" data-name="Ellipse 161" cx="19.163" cy="19.163" r="19.163" transform="translate(312.917 151.453) rotate(-45)" fill="#32dbfc"/>
    <circle id="Ellipse_162" data-name="Ellipse 162" cx="20.902" cy="20.902" r="20.902" transform="translate(353.576 194.592) rotate(-45)" fill="#32dbfc"/>
    <circle id="Ellipse_163" data-name="Ellipse 163" cx="12.203" cy="12.203" r="12.203" transform="translate(107.354 22.228) rotate(-45)"/>
    <circle id="Ellipse_164" data-name="Ellipse 164" cx="13.943" cy="13.943" r="13.943" transform="translate(147.937 65.268) rotate(-45)"/>
    <circle id="Ellipse_165" data-name="Ellipse 165" cx="15.683" cy="15.683" r="15.683" transform="translate(188.608 108.409) rotate(-45)"/>
    <circle id="Ellipse_166" data-name="Ellipse 166" cx="17.423" cy="17.423" r="17.423" transform="translate(229.235 151.496) rotate(-45)"/>
    <circle id="Ellipse_167" data-name="Ellipse 167" cx="19.163" cy="19.163" r="19.163" transform="translate(269.863 194.596) rotate(-45)"/>
    <circle id="Ellipse_168" data-name="Ellipse 168" cx="20.902" cy="20.902" r="20.902" transform="translate(310.459 237.631) rotate(-45)"/>
    <g id="Group_120" data-name="Group 120" transform="translate(110.646 174.812)">
      <circle id="Ellipse_169" data-name="Ellipse 169" cx="13.943" cy="13.943" r="13.943" transform="translate(80.385 19.718) rotate(-45)" fill="#5d88d6"/>
      <ellipse id="Ellipse_170" data-name="Ellipse 170" cx="13.943" cy="13.943" rx="13.943" ry="13.943" transform="translate(43.075 48.862)" fill="#5d88d6"/>
      <ellipse id="Ellipse_171" data-name="Ellipse 171" cx="13.943" cy="13.943" rx="13.943" ry="13.943" transform="translate(0 91.982)" fill="#5d88d6"/>
      <ellipse id="Ellipse_172" data-name="Ellipse 172" cx="13.943" cy="13.943" rx="13.943" ry="13.943" transform="translate(86.164 91.957)" fill="#5d88d6"/>
      <circle id="Ellipse_173" data-name="Ellipse 173" cx="13.943" cy="13.943" r="13.943" transform="translate(166.576 105.932) rotate(-45)" fill="#5d88d6"/>
      <circle id="Ellipse_174" data-name="Ellipse 174" cx="13.943" cy="13.943" r="13.943" transform="translate(123.472 62.803) rotate(-45)" fill="#5d88d6"/>
    </g>
  </g>
</svg>
