<svg xmlns="http://www.w3.org/2000/svg" width="32.594" height="31.157" viewBox="0 0 32.594 31.157">
  <path id="Path_445" data-name="Path 445" d="M16.89.25a1.65,1.65,0,0,1,1.48.92l4.14,8.392,9.261,1.346a1.65,1.65,0,0,1,.915,2.814l-6.7,6.534,1.582,9.222a1.65,1.65,0,0,1-2.393,1.74L16.89,26.862,8.605,31.217a1.65,1.65,0,0,1-2.393-1.738L7.8,20.253,1.091,13.722a1.65,1.65,0,0,1,.915-2.816l9.261-1.344L15.409,1.17A1.65,1.65,0,0,1,16.89.25Z" transform="translate(-0.591 -0.25)" fill="#24292f" fill-rule="evenodd"/>
</svg>
