<svg xmlns="http://www.w3.org/2000/svg" viewBox="0 0 434.64 399.92"><g id="Layer_2" data-name="Layer 2"><g id="Layer_1-2" data-name="Layer 1"><path d="M304.13,372v-86h0v-2.3h-.32c-1.72-6.48-10.76-11.73-27-15.63-15.94-3.82-37.07-5.93-59.49-5.93s-43.56,2.11-59.5,5.93c-16.23,3.9-25.28,9.15-27,15.63h-.32v92.31c0,7.56,9.19,13.59,27.32,17.94,15.94,3.82,37.07,5.93,59.5,5.93s43.55-2.1,59.49-5.93c18.13-4.35,27.33-10.38,27.33-18C304.13,375.34,304.13,372.71,304.13,372ZM217.32,270.18c54.58,0,78.82,11.5,78.82,15.87a1.29,1.29,0,0,1,0,.19l-.06.17a4.5,4.5,0,0,1-1.15,1.66c-2.73,2.52-10,5.91-22.41,8.7l-1.36.3-.28.06A253.86,253.86,0,0,1,226,301.81h-.55l-3.59.07c-1.5,0-3,0-4.57,0s-3.07,0-4.57,0l-3.59-.07h-.56a254.52,254.52,0,0,1-44.76-4.67l-.41-.09c-.42-.08-.82-.18-1.24-.27-12.39-2.79-19.72-6.18-22.45-8.71a4.75,4.75,0,0,1-1.15-1.66l-.06-.17a1.48,1.48,0,0,1,0-.19C138.5,281.68,162.74,270.18,217.32,270.18Zm0,121.74c-54.58,0-78.82-11.5-78.82-15.85V296.91q6.8,4.06,19.32,7.08c14.39,3.45,33,5.5,53,5.86l1.38,0,1.61,0,3.52,0,3.51,0,1.62,0,1.38,0c20-.36,38.59-2.41,53-5.86q12.54-3,19.32-7.08V372c0,.72,0,3.37,0,4.05C296.14,380.42,271.9,391.92,217.32,391.92Z" fill="#707070"/><g id="Path_2763" data-name="Path 2763"><path d="M86.82,266.1c-22.43,0-43.56-2.1-59.5-5.93C9.19,255.82,0,249.79,0,242.23s9.19-13.58,27.32-17.93c15.94-3.83,37.07-5.93,59.5-5.93s43.55,2.1,59.49,5.93c18.13,4.35,27.33,10.38,27.33,17.93s-9.2,13.59-27.33,17.94C130.37,264,109.24,266.1,86.82,266.1Zm0-39.73C32.24,226.37,8,237.86,8,242.23S32.24,258.1,86.82,258.1s78.82-11.49,78.82-15.87S141.4,226.37,86.82,226.37Z" fill="#707070"/></g><path d="M130.5,347.11a288.22,288.22,0,0,1-43.68,3C32.24,350.1,8,338.61,8,334.26V253c12,7,38.64,13.08,78.82,13.08s66.8-6,78.81-13.08v13.44c2.58-.48,5.24-.93,8-1.34v-23.2h-7.39l-1.2,1.53c-5.64,7.21-36.44,14.65-78.22,14.65S14.23,250.66,8.6,243.46l-1.21-1.54H0v92.31c0,7.56,9.19,13.59,27.32,17.94,15.94,3.83,37.07,5.93,59.5,5.93a305.69,305.69,0,0,0,43.68-2.94Z" fill="#707070"/><path id="Icon_awesome-user-alt" data-name="Icon awesome-user-alt" d="M217.93,66.22a33.11,33.11,0,1,0-33.1-33.11h0A33.12,33.12,0,0,0,217.93,66.22Zm29.43,7.35H234.7a40,40,0,0,1-33.53,0H188.51A29.43,29.43,0,0,0,159.08,103h0v3.68a11,11,0,0,0,11,11h95.65a11,11,0,0,0,11-11V103a29.43,29.43,0,0,0-29.42-29.43Z" fill="#707070"/><g id="Line_15" data-name="Line 15"><path d="M218.25,276.34a4,4,0,0,1-4-4l-.32-33.25a4,4,0,0,1,4-4h0a4,4,0,0,1,4,4l.32,33.26a4,4,0,0,1-4,4Z" fill="#fa8021"/></g><g id="Group_297" data-name="Group 297"><circle id="Ellipse_2" data-name="Ellipse 2" cx="227.92" cy="137.89" r="4.76" fill="#5d88d6"/><circle id="Ellipse_3" data-name="Ellipse 3" cx="241" cy="150.98" r="5.29" fill="#5d88d6"/><circle id="Ellipse_4" data-name="Ellipse 4" cx="254.09" cy="164.07" r="5.82" fill="#5d88d6"/><circle id="Ellipse_5" data-name="Ellipse 5" cx="267.16" cy="177.14" r="6.34" fill="#5d88d6"/><circle id="Ellipse_6" data-name="Ellipse 6" cx="201.76" cy="137.89" r="4.23" fill="#32dbfc"/><circle id="Ellipse_7" data-name="Ellipse 7" cx="214.84" cy="150.98" r="4.76" fill="#32dbfc"/><circle id="Ellipse_8" data-name="Ellipse 8" cx="227.92" cy="164.05" r="5.29" fill="#32dbfc"/><circle id="Ellipse_9" data-name="Ellipse 9" cx="241" cy="177.13" r="5.82" fill="#32dbfc"/><circle id="Ellipse_10" data-name="Ellipse 10" cx="254.09" cy="190.23" r="6.34" fill="#32dbfc"/><circle id="Ellipse_11" data-name="Ellipse 11" cx="175.61" cy="137.91" r="3.7"/><circle id="Ellipse_12" data-name="Ellipse 12" cx="188.68" cy="150.97" r="4.23"/><circle id="Ellipse_13" data-name="Ellipse 13" cx="201.77" cy="164.07" r="4.76"/><circle id="Ellipse_14" data-name="Ellipse 14" cx="214.85" cy="177.15" r="5.29"/><circle id="Ellipse_15" data-name="Ellipse 15" cx="227.93" cy="190.23" r="5.82"/><circle id="Ellipse_16" data-name="Ellipse 16" cx="241" cy="203.29" r="6.34"/><g id="Group_10" data-name="Group 10"><circle id="Ellipse_16-2" data-name="Ellipse 16-2" cx="201.76" cy="190.21" r="4.23" fill="#5d88d6"/><circle id="Ellipse_17" data-name="Ellipse 17" cx="188.68" cy="203.29" r="4.23" fill="#5d88d6"/><circle id="Ellipse_18" data-name="Ellipse 18" cx="175.6" cy="216.38" r="4.23" fill="#5d88d6"/><circle id="Ellipse_19" data-name="Ellipse 19" cx="201.76" cy="216.37" r="4.23" fill="#5d88d6"/><circle id="Ellipse_20" data-name="Ellipse 20" cx="227.92" cy="216.38" r="4.23" fill="#5d88d6"/><circle id="Ellipse_21" data-name="Ellipse 21" cx="214.84" cy="203.29" r="4.23" fill="#5d88d6"/></g></g><g id="Path_2775" data-name="Path 2775"><path d="M90.77,234.33a4,4,0,0,1-4-4V176.76a4,4,0,0,1,4-4H151a4,4,0,0,1,0,8H94.77v49.57A4,4,0,0,1,90.77,234.33Z" fill="#fa8021"/></g><g id="Path_2776" data-name="Path 2776"><path d="M348,234.33a4,4,0,0,1-4-4V180.76H289.77a4,4,0,0,1,0-8H348a4,4,0,0,1,4,4v53.57A4,4,0,0,1,348,234.33Z" fill="#fa8021"/></g><path d="M434.63,328.21v-86h0v-2.3h-.32c-1.72-6.48-10.76-11.73-27-15.62-15.94-3.83-37.07-5.93-59.49-5.93s-43.56,2.1-59.5,5.93c-16.23,3.89-25.28,9.14-27,15.62H261v25.2q4.14.61,8,1.34V253.1q6.79,4.05,19.32,7.07c14.39,3.45,33,5.5,53,5.87l1.39,0,1.61,0c1.18,0,2.35,0,3.52,0s2.34,0,3.51,0l1.62,0,1.38,0c20-.37,38.6-2.42,53-5.87q12.54-3,19.32-7.07v75.08c0,.72,0,3.38,0,4.06,0,4.37-24.24,15.86-78.82,15.86a288.36,288.36,0,0,1-43.69-3v8.05a305.83,305.83,0,0,0,43.69,2.94c22.42,0,43.55-2.1,59.49-5.93,18.13-4.35,27.33-10.38,27.33-18C434.63,331.52,434.63,328.9,434.63,328.21Zm-8-85.79-.06.18a4.64,4.64,0,0,1-1.14,1.65c-2.74,2.53-10.06,5.92-22.46,8.72l-1.24.27-.4.09A254.65,254.65,0,0,1,356.53,258H356c-1.19,0-2.38.05-3.59.06-1.5,0-3,0-4.57,0s-3.07,0-4.57,0c-1.21,0-2.4,0-3.59-.06h-.56a255.32,255.32,0,0,1-44.72-4.66l-.53-.12-1.11-.24c-12.43-2.8-19.77-6.2-22.5-8.73a4.82,4.82,0,0,1-1.15-1.65l-.06-.18a1.25,1.25,0,0,1,0-.19c0-4.37,24.24-15.86,78.82-15.86s78.82,11.49,78.82,15.86A1.29,1.29,0,0,1,426.6,242.42Z" fill="#707070"/></g></g></svg>