<svg xmlns="http://www.w3.org/2000/svg" width="129.926" height="126.07" viewBox="0 0 129.926 126.07">
  <path id="meetup" d="M24.327,102a2.544,2.544,0,0,1-1.97,3.029,2.494,2.494,0,0,1-2.955-1.97,2.591,2.591,0,0,1,1.9-3.029A2.561,2.561,0,0,1,24.327,102Zm35.235,17.581a3.646,3.646,0,0,0-.911,4.925,3.51,3.51,0,0,0,4.925.911,3.56,3.56,0,0,0,.837-4.925,3.429,3.429,0,0,0-4.851-.911ZM38.387,5.751A2.9,2.9,0,0,0,40.578,2.3,2.751,2.751,0,0,0,37.2.063,2.968,2.968,0,0,0,34.964,3.51a2.831,2.831,0,0,0,3.423,2.241ZM8.421,55.71A5.374,5.374,0,0,0,.886,57.188,5.509,5.509,0,0,0,2.29,64.8a5.315,5.315,0,0,0,7.535-1.4A5.59,5.59,0,0,0,8.421,55.71ZM75.395,13.63a5.487,5.487,0,0,0,1.9-7.461,5.336,5.336,0,0,0-7.387-1.9,5.536,5.536,0,0,0-1.822,7.535,5.276,5.276,0,0,0,7.313,1.822ZM28.34,27.911A4.262,4.262,0,0,0,29.4,22.076a4.085,4.085,0,0,0-5.688-1.059,4.262,4.262,0,0,0-1.059,5.836A4.038,4.038,0,0,0,28.34,27.911Zm91.671,38.412a3.488,3.488,0,0,0-2.61,4.161,3.35,3.35,0,0,0,4.014,2.61,3.389,3.389,0,0,0,2.61-4.087A3.468,3.468,0,0,0,120.011,66.323Zm9.775-13.986a2.494,2.494,0,0,0-2.955-1.97,2.593,2.593,0,1,0,2.955,1.97ZM110.014,34.19a4.713,4.713,0,0,0-1.207,6.476,4.611,4.611,0,0,0,6.4,1.207,4.766,4.766,0,0,0,1.133-6.476A4.453,4.453,0,0,0,110.014,34.19Zm-1.551,34.324a23.8,23.8,0,0,1-6.476,31.788,22.806,22.806,0,0,1-14.01,4.211A15.848,15.848,0,0,1,62.1,112.54a7.686,7.686,0,0,0-.911.714,20.976,20.976,0,0,1-29.4-5.491A21.693,21.693,0,0,1,28.07,96.215c-16.1-2.684-22.161-23.145-10.12-34.4C10.981,50.269,18.1,35.372,31.1,33.525c6.18-16.3,26.494-24.032,40.283-13.346a24.374,24.374,0,0,1,32.231,24.894A13.729,13.729,0,0,1,108.463,68.514ZM91.227,86.809c-.763-5.072-10.071-1.133-10.612-6.673-.763-7.879,10.76-24.894,9.849-31.517-.837-5.909-4.777-7.165-8.224-7.239-3.3-.074-4.161.492-5.269,1.133-.714.419-1.625,1.207-2.881-.074-1.551-1.477-2.733-2.881-4.777-3.176-3.029-.492-4.358.492-6.55,2.388-.837.714-2.955,3.176-4.925,2.241-.837-.419-3.792-1.9-5.909-2.807-4.014-1.748-9.849,1.133-11.967,4.925-3.176,5.639-9.357,27.848-10.268,30.8-2.118,6.55,2.684,11.967,9.086,11.6,2.733-.148,4.506-1.133,6.254-4.284C46.02,82.3,55.3,57.606,56.017,56.4c.492-.837,2.191-1.97,3.595-1.256a3.382,3.382,0,0,1,1.477,3.718c-.271,2.388-6.894,17.458-7.116,19.132-.837,5.639,6.624,6.55,9.5.985.911-1.748,11.253-22.8,12.164-24.2,1.059-1.551,1.822-2.044,2.881-1.97.763,0,2.044.222,1.748,2.684-.345,2.315-8.643,17.8-9.578,21.594a11.385,11.385,0,0,0,6.131,12.459c2.807,1.4,15.389,3.866,14.4-2.733Zm1.4,22.727a5.874,5.874,0,0,0-1.4,8.027,5.655,5.655,0,0,0,7.879,1.477,5.844,5.844,0,0,0,1.477-8.027A5.668,5.668,0,0,0,92.631,109.536Z" transform="translate(0.066 0.015)" fill="#e11f42"/>
</svg>
