<svg id="Group_188" data-name="Group 188" xmlns="http://www.w3.org/2000/svg" width="118.168" height="119.964" viewBox="0 0 118.168 119.964">
  <path id="Path_177" data-name="Path 177" d="M647.572,291.179a12.058,12.058,0,1,1-12.054-12.062q.149,0,.3,0h12.058Z" transform="translate(-623.456 -213.557)" fill="#e01e5a"/>
  <path id="Path_178" data-name="Path 178" d="M760.036,322.6a12.058,12.058,0,0,1-23.513,0V291.188a12.058,12.058,0,0,1,11.756-12.058h0a12.058,12.058,0,0,1,12.058,12.058Z" transform="translate(-704.57 -213.566)" fill="#e01e5a"/>
  <path id="Path_179" data-name="Path 179" d="M674.081,192.41H643.032a12.058,12.058,0,0,1,0-23.573h31.351a12.058,12.058,0,0,1,0,23.573Z" transform="translate(-630.673 -134.442)" fill="#36c5f0"/>
  <path id="Path_180" data-name="Path 180" d="M758.5,79.885H746.447A12.058,12.058,0,1,1,758.5,67.827h0Z" transform="translate(-703.039 -53.328)" fill="#36c5f0"/>
  <path id="Path_181" data-name="Path 181" d="M958.39,180.808a11.756,11.756,0,1,1,11.756,11.757H958.39Z" transform="translate(-863.735 -134.597)" fill="#2fb67d"/>
  <path id="Path_182" data-name="Path 182" d="M859.514,412.5c-6.659,0-12.058-4.573-12.058-11.232V389.21h12.058a12.058,12.058,0,0,1,9.243,14.331,11.725,11.725,0,0,1-9.243,8.96Z" transform="translate(-784.152 -292.537)" fill="#ecb22e"/>
  <path id="Path_183" data-name="Path 183" d="M895.823,303.557h-31.35a12.058,12.058,0,0,1,0-23.573h31.35a12.058,12.058,0,0,1,0,23.573Z" transform="translate(-789.532 -214.179)" fill="#ecb22e"/>
  <path id="Path_184" data-name="Path 184" d="M870.436,98.631a12.058,12.058,0,0,1-23.513,0V59.19a12.058,12.058,0,0,1,11.756-12.058h0A12.058,12.058,0,0,1,870.737,59.19Z" transform="translate(-783.77 -47.132)" fill="#2fb67d"/>
</svg>
