<svg id="Group_128" data-name="Group 128" xmlns="http://www.w3.org/2000/svg" width="33.56" height="34.07" viewBox="0 0 33.56 34.07">
  <path id="Path_177" data-name="Path 177" d="M630.305,282.543a3.425,3.425,0,1,1-3.424-3.426h3.509Z" transform="translate(-623.456 -260.498)" fill="#fff"/>
  <path id="Path_178" data-name="Path 178" d="M743.2,291.475a3.425,3.425,0,0,1-6.678,0v-8.921a3.425,3.425,0,0,1,3.339-3.424h0a3.425,3.425,0,0,1,3.424,3.424Z" transform="translate(-727.448 -260.509)" fill="#fff"/>
  <path id="Path_179" data-name="Path 179" d="M645.036,175.532h-8.818a3.425,3.425,0,0,1,0-6.695h8.9a3.425,3.425,0,0,1,0,6.695Z" transform="translate(-632.708 -159.069)" fill="#fff"/>
  <path id="Path_180" data-name="Path 180" d="M741.238,62.618h-3.424a3.425,3.425,0,1,1,3.424-3.425h0Z" transform="translate(-725.485 -55.076)" fill="#fff"/>
  <path id="Path_181" data-name="Path 181" d="M958.39,172.391a3.339,3.339,0,1,1,3.339,3.339H958.39Z" transform="translate(-931.508 -159.266)" fill="#fff"/>
  <path id="Path_182" data-name="Path 182" d="M850.881,395.825a3.232,3.232,0,0,1-3.425-3.19V389.21h3.425a3.425,3.425,0,0,1,2.625,4.07,3.33,3.33,0,0,1-2.625,2.545Z" transform="translate(-829.477 -361.754)" fill="#fff"/>
  <path id="Path_183" data-name="Path 183" d="M866.562,286.679h-8.9a3.425,3.425,0,0,1,0-6.695h8.9a3.425,3.425,0,0,1,0,6.695Z" transform="translate(-836.375 -261.295)" fill="#fff"/>
  <path id="Path_184" data-name="Path 184" d="M853.6,61.758a3.424,3.424,0,0,1-6.678,0v-11.2a3.424,3.424,0,0,1,3.339-3.425h0a3.424,3.424,0,0,1,3.424,3.425Z" transform="translate(-828.987 -47.132)" fill="#fff"/>
</svg>
