<svg xmlns="http://www.w3.org/2000/svg" viewBox="0 0 300.4 238.26"><g id="Layer_2" data-name="Layer 2"><g id="Layer_1-2" data-name="Layer 1"><path d="M300.4,192.07V39.28h0v-.21c0-11.73-15.44-21.38-45.89-28.69C226.6,3.69,189.56,0,150.2,0S73.8,3.69,45.89,10.38C15.44,17.69,0,27.34,0,39.07v153c0,1.22,0,5.87,0,7.11,0,11.74,15.44,21.39,45.89,28.7,27.91,6.7,65,10.38,104.31,10.38s76.4-3.68,104.31-10.38c30.45-7.31,45.89-17,45.89-28.71C300.4,197.94,300.39,193.29,300.4,192.07ZM47.75,18.16C75.07,11.61,111.45,8,150.2,8s75.13,3.61,102.45,10.16C280.13,24.75,291,32.53,292.28,38a5,5,0,0,1,.12,1.06,3.43,3.43,0,0,1,0,.56c0,.06,0,.11,0,.16s0,.29-.09.44l0,.1a6.09,6.09,0,0,1-.45,1.17l-.22.43c-3,5.3-14.3,12.15-38.9,18.06C225.33,66.54,189,70.15,150.2,70.15S75.07,66.54,47.75,60C23.15,54.08,11.84,47.23,8.84,41.93l-.21-.43a6.09,6.09,0,0,1-.45-1.17l0-.1c0-.15-.06-.29-.09-.43s0-.11,0-.17a3.43,3.43,0,0,1,0-.56C8,33.58,18.44,25.19,47.75,18.16ZM252.65,220.1c-27.32,6.55-63.7,10.16-102.45,10.16S75.07,226.65,47.75,220.1C18.44,213.07,8,204.68,8,199.21c0-1.24,0-6,0-7.16V52.62q11.19,8.72,37.89,15.14c27.91,6.7,65,10.39,104.31,10.39s76.4-3.69,104.31-10.38q26.67-6.4,37.89-15.15V192c0,1.25,0,5.94,0,7.15C292.4,204.69,282,213.07,252.65,220.1Z" fill="#707070"/><path id="Path_2771" data-name="Path 2771" d="M102.62,157c0-24.9-36.42-18.12-36.42-30,0-3.34,3-5,7.58-5,5.61,0,14.77,3,22,7.19l6.6-13.68a52.31,52.31,0,0,0-22.25-7.49V93.86h-13v14.57c-11.91,2.26-19.39,9.54-19.39,20.08,0,24.41,36.42,17.13,36.42,29.33,0,3.94-3.44,6-8.95,6-7.19,0-17.82-4.13-24.9-10.33L43.56,167a49.6,49.6,0,0,0,23.62,10.34v15.26h13V177.73C93.07,176.25,102.62,169.16,102.62,157Z" fill="#fa8021"/><path id="Icon_awesome-check" data-name="Icon awesome-check" d="M161.29,186.29l-40.72-40.73a6.26,6.26,0,0,1,0-8.86l8.86-8.86a6.26,6.26,0,0,1,8.86,0h0l27.43,27.43,58.76-58.76a6.27,6.27,0,0,1,8.87,0l8.86,8.86a6.28,6.28,0,0,1,0,8.86l-72.06,72.06A6.28,6.28,0,0,1,161.29,186.29Z" fill="#fa8021"/></g></g></svg>