<svg xmlns="http://www.w3.org/2000/svg" width="34" height="34" viewBox="0 0 34 34">
  <path id="Icon_ionic-logo-linkedin" data-name="Icon ionic-logo-linkedin" d="M35.781,4.5H7.4A2.774,2.774,0,0,0,4.5,7.148V35.586A2.992,2.992,0,0,0,7.4,38.5H35.772A2.84,2.84,0,0,0,38.5,35.586V7.148A2.607,2.607,0,0,0,35.781,4.5ZM15.039,32.841H10.168V17.7h4.871ZM12.772,15.394h-.035a2.5,2.5,0,0,1-2.568-2.613,2.516,2.516,0,0,1,2.63-2.613,2.509,2.509,0,0,1,2.6,2.613A2.515,2.515,0,0,1,12.772,15.394ZM32.841,32.841H27.97V24.56c0-1.984-.709-3.339-2.471-3.339a2.665,2.665,0,0,0-2.5,1.8,3.28,3.28,0,0,0-.168,1.2v8.626H17.962V17.7h4.871V19.8a4.931,4.931,0,0,1,4.393-2.462c3.2,0,5.615,2.108,5.615,6.651v8.848Z" transform="translate(-4.5 -4.5)" fill="#fff"/>
</svg>
