<svg xmlns="http://www.w3.org/2000/svg" width="38.365" height="31.179" viewBox="0 0 38.365 31.179">
  <path id="Path_176" data-name="Path 176" d="M87.065,129.59c14.478,0,22.4-11.994,22.4-22.4,0-.341-.007-.68-.023-1.018a16.016,16.016,0,0,0,3.927-4.075,15.712,15.712,0,0,1-4.52,1.239,7.9,7.9,0,0,0,3.461-4.354,15.773,15.773,0,0,1-5,1.91,7.878,7.878,0,0,0-13.413,7.178A22.346,22.346,0,0,1,77.67,99.853a7.877,7.877,0,0,0,2.437,10.508,7.813,7.813,0,0,1-3.565-.985c0,.033,0,.066,0,.1a7.874,7.874,0,0,0,6.315,7.717,7.859,7.859,0,0,1-3.555.135,7.88,7.88,0,0,0,7.353,5.467,15.8,15.8,0,0,1-9.776,3.369A16.012,16.012,0,0,1,75,126.055a22.283,22.283,0,0,0,12.065,3.536" transform="translate(-75 -98.411)" fill="#fff"/>
</svg>
