<svg id="Layer_2" data-name="Layer 2" xmlns="http://www.w3.org/2000/svg" width="34.933" height="34.07" viewBox="0 0 34.933 34.07">
  <g id="Layer_1" data-name="Layer 1" transform="translate(0 0)">
    <path id="Path_174" data-name="Path 174" d="M17.465,0a17.461,17.461,0,0,0-5.518,34.043c.879.156,1.191-.383,1.191-.837V30.227c-4.851,1.064-5.887-2.34-5.887-2.34a4.652,4.652,0,0,0-1.929-2.553c-1.589-1.078.113-1.05.113-1.05A3.645,3.645,0,0,1,8.1,26.043a3.731,3.731,0,0,0,5.078,1.418,3.745,3.745,0,0,1,1.106-2.34c-3.872-.44-7.957-1.929-7.957-8.624a6.738,6.738,0,0,1,1.8-4.681A6.255,6.255,0,0,1,8.3,7.234S9.721,6.766,13.1,9.021a16.7,16.7,0,0,1,8.738,0c3.333-2.255,4.794-1.787,4.794-1.787a6.284,6.284,0,0,1,.184,4.624A6.723,6.723,0,0,1,28.6,16.539c0,6.709-4.085,8.184-7.972,8.61a4.128,4.128,0,0,1,1.191,3.22c0,2.34,0,4.255,0,4.794s.326,1.007,1.206.837a17.461,17.461,0,0,0-5.56-34Z" transform="translate(0.044 0)" fill="#000" fill-rule="evenodd"/>
  </g>
</svg>
