<svg xmlns="http://www.w3.org/2000/svg" width="110.406" height="110.406" viewBox="0 0 110.406 110.406">
  <path id="Path_259" data-name="Path 259" d="M17.035,94.437h16.6V44.552h-16.6V94.437ZM34.718,29.169c-.074-4.885-3.593-8.625-9.274-8.625s-9.417,3.735-9.417,8.625c0,4.743,3.593,8.625,9.2,8.625H25.3C31.125,37.794,34.718,33.912,34.718,29.169ZM76.769,94.437h16.6V65.828c0-15.31-8.193-22.426-19.119-22.426-8.911,0-12.867,4.959-15.024,8.409h.143V44.552h-16.6s.216,4.674,0,49.885h16.6V66.551a11.733,11.733,0,0,1,.5-4.025,9.165,9.165,0,0,1,8.552-6.04c5.967,0,8.34,4.527,8.34,11.284V94.437ZM110.406,22.7v69a20.709,20.709,0,0,1-20.7,20.7h-69A20.709,20.709,0,0,1,0,91.7v-69A20.709,20.709,0,0,1,20.7,2h69A20.709,20.709,0,0,1,110.406,22.7Z" transform="translate(0 -2)" fill="#1e69bf"/>
</svg>
