<svg xmlns="http://www.w3.org/2000/svg" width="459.37" height="145.304" viewBox="0 0 459.37 145.304">
  <g id="Group_397" data-name="Group 397" transform="translate(-1120.572 -211.071)">
    <path id="Path_173" data-name="Path 173" d="M-1495.318,4667.119a24.29,24.29,0,0,1-14.536-4.806v24.618h-9.848v-79.246h8.322l.822,5.86c2.7-3.752,9.026-7.034,15.944-7.034,17.113,0,21.567,13.835,21.567,30.247C-1473.046,4655.043-1479.141,4667.119-1495.318,4667.119Zm-14.536-12.542a21.463,21.463,0,0,0,13.128,4.571c11.371,0,13.832-8.907,13.832-22.505s-2.109-22.159-13.128-22.159a20.857,20.857,0,0,0-13.832,5.746Zm78.538-38.686a70.4,70.4,0,0,0-18.17,6.1v43.841h-9.846v-58.142h8.089l1.053,6.8c3.518-3.514,9.966-6.914,17.585-7.619Zm15.473,25.206c.588,12.307,3.635,18.167,15.474,18.167a49.442,49.442,0,0,0,17.114-3.28l1.524,7.5a54.532,54.532,0,0,1-18.756,3.52c-20.983,0-25.2-14.3-25.2-30.6,0-16.761,5.509-29.893,23.329-29.893,15.825,0,22.389,11.137,22.389,25.087v9.5h-35.87Zm0-7.736h26.375v-2.112c0-10.786-3.4-17.349-13.012-17.349C-1413.379,4613.9-1415.724,4621.753-1415.842,4633.36Zm63.768,33.643c-5.861,0-13.364-1.29-18.4-3.871l1.875-7.734a41.272,41.272,0,0,0,16.061,3.635c7.734,0,11.84-2.111,11.84-8.676,0-6.215-4.22-8.087-12.075-9.965-12.777-3.045-17.582-7.5-17.582-17.465,0-10.9,5.978-16.412,19.574-16.412,5.626,0,11.607,1.056,15.708,2.928l-1.641,7.857a39.787,39.787,0,0,0-13.832-2.815c-7.386,0-10.2,1.993-10.2,7.855,0,6.1,2.814,7.268,11.136,9.5,11.37,3.048,18.521,6.681,18.521,17.82C-1331.092,4661.842-1340,4667-1352.074,4667Zm62.949-1.76A43.723,43.723,0,0,1-1301.08,4667c-9.964,0-14.184-5.512-14.184-14.538v-36.8h-10.081v-7.975h10.081V4593.5l9.846-1.4v15.588h16.528l-.82,7.975h-15.708V4652c0,5.39,1.29,7.034,6.681,7.034a43.2,43.2,0,0,0,8.792-1.177l.82,7.387Zm32.586,1.76c-16.881,0-24.5-12.659-24.5-30.244s7.62-30.245,24.5-30.245,24.5,12.659,24.5,30.245S-1239.659,4667-1256.539,4667Zm0-52.52c-12.191,0-14.655,9.964-14.655,22.275s2.464,22.274,14.655,22.274,14.653-9.967,14.653-22.274S-1244.348,4614.483-1256.539,4614.483Z" transform="translate(2640.273 -4330.556)"/>
    <circle id="Ellipse_154" data-name="Ellipse 154" cx="6.674" cy="6.674" r="6.674" transform="translate(1502.9 220.51) rotate(-45)" fill="#5d88d6"/>
    <circle id="Ellipse_155" data-name="Ellipse 155" cx="7.415" cy="7.415" r="7.415" transform="translate(1520.2 238.857) rotate(-45)" fill="#5d88d6"/>
    <circle id="Ellipse_156" data-name="Ellipse 156" cx="8.155" cy="8.155" r="8.155" transform="translate(1537.499 257.208) rotate(-45)" fill="#5d88d6"/>
    <circle id="Ellipse_157" data-name="Ellipse 157" cx="8.896" cy="8.896" r="8.896" transform="translate(1554.782 275.535) rotate(-45)" fill="#5d88d6"/>
    <circle id="Ellipse_158" data-name="Ellipse 158" cx="5.934" cy="5.934" r="5.934" transform="translate(1467.271 220.51) rotate(-45)" fill="#32dbfc"/>
    <circle id="Ellipse_159" data-name="Ellipse 159" cx="6.674" cy="6.674" r="6.674" transform="translate(1484.571 238.857) rotate(-45)" fill="#32dbfc"/>
    <circle id="Ellipse_160" data-name="Ellipse 160" cx="7.415" cy="7.415" r="7.415" transform="translate(1501.854 257.188) rotate(-45)" fill="#32dbfc"/>
    <circle id="Ellipse_161" data-name="Ellipse 161" cx="8.155" cy="8.155" r="8.155" transform="translate(1519.146 275.525) rotate(-45)" fill="#32dbfc"/>
    <circle id="Ellipse_162" data-name="Ellipse 162" cx="8.896" cy="8.896" r="8.896" transform="translate(1536.45 293.885) rotate(-45)" fill="#32dbfc"/>
    <circle id="Ellipse_163" data-name="Ellipse 163" cx="5.193" cy="5.193" r="5.193" transform="translate(1431.663 220.53) rotate(-45)"/>
    <circle id="Ellipse_164" data-name="Ellipse 164" cx="5.934" cy="5.934" r="5.934" transform="translate(1448.935 238.848) rotate(-45)"/>
    <circle id="Ellipse_165" data-name="Ellipse 165" cx="6.674" cy="6.674" r="6.674" transform="translate(1466.243 257.207) rotate(-45)"/>
    <circle id="Ellipse_166" data-name="Ellipse 166" cx="7.415" cy="7.415" r="7.415" transform="translate(1483.533 275.544) rotate(-45)"/>
    <circle id="Ellipse_167" data-name="Ellipse 167" cx="8.155" cy="8.155" r="8.155" transform="translate(1500.823 293.887) rotate(-45)"/>
    <circle id="Ellipse_168" data-name="Ellipse 168" cx="8.896" cy="8.896" r="8.896" transform="translate(1518.101 312.201) rotate(-45)"/>
    <circle id="Ellipse_169" data-name="Ellipse 169" cx="5.934" cy="5.934" r="5.934" transform="translate(1467.274 293.858) rotate(-45)" fill="#5d88d6"/>
    <ellipse id="Ellipse_170" data-name="Ellipse 170" cx="5.934" cy="5.934" rx="5.934" ry="5.934" transform="translate(1451.396 306.262)" fill="#5d88d6"/>
    <ellipse id="Ellipse_171" data-name="Ellipse 171" cx="5.934" cy="5.934" rx="5.934" ry="5.934" transform="translate(1433.064 324.612)" fill="#5d88d6"/>
    <ellipse id="Ellipse_172" data-name="Ellipse 172" cx="5.934" cy="5.934" rx="5.934" ry="5.934" transform="translate(1469.734 324.602)" fill="#5d88d6"/>
    <circle id="Ellipse_173" data-name="Ellipse 173" cx="5.934" cy="5.934" r="5.934" transform="translate(1503.956 330.549) rotate(-45)" fill="#5d88d6"/>
    <circle id="Ellipse_174" data-name="Ellipse 174" cx="5.934" cy="5.934" r="5.934" transform="translate(1485.611 312.194) rotate(-45)" fill="#5d88d6"/>
  </g>
</svg>
