<svg xmlns="http://www.w3.org/2000/svg" width="393.41" height="90.2" viewBox="0 0 393.41 90.2">
  <path id="Path_476" data-name="Path 476" d="M18.72,155.05a15.39,15.39,0,0,1-9.19-3v15.57H3.3V117.45H8.56l.52,3.71c1.71-2.37,5.71-4.45,10.09-4.45,10.82,0,13.64,8.75,13.64,19.13,0,11.57-3.86,19.21-14.09,19.21m-9.19-7.94a13.52,13.52,0,0,0,8.3,2.89c7.19,0,8.75-5.63,8.75-14.23s-1.33-14-8.3-14a13.15,13.15,0,0,0-8.75,3.64v21.72ZM59.2,122.64a45,45,0,0,0-11.49,3.86v27.73H41.48V117.45H46.6l.67,4.3a18.73,18.73,0,0,1,11.12-4.82ZM69,138.59c.37,7.78,2.3,11.49,9.79,11.49A31.27,31.27,0,0,0,89.6,148l1,4.75A34.64,34.64,0,0,1,78.7,155c-13.27,0-15.94-9-15.94-19.35,0-10.6,3.49-18.91,14.76-18.91,10,0,14.16,7.05,14.16,15.87v6Zm0-4.9H85.67v-1.33c0-6.83-2.14-11-8.23-11-6.89,0-8.37,5-8.45,12.31M109.33,155a27.91,27.91,0,0,1-11.65-2.45l1.19-4.89a26.19,26.19,0,0,0,10.16,2.3c4.89,0,7.49-1.33,7.49-5.49,0-3.93-2.67-5.11-7.64-6.3-8.08-1.93-11.12-4.75-11.12-11,0-6.89,3.78-10.38,12.38-10.38a25.5,25.5,0,0,1,9.94,1.86l-1,5a25.25,25.25,0,0,0-8.75-1.78c-4.67,0-6.45,1.26-6.45,5,0,3.86,1.78,4.6,7,6,7.2,1.93,11.72,4.22,11.72,11.27,0,7.71-5.64,11-13.27,11m39.81-1.28a27.739,27.739,0,0,1-7.56,1.11c-6.3,0-9-3.48-9-9.19V122.5H126.2v-5h6.38v-9l6.22-.89v9.86h10.46l-.52,5H138.8v23c0,3.41.82,4.45,4.23,4.45a27.34,27.34,0,0,0,5.56-.74ZM169.75,155c-10.68,0-15.49-8-15.49-19.13s4.81-19.13,15.49-19.13,15.5,8,15.5,19.13S180.43,155,169.75,155m0-33.22c-7.71,0-9.27,6.31-9.27,14.09s1.56,14.09,9.27,14.09,9.27-6.3,9.27-14.09-1.56-14.09-9.27-14.09M356.28,77.42a4.22,4.22,0,1,1-2.988,1.24,4.23,4.23,0,0,1,2.988-1.24m11.6,11.14a4.68,4.68,0,1,1-3.319,1.371,4.69,4.69,0,0,1,3.319-1.371m11.6,11.13a5.16,5.16,0,1,1-5.16,5.15,5.16,5.16,0,0,1,5.16-5.15m11.59,11.13a5.63,5.63,0,1,1-5.62,5.62,5.63,5.63,0,0,1,5.62-5.62M333.08,77.89a3.75,3.75,0,1,1-2.655,1.1,3.76,3.76,0,0,1,2.655-1.1M344.68,89a4.23,4.23,0,1,1-4.22,4.22A4.23,4.23,0,0,1,344.68,89m11.6,11.15a4.69,4.69,0,1,1-4.69,4.69,4.69,4.69,0,0,1,4.69-4.69m11.6,11.14a5.15,5.15,0,1,1-3.648,1.5,5.16,5.16,0,0,1,3.648-1.5m11.6,11.13a5.62,5.62,0,1,1-3.98,1.643,5.63,5.63,0,0,1,3.98-1.643m-69.6-44.06a3.29,3.29,0,1,1-3.28,3.28,3.29,3.29,0,0,1,3.28-3.28m11.6,11.13a3.76,3.76,0,1,1-3.75,3.75,3.76,3.76,0,0,1,3.75-3.75m11.6,11.13a4.22,4.22,0,1,1-4.22,4.22,4.22,4.22,0,0,1,4.22-4.22m11.6,11.13a4.69,4.69,0,1,1-4.69,4.69,4.69,4.69,0,0,1,4.69-4.69m11.6,11.13a5.15,5.15,0,1,1-3.652,1.508,5.16,5.16,0,0,1,3.652-1.508M367.88,134a5.63,5.63,0,1,1-5.63,5.63,5.63,5.63,0,0,1,5.63-5.63m-34.8-9.71a3.75,3.75,0,1,1-3.75,3.75,3.75,3.75,0,0,1,3.75-3.75m-11.6,11.6a3.75,3.75,0,1,1-3.75,3.75,3.75,3.75,0,0,1,3.75-3.75m-11.6,11.59a3.76,3.76,0,1,1-3.75,3.76,3.76,3.76,0,0,1,3.75-3.76m23.2.01a3.75,3.75,0,1,1-3.75,3.75,3.75,3.75,0,0,1,3.75-3.75m23.2,0a3.75,3.75,0,1,1-2.658,1.095,3.75,3.75,0,0,1,2.658-1.095m-11.6-11.6a3.75,3.75,0,1,1-3.75,3.75,3.75,3.75,0,0,1,3.75-3.75m-92.75,0a28.931,28.931,0,0,1-1.43,9.46c-2.13,5.89-6.44,9.11-12.7,9.45a23.36,23.36,0,0,1-6-.39c-4.95-1-8.06-4.08-9.71-8.77a30.8,30.8,0,0,1-1.35-11.2,24.89,24.89,0,0,1,1.65-8.66c2.07-5.17,5.94-7.94,11.39-8.61a21.71,21.71,0,0,1,7,.28,12.35,12.35,0,0,1,9.38,7.81,28.77,28.77,0,0,1,1.78,10.63m-6.31-.18c-.05-1-.07-2.3-.18-3.59a17.93,17.93,0,0,0-1.28-5.63,6.9,6.9,0,0,0-5.48-4.4,14.32,14.32,0,0,0-5.26.11,6.59,6.59,0,0,0-4.92,4,12.429,12.429,0,0,0-.62,1.71,35.61,35.61,0,0,0-.74,11.6,18.119,18.119,0,0,0,1.08,5.34,7.06,7.06,0,0,0,5.73,4.91A14.17,14.17,0,0,0,237,150c4.39-.25,6.71-2.15,7.82-6.4a35.14,35.14,0,0,0,.8-7.86m13.65.26V118.58c0-.88.26-1.07,1.07-1,1.4.06,2.82,0,4.23,0,.5,0,.68.16.65.66v2c0,.87.05.91.81.53a52.688,52.688,0,0,1,5.78-2.49,18.8,18.8,0,0,1,9.45-1c3.68.65,5.54,3,5.69,7,.06,1.36,0,2.71,0,4.07v25.12c0,.75-.2.93-.92.9q-2.07-.09-4.14,0c-.73,0-.86-.22-.86-.89V128.77c0-1,0-2.1-.09-3.15a2.86,2.86,0,0,0-2.77-3,19.69,19.69,0,0,0-9.27,1.26c-1,.36-2,.86-3.06,1.26a1,1,0,0,0-.71,1.11v27.37c0,.52-.13.72-.69.71-1.46,0-2.93-.05-4.39,0-.69,0-.88-.17-.88-.87V135.97m-67.01.03a31.75,31.75,0,0,1,1-8.94c1.87-6.51,6.16-9.85,12.93-10a30.2,30.2,0,0,1,8.92,1.16c.42.11.57.26.49.74-.25,1.3-.44,2.61-.61,3.93-.09.66-.22.94-1,.65a19.13,19.13,0,0,0-6.08-1.18c-4.77-.11-7.64,2-8.66,6.7a32.55,32.55,0,0,0,.14,14.79,10.067,10.067,0,0,0,.33,1,6.69,6.69,0,0,0,6.37,4.69,18.68,18.68,0,0,0,8.53-1.7c1-.39,1-.39,1.14.67.18,1.28.34,2.57.53,3.86a.48.48,0,0,1-.31.61c-4.59,1.76-9.28,2.52-14.13,1.32s-7.32-4.46-8.54-9a34.53,34.53,0,0,1-1.05-9.28" transform="translate(-3.3 -77.42)" fill="#fff"/>
</svg>
