<svg xmlns="http://www.w3.org/2000/svg" role="img" viewBox="-6.44 79.06 412.62 86.62"><title>PrestoConDay_PromoGraphics1_Logo-White.svg</title><style>svg {enable-background:new 0 0 400 245}</style><style>.st22{fill:#fff}</style><path d="M13.6 148.1c-3 0-5.8-1.2-7.2-2.4v12.2H1.5v-39.4h4.1l.4 2.9c1.3-1.9 4.5-3.5 7.9-3.5 8.5 0 10.7 6.9 10.7 15 .1 9.2-2.9 15.2-11 15.2m-7.2-6.3c1.9 1.5 4.2 2.3 6.5 2.3 5.6 0 6.9-4.4 6.9-11.2 0-6.8-1-11-6.5-11-2.9 0-5.2 1.4-6.9 2.9v17zm39-19.2c-3.1.6-6.2 1.6-9 3v21.8h-4.9v-28.9h4l.5 3.4c1.7-1.7 5-3.4 8.7-3.8l.7 4.5zm7.7 12.5c.3 6.1 1.8 9 7.7 9 2.9 0 5.8-.6 8.5-1.6l.8 3.7c-3 1.1-6.1 1.7-9.3 1.7-10.4 0-12.5-7.1-12.5-15.2 0-8.3 2.7-14.9 11.6-14.9 7.9 0 11.1 5.5 11.1 12.5v4.7H53.1zm0-3.8h13.1v-1c0-5.4-1.7-8.6-6.5-8.6-5.4-.1-6.5 3.8-6.6 9.6M84.8 148c-2.9 0-6.6-.6-9.1-1.9l.9-3.8c2.5 1.1 5.2 1.7 8 1.8 3.8 0 5.9-1 5.9-4.3 0-3.1-2.1-4-6-5-6.3-1.5-8.7-3.7-8.7-8.7 0-5.4 3-8.2 9.7-8.2 2.8 0 5.8.5 7.8 1.5l-.8 3.9c-2.2-.9-4.5-1.3-6.9-1.4-3.7 0-5.1 1-5.1 3.9 0 3 1.4 3.6 5.5 4.7 5.6 1.5 9.2 3.3 9.2 8.9 0 6-4.4 8.6-10.4 8.6m31.3-.9c-1.2.5-4.1.9-5.9.9-5 0-7-2.7-7-7.2v-18.3h-5v-4h5v-7l4.9-.7v7.7h8.2l-.4 4H108v18.1c0 2.7.6 3.5 3.3 3.5 1.5 0 2.9-.2 4.4-.6l.4 3.6zm16.1.9c-8.4 0-12.2-6.3-12.2-15s3.8-15 12.2-15c8.4 0 12.2 6.3 12.2 15s-3.8 15-12.2 15m0-26.1c-6.1 0-7.3 4.9-7.3 11.1 0 6.1 1.2 11.1 7.3 11.1s7.3-5 7.3-11.1-1.2-11.1-7.3-11.1" class="st22"/><path d="M278.7 87.1c1.8 0 3.3 1.5 3.3 3.3 0 1.8-1.5 3.3-3.3 3.3-1.8 0-3.3-1.5-3.3-3.3 0-1.8 1.5-3.3 3.3-3.3m9.2 8.7c2 0 3.7 1.6 3.7 3.7s-1.6 3.7-3.7 3.7c-2 0-3.7-1.6-3.7-3.7 0-2 1.6-3.7 3.7-3.7m9.1 8.8c2.2 0 4.1 1.8 4.1 4.1 0 2.2-1.8 4.1-4.1 4.1-2.2 0-4.1-1.8-4.1-4.1s1.8-4.1 4.1-4.1m9.1 8.7c2.4 0 4.4 2 4.4 4.4 0 2.4-2 4.4-4.4 4.4-2.4 0-4.4-2-4.4-4.4 0-2.4 1.9-4.4 4.4-4.4m-45.6-25.8c1.6 0 2.9 1.3 2.9 2.9 0 1.6-1.3 2.9-2.9 2.9-1.6 0-2.9-1.3-2.9-2.9 0-1.6 1.3-2.9 2.9-2.9m9.1 8.7c1.8 0 3.3 1.5 3.3 3.3 0 1.8-1.5 3.3-3.3 3.3-1.8 0-3.3-1.5-3.3-3.3 0-1.8 1.5-3.3 3.3-3.3m9.1 8.7c2 0 3.7 1.6 3.7 3.7 0 2-1.6 3.7-3.7 3.7-2 0-3.7-1.6-3.7-3.7.1-2 1.7-3.7 3.7-3.7m9.2 8.8c2.2 0 4.1 1.8 4.1 4.1s-1.8 4.1-4.1 4.1c-2.2 0-4.1-1.8-4.1-4.1s1.8-4.1 4.1-4.1m9.1 8.7c2.4 0 4.4 2 4.4 4.4 0 2.4-2 4.4-4.4 4.4-2.4 0-4.4-2-4.4-4.4-.1-2.4 1.9-4.4 4.4-4.4m-54.7-34.6c1.4 0 2.6 1.2 2.6 2.6s-1.2 2.6-2.6 2.6c-1.4 0-2.6-1.2-2.6-2.6 0-1.4 1.2-2.6 2.6-2.6m9.1 8.8c1.6 0 2.9 1.3 2.9 2.9s-1.3 2.9-2.9 2.9c-1.6 0-2.9-1.3-2.9-2.9 0-1.6 1.3-2.9 2.9-2.9m9.1 8.7c1.8 0 3.3 1.5 3.3 3.3 0 1.8-1.5 3.3-3.3 3.3s-3.3-1.5-3.3-3.3c0-1.8 1.5-3.3 3.3-3.3m9.1 8.8c2 0 3.7 1.6 3.7 3.7 0 2-1.6 3.7-3.7 3.7-2 0-3.7-1.6-3.7-3.7.1-2.1 1.7-3.7 3.7-3.7m9.1 8.7c2.2 0 4.1 1.8 4.1 4.1 0 2.2-1.8 4.1-4.1 4.1-2.2 0-4.1-1.8-4.1-4.1.1-2.3 1.9-4.1 4.1-4.1m9.2 8.7c2.4 0 4.4 2 4.4 4.4s-2 4.4-4.4 4.4-4.4-2-4.4-4.4c-.1-2.4 1.9-4.4 4.4-4.4m-27.4-7.6c1.6 0 2.9 1.3 2.9 2.9s-1.3 2.9-2.9 2.9c-1.6 0-2.9-1.3-2.9-2.9 0-1.6 1.3-2.9 2.9-2.9m-9.1 9.1c1.6 0 2.9 1.3 2.9 2.9 0 1.6-1.3 2.9-2.9 2.9-1.6 0-2.9-1.3-2.9-2.9 0-1.6 1.3-2.9 2.9-2.9m-9.1 9.1c1.6 0 2.9 1.3 2.9 2.9 0 1.6-1.3 2.9-2.9 2.9s-2.9-1.3-2.9-2.9 1.3-2.9 2.9-2.9m18.2 0c1.6 0 2.9 1.3 2.9 2.9 0 1.6-1.3 2.9-2.9 2.9-1.6 0-2.9-1.3-2.9-2.9 0-1.6 1.3-2.9 2.9-2.9m18.2 0c1.6 0 2.9 1.3 2.9 2.9 0 1.6-1.3 2.9-2.9 2.9-1.6 0-2.9-1.3-2.9-2.9 0-1.6 1.3-2.9 2.9-2.9m-9.1-9.1c1.6 0 2.9 1.3 2.9 2.9 0 1.6-1.3 2.9-2.9 2.9-1.6 0-2.9-1.3-2.9-2.9 0-1.6 1.3-2.9 2.9-2.9" class="st22"/><path d="M196.8 133c0 2.5-.3 5-1.1 7.4-1.7 4.6-5.1 7.2-10 7.4-1.6.1-3.2 0-4.7-.3-3.9-.8-6.3-3.2-7.6-6.9-1-2.9-1.1-5.8-1.1-8.8 0-2.3.5-4.6 1.3-6.8 1.6-4.1 4.7-6.2 9-6.8 1.8-.2 3.7-.2 5.5.2 3.6.7 6 2.8 7.4 6.1 1 2.8 1.2 5.7 1.3 8.5m-5-.1c0-.8-.1-1.8-.1-2.8-.1-1.5-.4-3-1-4.4-.8-1.9-2.2-3.1-4.3-3.5-1.4-.2-2.8-.2-4.1.1-1.7.3-3.2 1.5-3.9 3.2-.2.4-.4.9-.5 1.3-.8 3-.8 6.1-.6 9.1.1 1.4.4 2.8.8 4.2.8 2.1 2.2 3.5 4.5 3.9.8.1 1.6.2 2.4.1 3.5-.2 5.3-1.7 6.1-5 .6-2 .7-4 .7-6.2m10.8.2v-13.7c0-.7.2-.8.8-.8h3.3c.4 0 .5.1.5.5v1.6c0 .7 0 .7.6.4 1.5-.7 3-1.4 4.5-2 2.4-.8 4.9-1.2 7.4-.8 2.9.5 4.3 2.3 4.5 5.5v22.9c0 .6-.2.7-.7.7h-3.3c-.6 0-.7-.2-.7-.7v-19.4c0-.8 0-1.7-.1-2.5-.1-1.4-.8-2.1-2.2-2.3-2.5-.4-4.9.2-7.3 1-.8.3-1.6.7-2.4 1-.4.1-.6.5-.6.9v21.5c0 .4-.1.6-.5.6h-3.5c-.5 0-.7-.1-.7-.7.4-4.6.4-9.1.4-13.7m-52.8 0c-.1-2.4.2-4.7.8-7 1.5-5.1 4.8-7.7 10.2-7.9 2.4 0 4.7.3 7 .9.3.1.4.2.4.6-.2 1-.3 2.1-.5 3.1-.1.5-.2.7-.8.5-1.5-.6-3.1-.9-4.8-.9-3.8-.1-6 1.6-6.8 5.3-.9 3.8-.8 7.8.1 11.6.1.3.2.5.3.8.8 2.4 2.5 3.5 5 3.7 2.4.2 4.6-.5 6.7-1.3.8-.3.8-.3.9.5.1 1 .3 2 .4 3 .1.2 0 .4-.2.5-3.6 1.4-7.3 2-11.1 1-3.7-.9-5.7-3.5-6.7-7.1-.6-2.4-.9-4.8-.9-7.3" class="st22"/><path d="M322.9 148.3v-30.1h9.9c3.8 0 6.9 1.2 9.3 3.6 2.4 2.4 3.6 5.5 3.6 9.2v4.6c0 3.8-1.2 6.8-3.6 9.2-2.4 2.4-5.5 3.6-9.3 3.6h-9.9zm5-26v22.1h4.9c2.4 0 4.3-.8 5.7-2.4 1.4-1.6 2.1-3.7 2.1-6.3V131c0-2.5-.7-4.6-2.1-6.3-1.4-1.6-3.3-2.4-5.7-2.4h-4.9zm39.4 19h-10.7l-2.3 7h-5.2l10.5-30.1h4.8l10.4 30.1h-5.2l-2.3-7zm-9.3-4.2h7.9l-3.9-11.9h-.1l-3.9 11.9zm27.6-4.2l7.3-14.6h5.6l-10.4 19.6v10.5h-5v-10.8l-10.3-19.3h5.6l7.2 14.6z" class="st22"/></svg>