<svg id="Layer_2" data-name="Layer 2" xmlns="http://www.w3.org/2000/svg" width="567.639" height="142.88" viewBox="0 0 567.639 142.88">
  <g id="Layer_1" data-name="Layer 1" transform="translate(0 0)">
    <path id="Path_260" data-name="Path 260" d="M13.766,72.666A13.712,13.712,0,0,1,5.56,70V83.839H0V39.113H4.7l.462,3.357c1.519-2.123,5.1-3.97,9-3.97,9.663,0,12.176,7.807,12.176,17.07C26.333,65.846,22.9,72.666,13.766,72.666Zm-8.206-7.1a12.1,12.1,0,0,0,7.407,2.584c6.421,0,7.807-5.027,7.807-12.7s-1.19-12.5-7.407-12.5A11.732,11.732,0,0,0,5.56,46.2ZM49.885,43.749a39.752,39.752,0,0,0-10.258,3.437V71.929h-5.56V39.122h4.565l.6,3.837a16.7,16.7,0,0,1,9.929-4.307Zm8.73,14.21c.337,6.963,2.052,10.267,8.739,10.267a28.038,28.038,0,0,0,9.654-1.847l.888,4.227A30.693,30.693,0,0,1,67.31,72.6C55.472,72.6,53.1,64.522,53.1,55.33c0-9.467,3.108-16.874,13.171-16.874,8.934,0,12.638,6.288,12.638,14.157v5.329Zm0-4.37H73.5V52.417c0-6.092-1.918-9.769-7.345-9.769-6.146-.027-7.469,4.405-7.54,10.959Zm36,18.988A24.974,24.974,0,0,1,84.22,70.393l1.039-4.343A23.3,23.3,0,0,0,94.327,68.1c4.361,0,6.679-1.2,6.679-4.9,0-3.552-2.38-4.565-6.812-5.622-7.158-1.723-9.9-4.236-9.9-9.858,0-6.155,3.375-9.263,11.048-9.263a22.834,22.834,0,0,1,8.881,1.652l-.888,4.441a22.452,22.452,0,0,0-7.807-1.581c-4.174,0-5.764,1.119-5.764,4.441s1.59,4.1,6.288,5.329C102.471,54.46,106.5,56.512,106.5,62.8c-.053,6.883-5.08,9.8-11.892,9.8Zm35.525-.995a24.441,24.441,0,0,1-6.75.995c-5.622,0-7.993-3.108-7.993-8.206V43.616H109.7v-4.5h5.693V31.12l5.56-.79v8.792h9.325l-.462,4.5h-8.881V64.141c0,3.037.728,3.97,3.766,3.97a24.343,24.343,0,0,0,4.965-.666l.462,4.165Zm18.393.995c-9.529,0-13.828-7.1-13.828-17.07s4.3-17.07,13.828-17.07,13.828,7.149,13.828,17.07S158.085,72.6,148.528,72.6Zm0-29.636c-6.883,0-8.268,5.622-8.268,12.567s1.385,12.576,8.268,12.576,8.268-5.631,8.268-12.576-1.377-12.549-8.268-12.549Z" transform="translate(0 -3.393)"/>
    <circle id="Ellipse_222" data-name="Ellipse 222" cx="3.766" cy="3.766" r="3.766" transform="translate(217.348)" fill="#5b87da"/>
    <circle id="Ellipse_223" data-name="Ellipse 223" cx="4.183" cy="4.183" r="4.183" transform="translate(227.286 9.938)" fill="#5b87da"/>
    <circle id="Ellipse_224" data-name="Ellipse 224" cx="4.6" cy="4.6" r="4.6" transform="translate(235.316 24.476) rotate(-45)" fill="#5b87da"/>
    <circle id="Ellipse_225" data-name="Ellipse 225" cx="5.018" cy="5.018" r="5.018" transform="translate(245.071 34.828) rotate(-45)" fill="#5b87da"/>
    <circle id="Ellipse_226" data-name="Ellipse 226" cx="3.348" cy="3.348" r="3.348" transform="translate(197.064 0.417)" fill="#1edcff"/>
    <circle id="Ellipse_227" data-name="Ellipse 227" cx="3.766" cy="3.766" r="3.766" transform="translate(207.002 10.355)" fill="#1edcff"/>
    <circle id="Ellipse_228" data-name="Ellipse 228" cx="4.183" cy="4.183" r="4.183" transform="translate(216.931 20.285)" fill="#1edcff"/>
    <circle id="Ellipse_229" data-name="Ellipse 229" cx="4.6" cy="4.6" r="4.6" transform="translate(224.951 34.816) rotate(-45)" fill="#1edcff"/>
    <circle id="Ellipse_230" data-name="Ellipse 230" cx="5.018" cy="5.018" r="5.018" transform="translate(234.722 45.177) rotate(-45)" fill="#1edcff"/>
    <circle id="Ellipse_231" data-name="Ellipse 231" cx="2.931" cy="2.931" r="2.931" transform="translate(176.797 0.844)"/>
    <circle id="Ellipse_232" data-name="Ellipse 232" cx="3.348" cy="3.348" r="3.348" transform="translate(186.717 10.764)"/>
    <circle id="Ellipse_233" data-name="Ellipse 233" cx="3.766" cy="3.766" r="3.766" transform="translate(196.655 20.711)"/>
    <circle id="Ellipse_234" data-name="Ellipse 234" cx="4.183" cy="4.183" r="4.183" transform="translate(206.585 30.649)"/>
    <circle id="Ellipse_235" data-name="Ellipse 235" cx="4.6" cy="4.6" r="4.6" transform="translate(214.614 45.173) rotate(-45)"/>
    <circle id="Ellipse_236" data-name="Ellipse 236" cx="5.018" cy="5.018" r="5.018" transform="translate(224.363 55.52) rotate(-45)"/>
    <circle id="Ellipse_237" data-name="Ellipse 237" cx="3.348" cy="3.348" r="3.348" transform="translate(197.064 41.812)" fill="#5b87da"/>
    <circle id="Ellipse_238" data-name="Ellipse 238" cx="3.348" cy="3.348" r="3.348" transform="translate(186.717 52.168)" fill="#5b87da"/>
    <circle id="Ellipse_239" data-name="Ellipse 239" cx="3.348" cy="3.348" r="3.348" transform="translate(176.371 62.523)" fill="#5b87da"/>
    <circle id="Ellipse_240" data-name="Ellipse 240" cx="3.348" cy="3.348" r="3.348" transform="translate(197.064 62.514)" fill="#5b87da"/>
    <circle id="Ellipse_241" data-name="Ellipse 241" cx="3.348" cy="3.348" r="3.348" transform="translate(216.384 65.869) rotate(-45)" fill="#5b87da"/>
    <circle id="Ellipse_242" data-name="Ellipse 242" cx="3.348" cy="3.348" r="3.348" transform="translate(206.029 55.514) rotate(-45)" fill="#5b87da"/>
    <path id="Path_261" data-name="Path 261" d="M316.755,27.938v15.7h17.416v4.92H316.755v22.4H311V23h25.276v4.92Z" transform="translate(-34.796 -2.573)"/>
    <path id="Path_262" data-name="Path 262" d="M356.973,73.61c-10.657,0-14.343-5.4-14.343-17.141s3.686-17.15,14.343-17.15,14.343,5.4,14.343,17.15S367.63,73.61,356.973,73.61Zm0-29.85c-6.421,0-8.881,1.909-8.881,12.709s2.46,12.7,8.881,12.7,8.881-1.909,8.881-12.7S363.385,43.761,356.973,43.761Z" transform="translate(-38.335 -4.399)"/>
    <path id="Path_263" data-name="Path 263" d="M403.375,72.888l-.959-3.206c-2.593,1.847-6.83,4.032-11.066,4.032-7.442,0-8.81-4.574-8.81-8.331V40.25H388V65.721c0,2.8,2.46,3.757,4.236,3.757,3.348,0,7.513-2.256,10.045-4.032V40.25h5.462V72.888Z" transform="translate(-42.8 -4.503)"/>
    <path id="Path_264" data-name="Path 264" d="M439.653,72.784V47.313c0-2.8-2.46-3.757-4.236-3.757-3.348,0-7.513,2.256-10.036,4.032v25.2H419.91V40.146h4.378l.95,3.206c2.6-1.847,6.83-4.032,11.066-4.032,7.442,0,8.81,4.574,8.81,8.331V72.784Z" transform="translate(-46.981 -4.399)"/>
    <path id="Path_265" data-name="Path 265" d="M479.2,70.958l-.826-3.552a12.913,12.913,0,0,1-9.281,4.37c-8.615,0-13.188-5.462-13.188-17.487,0-9.29,4.37-16.8,13.251-16.8a30.063,30.063,0,0,1,8.952,1.368V23h5.462V70.958ZM478.1,43.427a24.867,24.867,0,0,0-8.339-1.572c-4.778,0-8.331,3.277-8.331,12.5,0,6.483,1.439,12.975,8.126,12.975,3.9,0,7.585-3.144,8.544-4.645Z" transform="translate(-51.008 -2.573)"/>
    <path id="Path_266" data-name="Path 266" d="M513.274,72.784l-.648-2.931a20.56,20.56,0,0,1-10.791,3.615c-4.982,0-8.055-2.931-8.055-9.494,0-8.668,4.3-10.995,16.119-10.995.888,0,1.776.071,2.727.071V48.743c0-2.318-1.021-4.982-5.8-4.982a28.42,28.42,0,0,0-10.728,2.46V41.3a39.815,39.815,0,0,1,11.2-1.98c7.5,0,10.791,3.481,10.791,10.382V72.784Zm-.648-15.5c-.95,0-1.776-.071-2.593-.071-9.085,0-10.862,1.226-10.862,6.288,0,4.441,1.643,5.533,3.961,5.533,3.073,0,7.247-2.123,9.494-3.828Z" transform="translate(-55.246 -4.399)"/>
    <path id="Path_267" data-name="Path 267" d="M535.7,43.2V63.077c0,3.41.542,4.441,3.135,4.441a19.2,19.2,0,0,0,6.217-1.155v5.116a29.7,29.7,0,0,1-7.513.826c-6.688,0-7.309-2.46-7.309-9.974V43.2H525.38V39.036h4.849V29.4H535.7v9.636h9.494V43.2Z" transform="translate(-58.782 -3.289)"/>
    <path id="Path_268" data-name="Path 268" d="M556.838,32.3c-2.389,0-3.348-1.092-3.348-3.481s.959-3.419,3.348-3.419,3.322,1.03,3.322,3.419S559.272,32.3,556.838,32.3ZM554.1,71.227V38.589h5.462V71.227Z" transform="translate(-61.927 -2.842)"/>
    <path id="Path_269" data-name="Path 269" d="M583.293,73.61c-10.657,0-14.343-5.4-14.343-17.141s3.686-17.15,14.343-17.15,14.343,5.4,14.343,17.15S593.942,73.61,583.293,73.61Zm0-29.85c-6.421,0-8.881,1.909-8.881,12.709s2.46,12.7,8.881,12.7,8.881-1.909,8.881-12.7S589.705,43.761,583.293,43.761Z" transform="translate(-63.657 -4.399)"/>
    <path id="Path_270" data-name="Path 270" d="M628.9,72.784V47.313c0-2.8-2.46-3.757-4.236-3.757-3.348,0-7.513,2.256-10.036,4.032v25.2H609.16V40.146h4.378l.95,3.206c2.6-1.847,6.83-4.032,11.066-4.032,7.442,0,8.81,4.574,8.81,8.331V72.784Z" transform="translate(-68.156 -4.399)"/>
    <path id="path4" d="M46.47,123.636V126.3H57.776v29.779h3.091V126.264h11.3V123.6Z" transform="translate(-5.199 -13.829)" fill="#043863"/>
    <path id="path6" d="M101.184,123.64v14.068H81.921V123.64H78.83v32.407h3.091v-15.7h19.263v15.7h3.082V123.64Z" transform="translate(-8.82 -13.833)" fill="#043863"/>
    <path id="path8" d="M114.82,123.636v32.407h22.6v-2.664H117.884V140.607h18.064v-2.664H117.9V126.264h19.281V123.6Z" transform="translate(-12.847 -13.829)" fill="#043863"/>
    <path id="path10" d="M333.63,123.686V156h3.082V140.613h15.48v-2.664h-15.48V126.314h17.425V123.65Z" transform="translate(-37.328 -13.835)" fill="#043863"/>
    <path id="path12" d="M374.319,153.964c8.508,0,12.132-7.1,12.132-14.21s-3.623-14.21-12.132-14.21-12.176,7.149-12.176,14.21,3.624,14.21,12.176,14.21m0-31.084c10.142,0,15.213,7.993,15.213,16.874s-5.071,16.874-15.213,16.874-15.249-7.993-15.249-16.874,5.062-16.874,15.249-16.874" transform="translate(-40.174 -13.748)" fill="#043863"/>
    <path id="path14" d="M398.42,123.69H401.5v20c0,7.469,3.481,10.364,9.45,10.364s9.5-2.9,9.5-10.364v-20h3.082v20.7c0,6.652-3.552,12.309-12.585,12.309s-12.531-5.657-12.531-12.309Z" transform="translate(-44.577 -13.839)" fill="#043863"/>
    <path id="path16" d="M433.64,123.69h3.437l18.828,27.336h.1V123.69h3.073V156h-3.437l-18.828-27.336h-.089V156H433.64Z" transform="translate(-48.518 -13.839)" fill="#043863"/>
    <path id="path18" d="M472.612,153.38h6.563c9.281,0,13.322-3.846,13.322-13.535s-4.023-13.535-13.322-13.535h-6.563Zm-3.082-29.69h11.181c9.769.222,14.849,5.471,14.849,16.155S490.49,155.778,480.711,156H469.566Z" transform="translate(-52.533 -13.839)" fill="#043863"/>
    <path id="path20" d="M508.613,143.335h12.753l-6.217-16.572ZM513.5,123.69h3.428L529.6,156h-3.3l-3.934-10.045h-14.7L503.764,156h-3.3Z" transform="translate(-55.994 -13.839)" fill="#043863"/>
    <g id="use22" transform="translate(470 109.807)">
      <path id="path4-2" data-name="path4" d="M529.21,123.684v2.664h11.27v29.7h3.082V126.3h11.27V123.64Z" transform="translate(-529.21 -123.64)" fill="#043863"/>
    </g>
    <path id="path24" d="M561.73,123.69H564.8V156H561.73Z" transform="translate(-62.849 -13.839)" fill="#043863"/>
    <g id="use26" transform="translate(506.954 109.132)">
      <path id="path12-2" data-name="path12" d="M586.078,153.964c8.508,0,12.123-7.1,12.123-14.21s-3.615-14.21-12.123-14.21-12.176,7.149-12.176,14.21,3.615,14.21,12.176,14.21m0-31.084c10.133,0,15.2,7.993,15.2,16.874s-5.071,16.874-15.2,16.874-15.258-7.993-15.258-16.874,5.071-16.874,15.258-16.874" transform="translate(-570.82 -122.88)" fill="#043863"/>
    </g>
    <g id="use28" transform="translate(542.203 109.851)">
      <path id="path16-2" data-name="path16" d="M610.51,123.69h3.437l18.828,27.336h.089V123.69h3.082V156h-3.437l-18.828-27.336h-.071V156h-3.073Z" transform="translate(-610.51 -123.69)" fill="#043863"/>
    </g>
    <path id="path30" d="M150.13,123.23H160.1V147.3H174.42v8.286H150.13Z" transform="translate(-16.797 -13.788)" fill="#043863"/>
    <path id="path32" d="M184.82,123.23h9.974v32.363H184.82Z" transform="translate(-20.679 -13.788)" fill="#043863"/>
    <path id="path34" d="M204.41,123.23h10.2l9.432,17.309h.089V123.23h9.423v32.354h-9.7l-9.92-17.673h-.115v17.673H204.41Z" transform="translate(-22.87 -13.788)" fill="#043863"/>
    <path id="path36" d="M274.983,143.079c0,9.023-4.76,13.277-14.725,13.277S245.48,152.1,245.48,143.079V123.23h9.974v17.629c0,3.259,0,7.434,4.849,7.434,4.707,0,4.707-4.174,4.707-7.434V123.23h9.974Z" transform="translate(-27.465 -13.788)" fill="#043863"/>
    <path id="path38" d="M295.086,138.378l-10.657-15.1h11.7l4.894,8.792,4.8-8.792h11.057L306.5,138.511l11.546,17.123h-12l-5.524-9.645-5.711,9.645H283.39Z" transform="translate(-31.707 -13.793)" fill="#043863"/>
    <path id="path40" d="M6.97,151.223V138.23H.46v19.485H20v-6.492Z" transform="translate(-0.051 -15.466)" fill="#1896d2"/>
    <path id="path42" d="M32.912,123.59H.46v9.769h6.5v-3.215H26.446v19.467H23.2V156.1h9.707Z" transform="translate(-0.051 -13.828)" fill="#043863"/>
    <rect id="Rectangle_31" data-name="Rectangle 31" width="567.639" height="1.954" transform="translate(0 91.103)" fill="#5b87da"/>
  </g>
</svg>
