<svg xmlns="http://www.w3.org/2000/svg" width="688.553" height="217.798" viewBox="0 0 688.553 217.798">
  <g id="Group_403" data-name="Group 403" transform="translate(0 -0.001)">
    <path id="Path_173" data-name="Path 173" d="M-1483.152,4704.546c-9.135,0-17.573-3.687-21.788-7.2v36.9H-1519.7V4615.462h12.474l1.231,8.783c4.042-5.623,13.53-10.543,23.9-10.543,25.65,0,32.328,20.736,32.328,45.338C-1449.77,4686.444-1458.906,4704.546-1483.152,4704.546Zm-21.788-18.8a32.168,32.168,0,0,0,19.677,6.85c17.043,0,20.733-13.352,20.733-33.732s-3.16-33.213-19.678-33.213c-8.786,0-15.809,4.219-20.732,8.609Zm117.721-57.988a105.605,105.605,0,0,0-27.235,9.139v65.715h-14.759v-87.15h12.124l1.579,10.189c5.272-5.27,14.938-10.365,26.357-11.422Zm23.193,37.781c.881,18.447,5.447,27.232,23.194,27.232a74.108,74.108,0,0,0,25.653-4.92l2.284,11.242c-7.2,2.986-18.626,5.275-28.113,5.275-31.453,0-37.779-21.439-37.779-45.861,0-25.121,8.258-44.8,34.968-44.8,23.72,0,33.56,16.693,33.56,37.6v14.234Zm0-11.6h39.534v-3.164c0-16.168-5.093-26.008-19.5-26.008C-1360.333,4624.774-1363.85,4636.55-1364.026,4653.946Zm95.582,50.428c-8.786,0-20.03-1.934-27.587-5.8l2.811-11.592a61.879,61.879,0,0,0,24.075,5.447c11.592,0,17.747-3.162,17.747-13.006,0-9.314-6.326-12.123-18.1-14.936-19.152-4.568-26.354-11.244-26.354-26.18,0-16.344,8.96-24.6,29.339-24.6,8.434,0,17.4,1.582,23.546,4.387l-2.459,11.779a59.637,59.637,0,0,0-20.734-4.219c-11.071,0-15.288,2.984-15.288,11.773,0,9.137,4.217,10.893,16.692,14.232,17.042,4.568,27.761,10.014,27.761,26.709C-1236.993,4696.638-1250.349,4704.374-1268.444,4704.374Zm94.355-2.637c-3.689,1.4-12.3,2.635-17.92,2.635-14.935,0-21.26-8.26-21.26-21.793v-55.164h-15.111v-11.953h15.111V4594.2l14.758-2.1v23.365h24.774l-1.229,11.953h-23.545v54.469c0,8.078,1.933,10.543,10.014,10.543a64.8,64.8,0,0,0,13.179-1.762l1.229,11.072Zm48.843,2.637c-25.3,0-36.724-18.977-36.724-45.33s11.421-45.338,36.724-45.338,36.723,18.975,36.723,45.338S-1099.945,4704.374-1125.246,4704.374Zm0-78.721c-18.273,0-21.966,14.934-21.966,33.391s3.692,33.383,21.966,33.383,21.965-14.937,21.965-33.383S-1106.973,4625.653-1125.246,4625.653Z" transform="translate(1519.701 -4516.446)" fill="#fff"/>
    <g id="Group_404" data-name="Group 404">
      <circle id="Ellipse_154" data-name="Ellipse 154" cx="10.004" cy="10.004" r="10.004" transform="translate(573.074 14.148) rotate(-45)" fill="#fff"/>
      <circle id="Ellipse_155" data-name="Ellipse 155" cx="11.114" cy="11.114" r="11.114" transform="translate(599.004 41.65) rotate(-45)" fill="#fff"/>
      <circle id="Ellipse_156" data-name="Ellipse 156" cx="12.224" cy="12.224" r="12.224" transform="translate(624.936 69.156) rotate(-45)" fill="#fff"/>
      <circle id="Ellipse_157" data-name="Ellipse 157" cx="13.334" cy="13.334" r="13.334" transform="translate(650.84 96.627) rotate(-45)" fill="#fff"/>
      <circle id="Ellipse_158" data-name="Ellipse 158" cx="8.894" cy="8.894" r="8.894" transform="translate(519.67 14.148) rotate(-45)" fill="#fff"/>
      <circle id="Ellipse_159" data-name="Ellipse 159" cx="10.004" cy="10.004" r="10.004" transform="translate(545.602 41.65) rotate(-45)" fill="#fff"/>
      <circle id="Ellipse_160" data-name="Ellipse 160" cx="11.114" cy="11.114" r="11.114" transform="translate(571.506 69.126) rotate(-45)" fill="#fff"/>
      <circle id="Ellipse_161" data-name="Ellipse 161" cx="12.224" cy="12.224" r="12.224" transform="translate(597.426 96.612) rotate(-45)" fill="#fff"/>
      <circle id="Ellipse_162" data-name="Ellipse 162" cx="13.334" cy="13.334" r="13.334" transform="translate(623.361 124.131) rotate(-45)" fill="#fff"/>
      <circle id="Ellipse_163" data-name="Ellipse 163" cx="7.784" cy="7.784" r="7.784" transform="translate(466.297 14.18) rotate(-45)" fill="#fff"/>
      <circle id="Ellipse_164" data-name="Ellipse 164" cx="8.894" cy="8.894" r="8.894" transform="translate(492.184 41.635) rotate(-45)" fill="#fff"/>
      <circle id="Ellipse_165" data-name="Ellipse 165" cx="10.004" cy="10.004" r="10.004" transform="translate(518.129 69.154) rotate(-45)" fill="#fff"/>
      <circle id="Ellipse_166" data-name="Ellipse 166" cx="11.114" cy="11.114" r="11.114" transform="translate(544.045 96.64) rotate(-45)" fill="#fff"/>
      <circle id="Ellipse_167" data-name="Ellipse 167" cx="12.224" cy="12.224" r="12.224" transform="translate(569.961 124.134) rotate(-45)" fill="#fff"/>
      <circle id="Ellipse_168" data-name="Ellipse 168" cx="13.334" cy="13.334" r="13.334" transform="translate(595.857 151.586) rotate(-45)" fill="#fff"/>
      <circle id="Ellipse_169" data-name="Ellipse 169" cx="8.894" cy="8.894" r="8.894" transform="translate(519.674 124.092) rotate(-45)" fill="#fff"/>
      <ellipse id="Ellipse_170" data-name="Ellipse 170" cx="8.894" cy="8.894" rx="8.894" ry="8.894" transform="translate(495.875 142.683)" fill="#fff"/>
      <ellipse id="Ellipse_171" data-name="Ellipse 171" cx="8.894" cy="8.894" rx="8.894" ry="8.894" transform="translate(468.396 170.188)" fill="#fff"/>
      <ellipse id="Ellipse_172" data-name="Ellipse 172" cx="8.894" cy="8.894" rx="8.894" ry="8.894" transform="translate(523.361 170.173)" fill="#fff"/>
      <circle id="Ellipse_173" data-name="Ellipse 173" cx="8.894" cy="8.894" r="8.894" transform="translate(574.656 179.088) rotate(-45)" fill="#fff"/>
      <circle id="Ellipse_174" data-name="Ellipse 174" cx="8.894" cy="8.894" r="8.894" transform="translate(547.16 151.575) rotate(-45)" fill="#fff"/>
    </g>
  </g>
</svg>
