<svg xmlns="http://www.w3.org/2000/svg" width="200" height="33.294" viewBox="0 0 200 33.294">
  <g id="Group_408" data-name="Group 408" transform="translate(-0.57 -0.595)">
    <path id="Path_465" data-name="Path 465" d="M95.589,7.2V2.017H73.912V33.1H95.591V27.919H79.107V20.156H94.8v-5.18H79.107V7.2H95.59m16.083,25.9V2.018h5.2v25.9h15V33.1h-20.2m24.434,0V2.018h5.2v25.9h15V33.1H136.106m-35.059,0h5.191V2.013h-5.191ZM9,9.909A11.1,11.1,0,1,0,16.814,6.7,11,11,0,0,0,9,9.909M.57,17.7A16.243,16.243,0,1,1,16.812,33.889,16.22,16.22,0,0,1,.57,17.7m48.555-2.726V7.2H59.6a3.888,3.888,0,1,1,0,7.777H49.125Zm13.079,4.8a9.061,9.061,0,0,0-2.6-17.75H43.923V33.1h5.2V20.155h7.248L64.2,33.1H70.27L62.2,19.767ZM40.244,5.326A3.826,3.826,0,1,1,36.418,1.51a3.82,3.82,0,0,1,3.826,3.816m139.232-3.31h-6.318l-8,11.543-8-11.543h-6.318l11.712,16.91V33.1h5.2V18.941L179.477,2.017m12.932,13.556a6.844,6.844,0,1,1,6.859-6.836,6.85,6.85,0,0,1-6.859,6.836m0-14.978a8.146,8.146,0,1,0,5.769,2.38A8.157,8.157,0,0,0,192.409.6" transform="translate(0 0)" fill="#ce1632" fill-rule="evenodd"/>
    <path id="Path_466" data-name="Path 466" d="M140.592,4.865h3.214a1.036,1.036,0,1,1,0,2.072h-3.214Zm5.639,1.047a2.426,2.426,0,0,0-2.425-2.434H139.2v8.307h1.392V8.333h2.323l1.671,3.451h1.547l-1.716-3.535a2.406,2.406,0,0,0,1.814-2.337Z" transform="translate(49.844 1.037)" fill="#ce1632" fill-rule="evenodd"/>
  </g>
</svg>
