<svg id="Group_555" data-name="Group 555" xmlns="http://www.w3.org/2000/svg" width="367.309" height="44" viewBox="0 0 367.309 44">
  <path id="Path_757" data-name="Path 757" d="M0,.962V8.546H10.8V43.113H20.15V8.546H30.719V.962Z" fill="#00aff4"/>
  <path id="Path_758" data-name="Path 758" d="M240.737.962V8.546h10.8V43.113h9.351V8.546h10.568V.962Z" fill="#00aff4"/>
  <path id="Path_759" data-name="Path 759" d="M34.156,43.113h9.471V24.828h11.76V43.113h9.354V.885H55.214V17.244H43.568V.885H34.156Z" fill="#00aff4"/>
  <path id="Path_760" data-name="Path 760" d="M179.114.885H169.7V43.113l9.441-20.288Z" fill="#00aff4"/>
  <path id="Path_761" data-name="Path 761" d="M179.143,22.825l.03,20.288,10.185-21.945V.885Z" fill="#ff3287"/>
  <path id="Path_762" data-name="Path 762" d="M169.7,43.113h9.471l-.03-20.288Z" fill="#c87296"/>
  <path id="Path_763" data-name="Path 763" d="M198.769.885l-9.411,20.283V43.113l9.44-20.288Z" fill="#00aff4"/>
  <path id="Path_764" data-name="Path 764" d="M189.358.885V21.168L198.769.885Z" fill="#c87296"/>
  <path id="Path_765" data-name="Path 765" d="M209.013.885,198.8,22.825l.03,20.288L218.424.885Z" fill="#ff3287"/>
  <path id="Path_766" data-name="Path 766" d="M189.358,43.113h9.47l-.03-20.288Z" fill="#c87296"/>
  <path id="Path_767" data-name="Path 767" d="M138.471,43.035h26.542V35.452H147.825V24.828h13.106V17.244H147.71v-8.7h17.3V.962H138.471Z" fill="#ff3287"/>
  <path id="Path_768" data-name="Path 768" d="M70.463,43.035H97V35.452H79.818V24.828H92.924V17.244H79.7v-8.7H97V.962H70.463Z" fill="#00aff4"/>
  <path id="Path_769" data-name="Path 769" d="M102.786,43.113h8.225V23.423c0-1.1-.211-6.476-.257-7.689h.257a60.211,60.211,0,0,0,3.417,7L125.1,43.114H132.5V.885h-8.225V16.66c0,1.616,0,1.961.153,4.86l.2,4.271h-.249c-.166-.288-.79-1.846-.974-2.193-.433-.866-1.06-2.022-1.56-2.888L111.388.886h-8.6V43.113Z" fill="#ff3287"/>
  <path id="Path_770" data-name="Path 770" d="M277.222.972l-11.955,42.14h9.068l2.194-8.661h12.993l2.135,8.661h9.065L288.481.972H277.222ZM287.674,27.83h-9.525l4.618-19.293H283Z" fill="#00aff4"/>
  <path id="Path_771" data-name="Path 771" d="M300.615,27.813c0,8.662,2.194,10.979,3.888,12.587,2.589,2.492,5.919,3.6,10.722,3.6,1.809,0,6.138-.386,9.142-2.712a11.2,11.2,0,0,0,4.448-7.354,26.657,26.657,0,0,0,.4-5.2h-9.355c0,4.561-1.125,7.679-4.86,7.679-5.031,0-5.031-4.444-5.031-6.754V13.541c0-1.165.059-3.246,1.527-4.627a5.618,5.618,0,0,1,3.563-1.33c4.629,0,4.743,4.619,4.8,6.706h9.355c-.116-3.416-.577-8.575-4.417-11.518A15.714,15.714,0,0,0,315.462,0c-9.777,0-14.848,5.378-14.848,15.042V27.813Z" fill="#00aff4"/>
  <path id="Path_772" data-name="Path 772" d="M332.314,43.113h9.471V.885h-9.471ZM354.949.885,342.135,21.259l14.03,21.855h11.144l-15.07-22.547L365.174.886Z" fill="#00aff4"/>
  <path id="Path_773" data-name="Path 773" d="M231.091.962c-8.844,0-13.316,4.889-13.316,11.827,0,8.3,4.889,10.134,11.278,12.6,7.014,2.454,8.931,3.137,8.931,6.285,0,3.829-4.013,4.744-6.247,4.744a8.559,8.559,0,0,1-8.361-5.716l-6.468,4.745C220.372,42.219,224.241,44,232.181,44a18.3,18.3,0,0,0,8.576-2.126,12.244,12.244,0,0,0,5.772-11.117,12.928,12.928,0,0,0-2.282-7.373,15.034,15.034,0,0,0-7.024-4.917l-5.939-1.945c-2.867-.924-5.928-1.154-5.928-4.126,0-.444.117-3.552,4.792-3.851h7.382V.962Z" fill="#00aff4"/>
</svg>
