<svg xmlns="http://www.w3.org/2000/svg" viewBox="0 0 2994 790"><g data-name="Layer 2"><g data-name="Layer 1"><path d="M376.46 189.23q75.94 0 135.61 38 60.23 37.41 94.39 106.27 33.09 66.15 33.09 155.61 0 86.76-33.09 155.08T513.16 751q-60.75 39-136.7 39a243.58 243.58 0 01-187.69-86.75v73.19H0V0h188.77v275.44A235.7 235.7 0 01272.31 212a243.42 243.42 0 01104.15-22.77zM320.05 633.3q40.14 0 71.6-18.43T441 563.36q17.91-32.54 17.9-74.29 0-40.67-17.9-73.74t-49.36-51.51q-31.47-18.44-71.6-18.43-38 0-67.81 18.43-29.84 17.9-46.65 50.43-16.82 33.08-16.82 74.82t16.82 74.83q16.82 32.54 46.65 51t67.82 18.4zm345.34 143.14V0h188.78v776.44zm242.28 0v-574.2h187.69v574.2zm595.42-587.21q60.21 0 108.49 28.2 48.27 27.65 75.94 78.07 26.58 51 26.58 115.5v365.44H1534V453.29q0-31.46-12.48-55.85-11.92-24.94-34.17-38.5-21.7-13.54-51-13.55a99.73 99.73 0 00-51 13.55 93.54 93.54 0 00-36.35 35.79q-13.56 21.69-13.56 51l-1.08 330.74H1146.7V202.24h187.69v65.61q26.61-36.85 71.06-57.47 44.47-21.15 97.64-21.15zm625.79 264.06l213.19 323.15h-213.19l-124.76-203.32-57.5 66.69v136.63h-188.77V0h188.77v428.89l181.18-226.65H2341zM907.57.06h188.3v147.2h-188.3z"/><path d="M2372 774.72v-574.2h187.68v574.2zm584.57-162.12L2994 733.52q-25.5 24.39-64.55 39.58-38.52 15.18-75.4 15.18-53.16 0-94.93-23.32a168.33 168.33 0 01-65.1-66.15q-23.33-41.2-23.32-94.88V350.72h-75.4v-150.2h75.4V.06h180.09v200.46h118.8v150.2h-118.8v218.51q0 27.64 14.65 45t37.43 17.35a92.41 92.41 0 0030.38-4.88 60.17 60.17 0 0023.32-14.1zM2370.54.06h188.3v147.2h-188.3z" fill="#0c831f"/></g></g></svg>