<svg xmlns="http://www.w3.org/2000/svg" width="222.114" height="69.318" viewBox="0 0 222.114 69.318"><path data-name="Path 257" d="M117.061 17.416a4.51 4.51 0 11-4.51-4.51 4.5 4.5 0 014.51 4.51zm-18.6 9.09v1.11a8.669 8.669 0 00-6.731-2.775c-7.563 0-13.461 5.759-13.461 13.739 0 7.91 5.829 13.739 13.461 13.739a8.427 8.427 0 006.731-2.845v1.18a.949.949 0 00.971.971h5.62V25.534h-5.62a.992.992 0 00-.966.972zm0 16.722a6.9 6.9 0 01-5.62 2.845c-4.433 0-7.833-2.773-7.833-7.494s3.4-7.494 7.841-7.494a7.087 7.087 0 015.62 2.845zm10.755-17.694h6.661v26.09h-6.661zm99.5-.694a8.669 8.669 0 00-6.731 2.775v-14.64h-6.661v38.649h5.62a.992.992 0 00.971-.971v-1.18a8.592 8.592 0 006.731 2.845 13.323 13.323 0 0013.461-13.739c.006-7.91-5.892-13.738-13.385-13.738zM207.608 46a6.8 6.8 0 01-5.62-2.845v-9.3a7.53 7.53 0 015.62-2.845c4.441 0 7.841 2.775 7.841 7.494S212.052 46 207.608 46zm-15.751-9.853v15.546h-6.661V36.914c0-4.3-1.388-6.037-5.135-6.037a7.448 7.448 0 00-5.412 2.567v18.18h-6.661v-26.09h5.273a.992.992 0 01.971.971v1.11a9.56 9.56 0 017.077-2.775 10.8 10.8 0 017.286 2.5c2.364 1.941 3.266 4.439 3.266 8.811zm-40.036-11.31a8.669 8.669 0 00-6.731 2.775V12.975h-6.661v38.649h5.62a.992.992 0 00.971-.971v-1.18a8.592 8.592 0 006.731 2.845 13.323 13.323 0 0013.461-13.739 13.226 13.226 0 00-13.388-13.738zM150.714 46a6.8 6.8 0 01-5.62-2.845v-9.3a7.53 7.53 0 015.62-2.845c4.441 0 7.841 2.775 7.841 7.494S155.155 46 150.714 46zm-18.041-21.159a10.622 10.622 0 013.053.347v6.175s-5.551-1.873-9.02 2.082v18.248h-6.661V25.534h5.62a.992.992 0 01.971.971v1.11a9.113 9.113 0 016.037-2.774zM63.495 49.265c-.347-.833-.694-1.735-1.041-2.5-.555-1.249-1.11-2.429-1.6-3.539l-.069-.069A716.543 716.543 0 0045.454 11.8l-.208-.416a142.407 142.407 0 01-1.665-3.261 19.945 19.945 0 00-2.5-3.816A11.207 11.207 0 0032.27 0a11.646 11.646 0 00-8.882 4.163 23.92 23.92 0 00-2.5 3.816c-.555 1.11-1.11 2.22-1.665 3.261l-.208.416C13.675 22.065 8.471 32.612 3.683 43.02l-.069.139c-.486 1.11-1.041 2.29-1.6 3.539q-.52 1.145-1.041 2.5a15.586 15.586 0 00-.833 7.494A14.746 14.746 0 009.16 68.21a14.249 14.249 0 005.62 1.11 15.787 15.787 0 001.8-.139 18.333 18.333 0 006.948-2.361 35.138 35.138 0 008.6-7.216 36.46 36.46 0 008.6 7.216 18.333 18.333 0 006.939 2.359 15.787 15.787 0 001.8.139 14.011 14.011 0 005.62-1.11 14.717 14.717 0 009.02-11.518 13.108 13.108 0 00-.612-7.425zm-31.294 3.608c-3.747-4.718-6.175-9.159-7.008-12.906a11.192 11.192 0 01-.208-4.233 6.732 6.732 0 011.11-2.914 7.366 7.366 0 016.106-3.053 7.1 7.1 0 016.107 3.053 6.732 6.732 0 011.11 2.914 11.139 11.139 0 01-.208 4.233c-.834 3.677-3.262 8.118-7.009 12.906zm27.685 3.261a10.311 10.311 0 01-6.314 8.118 10.506 10.506 0 01-5.273.694 13.646 13.646 0 01-5.273-1.8 32.4 32.4 0 01-7.91-6.731c4.58-5.62 7.355-10.755 8.4-15.335a17.391 17.391 0 00.347-5.9 11.258 11.258 0 00-1.873-4.718 11.692 11.692 0 00-9.784-4.926 11.87 11.87 0 00-9.784 4.926 11.259 11.259 0 00-1.873 4.718 14.407 14.407 0 00.347 5.9c1.041 4.58 3.886 9.784 8.4 15.4a31.174 31.174 0 01-7.91 6.731 13.646 13.646 0 01-5.273 1.8 11.1 11.1 0 01-5.273-.694A10.311 10.311 0 014.516 56.2a11.487 11.487 0 01.624-5.412c.208-.694.555-1.388.9-2.22a130.07 130.07 0 011.6-3.469l.069-.139c4.788-10.339 9.922-20.885 15.265-31.155l.208-.416c.555-1.041 1.11-2.151 1.665-3.192a15.241 15.241 0 011.943-3.053 7.285 7.285 0 0111.1 0 15.241 15.241 0 011.944 3.056c.555 1.041 1.11 2.151 1.665 3.192l.208.416a929.572 929.572 0 0115.2 31.224v.068c.555 1.11 1.041 2.359 1.6 3.469.347.833.694 1.527.9 2.22a11.724 11.724 0 01.479 5.345z" fill="#fa5b63"/></svg>