<svg data-name="Group 286" xmlns="http://www.w3.org/2000/svg" width="274.037" height="53.958" viewBox="0 0 274.037 53.958"><path data-name="Path 255" d="M31.788 10.139l-15.894 10.14 15.894 10.139-15.894 10.14L0 30.363l15.894-10.139L0 10.139 15.894 0zm-15.976 33.68l15.894-10.14L47.6 43.819 31.706 53.958zm15.976-13.456l15.894-10.139-15.894-10.085L47.6 0l15.894 10.139L47.6 20.279l15.894 10.139L47.6 40.558z" fill="#0061ff"/><path data-name="Path 256" d="M75.963 10.14h12.852c8.194 0 14.962 4.741 14.962 15.565v2.275c0 10.907-6.33 15.812-14.716 15.812H75.963zm7.18 6.114v21.4h5.508c4.659 0 7.783-3.042 7.783-9.811v-1.782c0-6.769-3.288-9.811-8.029-9.811zm24.444.329h5.755l.932 6.33c1.1-4.3 3.891-6.6 8.961-6.6h1.781v7.262h-2.96c-5.837 0-7.262 2.028-7.262 7.783v12.516h-7.1V16.579zm18.854 14.2v-.767c0-9.125 5.837-14.113 13.784-14.113 8.112 0 13.784 4.987 13.784 14.113v.767c0 8.961-5.508 13.784-13.784 13.784-8.797-.091-13.784-4.804-13.784-13.792zm20.306-.082v-.685c0-5.07-2.549-8.111-6.6-8.111-3.974 0-6.6 2.8-6.6 8.111v.685c0 4.905 2.549 7.7 6.6 7.7 4.051-.09 6.6-2.803 6.6-7.709zm10.989-14.113h5.919l.685 5.152a9.186 9.186 0 018.961-5.837c6.933 0 11.51 4.987 11.51 14.223v.767c0 8.961-5.07 13.7-11.51 13.7-4.3 0-7.262-1.946-8.714-5.07V53.3h-6.933l.082-36.721zm19.867 14.104v-.6c0-5.426-2.8-8.111-6.522-8.111-3.974 0-6.6 3.042-6.6 8.111v.521c0 4.823 2.549 7.865 6.522 7.865 4.079-.085 6.6-2.689 6.6-7.786zm17.7 8.139l-.6 4.987h-6.084V7.454h6.933v13.948c1.535-3.562 4.576-5.508 8.879-5.508 6.522.082 11.345 4.576 11.345 13.62v.85c0 9.043-4.576 14.223-11.51 14.223-4.575-.111-7.535-2.221-8.96-5.756zm13.181-8.468v-.685c0-4.987-2.713-7.783-6.522-7.783-3.891 0-6.6 3.124-6.6 7.865v.6c0 5.07 2.631 8.029 6.522 8.029 4.165.004 6.603-2.6 6.603-8.025zm10.331.411v-.767c0-9.125 5.837-14.113 13.784-14.113 8.111 0 13.784 4.987 13.784 14.113v.767c0 8.961-5.59 13.784-13.784 13.784-8.793-.082-13.78-4.795-13.78-13.783zm20.361-.082v-.685c0-5.07-2.549-8.111-6.6-8.111-3.973 0-6.6 2.8-6.6 8.111v.685c0 4.905 2.549 7.7 6.6 7.7 4.087-.081 6.604-2.794 6.604-7.7zm16.5-1.014l-9.564-13.1h8.194l5.508 8.194 5.59-8.194h8.112l-9.7 13.017 10.222 14.223h-8.029l-6.246-9.042-6.084 9.043h-8.386z"/></svg>