<svg xmlns="http://www.w3.org/2000/svg" width="375.998" height="212.173" viewBox="0 0 375.998 212.173"><path d="M19.1 211.218H0l29.4-56.8h21.1l28.1 56.8H57.4l-4.3-10.2H23.6zm28.9-22.6l-9.1-20.7-9.6 20.7zm34.933-34.201h18.3v56.8h-18.3zm27.6 0h18.3v11.6h-18.3zm0 17.2h18.3v39.6h-18.3zm28.291-17.244h18.3v22.9a22.145 22.145 0 017.3-5 23 23 0 018.8-1.7q9.3 0 15 6c3.8 4 5.7 9.3 5.7 15.8 0 6-1.9 10.8-5.6 14.4s-8.7 5.4-14.9 5.4a21.8 21.8 0 01-9.3-1.9 18.958 18.958 0 01-7.1-5.5 20.566 20.566 0 01-.2 3.6 17.771 17.771 0 01-.5 2.8h-18.3a15.854 15.854 0 00.5-2.8c.1-1.1.2-2.4.2-3.8v-50.2m36.8 37.2c0-3.5-.8-6.2-2.5-8.3a8.186 8.186 0 00-6.7-3 8.9 8.9 0 00-7 2.9c-1.6 1.9-2.4 4.8-2.4 8.5q0 5.25 2.4 8.1a8.477 8.477 0 006.8 2.9 8.384 8.384 0 006.8-3 12.114 12.114 0 002.6-8.1m60.199 13.279a15.167 15.167 0 01-6.8 5.1 27.331 27.331 0 01-10.1 1.7c-5.6 0-10-1-13-3a9.591 9.591 0 01-4.5-8.5q0-7.5 7.8-10.8c5.2-2.2 14-3.4 26.3-3.5v-.9a5.523 5.523 0 00-1.8-4.5c-1.2-1-3-1.5-5.5-1.5a10.165 10.165 0 00-5.1 1.1 4.242 4.242 0 00-2.1 3.3h-16.9a10.753 10.753 0 016.2-9.8c4.1-2.1 10.3-3.2 18.7-3.2 8 0 14 1.2 18 3.8 3.9 2.5 5.9 6.3 5.9 11.4v20.2a22.334 22.334 0 00.2 3 6.463 6.463 0 00.6 2.1h-17a13.655 13.655 0 01-.7-2.9 30.283 30.283 0 01-.2-3.1m-.4-11.3c-5.9 0-10 .4-12.1 1.2s-3.2 2.1-3.2 4a3.587 3.587 0 001.6 3.1 7.71 7.71 0 004.4 1.1c3.1 0 5.4-.7 7-2.2 1.6-1.4 2.3-3.6 2.3-6.6v-.6zm25.876-39.179h18.3v22.9a22.145 22.145 0 017.3-5 23 23 0 018.8-1.7q9.3 0 15 6c3.8 4 5.7 9.3 5.7 15.8 0 6-1.9 10.8-5.6 14.4s-8.7 5.4-14.9 5.4a21.8 21.8 0 01-9.3-1.9 18.958 18.958 0 01-7.1-5.5c0 1.3-.1 2.5-.2 3.6a17.77 17.77 0 01-.5 2.8h-18.3a15.854 15.854 0 00.5-2.8c.1-1.1.2-2.4.2-3.8v-50.2m36.8 37.2c0-3.5-.8-6.2-2.5-8.3a8.186 8.186 0 00-6.7-3 8.548 8.548 0 00-6.9 2.9c-1.6 1.9-2.4 4.8-2.4 8.5q0 5.25 2.4 8.1a8.477 8.477 0 006.8 2.9 8.521 8.521 0 006.8-3c1.7-2 2.5-4.7 2.5-8.1m60.201 13.279a15.167 15.167 0 01-6.8 5.1 27.331 27.331 0 01-10.1 1.7c-5.6 0-10-1-13-3a9.591 9.591 0 01-4.5-8.5q0-7.5 7.8-10.8c5.2-2.2 14-3.4 26.3-3.5v-.9a5.523 5.523 0 00-1.8-4.5c-1.2-1-3-1.5-5.5-1.5a10.165 10.165 0 00-5.1 1.1 4.242 4.242 0 00-2.1 3.3h-16.9a10.753 10.753 0 016.2-9.8c4.1-2.1 10.3-3.2 18.7-3.2 8 0 14 1.2 18 3.8 3.9 2.5 5.9 6.3 5.9 11.4v20.2a22.334 22.334 0 00.2 3 6.463 6.463 0 00.6 2.1h-17a13.655 13.655 0 01-.7-2.9 30.285 30.285 0 01-.2-3.1m-.4-11.3c-5.9 0-9.9.4-12.1 1.2-2.1.8-3.2 2.1-3.2 4a3.587 3.587 0 001.6 3.1 7.71 7.71 0 004.4 1.1c3.1 0 5.4-.7 7-2.2 1.6-1.4 2.3-3.6 2.3-6.6z" fill="#f60"/><path d="M108.641 110.627a8.728 8.728 0 01-3.7-1.9c-10.7-10.5 3-22.6 19-29.6v-20c3.7 2.4 5.8 2.5 5.9 2.8l12.2-12.1-4.1-10.4c35.7-12.3 50-17 79-21.9l-5.2-4.9 8.5-4.8c19.5 6.4 37.9 8.1 34.7 24.5.8-11.1-13-15.3-34-21.2l-4.1 2.5 7.8 6.4c-34.7 6-56.1 12.8-81.5 21.6l3.5 9-12.8 12.7c2.1.6 24.4 8 47.5-8.1 0 0 .5-.3.5-.5a27.416 27.416 0 00-4.2-4.1 11.152 11.152 0 0110.4 12.6h-3.2a11.047 11.047 0 00-.9-5.6c-17.9 13.1-38.7 15-56.4 8.8v15.5c-8.6 3-23.9 12.5-23.8 21.7a8.354 8.354 0 004.9 7"/><path d="M181.853 105.504c-19.2 9.7-37.6 17.5-65.9 18.6-36.9-.8-42.6-25.3-25.2-50.9 16.5-25.8 42.7-49.2 84.3-63.8 12.1-4.3 29.8-9.1 46.9-9.4 24.6-.2 48.5 7.4 46.9 31-.9 18.1-27 43.5-40.7 61.8-5.9 8-6.9 13.2 3.2 12.7 36.5-2.4 69.5-15 100.2-28.1-20.8 14.1-128.1 67.2-128.5 31 .1-4.6 2.2-9.5 5.7-14.7 3.4-5.2 8.1-10.6 13-16.1 7.3-8.3 25.5-28.3 31.6-40.3 10.3-22.4-12.7-23.5-32.6-30.5l-8.5 4.8 5.2 4.9c-29 4.8-43.3 9.6-79 21.9l4.1 10.4-12.1 12a28.16 28.16 0 01-5.9-2.8v20c-15.9 7-29.7 19.1-19 29.6a8.727 8.727 0 003.7 1.9c19.6 11 72.7-4 72.6-4m114.74 12.993h2.5a3.73 3.73 0 001.2-.2 1.794 1.794 0 00.7-.5 1.2 1.2 0 00.2-.8 1.231 1.231 0 00-.5-1 1.955 1.955 0 00-1.4-.4h-2.7zm-1.1 5v-8.9h4a7.45 7.45 0 011.8.2 2.126 2.126 0 011 .9 2.01 2.01 0 01.4 1.3 2.271 2.271 0 01-.6 1.6 3.055 3.055 0 01-1.9.8 2.146 2.146 0 01.7.4 6.342 6.342 0 011 1.2l1.6 2.4h-1.5l-1.2-1.8a4.846 4.846 0 00-.9-1.3 1.7 1.7 0 00-.6-.6c-.2-.1-.3-.2-.5-.2h-2.2v4h-1.1z" fill="#f60"/><path d="M299.047 127.618a8.493 8.493 0 008.5-8.5 8.493 8.493 0 00-8.5-8.5 8.493 8.493 0 00-8.5 8.5 8.493 8.493 0 008.5 8.5m-7.2-8.5a7.17 7.17 0 017.2-7.2 7.17 7.17 0 017.2 7.2 7.234 7.234 0 01-7.2 7.2 7.17 7.17 0 01-7.2-7.2" fill="#f60"/></svg>