<svg width="149.7mm" height="62.52mm" viewBox="0 0 530.5 221.5" xmlns="http://www.w3.org/2000/svg"><path d="M170.437 40.912H11.62V11.48h158.818zM181.785.114H.266v52.134h181.519z" fill="#00b188"/><path d="M11.62 138.447H.272V86.299h11.346v20.6h20.273V86.3H43.24v52.148H31.892v-21.604H11.62v21.604m48.91-23.018h13.516c-.252-3.834-1.834-6.506-6.258-6.506-3.337 0-6.258 1.42-7.257 6.506zm8.592 23.69c-11.512 0-19.352-7.258-19.352-19.18 0-11.599 7.675-19.604 17.853-19.604 11.095 0 16.6 7.423 16.6 18.518v4.172H60.532c1.338 5.75 5.84 7.25 10.347 7.25 3.92 0 6.754-.83 10.257-3.003h.42v8.592c-3.003 2.172-7.26 3.255-12.433 3.255m44.635-22.54l-5.841 21.853h-9.926l-11.347-36.684v-.417h10.847l6.171 21.938 5.841-21.938h8.844l5.923 21.938 6.258-21.938h10.43v.417l-11.347 36.684h-9.93l-5.923-21.852m45.458 22.441c-9.009 0-12.68-3.585-12.68-12.008V86.051h11.012v40.208c0 2.586 1 3.503 3.168 3.503.752 0 1.838-.248 2.503-.5h.17v9.092c-.918.33-2.504.665-4.173.665m18.126-23.589h13.516c-.252-3.834-1.835-6.506-6.258-6.506-3.334 0-6.258 1.42-7.258 6.506zm8.592 23.69c-11.512 0-19.352-7.258-19.352-19.18 0-11.599 7.675-19.604 17.852-19.604 11.095 0 16.602 7.423 16.602 18.518v4.172h-23.694c1.335 5.75 5.84 7.25 10.344 7.25 3.923 0 6.757-.83 10.264-3.003h.417v8.592c-3.003 2.172-7.258 3.255-12.433 3.255m60.46-37.788h8.174v8.84h-8.174v15.098c0 3.254 1.251 4.758 4.589 4.758.917 0 2.085-.087 3.337-.504h.248v8.675c-1.417.503-3.585 1.082-6.754 1.082-8.93 0-12.433-4.085-12.433-13.511v-15.598h-14.098v15.098c0 3.254 1.252 4.758 4.586 4.758.92 0 2.09-.087 3.34-.504h.249v8.675c-1.417.503-3.59 1.082-6.754 1.082-8.93 0-12.433-4.085-12.433-13.511v-15.598h-5.675v-8.84h5.675V91.158h11.012v10.174h14.098V91.158h11.013v10.174m45.171 10.358c5.761 0 8.509-3.252 8.509-7.923 0-4.841-2.748-8.092-8.51-8.092h-7.174v16.015zm20.024-7.923c0 11.346-7.592 17.514-19.107 17.514h-8.092v16.932h-11.34V86.065h19.432c11.515 0 19.107 6.172 19.107 17.684m24.283 22.901v-3.168c-1.668-.913-3.833-1.248-6.088-1.248-3.586 0-5.755 1.331-5.755 4.334 0 3.09 2.169 4.424 5.42 4.424 3.086 0 5.424-1.586 6.423-4.341zm.335 8.01c-2.42 2.92-6.003 4.337-9.847 4.337-7.254 0-13.181-4.416-13.181-12.264 0-7.253 5.927-12.09 14.432-12.09 2.669 0 5.427.417 8.261 1.247v-.661c0-4.007-2.251-5.755-8.17-5.755-3.759 0-7.345 1.08-10.434 2.834h-.413v-8.843c2.834-1.665 7.843-3.086 12.76-3.086 11.18 0 17.27 5.337 17.27 14.68v23.27h-10.678v-3.669m16.065-14.914c0-11.93 8.43-19.435 19.442-19.435 3.92 0 7.589.834 10.344 2.834v9.426h-.421c-2.42-1.834-5.255-2.92-8.506-2.92-5.506 0-9.678 3.758-9.678 10.095s4.172 10.008 9.678 10.008c3.251 0 6.085-1.086 8.506-2.923h.42v9.426c-2.754 2.003-6.423 2.837-10.343 2.837-11.012 0-19.442-7.419-19.442-19.348m47.761 1.726v16.846h-11.01V86.169h11.01v29.693l11.098-14.681h12.512v.417l-13.346 16.85 13.346 19.434v.418h-12.598l-11.012-16.846m48.335 5.196v-3.168c-1.665-.913-3.837-1.248-6.088-1.248-3.586 0-5.755 1.331-5.755 4.334 0 3.09 2.169 4.424 5.417 4.424 3.092 0 5.427-1.586 6.426-4.341zm.335 8.01c-2.42 2.92-6.01 4.337-9.844 4.337-7.26 0-13.18-4.416-13.18-12.264 0-7.253 5.92-12.09 14.436-12.09 2.668 0 5.416.417 8.253 1.247v-.661c0-4.007-2.251-5.755-8.174-5.755-3.751 0-7.344 1.08-10.43 2.834h-.417v-8.843c2.837-1.665 7.844-3.086 12.764-3.086 11.184 0 17.273 5.337 17.273 14.68v23.27h-10.681v-3.669m29.3-27.574c2-4.089 4.923-6.423 9.012-6.423 1.5 0 3 .335 3.579.669v10.509h-.414c-1.251-.504-2.75-.835-4.837-.835-3.42 0-6.089 2.004-7.01 5.837V138.2h-11.008v-37.115h10.678v6.006m41.718 18.697v-11.93c-1.834-2.668-4.25-3.833-7.01-3.833-4.833 0-8.087 3.506-8.087 9.843s3.254 9.757 8.088 9.757c2.758 0 5.175-1.169 7.01-3.837zm.331 8.76c-2.334 3.004-6.006 4.669-11.008 4.669-9.513 0-15.602-8.671-15.602-19.35s6.089-19.434 15.602-19.434c4.837 0 8.34 1.503 10.677 4.254V86.256h11.013v52.112h-10.682v-3.834M.399 155.422H32.6v6.337H7.656v15.929h22.607v6.175H7.656v17.349h24.945v6.337H.399v-52.113m58.693 14.659c8.257 0 12.846 5.424 12.846 14.343v23.107h-6.923v-22.938c0-4.754-2.42-8.175-7.674-8.175-4.338 0-8.01 2.755-9.261 6.672v24.441h-6.923v-36.683h6.923v5.337c2.168-3.42 5.84-6.09 11.012-6.09m31.361.561h9.426v5.924h-9.426v19.766c0 4.168 2.168 5.589 6.089 5.589 1.082 0 2.25-.165 3.085-.5h.252v5.92c-1 .417-2.42.751-4.337.751-8.596 0-12.012-3.923-12.012-11.09v-20.436h-6.34v-5.923h6.34v-9.754h6.923v9.754m21.003 14.961h18.27c-.248-5.42-2.92-9.588-8.592-9.588-5.254 0-8.678 3.92-9.678 9.588zm10.93 22.69c-10.765 0-18.105-7.175-18.105-18.684 0-11.512 6.84-19.517 16.77-19.517 10.095 0 15.35 7.257 15.35 18.014v3.172h-25.197c.752 7.423 5.51 11.009 12.099 11.009 4.089 0 7.005-.917 10.26-3.338h.252v6.093c-3.003 2.334-6.927 3.25-11.43 3.25m29.351-31.896c1.586-3.92 5.092-6.254 9.092-6.254 1.59 0 3.006.248 3.589.583v6.836h-.248c-1.004-.496-2.673-.748-4.341-.748-3.751 0-6.923 2.5-8.092 6.672v23.937h-6.923v-36.683h6.923v5.672m34.814 25.592c6.84 0 10.846-5.42 10.846-12.847 0-7.336-4.006-12.839-10.847-12.839-3.755 0-7.257 2.251-9.092 5.833v14.102c1.835 3.582 5.337 5.75 9.092 5.75zm1.168-31.944c10.926 0 16.766 8.927 16.766 19.097 0 10.182-5.84 19.104-16.766 19.104-4.506 0-8.344-2.334-10.26-4.84v18.187h-6.927v-50.782h6.926v4.169c1.917-2.586 5.755-4.92 10.261-4.92m31.918 6.322c1.583-3.92 5.09-6.254 9.092-6.254 1.586 0 3.003.248 3.586.583v6.836h-.249c-1-.496-2.668-.748-4.337-.748-3.755 0-6.923 2.5-8.092 6.672v23.937h-6.923v-36.683h6.923v5.672m22.73-20.442c2.42 0 4.42 1.916 4.42 4.337s-2 4.337-4.42 4.337c-2.335 0-4.424-1.917-4.424-4.337s2.09-4.337 4.424-4.337m-3.453 51.5h6.928v-36.712h-6.928zm31.648-21.578c5.255 1.665 11.092 3.834 11.092 10.84 0 7.509-6.172 11.346-14.095 11.346-4.84 0-9.678-1.169-12.432-3.337v-6.59h.334c3.09 2.835 7.675 4.086 12.012 4.086 3.92 0 7.427-1.503 7.427-4.671 0-3.251-2.917-4.003-8.678-5.92-5.172-1.669-10.926-3.59-10.926-10.509 0-7.092 5.837-11.26 13.263-11.26 4.338 0 8.175.917 11.26 3.003v6.675h-.248c-2.999-2.42-6.509-3.841-10.846-3.841s-6.758 1.92-6.758 4.506c0 2.92 2.669 3.751 8.595 5.672m24.169-.288h18.266c-.249-5.42-2.917-9.588-8.592-9.588-5.255 0-8.675 3.92-9.675 9.588zm10.925 22.69c-10.76 0-18.1-7.175-18.1-18.684 0-11.512 6.84-19.517 16.766-19.517 10.099 0 15.35 7.257 15.35 18.014v3.172h-25.193c.751 7.423 5.506 11.009 12.094 11.009 4.093 0 7.01-.917 10.261-3.338h.252v6.093c-3 2.334-6.923 3.25-11.43 3.25" fill="#040404"/></svg>