<svg data-name="Group 240" xmlns="http://www.w3.org/2000/svg" width="407.758" height="141.554" viewBox="0 0 407.758 141.554"><path data-name="Path 364" d="M23.46 101.1a34.864 34.864 0 007.157 11.73 30.8 30.8 0 0010.835 7.456 35.35 35.35 0 0013.619 2.584 33.7 33.7 0 0013.42-2.684 33.012 33.012 0 0010.934-7.555A34.252 34.252 0 0086.682 101a42.02 42.02 0 002.584-15.11V0h20.875v139.168H89.466v-12.922a47.928 47.928 0 01-16.4 11.333 51.98 51.98 0 01-20.378 3.976 55.173 55.173 0 01-20.776-3.877 48.645 48.645 0 01-16.7-11.034 52.049 52.049 0 01-11.133-17.2A58.958 58.958 0 010 87.08V0h20.875v85.887A42.832 42.832 0 0023.46 101.1z" fill="#010202"/><path data-name="Path 365" d="M146.122 0v50.7a53.178 53.178 0 0116.1-11.034 48.278 48.278 0 0119.881-4.076 52.429 52.429 0 0120.875 4.175 52.593 52.593 0 0128.231 28.231 51.938 51.938 0 014.175 20.677 51.225 51.225 0 01-4.175 20.577 52.852 52.852 0 01-28.231 28.132 52.43 52.43 0 01-20.875 4.175 48.969 48.969 0 01-19.98-4.076 52.815 52.815 0 01-16.2-11.034v12.724h-19.878V0zm2.286 102.388a34.591 34.591 0 007.456 11.134 35.979 35.979 0 0011.133 7.555 33.848 33.848 0 0013.725 2.783 33.357 33.357 0 0013.519-2.783 34.779 34.779 0 0011.034-7.555 36.87 36.87 0 007.455-11.134 33.844 33.844 0 002.783-13.718 34.551 34.551 0 00-2.791-13.817 36.539 36.539 0 00-7.45-11.233 33.472 33.472 0 00-11.034-7.455 34.951 34.951 0 00-38.172 7.455 35.663 35.663 0 00-7.555 11.233 34.551 34.551 0 00-2.783 13.818 34.921 34.921 0 002.683 13.717z" fill="#010202"/><path data-name="Path 366" d="M246.721 68.193a54.088 54.088 0 0110.935-16.8 52.6 52.6 0 0157.457-11.63 48.1 48.1 0 0116.1 11.034 50.432 50.432 0 0110.537 16.7 57 57 0 013.778 20.975v6.565h-82.504A34 34 0 00267 106.468a34.461 34.461 0 007.455 9.145 34.07 34.07 0 0010.14 6.064 33.112 33.112 0 0012.028 2.187q18.092 0 29.226-14.911l14.513 10.736a52.963 52.963 0 01-43.738 21.671 55.99 55.99 0 01-21.173-3.976 51.562 51.562 0 01-17.1-11.134 52.821 52.821 0 01-11.432-16.8 54.244 54.244 0 01-.2-41.253zm27.933-7.853a33.885 33.885 0 00-11.233 18.788h61.831a32.887 32.887 0 00-11.034-18.791 31.252 31.252 0 00-39.564 0z" fill="#010202"/><path data-name="Path 367" d="M383.105 62.626q-6.361 6.958-6.362 18.887v57.656h-20.08V37.775h19.881V50.3a28.259 28.259 0 019.841-9.742 27.851 27.851 0 0114.414-3.579h6.958v18.688h-8.352a21.1 21.1 0 00-16.3 6.959z" fill="#010202"/></svg>