<svg xmlns="http://www.w3.org/2000/svg" viewBox="180 100 100 70"><g fill="none" stroke="#000" stroke-linejoin="round" stroke-linecap="round"><path stroke="#aaa" stroke-width=".5" d="M215.16 118.768l.548-.184.122-1.069.863-.653.497.807 2.447-1.68 1.675.16 1.116-.504.427-1.246.314.118.863 4.072 1.107-.872.964.065.924-.944.863-.279 1.198.303.142.51 1.3 1.437 1.228.873 1.767.694.446 1.87.518.309.01 1.193-.64 2 .01 1.146.823 1.134.761.386 1.168-.101.457 1.217-1.076 6.844 1.939.344-.346 1.965 2.254.392-.325 1.964.376.072-.335 1.917 1.604.297-.162.95 4.497.819-.274 1.614 4.75.796-.02.991-1.055 1.223.7 1.335-.548.184-1.259-.736-.558.22-1.34-.475-.244.344-1.817.487-.569-1.36-1.857.321-.792-.368-1.28.38-1.177-.487-.802-.943-.68-.13-1.31.688-.771 1.733-1.239-.956-.497.303-.721-.63-1.746-.326-.853-.581-1.066.26-1.117 1.235.163 1.087-.559.332-.507-.961-1.645-1.568-.172-1.098.416-.593-.904-1.924.559-.338.01-1.347-.406-.487-.224-1.781-1.624-1.454-1.655.576-.081-.826-1.37-1.311-.285-1.971.853-.107.284-2.238-.934-.956.193-.474-.903-.475-.132-1.472-1.076-1.65-.498-1.746.305-1.496-.518-1.543.568-1.407-1.076-.208.782-1.733-1.259-1.205-.507-1.074"/><defs><marker id="arrow" markerWidth="10" markerHeight="10" refX="0" refY="2" orient="auto" markerUnits="strokeWidth"><path d="M0 1v2l2-1z" stroke="#52BCA3" fill="#52BCA3"/></marker></defs><path stroke="#52BCA3" stroke-width=".25" marker-end="url(#arrow)" d="M200 117h60"/><circle cx="200" cy="117" r=".3" stroke="#52BCA3" fill="#52BCA3"/><style>.small{font:2px sans-serif;stroke:#666;stroke-width:.1;fill:#666}</style><text x="215" y="116" class="small">1</text><text x="217" y="116" class="small">2</text><text x="218" y="119" class="small">3</text><text x="222" y="119" class="small">4</text><text x="226" y="116" class="small">5</text><text x="229" y="116" class="small">6</text></g></svg>