<svg data-name="Group 554" xmlns="http://www.w3.org/2000/svg" width="400.54" height="51.243" viewBox="0 0 400.54 51.243"><g data-name="Group 552" fill="#ed2025"><path data-name="Path 746" d="M281.15 0c5.06.14 11.19.36 14.89 4.2a14.2 14.2 0 013.35 9.26 10.6 10.6 0 01-3.14 8 17.83 17.83 0 01-5.05 3.15 14 14 0 016.12 3.13 13.66 13.66 0 013.45 9.45 12.12 12.12 0 01-3.49 8.82c-4 4.07-9.26 4.14-15 4.28h-23.07V40.03l4.49.07V10.19l-4.49.07V0zm-4.38 20.23c4.06.07 4.63.07 5.63-.14a4.86 4.86 0 003.84-5 5 5 0 00-2.47-4.62c-1.14-.57-1.85-.57-6.91-.64zm0 19.8h4c2.77 0 6.69-.07 6.69-4.84a4.92 4.92 0 00-3.06-4.84c-1.21-.5-1.78-.5-7.55-.5z"/><path data-name="Path 747" d="M338.43 37.61c-.5 2.64-1.15 6.13-4.42 9.26s-8 4.28-12.61 4.28c-9.83 0-18.45-4.77-18.45-19.16a24.55 24.55 0 011-7.41c2.5-8.48 9.41-12 17-12 5.7 0 10.33 2 13 4.7 5.42 5.27 5.14 13.82 5.06 17.1h-22.53c0 2.85.08 7.9 4.7 7.9 3.85 0 4.35-3.27 4.57-4.63zm-12.66-10.26a8.36 8.36 0 00-.36-2.92 4.15 4.15 0 00-4.13-2.7c-4.28 0-4.42 4.13-4.42 5.62z"/><path data-name="Path 748" d="M376.68 40.03v10.26h-15.39l-.28-4.27a11.58 11.58 0 01-10.19 5.13c-6.63 0-10.76-3.92-10.76-11.05a11.25 11.25 0 015-9.82c4.7-3.21 12-2.93 15.6-2.86a18.251 18.251 0 00-.14-3.91 3.13 3.13 0 00-3.21-2.71 3.32 3.32 0 00-2.42 1 4.79 4.79 0 00-1.12 3.56h-12.43a14.7 14.7 0 011.28-6c2.64-5.339 9.34-6.909 14.47-6.909 4.84 0 10.4 1.42 13.46 4.56 2.78 2.77 3.06 6 3.06 8.69V40.03zm-16-6.12a10.48 10.48 0 00-4 .29 4.43 4.43 0 00-3.28 4.55c0 2.49 1.29 3.85 3.21 3.85a3.68 3.68 0 003.2-1.78 6.61 6.61 0 00.86-3.35z"/><path data-name="Path 749" d="M394.63 1.85v11.54h5.91v10.22h-5.91V36.9c.07 1.35.21 4.13 3.63 4.13a5.22 5.22 0 001.92-.35v9.4a43.5 43.5 0 01-7.76.93c-4.13 0-7.27-1.15-8.84-2.71-2-2-2.06-4.63-2.06-6.7V23.61h-3.21V13.39h4.21V4.61z"/></g><g data-name="Group 553"><path data-name="Path 750" d="M0 0h21.59v10.26l-4.42-.07 7.33 28.78 7.91-28.78-4.41.07V0h19.8v10.26l-3.35-.07-12.47 40.1H15.74L3.13 10.19 0 10.26z"/><path data-name="Path 751" d="M78.71 37.61c-.5 2.64-1.14 6.13-4.41 9.26s-8 4.28-12.61 4.28c-9.83 0-18.45-4.77-18.45-19.16a24.28 24.28 0 011-7.41c2.49-8.48 9.4-12 17-12 5.7 0 10.33 2 13 4.7 5.42 5.27 5.13 13.82 5.06 17.1H56.77c0 2.85.07 7.9 4.7 7.9 3.85 0 4.35-3.27 4.56-4.63zM66.03 27.35a8.59 8.59 0 00-.35-2.92 4.15 4.15 0 00-4.14-2.7c-4.27 0-4.41 4.13-4.41 5.62z"/><path data-name="Path 752" d="M118.6 40.03h3.07v10.26h-16.32V28.61a9 9 0 00-.28-2.7 3.13 3.13 0 00-3.07-1.92 3.77 3.77 0 00-2.7 1.14c-1.28 1.28-1.36 2.91-1.43 5v10h2.5v10.16H81.7V40.03h3V23.61h-3V13.39h14.61l.42 5.63a11.07 11.07 0 012.21-3 12.9 12.9 0 019.33-3.64c3.85 0 6.42 1.43 7.77 2.86 2.42 2.42 2.49 5.41 2.56 8z"/><path data-name="Path 753" d="M139.33 1.85v11.54h5.91v10.22h-5.91V36.9c.07 1.35.21 4.13 3.63 4.13a5.24 5.24 0 001.93-.35v9.4a43.62 43.62 0 01-7.77.93c-4.13 0-7.26-1.15-8.83-2.71-2-2-2.07-4.63-2.07-6.7V23.61h-3.21V13.39h4.21V4.61z"/><path data-name="Path 754" d="M163.62 13.39v21.59c0 1.49.14 4.91 3.49 4.91s3.49-3.7 3.49-5.62V23.61l-2.7.07V13.39h16V40.1l3.06-.07v10.26h-15.19v-4.13a10.9 10.9 0 01-5 4 15.3 15.3 0 01-5.63 1.07 10.77 10.77 0 01-7.84-2.85c-2.78-2.7-2.92-6.27-3-9.68V23.61l-3 .07V13.39z"/><path data-name="Path 755" d="M204.58 19.8c.57-2 1.92-6.83 9-6.83a13 13 0 013.5.42v11.83a13.36 13.36 0 00-3.14-.36 9.11 9.11 0 00-6.27 2.14c-1.71 1.71-1.78 3.63-1.78 7l-.14 6h4.34v10.29h-20.26V40.03h3.06V23.61h-3.06V13.39h14.32z"/><path data-name="Path 756" d="M255.29 37.61c-.49 2.64-1.13 6.13-4.41 9.26s-8 4.28-12.61 4.28c-9.83 0-18.45-4.77-18.45-19.16a24.281 24.281 0 011-7.41c2.49-8.48 9.4-12 16.95-12 5.7 0 10.33 2 13 4.7 5.41 5.27 5.13 13.82 5.06 17.1h-22.47c0 2.85.07 7.9 4.69 7.9 3.85 0 4.35-3.27 4.57-4.63zm-12.67-10.26a8.361 8.361 0 00-.36-2.92 4.13 4.13 0 00-4.13-2.7c-4.28 0-4.42 4.13-4.42 5.62z"/></g></svg>