<svg id="Layer_1" data-name="Layer 1" xmlns="http://www.w3.org/2000/svg" viewBox="0 0 2000 603.18"><defs><style>.cls-1{fill:#ff8000;}.cls-2{fill:#db1600;}.cls-3{fill:#6826ff;}.cls-4{fill:#1950ff;}</style></defs><path d="M1058.37,96.22a89.88,89.88,0,0,1,16.32,1.32,16.09,16.09,0,0,1,7.46,3.2,15.63,15.63,0,0,1,4.42,6.7c1,2.57,2.15,7.45,2.15,16.1v104.4l21-8.87c2.41-1,7.34-2.79,17.16-5.43a94.27,94.27,0,0,1,24.37-2.93c28.08,0,49.07,7.18,64.17,21.95,14.8,14.48,22.3,37.18,22.3,67.47V442.44l-2.39.38a128.11,128.11,0,0,1-19.25,1.42,89.43,89.43,0,0,1-16.3-1.33,16.08,16.08,0,0,1-7.47-3.19,15.61,15.61,0,0,1-4.44-6.73c-.38-1-.74-1.88-1.06-2.67-1-2.49-1.08-2.64-1.08-7.07V305.43c0-19-5.06-33-15-41.85-9.43-8.33-21-12.55-34.45-12.55a78.26,78.26,0,0,0-22.81,3.31,64.23,64.23,0,0,0-18.27,8.44l-6.47,4.51V442.44l-2.39.38a128,128,0,0,1-19.25,1.42,89.43,89.43,0,0,1-16.3-1.33,16.08,16.08,0,0,1-7.47-3.19,15.61,15.61,0,0,1-4.44-6.73c-.38-1-.74-1.88-1.06-2.67-1-2.49-1.08-2.64-1.08-7.07V98.42l3.25-.58a104.61,104.61,0,0,1,18.39-1.62"/><path d="M1621,210.67c32.46,0,57.4,7.56,74.13,22.45,16.45,14.64,24.45,34.82,24.45,61.67V442.44l-2.4.38a127.88,127.88,0,0,1-19.24,1.42,89.47,89.47,0,0,1-16.31-1.33,16.08,16.08,0,0,1-7.47-3.19,15.68,15.68,0,0,1-4.44-6.73c-.38-1-.74-1.88-1.06-2.67-1-2.5-1.08-2.64-1.08-7.08V298c0-15.35-4.51-27.24-13.43-35.36-8.5-7.71-19.65-11.61-33.15-11.61a86.17,86.17,0,0,0-23.23,3.21,61.67,61.67,0,0,0-21.43,10.61l-5.8,4.55V442.44l-2.4.38a127.88,127.88,0,0,1-19.24,1.42,89.55,89.55,0,0,1-16.31-1.33,16.08,16.08,0,0,1-7.47-3.19,15.68,15.68,0,0,1-4.44-6.73c-.38-1-.74-1.88-1.06-2.67-1-2.5-1.08-2.65-1.08-7.08V264c0-6.66,1.12-11.84,3.31-15.41a47.27,47.27,0,0,1,11.63-12.43c9.52-7.37,21.87-13.51,36.72-18.25,15-4.81,32.12-7.25,50.8-7.25"/><path d="M888,213a163.91,163.91,0,0,1,42.61,5.18c12,3.26,22.31,8.2,30.59,14.68a61.68,61.68,0,0,1,18.46,23.87c4.45,9.91,6.71,22.05,6.71,36.07V409.66c.25,6.06-1,8.79-3.53,12-4.44,5.53-11.93,12.79-22.4,15.95l-.67.21-.65.26c-10.13,4.13-33.73,8.57-61.59,8.57a268.81,268.81,0,0,1-49.39-4.54c-24.43-5.75-34.23-12.34-44.92-30.31-4-8.48-6-18.65-6-30.22,0-19.83,4.88-34.3,14.91-44.23,10.4-10.29,27.61-16.88,51.18-19.59l62-7.25,13.37-1.57V291.81c0-15.53-7.11-27.91-20-34.87-10.38-5.57-24.09-8.28-41.92-8.28a163.45,163.45,0,0,0-38.59,4.58,206.71,206.71,0,0,0-22.66,6.88c-.35-.67-.71-1.4-1.06-2.2a33.51,33.51,0,0,1-3-13.84c0-5.65,1-9.88,3-12.56,2.35-3.21,6.43-6.19,12.11-8.87a118.23,118.23,0,0,1,28.37-7.16A243.78,243.78,0,0,1,888,213m.6,128.53c-11.12.89-20.65,3.71-28.35,8.38-10.16,6.2-15.76,16.32-15.76,28.49a36.52,36.52,0,0,0,12.43,28.18c7.82,6.92,19.22,10.29,34.86,10.29a111.52,111.52,0,0,0,20.52-2.08c8.52-1.59,15-3.93,20-7.14l6.83-4.49V337l-16.51,1.51-34,3.1"/><path d="M1369.78,213a164,164,0,0,1,42.62,5.18c12,3.26,22.3,8.2,30.58,14.68a61.58,61.58,0,0,1,18.46,23.87c4.45,9.91,6.71,22.05,6.71,36.07V409.66c.25,6.06-1,8.79-3.53,12-4.44,5.53-11.93,12.79-22.4,15.95l-.67.21-.65.26c-10.13,4.13-33.73,8.57-61.59,8.57a268.81,268.81,0,0,1-49.39-4.54c-24.43-5.75-34.23-12.34-44.92-30.31-4-8.48-6-18.65-6-30.22,0-19.83,4.88-34.3,14.91-44.23,10.4-10.29,27.61-16.88,51.18-19.59l62-7.25,13.37-1.57V291.81c0-15.53-7.11-27.91-20-34.87-10.38-5.57-24.09-8.28-41.92-8.28a163.45,163.45,0,0,0-38.59,4.58,206.71,206.71,0,0,0-22.66,6.88c-.35-.67-.7-1.4-1.06-2.2a33.51,33.51,0,0,1-3-13.84c0-5.65,1-9.88,3-12.56,2.35-3.21,6.43-6.19,12.11-8.87a118.23,118.23,0,0,1,28.37-7.16,243.89,243.89,0,0,1,33.16-2.45m.6,128.53c-11.12.89-20.65,3.71-28.34,8.38-10.17,6.2-15.77,16.32-15.77,28.49a36.52,36.52,0,0,0,12.43,28.18c7.82,6.92,19.22,10.29,34.86,10.29a111.43,111.43,0,0,0,20.52-2.08c8.52-1.59,15-3.93,20-7.14l6.83-4.49V337l-16.51,1.51-34,3.1"/><path d="M1851.59,213a163.91,163.91,0,0,1,42.61,5.18c12,3.26,22.31,8.2,30.58,14.68a61.49,61.49,0,0,1,18.46,23.87c4.46,9.91,6.72,22.05,6.72,36.07V409.66c.25,6.06-1,8.79-3.53,12-4.44,5.53-11.94,12.79-22.4,15.95l-.67.21-.65.26c-10.14,4.13-33.73,8.57-61.59,8.57a268.92,268.92,0,0,1-49.4-4.54c-24.43-5.75-34.23-12.34-44.91-30.31-4-8.48-6-18.65-6-30.22,0-19.83,4.88-34.3,14.9-44.23,10.41-10.29,27.61-16.88,51.18-19.59l62-7.25,13.37-1.57V291.81c0-15.53-7.11-27.91-20-34.87-10.38-5.57-24.09-8.28-41.91-8.28a163.45,163.45,0,0,0-38.59,4.58,206.9,206.9,0,0,0-22.67,6.88c-.34-.67-.7-1.4-1-2.2a33.51,33.51,0,0,1-3-13.84c0-5.65,1-9.88,3-12.56,2.36-3.21,6.43-6.19,12.11-8.87a118.44,118.44,0,0,1,28.38-7.16,243.78,243.78,0,0,1,33.16-2.45m.6,128.53c-11.13.89-20.66,3.71-28.35,8.38-10.16,6.2-15.76,16.32-15.76,28.49a36.52,36.52,0,0,0,12.43,28.18c7.81,6.92,19.22,10.29,34.86,10.29a111.6,111.6,0,0,0,20.52-2.08c8.52-1.59,15-3.93,19.94-7.14l6.83-4.49V337l-16.5,1.51-34,3.1"/><circle class="cls-1" cx="367.52" cy="270.58" r="24.41"/><circle class="cls-1" cx="405.09" cy="195.43" r="26.28"/><circle class="cls-1" cx="329.94" cy="195.43" r="26.28"/><circle class="cls-1" cx="66.9" cy="571.2" r="16.9"/><circle class="cls-1" cx="142.05" cy="571.2" r="16.9"/><circle class="cls-1" cx="217.21" cy="571.2" r="16.9"/><circle class="cls-1" cx="104.47" cy="496.05" r="18.77"/><circle class="cls-1" cx="179.63" cy="496.05" r="18.77"/><circle class="cls-1" cx="254.78" cy="496.05" r="18.77"/><circle class="cls-1" cx="142.05" cy="420.89" r="20.65"/><circle class="cls-1" cx="217.21" cy="420.89" r="20.65"/><circle class="cls-1" cx="292.36" cy="420.89" r="20.65"/><circle class="cls-1" cx="179.63" cy="345.74" r="22.53"/><circle class="cls-1" cx="254.78" cy="345.74" r="22.53"/><circle class="cls-1" cx="329.94" cy="345.74" r="22.53"/><circle class="cls-1" cx="217.21" cy="270.58" r="24.41"/><circle class="cls-1" cx="292.36" cy="270.58" r="24.41"/><circle class="cls-1" cx="254.78" cy="195.43" r="26.28"/><circle class="cls-1" cx="292.36" cy="120.27" r="28.16"/><circle class="cls-1" cx="367.52" cy="120.27" r="28.16"/><circle class="cls-1" cx="442.67" cy="120.27" r="28.16"/><circle class="cls-1" cx="329.94" cy="45.12" r="30.04"/><circle class="cls-1" cx="405.09" cy="45.12" r="30.04"/><circle class="cls-2" cx="668.14" cy="571.2" r="16.9"/><circle class="cls-3" cx="592.98" cy="571.2" r="16.9"/><circle class="cls-4" cx="517.83" cy="571.2" r="16.9"/><circle class="cls-2" cx="630.56" cy="496.05" r="18.77"/><circle class="cls-3" cx="555.4" cy="496.05" r="18.77"/><circle class="cls-4" cx="480.25" cy="496.05" r="18.77"/><circle class="cls-2" cx="592.98" cy="420.89" r="20.65"/><circle class="cls-3" cx="517.83" cy="420.89" r="20.65"/><circle class="cls-4" cx="442.67" cy="420.89" r="20.65"/><circle class="cls-2" cx="555.4" cy="345.74" r="22.53"/><circle class="cls-3" cx="480.25" cy="345.74" r="22.53"/><circle class="cls-4" cx="405.09" cy="345.74" r="22.53"/><circle class="cls-2" cx="517.83" cy="270.58" r="24.41"/><circle class="cls-3" cx="442.67" cy="270.58" r="24.41"/><circle class="cls-2" cx="480.25" cy="195.43" r="26.28"/></svg>