<svg xmlns="http://www.w3.org/2000/svg" width="251" height="43.303" viewBox="0 0 251 43.303">
  <g id="Group_2" data-name="Group 2" transform="translate(-5)">
    <path id="Path_1" data-name="Path 1" d="M79.338,19.1a6.916,6.916,0,0,0,2-2.1,6.4,6.4,0,0,0,.95-3.417,7.985,7.985,0,0,0-1.022-4.01,8.117,8.117,0,0,0-2.951-2.939,8.569,8.569,0,0,0-2.85-.984,28.781,28.781,0,0,0-4.549-.29H63.791V35.051H74.617a10.2,10.2,0,0,0,6.91-2.432,7.766,7.766,0,0,0,2.807-6.052,7.546,7.546,0,0,0-5-7.471ZM76.6,16.708a5.616,5.616,0,0,1-3.743,1.115H68.283V9.367h4.333a6.21,6.21,0,0,1,4,1.086A3.837,3.837,0,0,1,77.9,13.624,3.914,3.914,0,0,1,76.6,16.708Zm-8.335,5.2h5.456a7.525,7.525,0,0,1,4.563,1.158,3.864,3.864,0,0,1,1.468,3.316,3.867,3.867,0,0,1-1.512,3.359A7.836,7.836,0,0,1,73.58,30.9h-5.3V21.905Z" fill="#3559a2"/>
    <path id="Path_2" data-name="Path 2" d="M114.42,9.57h-4.261v4.85H102.1L96.829,27.233c-.086.217-.259.681-.5,1.419-.144.434-.3.941-.489,1.491-.173-.594-.317-1.115-.461-1.549-.3-.97-.418-1.245-.461-1.361L89.732,14.42H85.01l8.421,20.255L89.8,43.3h4.347l11-25.177h5.024V30.549a5.128,5.128,0,0,0,1.238,3.837,5.808,5.808,0,0,0,4.03,1.173h2.332v-4.1h-2.216a1.145,1.145,0,0,1-.879-.275,1.626,1.626,0,0,1-.259-1.042v-12h3.354V14.42H114.42Z" fill="#3559a2"/>
    <path id="Path_3" data-name="Path 3" d="M130.313,13.928a10.174,10.174,0,0,0-7.63,3.04,10.965,10.965,0,0,0-2.922,7.919,11.045,11.045,0,0,0,.705,3.952,9.952,9.952,0,0,0,2.03,3.33,10.387,10.387,0,0,0,3.6,2.519,11.636,11.636,0,0,0,4.506.883,12.255,12.255,0,0,0,5.24-1.086,12.849,12.849,0,0,0,4.275-3.373l.245-.29-3.095-2.5-.23.275a9.323,9.323,0,0,1-2.923,2.316,7.572,7.572,0,0,1-3.411.782,6.9,6.9,0,0,1-4.693-1.607,5.616,5.616,0,0,1-1.958-3.779h16.987v-.637a12.075,12.075,0,0,0-2.952-8.47A10.026,10.026,0,0,0,130.313,13.928Zm-4.276,5.357a6.319,6.319,0,0,1,4.233-1.506,6.079,6.079,0,0,1,4.131,1.477,6.007,6.007,0,0,1,1.944,3.446h-12.28A5.726,5.726,0,0,1,126.037,19.285Z" fill="#3559a2"/>
    <path id="Path_4" data-name="Path 4" d="M164.617,9.136c-2.864-2.5-7.1-3.779-12.553-3.779H145.73V35.051h6.334c5.456,0,9.689-1.274,12.553-3.779s4.348-6.24,4.348-11.061S167.5,11.669,164.617,9.136ZM152.626,30.91h-2.39V9.526h2.39c3.915,0,6.881.9,8.853,2.693s2.937,4.459,2.937,8.006c0,3.518-.993,6.211-2.937,7.992S156.541,30.91,152.626,30.91Z" fill="#3559a2"/>
    <path id="Path_5" data-name="Path 5" d="M188.269,17.026a9.326,9.326,0,0,0-7.039-3,10.078,10.078,0,0,0-7.544,2.939,10.619,10.619,0,0,0-2.85,7.7,11.342,11.342,0,0,0,.72,4.068,10.2,10.2,0,0,0,2.159,3.388,10.3,10.3,0,0,0,7.515,3.185,9.62,9.62,0,0,0,4.275-.912,8.2,8.2,0,0,0,2.5-1.911v2.577h4.232V14.42h-3.973Zm-1.9,2.78a6.874,6.874,0,0,1,1.828,4.908,6.886,6.886,0,0,1-1.828,4.922,6.683,6.683,0,0,1-9.328,0,6.834,6.834,0,0,1-1.829-4.922,6.882,6.882,0,0,1,1.829-4.923,6.665,6.665,0,0,1,9.328.014Z" fill="#3559a2"/>
    <path id="Path_6" data-name="Path 6" d="M205.27,14.029a7.727,7.727,0,0,0-3.253.695,9.02,9.02,0,0,0-2.231,1.477V14.42h-4.2V35.051h4.2V23.657a6.719,6.719,0,0,1,1.223-4.387,4.53,4.53,0,0,1,3.642-1.419,3.531,3.531,0,0,1,3.081,1.3,7.465,7.465,0,0,1,1.008,4.358V35.065h4.232v-11.9a10.026,10.026,0,0,0-2.059-6.66A7,7,0,0,0,205.27,14.029Z" fill="#3559a2"/>
    <path id="Path_7" data-name="Path 7" d="M229.944,29.607a5.014,5.014,0,0,1-1.914,1.535,6.183,6.183,0,0,1-2.62.521,5.575,5.575,0,0,1-4.42-1.911,7.287,7.287,0,0,1-1.713-5.009,7.358,7.358,0,0,1,1.742-5.038,5.565,5.565,0,0,1,4.4-1.94,6.349,6.349,0,0,1,2.476.463,5.3,5.3,0,0,1,1.915,1.433l.273.319,2.75-3.185-.274-.246a9.734,9.734,0,0,0-3.224-1.983,11.258,11.258,0,0,0-3.93-.652,11.535,11.535,0,0,0-4.19.753,9.391,9.391,0,0,0-3.339,2.244,9.982,9.982,0,0,0-2.275,3.533,11.7,11.7,0,0,0-.777,4.3,11.572,11.572,0,0,0,.777,4.285,10.464,10.464,0,0,0,2.275,3.518,9.471,9.471,0,0,0,3.354,2.23,11.288,11.288,0,0,0,4.189.767,11.162,11.162,0,0,0,3.973-.681,10.479,10.479,0,0,0,3.369-2.157l.273-.246-2.793-3.229Z" fill="#3559a2"/>
    <path id="Path_8" data-name="Path 8" d="M256,25.64a12.074,12.074,0,0,0-2.951-8.47,11.014,11.014,0,0,0-15.4-.2,10.962,10.962,0,0,0-2.923,7.919,11.046,11.046,0,0,0,.706,3.952,9.92,9.92,0,0,0,2.03,3.33,10.383,10.383,0,0,0,3.6,2.519,11.636,11.636,0,0,0,4.506.883,12.252,12.252,0,0,0,5.24-1.086,12.862,12.862,0,0,0,4.276-3.373l.244-.29-3.1-2.5-.23.275a9.48,9.48,0,0,1-2.922,2.316,7.573,7.573,0,0,1-3.412.782,6.9,6.9,0,0,1-4.693-1.607,5.652,5.652,0,0,1-1.958-3.779h16.973V25.64Zm-15-6.356a6.316,6.316,0,0,1,4.232-1.506,6.081,6.081,0,0,1,4.132,1.477,6.006,6.006,0,0,1,1.943,3.446H239.028A5.869,5.869,0,0,1,241,19.285Z" fill="#3559a2"/>
    <path id="Path_9" data-name="Path 9" d="M12.558,34.718,5,36.658V2.027l7.558,1.955Z" fill="#3559a2"/>
    <path id="Path_10" data-name="Path 10" d="M49.079,36.745l-7.572,1.94V0l7.572,1.955Z" fill="#86cac7"/>
    <path id="Path_11" data-name="Path 11" d="M24.549,35.761l-7.558,1.954v-20.4l7.558,1.955Z" fill="#4e80bd"/>
    <path id="Path_12" data-name="Path 12" d="M29.487,14.3l7.572-1.955v20.4l-7.572-1.955Z" fill="#3fb7c1"/>
  </g>
</svg>
