<svg xmlns="http://www.w3.org/2000/svg" width="500.361" height="116.636" viewBox="0 0 500.361 116.636">
  <g id="Group_137" data-name="Group 137" transform="translate(0 0)">
    <path id="Path_173" data-name="Path 173" d="M-1500.129,4652.316a19.5,19.5,0,0,1-11.668-3.858v19.761h-7.9v-63.61h6.68l.659,4.7c2.165-3.012,7.245-5.646,12.8-5.646,13.737,0,17.312,11.1,17.312,24.278C-1482.252,4642.623-1487.145,4652.316-1500.129,4652.316Zm-11.668-10.067a17.229,17.229,0,0,0,10.538,3.668c9.127,0,11.1-7.149,11.1-18.064s-1.692-17.786-10.538-17.786a16.745,16.745,0,0,0-11.1,4.611Zm63.042-31.053a56.492,56.492,0,0,0-14.585,4.894v35.191h-7.9V4604.61h6.493l.845,5.456a23.751,23.751,0,0,1,14.115-6.117Zm12.42,20.232c.472,9.878,2.917,14.583,12.421,14.583a39.693,39.693,0,0,0,13.738-2.634l1.223,6.02a43.762,43.762,0,0,1-15.055,2.825c-16.844,0-20.232-11.48-20.232-24.56,0-13.453,4.422-23.994,18.726-23.994,12.7,0,17.972,8.94,17.972,20.138v7.623h-28.793Zm0-6.209h21.171v-1.7c0-8.658-2.727-13.926-10.445-13.926C-1434.357,4609.6-1436.24,4615.9-1436.335,4625.218Zm51.187,27c-4.705,0-10.727-1.035-14.773-3.107l1.506-6.208a33.131,33.131,0,0,0,12.892,2.917c6.208,0,9.5-1.693,9.5-6.964,0-4.989-3.388-6.492-9.692-8-10.256-2.446-14.113-6.021-14.113-14.019,0-8.752,4.8-13.174,15.712-13.174a32.448,32.448,0,0,1,12.609,2.35l-1.317,6.308a31.914,31.914,0,0,0-11.1-2.26c-5.929,0-8.187,1.6-8.187,6.305,0,4.893,2.259,5.834,8.939,7.621,9.127,2.447,14.867,5.364,14.867,14.3C-1368.306,4648.081-1375.458,4652.223-1385.148,4652.223Zm50.529-1.412a35.117,35.117,0,0,1-9.6,1.411c-8,0-11.386-4.424-11.386-11.67V4611.01h-8.092v-6.4h8.092v-11.386l7.9-1.128v12.514h13.267l-.658,6.4H-1347.7v29.169c0,4.327,1.035,5.646,5.363,5.646a34.7,34.7,0,0,0,7.057-.944l.658,5.93Zm26.156,1.412c-13.55,0-19.667-10.162-19.667-24.277s6.116-24.278,19.667-24.278,19.666,10.161,19.666,24.278S-1294.913,4652.223-1308.463,4652.223Zm0-42.157c-9.786,0-11.763,8-11.763,17.88s1.978,17.879,11.763,17.879,11.762-8,11.762-17.879S-1298.677,4610.066-1308.463,4610.066Z" transform="translate(1519.702 -4551.583)"/>
    <circle id="Ellipse_154" data-name="Ellipse 154" cx="5.357" cy="5.357" r="5.357" transform="translate(306.893 7.577) rotate(-45)" fill="#5d88d6"/>
    <circle id="Ellipse_155" data-name="Ellipse 155" cx="5.952" cy="5.952" r="5.952" transform="translate(320.779 22.305) rotate(-45)" fill="#5d88d6"/>
    <circle id="Ellipse_156" data-name="Ellipse 156" cx="6.546" cy="6.546" r="6.546" transform="translate(334.665 37.034) rotate(-45)" fill="#5d88d6"/>
    <circle id="Ellipse_157" data-name="Ellipse 157" cx="7.14" cy="7.14" r="7.14" transform="translate(348.538 51.746) rotate(-45)" fill="#5d88d6"/>
    <circle id="Ellipse_158" data-name="Ellipse 158" cx="4.763" cy="4.763" r="4.763" transform="translate(278.294 7.577) rotate(-45)" fill="#32dbfc"/>
    <circle id="Ellipse_159" data-name="Ellipse 159" cx="5.357" cy="5.357" r="5.357" transform="translate(292.18 22.305) rotate(-45)" fill="#32dbfc"/>
    <circle id="Ellipse_160" data-name="Ellipse 160" cx="5.952" cy="5.952" r="5.952" transform="translate(306.053 37.018) rotate(-45)" fill="#32dbfc"/>
    <circle id="Ellipse_161" data-name="Ellipse 161" cx="6.546" cy="6.546" r="6.546" transform="translate(319.934 51.738) rotate(-45)" fill="#32dbfc"/>
    <circle id="Ellipse_162" data-name="Ellipse 162" cx="7.14" cy="7.14" r="7.14" transform="translate(333.823 66.475) rotate(-45)" fill="#32dbfc"/>
    <circle id="Ellipse_163" data-name="Ellipse 163" cx="4.169" cy="4.169" r="4.169" transform="translate(249.711 7.594) rotate(-45)"/>
    <circle id="Ellipse_164" data-name="Ellipse 164" cx="4.763" cy="4.763" r="4.763" transform="translate(263.575 22.296) rotate(-45)"/>
    <circle id="Ellipse_165" data-name="Ellipse 165" cx="5.357" cy="5.357" r="5.357" transform="translate(277.469 37.034) rotate(-45)"/>
    <circle id="Ellipse_166" data-name="Ellipse 166" cx="5.952" cy="5.952" r="5.952" transform="translate(291.347 51.753) rotate(-45)"/>
    <circle id="Ellipse_167" data-name="Ellipse 167" cx="6.546" cy="6.546" r="6.546" transform="translate(305.226 66.476) rotate(-45)"/>
    <circle id="Ellipse_168" data-name="Ellipse 168" cx="7.14" cy="7.14" r="7.14" transform="translate(319.094 81.177) rotate(-45)"/>
    <g id="Group_120" data-name="Group 120" transform="translate(250.836 59.718)">
      <circle id="Ellipse_169" data-name="Ellipse 169" cx="4.763" cy="4.763" r="4.763" transform="translate(27.46 6.736) rotate(-45)" fill="#5d88d6"/>
      <ellipse id="Ellipse_170" data-name="Ellipse 170" cx="4.763" cy="4.763" rx="4.763" ry="4.763" transform="translate(14.715 16.692)" fill="#5d88d6"/>
      <ellipse id="Ellipse_171" data-name="Ellipse 171" cx="4.763" cy="4.763" rx="4.763" ry="4.763" transform="translate(0 31.422)" fill="#5d88d6"/>
      <ellipse id="Ellipse_172" data-name="Ellipse 172" cx="4.763" cy="4.763" rx="4.763" ry="4.763" transform="translate(29.435 31.414)" fill="#5d88d6"/>
      <circle id="Ellipse_173" data-name="Ellipse 173" cx="4.763" cy="4.763" r="4.763" transform="translate(56.904 36.187) rotate(-45)" fill="#5d88d6"/>
      <circle id="Ellipse_174" data-name="Ellipse 174" cx="4.763" cy="4.763" r="4.763" transform="translate(42.179 21.454) rotate(-45)" fill="#5d88d6"/>
    </g>
    <path id="Path_205" data-name="Path 205" d="M699.322,114.646a36.787,36.787,0,0,1-1.81,11.992c-2.709,7.465-8.172,11.546-16.105,11.976a29.1,29.1,0,0,1-7.631-.491c-6.269-1.318-10.222-5.174-12.31-11.117-1.621-4.609-1.834-9.385-1.7-14.2a31.45,31.45,0,0,1,2.082-10.976c2.625-6.55,7.53-10.064,14.446-10.918a27.207,27.207,0,0,1,8.881.365,15.593,15.593,0,0,1,11.888,9.894c1.794,4.324,2.178,8.875,2.262,13.478m-8-.234c-.062-1.262-.089-2.91-.233-4.549a22.793,22.793,0,0,0-1.618-7.131,8.724,8.724,0,0,0-6.944-5.579,18.238,18.238,0,0,0-6.677.134,8.366,8.366,0,0,0-6.229,5.112,15.567,15.567,0,0,0-.789,2.165c-1.327,4.834-1.221,9.769-.937,14.707a22.822,22.822,0,0,0,1.371,6.765c1.279,3.4,3.566,5.634,7.256,6.23a17.87,17.87,0,0,0,3.871.225c5.569-.318,8.508-2.728,9.907-8.111a44.237,44.237,0,0,0,1.022-9.968" transform="translate(-243.392 -38.176)"/>
    <path id="Path_206" data-name="Path 206" d="M735.439,114.727c0-7.36.028-14.719-.029-22.078-.008-1.114.332-1.352,1.355-1.306,1.784.079,3.574.044,5.361.01.64-.011.871.2.834.844-.047.839-.016,1.682-.01,2.523.008,1.1.063,1.144,1.037.671a65.014,65.014,0,0,1,7.321-3.155,23.824,23.824,0,0,1,11.987-1.272c4.66.824,7.021,3.774,7.213,8.9.065,1.715.029,3.434.029,5.15,0,10.619-.012,21.238.026,31.855,0,.951-.253,1.175-1.162,1.137-1.749-.075-3.507-.077-5.256,0-.914.041-1.082-.277-1.08-1.122q.044-15.666.015-31.329c0-1.331-.02-2.664-.111-3.991a3.617,3.617,0,0,0-3.51-3.751,24.977,24.977,0,0,0-11.749,1.592c-1.32.457-2.577,1.09-3.882,1.592a1.271,1.271,0,0,0-.9,1.412q.039,15.3.017,30.594c0,1.366-.031,2.735.014,4.1.022.668-.153.916-.867.9-1.856-.048-3.716-.06-5.571,0-.867.031-1.11-.216-1.107-1.1.038-7.394.021-14.789.021-22.183" transform="translate(-270.201 -38.163)"/>
    <path id="Path_207" data-name="Path 207" d="M603.7,114.787a40.061,40.061,0,0,1,1.32-11.335c2.365-8.251,7.806-12.49,16.385-12.744a38.214,38.214,0,0,1,11.314,1.466c.528.145.723.337.61.94-.308,1.651-.554,3.315-.769,4.981-.109.84-.279,1.19-1.268.828a23.956,23.956,0,0,0-7.7-1.5c-6.057-.14-9.691,2.563-10.99,8.5a41.262,41.262,0,0,0,.183,18.745,13.4,13.4,0,0,0,.423,1.3c1.353,3.8,4.1,5.666,8.072,5.951a23.853,23.853,0,0,0,10.814-2.156c1.226-.5,1.243-.5,1.439.845.237,1.628.434,3.263.673,4.891a.615.615,0,0,1-.441.8c-5.816,2.223-11.759,3.194-17.909,1.669-6.009-1.492-9.279-5.651-10.834-11.409a43.99,43.99,0,0,1-1.323-11.762" transform="translate(-223.538 -38.176)"/>
  </g>
</svg>
