<svg xmlns="http://www.w3.org/2000/svg" width="222.114" height="69.318" viewBox="0 0 222.114 69.318">
  <path id="Path_257" data-name="Path 257" d="M117.053,17.416a4.51,4.51,0,1,1-4.51-4.51A4.5,4.5,0,0,1,117.053,17.416Zm-18.6,9.09v1.11a8.669,8.669,0,0,0-6.731-2.775c-7.563,0-13.461,5.759-13.461,13.739,0,7.91,5.829,13.739,13.461,13.739a8.427,8.427,0,0,0,6.731-2.845v1.18a.949.949,0,0,0,.971.971h5.62V25.534h-5.62A.992.992,0,0,0,98.458,26.506Zm0,16.722a6.9,6.9,0,0,1-5.62,2.845C88.4,46.073,85,43.3,85,38.579s3.4-7.494,7.841-7.494a7.087,7.087,0,0,1,5.62,2.845Zm10.755-17.694h6.661v26.09h-6.661Zm99.5-.694a8.669,8.669,0,0,0-6.731,2.775V12.975h-6.661V51.624h5.62a.992.992,0,0,0,.971-.971v-1.18h0a8.592,8.592,0,0,0,6.731,2.845,13.323,13.323,0,0,0,13.461-13.739C222.105,30.669,216.207,24.841,208.714,24.841ZM207.6,46a6.8,6.8,0,0,1-5.62-2.845v-9.3a7.53,7.53,0,0,1,5.62-2.845c4.441,0,7.841,2.775,7.841,7.494S212.044,46,207.6,46Zm-15.751-9.853V51.693h-6.661V36.914c0-4.3-1.388-6.037-5.135-6.037a7.448,7.448,0,0,0-5.412,2.567V51.624h-6.661V25.534h5.273a.992.992,0,0,1,.971.971v1.11a9.56,9.56,0,0,1,7.077-2.775,10.8,10.8,0,0,1,7.286,2.5C190.951,29.281,191.853,31.779,191.853,36.151Zm-40.036-11.31a8.669,8.669,0,0,0-6.731,2.775V12.975h-6.661V51.624h5.62a.992.992,0,0,0,.971-.971v-1.18h0a8.592,8.592,0,0,0,6.731,2.845,13.323,13.323,0,0,0,13.461-13.739A13.226,13.226,0,0,0,151.816,24.841ZM150.706,46a6.8,6.8,0,0,1-5.62-2.845v-9.3a7.53,7.53,0,0,1,5.62-2.845c4.441,0,7.841,2.775,7.841,7.494S155.147,46,150.706,46ZM132.665,24.841a10.622,10.622,0,0,1,3.053.347v6.175s-5.551-1.873-9.02,2.082V51.693h-6.661V25.534h5.62a.992.992,0,0,1,.971.971v1.11A9.113,9.113,0,0,1,132.665,24.841ZM63.487,49.265c-.347-.833-.694-1.735-1.041-2.5-.555-1.249-1.11-2.429-1.6-3.539l-.069-.069C55.993,32.751,50.858,22.2,45.446,11.8l-.208-.416c-.555-1.041-1.11-2.151-1.665-3.261a19.945,19.945,0,0,0-2.5-3.816A11.207,11.207,0,0,0,32.262,0a11.646,11.646,0,0,0-8.882,4.163,23.92,23.92,0,0,0-2.5,3.816c-.555,1.11-1.11,2.22-1.665,3.261l-.208.416C13.667,22.065,8.463,32.612,3.675,43.02l-.069.139c-.486,1.11-1.041,2.29-1.6,3.539q-.52,1.145-1.041,2.5a15.586,15.586,0,0,0-.833,7.494,14.746,14.746,0,0,0,9.02,11.518,14.249,14.249,0,0,0,5.62,1.11,15.787,15.787,0,0,0,1.8-.139A18.333,18.333,0,0,0,23.52,66.82a35.138,35.138,0,0,0,8.6-7.216,36.46,36.46,0,0,0,8.6,7.216,18.333,18.333,0,0,0,6.939,2.359,15.787,15.787,0,0,0,1.8.139,14.011,14.011,0,0,0,5.62-1.11,14.717,14.717,0,0,0,9.02-11.518A13.108,13.108,0,0,0,63.487,49.265ZM32.193,52.873c-3.747-4.718-6.175-9.159-7.008-12.906a11.192,11.192,0,0,1-.208-4.233,6.732,6.732,0,0,1,1.11-2.914,7.366,7.366,0,0,1,6.106-3.053A7.1,7.1,0,0,1,38.3,32.82a6.732,6.732,0,0,1,1.11,2.914,11.139,11.139,0,0,1-.208,4.233C38.368,43.644,35.94,48.085,32.193,52.873Zm27.685,3.261a10.311,10.311,0,0,1-6.314,8.118,10.506,10.506,0,0,1-5.273.694,13.646,13.646,0,0,1-5.273-1.8,32.4,32.4,0,0,1-7.91-6.731c4.58-5.62,7.355-10.755,8.4-15.335a17.391,17.391,0,0,0,.347-5.9,11.258,11.258,0,0,0-1.873-4.718,11.692,11.692,0,0,0-9.784-4.926,11.87,11.87,0,0,0-9.784,4.926,11.259,11.259,0,0,0-1.873,4.718,14.407,14.407,0,0,0,.347,5.9c1.041,4.58,3.886,9.784,8.4,15.4a31.174,31.174,0,0,1-7.91,6.731,13.646,13.646,0,0,1-5.273,1.8,11.1,11.1,0,0,1-5.273-.694A10.311,10.311,0,0,1,4.508,56.2a11.487,11.487,0,0,1,.624-5.412c.208-.694.555-1.388.9-2.22.486-1.11,1.041-2.29,1.6-3.469l.069-.139c4.788-10.339,9.922-20.885,15.265-31.155l.208-.416c.555-1.041,1.11-2.151,1.665-3.192a15.241,15.241,0,0,1,1.943-3.053,7.285,7.285,0,0,1,11.1,0A15.241,15.241,0,0,1,39.826,10.2c.555,1.041,1.11,2.151,1.665,3.192l.208.416c5.273,10.339,10.408,20.885,15.2,31.224V45.1c.555,1.11,1.041,2.359,1.6,3.469.347.833.694,1.527.9,2.22A11.724,11.724,0,0,1,59.878,56.134Z" transform="translate(0.008)" fill="#fa5b63"/>
</svg>
