<svg xmlns="http://www.w3.org/2000/svg" viewBox="0 0 323.35 125.44"><g id="Layer_2" data-name="Layer 2"><g id="Layer_1-2" data-name="Layer 1"><rect id="rect4" y="1.75" width="23.41" height="23.41" fill="#0068b5"/><g id="g10"><path id="path6" d="M22.82,123.69V39.4H.67v84.29Zm147.27.83V103.87a52,52,0,0,1-8-.5,9.17,9.17,0,0,1-5.25-2.33,9.46,9.46,0,0,1-2.33-5,54.28,54.28,0,0,1-.5-8.16V58.39h16.08v-19H154V6.5H131.77V88a73.07,73.07,0,0,0,1.75,17.41,24.45,24.45,0,0,0,5.91,11.16,23.85,23.85,0,0,0,10.83,6.08,64.67,64.67,0,0,0,16.91,1.83Zm127.27-.83V0H275.12V123.69Zm-187-76c-6.16-6.66-14.82-10-25.82-10A32.46,32.46,0,0,0,70,40.9a31.19,31.19,0,0,0-11,9l-1.25,1.59V39.4H35.82v84.29H57.89V80.38c.25-7.91,2.16-13.74,5.83-17.49a19.08,19.08,0,0,1,14.08-6c6.41,0,11.32,2,14.57,5.83S97.2,72,97.2,78.88h0v.17h0v44.56h22.41V75.8C119.69,63.8,116.53,54.31,110.36,47.64ZM263.63,81.38a46.5,46.5,0,0,0-3.17-17.08,45.87,45.87,0,0,0-8.91-13.91,40.51,40.51,0,0,0-13.75-9.33,45,45,0,0,0-17.65-3.33A43.8,43.8,0,0,0,203,41.15a44.68,44.68,0,0,0-13.91,9.33,43.34,43.34,0,0,0-9.33,13.91,42.37,42.37,0,0,0-3.42,17.15,45.33,45.33,0,0,0,3.25,17.16,42.86,42.86,0,0,0,9.08,13.91,41.5,41.5,0,0,0,14.08,9.33,46,46,0,0,0,18.07,3.5c18.83,0,30.49-8.58,37.48-16.57l-16-12.17c-3.33,4-11.33,9.42-21.32,9.42-6.25,0-11.41-1.42-15.33-4.33a21.39,21.39,0,0,1-8-11.75l-.25-.75h66.22Zm-66.06-7.75c0-6.16,7.08-16.91,22.33-17s22.4,10.74,22.4,16.91Z"/><path id="path8" d="M322.68,112.7a8,8,0,0,0-1.75-2.59,7.73,7.73,0,0,0-2.58-1.74,8.23,8.23,0,0,0-3.17-.67,7.91,7.91,0,0,0-3.16.67,8.19,8.19,0,0,0-4.33,4.33,8.22,8.22,0,0,0-.67,3.16,7.93,7.93,0,0,0,.67,3.17,7.76,7.76,0,0,0,1.75,2.58,7.91,7.91,0,0,0,2.58,1.75,8.39,8.39,0,0,0,3.16.66,8.09,8.09,0,0,0,3.17-.66,8.28,8.28,0,0,0,4.33-4.33,7.81,7.81,0,0,0,0-6.33Zm-1.33,5.83a6.5,6.5,0,0,1-1.42,2.16,6.35,6.35,0,0,1-2.16,1.42,7,7,0,0,1-2.67.5,7.23,7.23,0,0,1-2.66-.5,6.29,6.29,0,0,1-2.17-1.42,6.65,6.65,0,0,1-1.42-2.16,7,7,0,0,1-.5-2.67,7.26,7.26,0,0,1,.5-2.66,6.34,6.34,0,0,1,3.59-3.59,6.92,6.92,0,0,1,2.66-.49,7.31,7.31,0,0,1,2.67.49,6.65,6.65,0,0,1,2.16,1.42,6.44,6.44,0,0,1,1.42,2.17,6.93,6.93,0,0,1,.5,2.66A5.77,5.77,0,0,1,321.35,118.53Zm-4.67-2a2.62,2.62,0,0,0,1.59-.75,2.48,2.48,0,0,0,.66-1.83,2.55,2.55,0,0,0-.83-2.09,3.59,3.59,0,0,0-2.5-.75h-3.66v9.42h1.75v-3.84h1.24l2.34,3.84h1.83Zm-.91-1.33h-2.08v-2.67h2.08a2.26,2.26,0,0,1,.75.17.88.88,0,0,1,.5.41,1.75,1.75,0,0,1,.16.75,1.67,1.67,0,0,1-.16.75,2.27,2.27,0,0,1-.5.42,2.54,2.54,0,0,1-.75.17Z"/></g></g></g></svg>