<svg id="Group_286" data-name="Group 286" xmlns="http://www.w3.org/2000/svg" width="274.037" height="53.958" viewBox="0 0 274.037 53.958">
  <path id="Path_255" data-name="Path 255" d="M31.788,10.139,15.894,20.279,31.788,30.418,15.894,40.558,0,30.363,15.894,20.224,0,10.139,15.894,0ZM15.812,43.819,31.706,33.679,47.6,43.819,31.706,53.958ZM31.788,30.363,47.682,20.224,31.788,10.139,47.6,0,63.494,10.139,47.6,20.279,63.494,30.418,47.6,40.558Z" fill="#0061ff"/>
  <path id="Path_256" data-name="Path 256" d="M277.2,29.886h12.852c8.194,0,14.962,4.741,14.962,15.565v2.275c0,10.907-6.33,15.812-14.716,15.812H277.2ZM284.38,36V57.4h5.508c4.659,0,7.783-3.042,7.783-9.811V45.807c0-6.769-3.288-9.811-8.029-9.811Zm24.444.329h5.755l.932,6.33c1.1-4.3,3.891-6.6,8.961-6.6h1.781v7.262h-2.96c-5.837,0-7.262,2.028-7.262,7.783V63.62h-7.1V36.325Zm18.854,14.2v-.767c0-9.125,5.837-14.113,13.784-14.113,8.112,0,13.784,4.987,13.784,14.113v.767c0,8.961-5.508,13.784-13.784,13.784C332.665,64.222,327.678,59.509,327.678,50.521Zm20.306-.082v-.685c0-5.07-2.549-8.111-6.6-8.111-3.974,0-6.6,2.8-6.6,8.111v.685c0,4.905,2.549,7.7,6.6,7.7C345.435,58.057,347.984,55.344,347.984,50.438Zm10.989-14.113h5.919l.685,5.152a9.186,9.186,0,0,1,8.961-5.837c6.933,0,11.51,4.987,11.51,14.223v.767c0,8.961-5.07,13.7-11.51,13.7-4.3,0-7.262-1.946-8.714-5.07V73.046h-6.933l.082-36.721ZM378.84,50.438v-.6c0-5.426-2.8-8.111-6.522-8.111-3.974,0-6.6,3.042-6.6,8.111v.521c0,4.823,2.549,7.865,6.522,7.865C376.319,58.139,378.84,55.535,378.84,50.438Zm17.7,8.139-.6,4.987h-6.084V27.2h6.933V41.148c1.535-3.562,4.576-5.508,8.879-5.508,6.522.082,11.345,4.576,11.345,13.62v.85c0,9.043-4.576,14.223-11.51,14.223C400.928,64.222,397.968,62.112,396.543,58.577Zm13.181-8.468v-.685c0-4.987-2.713-7.783-6.522-7.783-3.891,0-6.6,3.124-6.6,7.865v.6c0,5.07,2.631,8.029,6.522,8.029C407.286,58.139,409.724,55.535,409.724,50.11Zm10.331.411v-.767c0-9.125,5.837-14.113,13.784-14.113,8.111,0,13.784,4.987,13.784,14.113v.767c0,8.961-5.59,13.784-13.784,13.784C425.043,64.222,420.056,59.509,420.056,50.521Zm20.361-.082v-.685c0-5.07-2.549-8.111-6.6-8.111-3.973,0-6.6,2.8-6.6,8.111v.685c0,4.905,2.549,7.7,6.6,7.7C437.9,58.057,440.417,55.344,440.417,50.438Zm16.5-1.014-9.564-13.1h8.194l5.508,8.194,5.59-8.194h8.112l-9.7,13.017,10.222,14.223h-8.029L461,54.522l-6.084,9.043h-8.386Z" transform="translate(-201.237 -19.746)"/>
</svg>
