<svg xmlns="http://www.w3.org/2000/svg" viewBox="0 0 2994 790"><g id="Layer_2" data-name="Layer 2"><g id="Layer_1-2" data-name="Layer 1"><path d="M376.46,189.23q75.94,0,135.61,38,60.23,37.41,94.39,106.27,33.09,66.15,33.09,155.61,0,86.76-33.09,155.08T513.16,751q-60.75,39-136.7,39a243.58,243.58,0,0,1-187.69-86.75v73.19H0V0H188.77V275.44A235.7,235.7,0,0,1,272.31,212,243.42,243.42,0,0,1,376.46,189.23ZM320.05,633.3q40.14,0,71.6-18.43T441,563.36q17.91-32.54,17.9-74.29,0-40.67-17.9-73.74t-49.36-51.51q-31.47-18.44-71.6-18.43-38,0-67.81,18.43-29.84,17.9-46.65,50.43-16.82,33.08-16.82,74.82t16.82,74.83q16.82,32.54,46.65,51T320.05,633.3Z"/><path d="M665.39,776.44V0H854.17V776.44Z"/><path d="M907.67,776.44V202.24h187.69v574.2Z"/><path d="M1503.09,189.23q60.21,0,108.49,28.2,48.27,27.65,75.94,78.07,26.58,51,26.58,115.5V776.44H1534V453.29q0-31.46-12.48-55.85-11.92-24.94-34.17-38.5-21.7-13.54-51-13.55a99.73,99.73,0,0,0-51,13.55A93.54,93.54,0,0,0,1349,394.73q-13.56,21.69-13.56,51l-1.08,330.74H1146.7V202.24h187.69v65.61Q1361,231,1405.45,210.38,1449.92,189.23,1503.09,189.23Z"/><path d="M2128.88,453.29l213.19,323.15H2128.88L2004.12,573.12l-57.5,66.69V776.44H1757.85V0h188.77V428.89L2127.8,202.24H2341Z"/><path d="M907.57.06h188.3v147.2H907.57Z"/><path d="M2372,774.72V200.52h187.68v574.2Z" fill="#0c831f"/><path d="M2956.57,612.6,2994,733.52q-25.5,24.39-64.55,39.58-38.52,15.18-75.4,15.18-53.16,0-94.93-23.32a168.33,168.33,0,0,1-65.1-66.15q-23.33-41.2-23.32-94.88V350.72h-75.4V200.52h75.4V.06h180.09V200.52h118.8v150.2h-118.8V569.23q0,27.64,14.65,45t37.43,17.35a92.41,92.41,0,0,0,30.38-4.88A60.17,60.17,0,0,0,2956.57,612.6Z" fill="#0c831f"/><path d="M2370.54.06h188.3v147.2h-188.3Z" fill="#0c831f"/></g></g></svg>