<svg id="Group_240" data-name="Group 240" xmlns="http://www.w3.org/2000/svg" width="407.758" height="141.554" viewBox="0 0 407.758 141.554">
  <path id="Path_364" data-name="Path 364" d="M23.46,101.1a34.864,34.864,0,0,0,7.157,11.73,30.8,30.8,0,0,0,10.835,7.456,35.35,35.35,0,0,0,13.619,2.584,33.7,33.7,0,0,0,13.42-2.684,33.012,33.012,0,0,0,10.934-7.555A34.252,34.252,0,0,0,86.682,101a42.02,42.02,0,0,0,2.584-15.11V0h20.875V139.168H89.466V126.246a47.928,47.928,0,0,1-16.4,11.333,51.98,51.98,0,0,1-20.378,3.976,55.173,55.173,0,0,1-20.776-3.877,48.645,48.645,0,0,1-16.7-11.034,52.049,52.049,0,0,1-11.133-17.2A58.958,58.958,0,0,1,0,87.08V0H20.875V85.887A42.832,42.832,0,0,0,23.46,101.1Z" transform="translate(0)" fill="#010202"/>
  <path id="Path_365" data-name="Path 365" d="M306.6,0V50.7a53.178,53.178,0,0,1,16.1-11.034,48.278,48.278,0,0,1,19.881-4.076,52.429,52.429,0,0,1,20.875,4.175,52.593,52.593,0,0,1,28.231,28.231,51.938,51.938,0,0,1,4.175,20.677,51.225,51.225,0,0,1-4.175,20.577,52.852,52.852,0,0,1-28.231,28.132,52.43,52.43,0,0,1-20.875,4.175,48.969,48.969,0,0,1-19.98-4.076,52.815,52.815,0,0,1-16.2-11.034v12.724H286.523V0Zm2.286,102.388a34.591,34.591,0,0,0,7.456,11.134,35.979,35.979,0,0,0,11.133,7.555A33.848,33.848,0,0,0,341.2,123.86a33.357,33.357,0,0,0,13.519-2.783,34.779,34.779,0,0,0,11.034-7.555,36.87,36.87,0,0,0,7.455-11.134,33.844,33.844,0,0,0,2.783-13.718A34.551,34.551,0,0,0,373.2,74.853,36.539,36.539,0,0,0,365.75,63.62a33.472,33.472,0,0,0-11.034-7.455,34.951,34.951,0,0,0-38.172,7.455,35.663,35.663,0,0,0-7.555,11.233,34.551,34.551,0,0,0-2.783,13.818A34.921,34.921,0,0,0,308.889,102.388Z" transform="translate(-160.478)" fill="#010202"/>
  <path id="Path_366" data-name="Path 366" d="M555.78,113.756a54.088,54.088,0,0,1,10.935-16.8,52.6,52.6,0,0,1,57.457-11.63,48.1,48.1,0,0,1,16.1,11.034,50.432,50.432,0,0,1,10.537,16.7,57,57,0,0,1,3.778,20.975V140.6H572.083a34,34,0,0,0,3.976,11.431,34.461,34.461,0,0,0,7.455,9.145,34.07,34.07,0,0,0,10.14,6.064,33.112,33.112,0,0,0,12.028,2.187q18.092,0,29.226-14.911l14.513,10.736a52.963,52.963,0,0,1-43.738,21.671,55.99,55.99,0,0,1-21.173-3.976,51.562,51.562,0,0,1-17.1-11.134,52.821,52.821,0,0,1-11.432-16.8,54.244,54.244,0,0,1-.2-41.253Zm27.933-7.853a33.885,33.885,0,0,0-11.233,18.788h61.831A32.887,32.887,0,0,0,623.277,105.9a31.252,31.252,0,0,0-39.564,0Z" transform="translate(-309.059 -45.563)" fill="#010202"/>
  <path id="Path_367" data-name="Path 367" d="M837.2,109.706q-6.361,6.958-6.362,18.887v57.656h-20.08V84.855h19.881V97.38a28.259,28.259,0,0,1,9.841-9.742,27.851,27.851,0,0,1,14.414-3.579h6.958v18.688H853.5A21.1,21.1,0,0,0,837.2,109.706Z" transform="translate(-454.095 -47.08)" fill="#010202"/>
</svg>
