<svg xmlns="http://www.w3.org/2000/svg" width="123.586" height="100.44" viewBox="0 0 123.586 100.44">
  <path id="Path_258" data-name="Path 258" d="M113.867,198.851c46.638,0,72.143-38.639,72.143-72.143,0-1.1-.022-2.191-.073-3.278A51.592,51.592,0,0,0,198.586,110.3a50.614,50.614,0,0,1-14.562,3.991,25.441,25.441,0,0,0,11.149-14.026,50.812,50.812,0,0,1-16.1,6.154,25.379,25.379,0,0,0-43.21,23.124A71.986,71.986,0,0,1,83.6,103.055a25.376,25.376,0,0,0,7.849,33.85,25.169,25.169,0,0,1-11.484-3.172c-.005.106-.005.212-.005.323A25.367,25.367,0,0,0,100.3,158.914a25.316,25.316,0,0,1-11.451.434,25.385,25.385,0,0,0,23.687,17.611,50.881,50.881,0,0,1-31.492,10.854A51.576,51.576,0,0,1,75,187.462a71.783,71.783,0,0,0,38.867,11.389" transform="translate(-75 -98.411)" fill="#1da1f2"/>
</svg>
