<svg id="Group_1" data-name="Group 1" xmlns="http://www.w3.org/2000/svg" width="198.061" height="19" viewBox="0 0 198.061 19">
  <path id="path5" d="M191.612,11.381h-6.317l3.145-7.347ZM189.987.176H187l-8.074,18.5h3.3l1.887-4.435h8.677l1.86,4.435h3.409ZM167.858,6.317a2.77,2.77,0,0,1-1.022,2.256,4.211,4.211,0,0,1-2.753.841h-4.719V3.247h4.692a4.478,4.478,0,0,1,2.8.774,2.723,2.723,0,0,1,1,2.3Zm3.853,12.361-4.955-6.955a6.791,6.791,0,0,0,1.77-.748A5.441,5.441,0,0,0,169.9,9.794a5.31,5.31,0,0,0,.9-1.6,6.022,6.022,0,0,0,.328-2.061,6.037,6.037,0,0,0-.471-2.427,4.972,4.972,0,0,0-1.351-1.838A6.2,6.2,0,0,0,167.163.713a9.338,9.338,0,0,0-2.845-.406H156.14V18.677h3.224v-6.4H163.4l4.509,6.4ZM146.776.307h-13.6V18.677h13.736V15.791H136.4V10.857h9.2V7.97h-9.2V3.193h10.381ZM94.547,11.381H88.23l3.146-7.347ZM92.922.176H89.934l-8.074,18.5h3.3l1.888-4.435h8.678l1.86,4.435H101ZM68.513,14.426,62.981.307H59.416l7.629,18.5h2.831L77.5.307H74.017ZM47.458,18.677h3.224V.307H47.458ZM34.634,6.317a2.767,2.767,0,0,1-1.022,2.256,4.209,4.209,0,0,1-2.753.841H26.141V3.247h4.692a4.481,4.481,0,0,1,2.805.774,2.727,2.727,0,0,1,1,2.3Zm3.854,12.361-4.954-6.955a6.754,6.754,0,0,0,1.768-.748,5.436,5.436,0,0,0,1.376-1.181,5.267,5.267,0,0,0,.9-1.6,6.019,6.019,0,0,0,.329-2.061,6.038,6.038,0,0,0-.472-2.427,4.98,4.98,0,0,0-1.352-1.838A6.181,6.181,0,0,0,33.94.713,9.346,9.346,0,0,0,31.1.307H22.917V18.677h3.224v-6.4h4.037l4.509,6.4ZM10.931,6.552a3,3,0,0,1-1.062,2.4,4.32,4.32,0,0,1-2.9.9H3.224V3.247H6.973a4.6,4.6,0,0,1,2.883.826,2.93,2.93,0,0,1,1.075,2.479Zm3.277-.077a6.408,6.408,0,0,0-.484-2.547,5.523,5.523,0,0,0-1.39-1.942A6.121,6.121,0,0,0,10.131.74a9.092,9.092,0,0,0-2.9-.434H0V18.677H3.224v-5.9H6.868a9.749,9.749,0,0,0,2.857-.407,7.008,7.008,0,0,0,2.333-1.194A5.624,5.624,0,0,0,13.632,9.2a6.145,6.145,0,0,0,.576-2.729Z" fill="#278bf4" fill-rule="evenodd"/>
  <path id="path11" d="M120.141,7.956a3.439,3.439,0,1,0,0,3.084l.8.212,2.015.535,3.1.825a9.589,9.589,0,0,0-.036-6.217l-3.108.825-1.975.526Z" fill="#278bf4" fill-rule="evenodd"/>
  <path id="path13" d="M117.069,0a9.5,9.5,0,1,0,7.59,15.2l-2.438-.648-1.045-.278a6.3,6.3,0,1,1,0-9.556l3.483-.926A9.468,9.468,0,0,0,117.069,0Z" fill="#278bf4" fill-rule="evenodd"/>
</svg>
