<svg xmlns="http://www.w3.org/2000/svg" width="222.389" height="150.094" viewBox="0 0 222.389 150.094"><g data-name="Group 221"><path data-name="Path 185" d="M151.286 0c-14.174 0-27.231 7.974-39.849 21.907C99.037 7.755 85.761 0 70.932 0c-24.56 0-42.48 17.526-42.48 41.12s17.92 40.9 42.478 40.9c15.094 0 26.793-7.076 39.849-21.184 12.619 14.152 25.456 21.228 40.506 21.228 24.558-.044 42.478-17.285 42.478-40.945S175.844 0 151.286 0zM71.105 57.27c-10.406 0-16.606-6.857-16.606-15.927s6.2-16.124 16.606-16.124c8.763 0 15.927 7.054 23.682 16.562C87.47 50.628 79.732 57.27 71.105 57.27zm79.436 0c-8.631 0-15.927-6.857-23.682-15.927 7.974-9.508 14.831-16.124 23.682-16.124 10.406 0 16.54 7.142 16.54 16.124s-6.134 15.927-16.54 15.927z" fill="#484848"/><path data-name="Path 186" d="M129.27 76.172l16.518-19.716c-6.572-1.976-12.641-7.887-18.928-15.226l-16.08 19.607a72.255 72.255 0 0018.49 15.335z" fill="#20a7c9"/><g data-name="Group 130" fill="#484848"><path data-name="Path 187" d="M22.051 129.068a4.432 4.432 0 00-1.566-3.532 15.926 15.926 0 00-5.512-2.542 31.022 31.022 0 01-10.343-4.7 8.872 8.872 0 01-3.517-7.388 9.217 9.217 0 014.034-7.713 16.659 16.659 0 0110.343-2.955 15.459 15.459 0 0110.343 3.369 10.1 10.1 0 013.842 8.3v.148h-7.472a5.6 5.6 0 00-1.788-4.315 7.093 7.093 0 00-4.994-1.64 7.506 7.506 0 00-4.788 1.359 4.435 4.435 0 00-1.685 3.517 3.771 3.771 0 001.7 3.073 24.851 24.851 0 006.206 2.615 24.19 24.19 0 019.634 4.669 9.71 9.71 0 013.28 7.639 9.143 9.143 0 01-3.9 7.787 16.94 16.94 0 01-10.343 2.852 18.736 18.736 0 01-10.949-3.236 10.118 10.118 0 01-4.551-9.073v-.163h7.669a5.917 5.917 0 002.1 5.039 9.506 9.506 0 005.911 1.6 7.631 7.631 0 004.8-1.3 4.113 4.113 0 001.546-3.41z"/><path data-name="Path 188" d="M52.017 134.988a9.667 9.667 0 01-3.354 3.458 9.922 9.922 0 01-11.821-1.685q-2.542-2.955-2.542-8.984v-17.239h7.684v17.333a7.523 7.523 0 001.049 4.433 3.728 3.728 0 003.118 1.359 7.907 7.907 0 003.177-.591 5.36 5.36 0 002.157-1.773v-20.761h7.713v28.563h-6.575z"/><path data-name="Path 189" d="M90.243 125.614a16.339 16.339 0 01-2.955 10.2 9.7 9.7 0 01-8.186 3.857 9.307 9.307 0 01-3.99-.827 8.318 8.318 0 01-2.955-2.453v13.704h-7.684v-39.557h6.945l.458 3.369a9.245 9.245 0 013.044-2.881 8.3 8.3 0 014.167-1.02 9.51 9.51 0 018.23 4.152 18.425 18.425 0 012.955 10.9zm-7.713-.591a14.026 14.026 0 00-1.345-6.561 4.439 4.439 0 00-4.123-2.512 5.824 5.824 0 00-2.955.709 5.289 5.289 0 00-1.95 2.039v12.542a4.792 4.792 0 001.95 1.847 6.41 6.41 0 002.955.635 4.437 4.437 0 004.108-2.2 11.572 11.572 0 001.315-5.911z"/><path data-name="Path 190" d="M106.996 139.663a12.881 12.881 0 01-9.885-3.96 14.179 14.179 0 01-3.694-10.063v-1.049a15.627 15.627 0 013.5-10.491 13.108 13.108 0 0118.367-.606 13.42 13.42 0 013.221 9.427v4.2h-17.1v.163a7.389 7.389 0 001.891 4.625 5.912 5.912 0 004.56 1.816 14.986 14.986 0 004.256-.517 19.591 19.591 0 003.694-1.625l2.083 4.773a14.2 14.2 0 01-4.566 2.364 19.625 19.625 0 01-6.327.943zm-.691-23.638a4.038 4.038 0 00-3.384 1.64 8.505 8.505 0 00-1.478 4.3l.074.133h9.457v-.68a6.2 6.2 0 00-1.153-3.931 4.143 4.143 0 00-3.517-1.537z"/><path data-name="Path 191" d="M138.163 117.158h-2.837a5.154 5.154 0 00-2.822.709 4.52 4.52 0 00-1.684 2.01v19.224h-7.685v-28.563h7.2l.34 4.226a8.991 8.991 0 012.615-3.5 6.133 6.133 0 014.758-1.167l.99.222z"/><path data-name="Path 192" d="M157.402 131.24a2.691 2.691 0 00-1.226-2.2 12.64 12.64 0 00-4.551-1.625 18.416 18.416 0 01-7.639-3.059 6.594 6.594 0 01-2.586-5.5 7.883 7.883 0 013.1-6.28 12.622 12.622 0 018.3-2.571 13.688 13.688 0 018.7 2.556 7.589 7.589 0 013.1 6.472v.163h-7.375a3.8 3.8 0 00-1.093-2.808 5.289 5.289 0 00-6.177-.163 2.867 2.867 0 00-1.064 2.276 2.588 2.588 0 001.123 2.172 12.252 12.252 0 004.551 1.478 18.478 18.478 0 017.846 3.1 6.818 6.818 0 012.556 5.63 7.543 7.543 0 01-3.3 6.309 14.352 14.352 0 01-8.718 2.438 13.206 13.206 0 01-9.014-2.955 8.073 8.073 0 01-3.266-6.5v-.148h7.048a3.974 3.974 0 001.478 3.325 6.244 6.244 0 003.724 1.034 5.337 5.337 0 003.251-.857 2.708 2.708 0 001.232-2.287z"/><path data-name="Path 193" d="M181.842 139.663a12.847 12.847 0 01-9.871-3.96 14.179 14.179 0 01-3.694-10.063v-1.049a15.7 15.7 0 013.487-10.491 13.108 13.108 0 0118.367-.606 13.3 13.3 0 013.206 9.427v4.2h-17.066v.163a7.389 7.389 0 001.877 4.625 5.911 5.911 0 004.565 1.816 14.884 14.884 0 004.241-.517 19.31 19.31 0 003.709-1.625l2.083 4.773a14.346 14.346 0 01-4.566 2.364 19.714 19.714 0 01-6.338.943zm-.68-23.642a4.006 4.006 0 00-3.384 1.64 8.523 8.523 0 00-1.478 4.3l.089.133h9.457v-.68a6.2 6.2 0 00-1.153-3.931 4.141 4.141 0 00-3.532-1.537z"/><path data-name="Path 194" d="M207.685 103.534v7h4.817v5.408h-4.817v14.559a3.369 3.369 0 00.695 2.379 2.439 2.439 0 001.847.709 6.738 6.738 0 001.034-.074 9.211 9.211 0 001.02-.222l.665 5.571a15.7 15.7 0 01-2.276.606 15.1 15.1 0 01-2.394.192 8.217 8.217 0 01-6.147-2.187 9.633 9.633 0 01-2.157-6.945v-14.584h-4.167v-5.408h4.167v-7z"/></g><path data-name="Path 195" d="M111.437 21.886A74.343 74.343 0 0093.057 6.2l-16.54 19.94c6.287 2.191 11.852 7.843 17.767 15.05l.657.46z" fill="#20a7c9"/><g data-name="Group 132" fill="#484848"><path data-name="Path 196" d="M85.932 98.337h-4.821l-.936 2.723H77.4l4.682-12.66h2.827l4.717 12.66h-2.792zm-4.145-1.994h3.468l-1.734-4.977z"/><path data-name="Path 197" d="M99.927 96.62a4.994 4.994 0 01-1.058 3.347 3.907 3.907 0 01-4.336 1.006 2.908 2.908 0 01-1.075-.815v4.509h-2.705V91.66h2.48l.156 1.11a3.031 3.031 0 011.093-.954 3.108 3.108 0 011.491-.33 3.469 3.469 0 012.931 1.353 5.711 5.711 0 011.058 3.59zm-2.757-.191a4.19 4.19 0 00-.486-2.168 1.58 1.58 0 00-1.474-.832 2.22 2.22 0 00-1.058.243 1.736 1.736 0 00-.694.676v4.127a1.725 1.725 0 00.694.607 2.515 2.515 0 001.075.208 1.616 1.616 0 001.474-.728 3.554 3.554 0 00.468-1.96z"/><path data-name="Path 198" d="M107.61 101.06q-.138-.312-.26-.676a3.6 3.6 0 01-.139-.728 3.68 3.68 0 01-1.127 1.127 2.881 2.881 0 01-1.734.468 3.664 3.664 0 01-2.48-.763 2.605 2.605 0 01-.867-2.081 2.413 2.413 0 011.145-2.133 6.1 6.1 0 013.382-.763h1.543v-.746a1.461 1.461 0 00-.382-1.058 1.629 1.629 0 00-1.145-.382 1.558 1.558 0 00-1.041.312.988.988 0 00-.364.832h-2.65a2.293 2.293 0 011.127-2.046 5.2 5.2 0 013.122-.867 4.806 4.806 0 012.965.85 2.88 2.88 0 011.145 2.445v3.883a5.64 5.64 0 00.121 1.231 5.518 5.518 0 00.329 1.162zm-2.519-1.734a2.493 2.493 0 001.3-.33 1.727 1.727 0 00.763-.763v-1.335h-1.543a1.924 1.924 0 00-1.335.416 1.269 1.269 0 00-.451.971.973.973 0 00.347.763 1.389 1.389 0 00.919.278z"/><path data-name="Path 199" d="M116.298 99.325a1.737 1.737 0 001.179-.4 1.316 1.316 0 00.434-1.041h2.515a2.829 2.829 0 01-1.162 2.376 4.634 4.634 0 01-2.983.971 4.562 4.562 0 01-3.468-1.335 4.787 4.787 0 01-1.252-3.467v-.26a4.853 4.853 0 011.231-3.468 5.219 5.219 0 016.573-.347 3.139 3.139 0 011.11 2.6h-2.514a1.731 1.731 0 00-.434-1.214 1.527 1.527 0 00-1.2-.486 1.616 1.616 0 00-1.543.8 4.011 4.011 0 00-.451 2.012v.26a3.975 3.975 0 00.451 2.012 1.736 1.736 0 001.514.987z"/><path data-name="Path 200" d="M124.709 92.839a3.469 3.469 0 015.2-.382 4.253 4.253 0 01.919 3.018v5.584h-2.759v-5.6a2.267 2.267 0 00-.416-1.561 1.576 1.576 0 00-1.249-.468 2.594 2.594 0 00-1.006.191 1.841 1.841 0 00-.711.538v6.937h-2.718V87.498h2.757z"/><path data-name="Path 201" d="M137.438 101.251a4.843 4.843 0 01-3.468-1.318 4.423 4.423 0 01-1.318-3.312v-.347a4.906 4.906 0 011.249-3.468 4.254 4.254 0 013.347-1.335 4.318 4.318 0 013.208 1.145 4.2 4.2 0 011.145 3.1v1.37h-6.087a2.255 2.255 0 00.659 1.526 2.219 2.219 0 001.63.607 6.116 6.116 0 001.526-.173 7.842 7.842 0 001.318-.538l.746 1.578a5.2 5.2 0 01-1.63.78 7.621 7.621 0 01-2.325.385zm-.243-7.821a1.477 1.477 0 00-1.2.555 2.638 2.638 0 00-.555 1.4h3.468v-.225a1.957 1.957 0 00-.416-1.3 1.593 1.593 0 00-1.297-.431z"/></g><path data-name="Path 202" d="M217.305 103.837h-1.137v3.559h-.736v-3.559h-1.137v-.642h3.01zm4.228.87l-1.177 2.676h-.4l-1.217-2.809v2.8h-.722v-4.179h.91l1.258 3.05 1.338-3.05h.87v4.2h-.736z" fill="#484848"/></g></svg>