<svg xmlns="http://www.w3.org/2000/svg" width="311" height="120.879" viewBox="0 0 311 120.879"><g data-name="Group 406"><path data-name="Path 451" d="M178 2.293c-6 3-8.6 8.6-8.6 23.8a23.882 23.882 0 017.8-4.8 31.872 31.872 0 007.8-4.3c5.2-3.9 6-8.6 6-16.8-.1 0-8.3-.5-13 2.1z" fill="#fbbd71"/><path data-name="Path 452" d="M141.3 5.793c-5.2 4.3-6.5 11.7-6.5 11.7l-16.8 64.4-13.8-52.7c-1.3-5.6-3.9-12.5-7.8-17.3-4.8-6.1-14.8-6.5-16-6.5-.9 0-10.8.4-16 6.5-3.9 4.8-6.5 11.7-7.8 17.3l-13 52.7-16.8-64.4a23.689 23.689 0 00-6.5-11.7C12.1-1.607 0 .193 0 .193l32 120.5s10.4.9 15.6-1.7c6.9-3.5 10.4-6 14.3-22.5 3.9-14.7 14.3-57.5 15.1-60.5.4-1.3 1.3-5.2 3.9-5.2s3.5 3.5 3.9 5.2c.9 3 11.2 45.8 15.1 60.5 4.3 16.4 7.3 19 14.3 22.5 5.2 2.6 15.6 1.7 15.6 1.7L161.6.193s-12.1-1.7-20.3 5.6z"/><path data-name="Path 453" d="M190.9 19.593a24.048 24.048 0 01-6.5 5.6c-3 1.7-5.6 2.6-8.6 4.3-5.2 2.6-6.5 5.2-6.5 9.1v81.7s8.2.9 13.4-1.7c6.9-3.5 8.2-6.9 8.2-21.6v-77.4z"/><path data-name="Path 454" d="M270.4 60.693L311 .593s-16.8-3-25.5 4.8c-5.6 4.8-11.2 13.8-11.2 13.8l-14.7 21.6c-.9 1.3-1.7 2.2-3 2.2a3.9 3.9 0 01-3-2.2l-14.7-21.6a125.4 125.4 0 00-11.2-13.8c-8.6-7.8-25.5-4.8-25.5-4.8l39.3 60-40.2 60s17.7 2.2 26.4-5.6c5.6-4.8 10.8-13 10.8-13l14.7-21.6c.9-1.3 1.7-2.2 3-2.2a3.9 3.9 0 013 2.2l14.7 21.6s5.6 8.2 10.8 13c8.6 7.8 25.9 5.6 25.9 5.6z"/></g></svg>