<svg xmlns="http://www.w3.org/2000/svg" width="320.107" height="99.9" viewBox="0 0 320.107 99.9"><path data-name="Path 450" d="M168.708 25.1a6.5 6.5 0 11-6.5-6.5 6.487 6.487 0 016.5 6.5zm-26.8 13.1v1.6s-3.1-4-9.7-4c-10.9 0-19.4 8.3-19.4 19.8 0 11.4 8.4 19.8 19.4 19.8 6.7 0 9.7-4.1 9.7-4.1V73a1.367 1.367 0 001.4 1.4h8.1V36.8h-8.1a1.43 1.43 0 00-1.4 1.4zm0 24.1a9.938 9.938 0 01-8.1 4.1c-6.4 0-11.3-4-11.3-10.8s4.9-10.8 11.3-10.8a10.213 10.213 0 018.1 4.1zm15.5-25.5h9.6v37.6h-9.6zm143.4-1c-6.6 0-9.7 4-9.7 4V18.7h-9.6v55.7h8.1a1.43 1.43 0 001.4-1.4v-1.7s3.1 4.1 9.7 4.1c10.9 0 19.4-8.4 19.4-19.8s-8.5-19.8-19.3-19.8zm-1.6 30.5a9.794 9.794 0 01-8.1-4.1V48.8a10.852 10.852 0 018.1-4.1c6.4 0 11.3 4 11.3 10.8s-4.9 10.8-11.3 10.8zm-22.7-14.2v22.4h-9.6V53.2c0-6.2-2-8.7-7.4-8.7a10.735 10.735 0 00-7.8 3.7v26.2h-9.6V36.8h7.6a1.43 1.43 0 011.4 1.4v1.6a13.778 13.778 0 0110.2-4 15.567 15.567 0 0110.5 3.6c3.4 2.8 4.7 6.4 4.7 12.7zm-57.7-16.3c-6.6 0-9.7 4-9.7 4V18.7h-9.6v55.7h8.1a1.43 1.43 0 001.4-1.4v-1.7s3.1 4.1 9.7 4.1c10.9 0 19.4-8.4 19.4-19.8.1-11.4-8.4-19.8-19.3-19.8zm-1.6 30.5a9.794 9.794 0 01-8.1-4.1V48.8a10.852 10.852 0 018.1-4.1c6.4 0 11.3 4 11.3 10.8s-4.9 10.8-11.3 10.8zm-26-30.5a15.308 15.308 0 014.4.5v8.9s-8-2.7-13 3v26.3h-9.6V36.8h8.1a1.43 1.43 0 011.4 1.4v1.6a13.134 13.134 0 018.7-4zM91.508 71c-.5-1.2-1-2.5-1.5-3.6-.8-1.8-1.6-3.5-2.3-5.1l-.1-.1c-6.9-15-14.3-30.2-22.1-45.2l-.3-.6c-.8-1.5-1.6-3.1-2.4-4.7a28.745 28.745 0 00-3.6-5.5 16.151 16.151 0 00-12.7-6.2 16.784 16.784 0 00-12.8 6 34.474 34.474 0 00-3.6 5.5c-.8 1.6-1.6 3.2-2.4 4.7l-.3.6c-7.7 15-15.2 30.2-22.1 45.2l-.1.2c-.7 1.6-1.5 3.3-2.3 5.1q-.75 1.65-1.5 3.6a22.462 22.462 0 00-1.2 10.8 21.252 21.252 0 0013 16.6 20.536 20.536 0 008.1 1.6 22.753 22.753 0 002.6-.2 26.421 26.421 0 0010-3.4c4.1-2.3 8-5.6 12.4-10.4a52.546 52.546 0 0012.4 10.4 26.421 26.421 0 0010 3.4 22.753 22.753 0 002.6.2 20.193 20.193 0 008.1-1.6 21.21 21.21 0 0013-16.6 18.892 18.892 0 00-.9-10.7zm-45.1 5.2c-5.4-6.8-8.9-13.2-10.1-18.6a16.13 16.13 0 01-.3-6.1 9.7 9.7 0 011.6-4.2 10.616 10.616 0 018.8-4.4 10.239 10.239 0 018.8 4.4 9.7 9.7 0 011.6 4.2 16.053 16.053 0 01-.3 6.1c-1.2 5.3-4.7 11.7-10.1 18.6zm39.9 4.7a14.86 14.86 0 01-9.1 11.7 15.141 15.141 0 01-7.6 1 19.666 19.666 0 01-7.6-2.6c-3.6-2-7.2-5.1-11.4-9.7 6.6-8.1 10.6-15.5 12.1-22.1a25.064 25.064 0 00.5-8.5 16.226 16.226 0 00-2.7-6.8 16.85 16.85 0 00-14.1-7.1 17.107 17.107 0 00-14.1 7.1 16.226 16.226 0 00-2.7 6.8 20.763 20.763 0 00.5 8.5c1.5 6.6 5.6 14.1 12.1 22.2a44.928 44.928 0 01-11.4 9.7 19.666 19.666 0 01-7.6 2.6 16 16 0 01-7.6-1 14.86 14.86 0 01-9.1-11.7 16.555 16.555 0 01.9-7.8c.3-1 .8-2 1.3-3.2.7-1.6 1.5-3.3 2.3-5l.1-.2c6.9-14.9 14.3-30.1 22-44.9l.3-.6c.8-1.5 1.6-3.1 2.4-4.6a21.965 21.965 0 012.8-4.4 10.5 10.5 0 0116 0 21.966 21.966 0 012.8 4.4c.8 1.5 1.6 3.1 2.4 4.6l.3.6c7.6 14.9 15 30.1 21.9 45v.1c.8 1.6 1.5 3.4 2.3 5 .5 1.2 1 2.2 1.3 3.2a16.9 16.9 0 01.7 7.7z" fill="#fa5b63"/></svg>