<svg data-name="Group 1" xmlns="http://www.w3.org/2000/svg" width="198.061" height="19" viewBox="0 0 198.061 19"><path d="M191.612 11.381h-6.317l3.145-7.347zM189.987.176H187l-8.074 18.5h3.3l1.887-4.435h8.677l1.86 4.435h3.409zm-22.129 6.141a2.77 2.77 0 01-1.022 2.256 4.211 4.211 0 01-2.753.841h-4.719V3.247h4.692a4.478 4.478 0 012.8.774 2.723 2.723 0 011 2.3zm3.853 12.361l-4.955-6.955a6.791 6.791 0 001.77-.748 5.441 5.441 0 001.374-1.181 5.31 5.31 0 00.9-1.6 6.022 6.022 0 00.328-2.061 6.037 6.037 0 00-.471-2.427 4.972 4.972 0 00-1.351-1.838 6.2 6.2 0 00-2.143-1.155 9.338 9.338 0 00-2.845-.406h-8.178v18.37h3.224v-6.4h4.036l4.509 6.4zM146.776.307h-13.6v18.37h13.736v-2.886H136.4v-4.934h9.2V7.97h-9.2V3.193h10.381zM94.547 11.381H88.23l3.146-7.347zM92.922.176h-2.988l-8.074 18.5h3.3l1.888-4.435h8.678l1.86 4.435H101zm-24.409 14.25L62.981.307h-3.565l7.629 18.5h2.831L77.5.307h-3.483zm-21.055 4.251h3.224V.307h-3.224zM34.634 6.317a2.767 2.767 0 01-1.022 2.256 4.209 4.209 0 01-2.753.841h-4.718V3.247h4.692a4.481 4.481 0 012.805.774 2.727 2.727 0 011 2.3zm3.854 12.361l-4.954-6.955a6.754 6.754 0 001.768-.748 5.436 5.436 0 001.376-1.181 5.267 5.267 0 00.9-1.6 6.019 6.019 0 00.329-2.061 6.038 6.038 0 00-.472-2.427 4.98 4.98 0 00-1.352-1.838A6.181 6.181 0 0033.94.713 9.346 9.346 0 0031.1.307h-8.183v18.37h3.224v-6.4h4.037l4.509 6.4zM10.931 6.552a3 3 0 01-1.062 2.4 4.32 4.32 0 01-2.9.9H3.224V3.247h3.749a4.6 4.6 0 012.883.826 2.93 2.93 0 011.075 2.479zm3.277-.077a6.408 6.408 0 00-.484-2.547 5.523 5.523 0 00-1.39-1.942A6.121 6.121 0 0010.131.74a9.092 9.092 0 00-2.9-.434H0v18.371h3.224v-5.9h3.644a9.749 9.749 0 002.857-.407 7.008 7.008 0 002.333-1.194A5.624 5.624 0 0013.632 9.2a6.145 6.145 0 00.576-2.729zm105.933 1.481a3.439 3.439 0 100 3.084l.8.212 2.015.535 3.1.825a9.589 9.589 0 00-.036-6.217l-3.108.825-1.975.526z" fill="#278bf4" fill-rule="evenodd"/><path d="M117.069 0a9.5 9.5 0 107.59 15.2l-2.438-.648-1.045-.278a6.3 6.3 0 110-9.556l3.483-.926A9.468 9.468 0 00117.069 0z" fill="#278bf4" fill-rule="evenodd"/></svg>