<svg xmlns="http://www.w3.org/2000/svg" width="2436.615" height="425.676" viewBox="0 0 2436.615 425.676"><g data-name="Group 405" fill="#fff"><g data-name="Group 370" transform="rotate(180 1271.985 212.838)" opacity=".148"><circle data-name="Ellipse 154" cx="22.218" cy="22.218" r="22.218" transform="rotate(-45 210.178 -400.137)"/><circle data-name="Ellipse 155" cx="24.683" cy="24.683" r="24.683" transform="rotate(-45 312.706 -439.114)"/><circle data-name="Ellipse 156" cx="27.148" cy="27.148" r="27.148" transform="rotate(-45 415.239 -478.087)"/><circle data-name="Ellipse 157" cx="29.613" cy="29.613" r="29.613" transform="rotate(-45 517.652 -517.028)"/><circle data-name="Ellipse 158" cx="19.753" cy="19.753" r="19.753" transform="rotate(-45 150.875 -256.966)"/><circle data-name="Ellipse 159" cx="22.218" cy="22.218" r="22.218" transform="rotate(-45 253.402 -295.943)"/><circle data-name="Ellipse 160" cx="24.683" cy="24.683" r="24.683" transform="rotate(-45 355.827 -334.882)"/><circle data-name="Ellipse 161" cx="27.148" cy="27.148" r="27.148" transform="rotate(-45 458.299 -373.847)"/><circle data-name="Ellipse 162" cx="29.613" cy="29.613" r="29.613" transform="rotate(-45 560.874 -412.823)"/><circle data-name="Ellipse 163" cx="17.288" cy="17.288" r="17.288" transform="rotate(-45 91.691 -113.842)"/><circle data-name="Ellipse 164" cx="19.753" cy="19.753" r="19.753" transform="rotate(-45 194.042 -152.757)"/><circle data-name="Ellipse 165" cx="22.218" cy="22.218" r="22.218" transform="rotate(-45 296.63 -191.752)"/><circle data-name="Ellipse 166" cx="24.683" cy="24.683" r="24.683" transform="rotate(-45 399.094 -230.708)"/><circle data-name="Ellipse 167" cx="27.148" cy="27.148" r="27.148" transform="rotate(-45 501.581 -269.657)"/><circle data-name="Ellipse 168" cx="29.613" cy="29.613" r="29.613" transform="rotate(-45 603.935 -308.598)"/><g data-name="Group 120" transform="translate(112.018 247.663)"><circle data-name="Ellipse 169" cx="19.753" cy="19.753" r="19.753" transform="rotate(-45 90.663 -123.503)"/><circle data-name="Ellipse 170" cx="19.753" cy="19.753" transform="translate(61.026 69.224)" r="19.753"/><circle data-name="Ellipse 171" cx="19.753" cy="19.753" transform="translate(0 130.314)" r="19.753"/><circle data-name="Ellipse 172" cx="19.753" cy="19.753" transform="translate(122.072 130.279)" r="19.753"/><circle data-name="Ellipse 173" cx="19.753" cy="19.753" r="19.753" transform="rotate(-45 299.157 -209.831)"/><circle data-name="Ellipse 174" cx="19.753" cy="19.753" r="19.753" transform="rotate(-45 194.867 -166.668)"/></g></g><g data-name="Group 371" transform="translate(-107.355)" opacity=".148"><circle data-name="Ellipse 154" cx="22.218" cy="22.218" r="22.218" transform="rotate(-45 210.178 -400.137)"/><circle data-name="Ellipse 155" cx="24.683" cy="24.683" r="24.683" transform="rotate(-45 312.706 -439.114)"/><circle data-name="Ellipse 156" cx="27.148" cy="27.148" r="27.148" transform="rotate(-45 415.239 -478.087)"/><circle data-name="Ellipse 157" cx="29.613" cy="29.613" r="29.613" transform="rotate(-45 517.652 -517.028)"/><circle data-name="Ellipse 158" cx="19.753" cy="19.753" r="19.753" transform="rotate(-45 150.875 -256.966)"/><circle data-name="Ellipse 159" cx="22.218" cy="22.218" r="22.218" transform="rotate(-45 253.402 -295.943)"/><circle data-name="Ellipse 160" cx="24.683" cy="24.683" r="24.683" transform="rotate(-45 355.827 -334.882)"/><circle data-name="Ellipse 161" cx="27.148" cy="27.148" r="27.148" transform="rotate(-45 458.299 -373.847)"/><circle data-name="Ellipse 162" cx="29.613" cy="29.613" r="29.613" transform="rotate(-45 560.874 -412.823)"/><circle data-name="Ellipse 163" cx="17.288" cy="17.288" r="17.288" transform="rotate(-45 91.691 -113.842)"/><circle data-name="Ellipse 164" cx="19.753" cy="19.753" r="19.753" transform="rotate(-45 194.042 -152.757)"/><circle data-name="Ellipse 165" cx="22.218" cy="22.218" r="22.218" transform="rotate(-45 296.63 -191.752)"/><circle data-name="Ellipse 166" cx="24.683" cy="24.683" r="24.683" transform="rotate(-45 399.094 -230.708)"/><circle data-name="Ellipse 167" cx="27.148" cy="27.148" r="27.148" transform="rotate(-45 501.581 -269.657)"/><circle data-name="Ellipse 168" cx="29.613" cy="29.613" r="29.613" transform="rotate(-45 603.935 -308.598)"/><g data-name="Group 120" transform="translate(112.018 247.663)"><circle data-name="Ellipse 169" cx="19.753" cy="19.753" r="19.753" transform="rotate(-45 90.663 -123.503)"/><circle data-name="Ellipse 170" cx="19.753" cy="19.753" transform="translate(61.026 69.224)" r="19.753"/><circle data-name="Ellipse 171" cx="19.753" cy="19.753" transform="translate(0 130.314)" r="19.753"/><circle data-name="Ellipse 172" cx="19.753" cy="19.753" transform="translate(122.072 130.279)" r="19.753"/><circle data-name="Ellipse 173" cx="19.753" cy="19.753" r="19.753" transform="rotate(-45 299.157 -209.831)"/><circle data-name="Ellipse 174" cx="19.753" cy="19.753" r="19.753" transform="rotate(-45 194.867 -166.668)"/></g></g></g></svg>