<svg xmlns="http://www.w3.org/2000/svg" width="419" height="419" viewBox="0 0 419 419"><g data-name="Group 492"><g data-name="Group 491"><path data-name="Path 544" d="M0 0h419v419H0z" fill="rgba(0,0,0,0)"/><g data-name="Group 489"><path data-name="Path 545" d="M417.191 233.856l-.035.295-.086.706a5.5 5.5 0 11-10.92-1.324l.082-.68.035-.295a5.5 5.5 0 0110.923 1.3zm-6.414 32.274l-.276.97a5.5 5.5 0 11-10.58-3.011l.276-.97a5.5 5.5 0 0110.58 3.011zm-11.347 30.769l-.058.125-.369.8a5.5 5.5 0 11-9.978-4.63l.358-.771.058-.125a5.5 5.5 0 019.99 4.605zm-16.069 28.7l-.556.828a5.5 5.5 0 11-9.132-6.133l.556-.828a5.5 5.5 0 019.132 6.133zm-20.334 25.8l-.681.733a5.5 5.5 0 11-8.06-7.486l.681-.733a5.5 5.5 0 018.06 7.486zm-24.13 22.305l-.789.619a5.501 5.501 0 11-6.791-8.656l.789-.619a5.5 5.5 0 016.789 8.655zm-27.324 18.253l-.485.271-.4.221a5.5 5.5 0 11-5.337-9.618l.375-.208.485-.271a5.5 5.5 0 015.361 9.605zm-29.843 13.752l-.945.346a5.5 5.5 0 11-3.781-10.33l.945-.346a5.5 5.5 0 013.781 10.33zm-31.603 8.908l-.971.191a5.5 5.5 0 11-2.119-10.791l.971-.191a5.5 5.5 0 012.119 10.791zm-32.658 3.858l-.736.027-.274.01a5.5 5.5 0 11-.383-10.995l.248-.009.736-.027a5.5 5.5 0 01.409 10.992zm-32.663-1.281l-.135-.016-.866-.1a5.448 5.448 0 01-2.039-.668 5.448 5.448 0 01-1.629-1.4 5.448 5.448 0 01-.97-1.914 5.448 5.448 0 01-.163-2.14 5.448 5.448 0 01.668-2.039 5.447 5.447 0 011.4-1.629 5.447 5.447 0 011.914-.97 5.447 5.447 0 012.14-.163l.84.1.135.016a5.447 5.447 0 012.041.663 5.447 5.447 0 011.632 1.394 5.447 5.447 0 01.974 1.912 5.448 5.448 0 01.169 2.139 5.448 5.448 0 01-.663 2.041 5.448 5.448 0 01-1.394 1.632 5.448 5.448 0 01-1.912.974 5.448 5.448 0 01-2.142.168zm-32.276-6.41l-.97-.276a5.448 5.448 0 01-1.91-.979 5.448 5.448 0 01-1.39-1.635 5.448 5.448 0 01-.659-2.042 5.448 5.448 0 01.173-2.139 5.448 5.448 0 01.979-1.91 5.448 5.448 0 011.635-1.39 5.448 5.448 0 012.042-.659 5.447 5.447 0 012.139.173l.97.276a5.447 5.447 0 011.91.979 5.448 5.448 0 011.39 1.635 5.448 5.448 0 01.659 2.042 5.448 5.448 0 01-.173 2.139 5.448 5.448 0 01-.979 1.91 5.448 5.448 0 01-1.635 1.39 5.448 5.448 0 01-2.042.659 5.448 5.448 0 01-2.14-.173zm-30.782-11.348l-.909-.421a5.448 5.448 0 01-1.734-1.265 5.448 5.448 0 01-1.118-1.833 5.448 5.448 0 01-.331-2.12 5.447 5.447 0 01.505-2.086 5.448 5.448 0 011.265-1.734 5.448 5.448 0 011.832-1.118 5.448 5.448 0 012.12-.331 5.448 5.448 0 012.086.505l.909.421a5.447 5.447 0 011.734 1.263 5.448 5.448 0 011.118 1.832 5.447 5.447 0 01.331 2.12 5.448 5.448 0 01-.505 2.086 5.448 5.448 0 01-1.265 1.734 5.448 5.448 0 01-1.832 1.118 5.448 5.448 0 01-2.12.331 5.448 5.448 0 01-2.086-.502zM93.061 383.38l-.309-.207-.53-.357a5.448 5.448 0 01-1.513-1.522 5.448 5.448 0 01-.815-1.985 5.448 5.448 0 01.007-2.146 5.448 5.448 0 01.827-1.98 5.448 5.448 0 011.522-1.513 5.448 5.448 0 011.985-.815 5.448 5.448 0 012.146.007 5.447 5.447 0 011.98.827l.508.342.309.207a5.447 5.447 0 011.516 1.519 5.447 5.447 0 01.82 1.983 5.448 5.448 0 010 2.146 5.448 5.448 0 01-.823 1.982 5.447 5.447 0 01-1.519 1.516 5.448 5.448 0 01-1.983.82 5.448 5.448 0 01-2.146 0 5.448 5.448 0 01-1.983-.824zm-25.8-20.335l-.734-.681a5.448 5.448 0 01-1.257-1.739 5.447 5.447 0 01-.5-2.088 5.448 5.448 0 01.34-2.119 5.448 5.448 0 011.125-1.827 5.448 5.448 0 011.739-1.258 5.447 5.447 0 012.088-.5 5.447 5.447 0 012.119.34 5.447 5.447 0 011.827 1.125l.734.681A5.448 5.448 0 0176 356.718a5.448 5.448 0 01.5 2.088 5.447 5.447 0 01-.34 2.119 5.448 5.448 0 01-1.125 1.827 5.447 5.447 0 01-1.739 1.257 5.448 5.448 0 01-2.088.5 5.448 5.448 0 01-2.119-.34 5.448 5.448 0 01-1.833-1.124zm-22.313-24.128l-.619-.789a5.448 5.448 0 01-.97-1.914 5.448 5.448 0 01-.163-2.14 5.448 5.448 0 01.668-2.039 5.447 5.447 0 011.4-1.629 5.447 5.447 0 011.914-.97 5.448 5.448 0 012.14-.163 5.447 5.447 0 012.039.668 5.448 5.448 0 011.629 1.4l.619.789a5.447 5.447 0 01.97 1.914 5.448 5.448 0 01.163 2.14 5.448 5.448 0 01-.668 2.039 5.448 5.448 0 01-1.4 1.629 5.448 5.448 0 01-1.914.97 5.448 5.448 0 01-2.14.163 5.448 5.448 0 01-2.039-.668 5.448 5.448 0 01-1.629-1.4zm-18.26-27.327l-.486-.872a5.448 5.448 0 01-.658-2.043 5.447 5.447 0 01.173-2.139 5.448 5.448 0 01.979-1.91 5.448 5.448 0 011.635-1.39 5.448 5.448 0 012.043-.658 5.448 5.448 0 012.139.174 5.447 5.447 0 011.91.979 5.447 5.447 0 011.39 1.635l.486.872a5.448 5.448 0 01.658 2.043 5.447 5.447 0 01-.174 2.139 5.447 5.447 0 01-.979 1.91 5.448 5.448 0 01-1.635 1.39 5.448 5.448 0 01-2.043.658 5.448 5.448 0 01-2.139-.173 5.448 5.448 0 01-1.91-.979 5.448 5.448 0 01-1.39-1.635zm-13.754-29.837l-.346-.945a5.448 5.448 0 01-.33-2.12 5.448 5.448 0 01.506-2.085 5.448 5.448 0 011.266-1.733 5.448 5.448 0 011.833-1.117 5.448 5.448 0 012.12-.33 5.447 5.447 0 012.085.506 5.447 5.447 0 011.733 1.266 5.448 5.448 0 011.117 1.833l.346.945a5.447 5.447 0 01.331 2.12 5.447 5.447 0 01-.506 2.085 5.448 5.448 0 01-1.266 1.733 5.448 5.448 0 01-1.833 1.117 5.448 5.448 0 01-2.12.33 5.448 5.448 0 01-2.085-.506 5.448 5.448 0 01-1.733-1.266 5.448 5.448 0 01-1.118-1.832zm-8.912-31.6l-.191-.971a5.448 5.448 0 01.005-2.146 5.448 5.448 0 01.826-1.981 5.448 5.448 0 011.521-1.514 5.448 5.448 0 011.985-.817 5.448 5.448 0 012.146.005 5.448 5.448 0 011.981.826 5.448 5.448 0 011.514 1.521 5.448 5.448 0 01.817 1.985l.191.971a5.448 5.448 0 01-.005 2.146 5.448 5.448 0 01-.826 1.981 5.448 5.448 0 01-1.521 1.514 5.448 5.448 0 01-1.985.817 5.448 5.448 0 01-2.146-.005 5.448 5.448 0 01-1.981-.826 5.448 5.448 0 01-1.514-1.521 5.449 5.449 0 01-.822-1.985zM.16 217.492l-.037-1a5.448 5.448 0 01.341-2.119 5.448 5.448 0 011.126-1.827 5.448 5.448 0 011.739-1.257 5.448 5.448 0 012.088-.5 5.448 5.448 0 012.119.341 5.448 5.448 0 011.827 1.126 5.448 5.448 0 011.254 1.747 5.448 5.448 0 01.5 2.088l.037 1a5.447 5.447 0 01-.341 2.119 5.448 5.448 0 01-1.126 1.827 5.448 5.448 0 01-1.739 1.257 5.448 5.448 0 01-2.088.5 5.448 5.448 0 01-2.119-.341 5.448 5.448 0 01-1.824-1.136 5.448 5.448 0 01-1.257-1.739 5.448 5.448 0 01-.5-2.087zm1.279-32.671l.119-.988a5.448 5.448 0 01.667-2.04 5.448 5.448 0 011.4-1.629 5.448 5.448 0 011.914-.971 5.448 5.448 0 012.14-.164 5.448 5.448 0 012.04.667 5.448 5.448 0 011.629 1.4 5.447 5.447 0 01.969 1.91 5.447 5.447 0 01.164 2.14l-.119.988a5.447 5.447 0 01-.667 2.04 5.447 5.447 0 01-1.4 1.629 5.448 5.448 0 01-1.914.971 5.448 5.448 0 01-2.14.164 5.448 5.448 0 01-2.04-.667 5.448 5.448 0 01-1.629-1.4 5.448 5.448 0 01-.971-1.914 5.448 5.448 0 01-.163-2.14zm6.4-32.254l.008-.029.271-.954a5.448 5.448 0 01.979-1.91 5.448 5.448 0 011.635-1.39 5.448 5.448 0 012.042-.659 5.448 5.448 0 012.139.173 5.448 5.448 0 011.91.979 5.447 5.447 0 011.39 1.635 5.447 5.447 0 01.659 2.042 5.448 5.448 0 01-.173 2.139l-.264.93-.008.029a5.448 5.448 0 01-.974 1.912 5.448 5.448 0 01-1.632 1.394 5.448 5.448 0 01-2.041.663 5.448 5.448 0 01-2.139-.168 5.448 5.448 0 01-1.912-.974 5.448 5.448 0 01-1.394-1.632 5.448 5.448 0 01-.663-2.041 5.448 5.448 0 01.168-2.139zm11.347-30.8l.421-.909a5.448 5.448 0 011.265-1.734 5.448 5.448 0 011.832-1.118 5.448 5.448 0 012.12-.332 5.448 5.448 0 012.086.5 5.448 5.448 0 011.734 1.265 5.448 5.448 0 011.118 1.832 5.448 5.448 0 01.332 2.12 5.447 5.447 0 01-.505 2.086l-.421.909a5.447 5.447 0 01-1.265 1.734 5.447 5.447 0 01-1.832 1.118 5.448 5.448 0 01-2.12.332 5.448 5.448 0 01-2.086-.505 5.447 5.447 0 01-1.734-1.265 5.448 5.448 0 01-1.114-1.823 5.448 5.448 0 01-.332-2.12 5.448 5.448 0 01.502-2.086zm16.057-28.7l.556-.828a5.448 5.448 0 011.518-1.506 5.448 5.448 0 011.984-.817 5.448 5.448 0 012.146 0 5.447 5.447 0 011.981.825 5.448 5.448 0 011.514 1.521 5.448 5.448 0 01.817 1.984 5.447 5.447 0 010 2.146 5.447 5.447 0 01-.825 1.981l-.556.828a5.448 5.448 0 01-1.521 1.514 5.448 5.448 0 01-1.984.817 5.447 5.447 0 01-2.146 0 5.448 5.448 0 01-1.981-.825 5.447 5.447 0 01-1.514-1.521 5.448 5.448 0 01-.817-1.984 5.448 5.448 0 010-2.146 5.448 5.448 0 01.829-1.981zm20.328-25.8l.681-.734a5.448 5.448 0 011.739-1.258 5.448 5.448 0 012.088-.5 5.448 5.448 0 012.119.34 5.447 5.447 0 011.827 1.125 5.448 5.448 0 011.258 1.739 5.447 5.447 0 01.5 2.088 5.448 5.448 0 01-.34 2.119 5.447 5.447 0 01-1.126 1.839l-.681.734a5.447 5.447 0 01-1.739 1.258 5.448 5.448 0 01-2.088.5 5.448 5.448 0 01-2.119-.34 5.448 5.448 0 01-1.827-1.125 5.447 5.447 0 01-1.258-1.739 5.448 5.448 0 01-.5-2.088 5.448 5.448 0 01.34-2.119 5.448 5.448 0 011.126-1.831zm24.121-22.309l.577-.454.223-.174a5.448 5.448 0 011.916-.967 5.448 5.448 0 012.14-.16 5.448 5.448 0 012.038.671 5.448 5.448 0 011.626 1.4 5.448 5.448 0 01.967 1.916 5.447 5.447 0 01.16 2.14 5.447 5.447 0 01-.671 2.038 5.448 5.448 0 01-1.4 1.626l-.2.157-.577.454a5.447 5.447 0 01-1.914.971 5.448 5.448 0 01-2.14.165 5.448 5.448 0 01-2.04-.666 5.448 5.448 0 01-1.63-1.4 5.448 5.448 0 01-.971-1.914 5.448 5.448 0 01-.165-2.14 5.448 5.448 0 01.666-2.04 5.447 5.447 0 011.396-1.615zm27.327-18.266l.872-.486a5.448 5.448 0 012.042-.658 5.448 5.448 0 012.139.173 5.447 5.447 0 011.91.979 5.447 5.447 0 011.39 1.635 5.448 5.448 0 01.659 2.042 5.448 5.448 0 01-.173 2.139 5.447 5.447 0 01-.979 1.91 5.447 5.447 0 01-1.635 1.39l-.872.486a5.447 5.447 0 01-2.042.659 5.447 5.447 0 01-2.139-.173 5.448 5.448 0 01-1.91-.979 5.448 5.448 0 01-1.39-1.635 5.447 5.447 0 01-.659-2.042 5.448 5.448 0 01.173-2.139 5.448 5.448 0 01.979-1.91 5.448 5.448 0 011.633-1.383zm29.835-13.757l.945-.346a5.448 5.448 0 012.12-.331 5.447 5.447 0 012.086.506 5.448 5.448 0 011.733 1.265 5.448 5.448 0 011.117 1.832 5.448 5.448 0 01.331 2.12 5.448 5.448 0 01-.506 2.086 5.447 5.447 0 01-1.265 1.733 5.448 5.448 0 01-1.832 1.117l-.945.346a5.448 5.448 0 01-2.12.331 5.447 5.447 0 01-2.086-.506 5.448 5.448 0 01-1.733-1.265 5.448 5.448 0 01-1.117-1.832 5.448 5.448 0 01-.331-2.12 5.448 5.448 0 01.506-2.086 5.448 5.448 0 011.265-1.733 5.448 5.448 0 011.833-1.109zm31.6-8.916l.971-.191a5.448 5.448 0 012.146 0 5.448 5.448 0 011.981.826 5.447 5.447 0 011.514 1.521 5.447 5.447 0 01.817 1.984 5.448 5.448 0 010 2.146 5.447 5.447 0 01-.826 1.981 5.448 5.448 0 01-1.521 1.514 5.447 5.447 0 01-1.984.817l-.971.191a5.447 5.447 0 01-2.146 0 5.448 5.448 0 01-1.981-.826 5.448 5.448 0 01-1.514-1.521 5.448 5.448 0 01-.817-1.984 5.448 5.448 0 010-2.146 5.448 5.448 0 01.826-1.981 5.448 5.448 0 011.521-1.514 5.448 5.448 0 011.986-.809zM201.117.161l1-.037a5.448 5.448 0 012.119.341 5.448 5.448 0 011.827 1.126 5.448 5.448 0 011.254 1.739 5.448 5.448 0 01.5 2.088 5.448 5.448 0 01-.341 2.119 5.448 5.448 0 01-1.126 1.827 5.447 5.447 0 01-1.744 1.253 5.448 5.448 0 01-2.088.5l-1 .037a5.447 5.447 0 01-2.119-.341 5.447 5.447 0 01-1.827-1.126 5.447 5.447 0 01-1.255-1.74 5.448 5.448 0 01-.5-2.088 5.448 5.448 0 01.341-2.119 5.448 5.448 0 011.126-1.827 5.448 5.448 0 011.739-1.257 5.448 5.448 0 012.094-.495zm32.665 1.274l.51.061.491.06a5.448 5.448 0 012.039.669 5.448 5.448 0 011.628 1.4 5.448 5.448 0 01.968 1.915 5.447 5.447 0 01.162 2.14 5.448 5.448 0 01-.669 2.039 5.447 5.447 0 01-1.4 1.628 5.447 5.447 0 01-1.914.97 5.448 5.448 0 01-2.14.162l-.464-.056-.51-.061a5.448 5.448 0 01-2.041-.664 5.447 5.447 0 01-1.631-1.395 5.448 5.448 0 01-.973-1.913 5.448 5.448 0 01-.167-2.14 5.448 5.448 0 01.664-2.041 5.448 5.448 0 011.395-1.631 5.448 5.448 0 011.913-.973 5.448 5.448 0 012.139-.17zm32.272 6.4l.972.276a5.448 5.448 0 011.91.978 5.448 5.448 0 011.39 1.635 5.448 5.448 0 01.659 2.042 5.448 5.448 0 01-.173 2.139 5.448 5.448 0 01-.978 1.91 5.448 5.448 0 01-1.635 1.39 5.448 5.448 0 01-2.042.659 5.448 5.448 0 01-2.139-.173l-.972-.276a5.447 5.447 0 01-1.91-.978 5.447 5.447 0 01-1.39-1.635 5.448 5.448 0 01-.659-2.042 5.448 5.448 0 01.173-2.139 5.447 5.447 0 01.978-1.91 5.448 5.448 0 011.635-1.39 5.448 5.448 0 012.042-.659 5.448 5.448 0 012.139.174zm30.785 11.34l.909.421a5.448 5.448 0 011.734 1.265 5.448 5.448 0 011.118 1.832 5.448 5.448 0 01.332 2.12 5.448 5.448 0 01-.5 2.086 5.448 5.448 0 01-1.265 1.734 5.447 5.447 0 01-1.832 1.118 5.447 5.447 0 01-2.12.332 5.448 5.448 0 01-2.086-.5l-.909-.421a5.447 5.447 0 01-1.734-1.265 5.448 5.448 0 01-1.118-1.832 5.447 5.447 0 01-.332-2.12 5.448 5.448 0 01.5-2.086 5.448 5.448 0 011.265-1.734 5.448 5.448 0 011.832-1.118 5.448 5.448 0 012.12-.332 5.448 5.448 0 012.086.501zm28.694 16.05l.515.345.323.218a5.448 5.448 0 011.513 1.529 5.448 5.448 0 01.814 1.985 5.448 5.448 0 01-.007 2.146 5.448 5.448 0 01-.828 1.98 5.448 5.448 0 01-1.523 1.512 5.447 5.447 0 01-1.985.814 5.447 5.447 0 01-2.146-.007 5.447 5.447 0 01-1.98-.828l-.3-.2-.515-.345a5.447 5.447 0 01-1.516-1.519 5.447 5.447 0 01-.819-1.984 5.447 5.447 0 010-2.146 5.448 5.448 0 01.823-1.982 5.447 5.447 0 011.515-1.526 5.448 5.448 0 011.984-.819 5.447 5.447 0 012.146 0 5.448 5.448 0 011.986.829zm25.806 20.326l.653.606.091.084a5.448 5.448 0 011.254 1.741 5.448 5.448 0 01.492 2.089 5.448 5.448 0 01-.344 2.118 5.448 5.448 0 01-1.129 1.825 5.448 5.448 0 01-1.741 1.254 5.447 5.447 0 01-2.089.492 5.448 5.448 0 01-2.118-.344 5.448 5.448 0 01-1.825-1.129l-.071-.066-.653-.606a5.447 5.447 0 01-1.258-1.738 5.447 5.447 0 01-.5-2.088 5.448 5.448 0 01.339-2.119 5.448 5.448 0 011.124-1.828 5.447 5.447 0 011.738-1.258 5.448 5.448 0 012.088-.5 5.448 5.448 0 012.119.339 5.448 5.448 0 011.829 1.13zm22.315 24.123l.619.789a5.448 5.448 0 01.97 1.914 5.448 5.448 0 01.164 2.14 5.448 5.448 0 01-.667 2.04 5.448 5.448 0 01-1.4 1.629 5.448 5.448 0 01-1.914.97 5.447 5.447 0 01-2.14.164 5.448 5.448 0 01-2.04-.667 5.447 5.447 0 01-1.629-1.4l-.619-.789a5.448 5.448 0 01-.97-1.914 5.448 5.448 0 01-.164-2.14 5.448 5.448 0 01.667-2.04 5.448 5.448 0 011.4-1.629 5.448 5.448 0 011.914-.97 5.448 5.448 0 012.14-.164 5.448 5.448 0 012.04.667 5.448 5.448 0 011.629 1.401zm18.263 27.323l.486.872a5.448 5.448 0 01.659 2.042 5.448 5.448 0 01-.173 2.139 5.448 5.448 0 01-.978 1.91 5.448 5.448 0 01-1.635 1.39 5.448 5.448 0 01-2.042.659 5.448 5.448 0 01-2.139-.173 5.447 5.447 0 01-1.91-.978 5.447 5.447 0 01-1.39-1.635l-.478-.871a5.447 5.447 0 01-.659-2.042 5.447 5.447 0 01.173-2.139 5.448 5.448 0 01.978-1.91 5.448 5.448 0 011.635-1.39 5.447 5.447 0 012.042-.659 5.448 5.448 0 012.139.173 5.448 5.448 0 011.91.978 5.448 5.448 0 011.382 1.634zm13.761 29.833l.346.945a5.448 5.448 0 01.331 2.12 5.448 5.448 0 01-.506 2.086 5.448 5.448 0 01-1.265 1.733 5.448 5.448 0 01-1.832 1.117 5.448 5.448 0 01-2.12.331 5.448 5.448 0 01-2.086-.506 5.448 5.448 0 01-1.733-1.265 5.448 5.448 0 01-1.117-1.832l-.346-.945a5.448 5.448 0 01-.331-2.12 5.448 5.448 0 01.506-2.086 5.447 5.447 0 011.265-1.733 5.448 5.448 0 011.832-1.117 5.448 5.448 0 012.12-.331 5.448 5.448 0 012.086.506 5.448 5.448 0 011.733 1.265 5.448 5.448 0 011.121 1.832zm8.92 31.6l.191.971a5.448 5.448 0 010 2.146 5.448 5.448 0 01-.825 1.981 5.448 5.448 0 01-1.521 1.514 5.448 5.448 0 01-1.984.817 5.448 5.448 0 01-2.146 0 5.447 5.447 0 01-1.981-.825 5.447 5.447 0 01-1.514-1.521 5.447 5.447 0 01-.817-1.984l-.191-.971a5.447 5.447 0 010-2.146 5.448 5.448 0 01.825-1.981 5.447 5.447 0 011.521-1.514 5.448 5.448 0 011.984-.817 5.448 5.448 0 012.146 0 5.448 5.448 0 011.981.825 5.448 5.448 0 011.514 1.521 5.448 5.448 0 01.821 1.984zm3.87 32.66l.037 1a5.448 5.448 0 01-.341 2.119 5.448 5.448 0 01-1.126 1.827 5.448 5.448 0 01-1.739 1.257 5.448 5.448 0 01-2.088.5 5.448 5.448 0 01-2.119-.341 5.447 5.447 0 01-1.822-1.135 5.447 5.447 0 01-1.253-1.736 5.448 5.448 0 01-.5-2.088l-.037-1a5.448 5.448 0 01.337-2.116 5.448 5.448 0 011.126-1.827 5.447 5.447 0 011.739-1.257 5.448 5.448 0 012.088-.5 5.448 5.448 0 012.119.341 5.448 5.448 0 011.827 1.126 5.448 5.448 0 011.257 1.739 5.448 5.448 0 01.499 2.091z" fill="#37dafb"/></g><g data-name="Group 490"><path data-name="Path 546" d="M163.316 347.625h0A141.586 141.586 0 01181.47 75.251a142.944 142.944 0 0157.06 0 141.515 141.515 0 01110.156 110.157 141.577 141.577 0 01-92 162.216l-28.01-80.211a56.559 56.559 0 10-37.347 0l-28.01 80.211z" fill="none" stroke="#5c87d5" stroke-linecap="round" stroke-width="6"/></g></g></g></svg>