<svg data-name="Layer 2" xmlns="http://www.w3.org/2000/svg" width="34.933" height="34.07" viewBox="0 0 34.933 34.07"><g data-name="Layer 1"><path data-name="Path 174" d="M17.509 0a17.461 17.461 0 00-5.518 34.043c.879.156 1.191-.383 1.191-.837v-2.979c-4.851 1.064-5.887-2.34-5.887-2.34a4.652 4.652 0 00-1.929-2.553c-1.589-1.078.113-1.05.113-1.05a3.645 3.645 0 012.665 1.759 3.731 3.731 0 005.078 1.418 3.745 3.745 0 011.106-2.34c-3.872-.44-7.957-1.929-7.957-8.624a6.738 6.738 0 011.8-4.681 6.255 6.255 0 01.173-4.582s1.421-.468 4.8 1.787a16.7 16.7 0 018.738 0c3.333-2.255 4.794-1.787 4.794-1.787a6.284 6.284 0 01.184 4.624 6.723 6.723 0 011.784 4.681c0 6.709-4.085 8.184-7.972 8.61a4.128 4.128 0 011.191 3.22v4.794c0 .539.326 1.007 1.206.837a17.461 17.461 0 00-5.56-34z" fill="#fff" fill-rule="evenodd"/></g></svg>