<svg data-name="Group 128" xmlns="http://www.w3.org/2000/svg" width="33.56" height="34.07" viewBox="0 0 33.56 34.07"><path data-name="Path 177" d="M6.849 22.045a3.425 3.425 0 11-3.424-3.426h3.509z" fill="#fff"/><path data-name="Path 178" d="M15.752 30.966a3.425 3.425 0 01-6.678 0v-8.921a3.425 3.425 0 013.339-3.424 3.425 3.425 0 013.424 3.424z" fill="#fff"/><path data-name="Path 179" d="M12.328 16.463H3.51a3.425 3.425 0 010-6.695h8.9a3.425 3.425 0 010 6.695z" fill="#fff"/><path data-name="Path 180" d="M15.753 7.542h-3.424a3.425 3.425 0 113.424-3.425z" fill="#fff"/><path data-name="Path 181" d="M26.882 13.125a3.339 3.339 0 113.339 3.339h-3.339z" fill="#fff"/><path data-name="Path 182" d="M21.404 34.071a3.232 3.232 0 01-3.425-3.19v-3.425h3.425a3.425 3.425 0 012.625 4.07 3.33 3.33 0 01-2.625 2.545z" fill="#fff"/><path data-name="Path 183" d="M30.187 25.384h-8.9a3.425 3.425 0 010-6.695h8.9a3.425 3.425 0 010 6.695z" fill="#fff"/><path data-name="Path 184" d="M24.613 14.626a3.424 3.424 0 01-6.678 0v-11.2A3.424 3.424 0 0121.274.001a3.424 3.424 0 013.424 3.425z" fill="#fff"/></svg>