<svg xmlns="http://www.w3.org/2000/svg" width="110.406" height="110.406" viewBox="0 0 110.406 110.406"><path data-name="Path 259" d="M17.035 92.437h16.6V42.552h-16.6v49.885zm17.683-65.268c-.074-4.885-3.593-8.625-9.274-8.625s-9.417 3.735-9.417 8.625c0 4.743 3.593 8.625 9.2 8.625h.073c5.825 0 9.418-3.882 9.418-8.625zm42.051 65.268h16.6V63.828c0-15.31-8.193-22.426-19.119-22.426-8.911 0-12.867 4.959-15.024 8.409h.143v-7.259h-16.6s.216 4.674 0 49.885h16.6V64.551a11.733 11.733 0 01.5-4.025 9.165 9.165 0 018.552-6.04c5.967 0 8.34 4.527 8.34 11.284v26.667zM110.406 20.7v69a20.709 20.709 0 01-20.7 20.7h-69A20.709 20.709 0 010 89.7v-69A20.709 20.709 0 0120.7 0h69a20.709 20.709 0 0120.706 20.7z" fill="#1e69bf"/></svg>