<svg xmlns="http://www.w3.org/2000/svg" viewBox="0 0 300.4 238.26"><g data-name="Layer 2"><g data-name="Layer 1"><path d="M300.4 192.07v-153c0-11.73-15.44-21.38-45.89-28.69C226.6 3.69 189.56 0 150.2 0S73.8 3.69 45.89 10.38C15.44 17.69 0 27.34 0 39.07v160.11c0 11.74 15.44 21.39 45.89 28.7 27.91 6.7 65 10.38 104.31 10.38s76.4-3.68 104.31-10.38c30.45-7.31 45.89-17 45.89-28.71 0-1.23-.01-5.88 0-7.1zM47.75 18.16C75.07 11.61 111.45 8 150.2 8s75.13 3.61 102.45 10.16C280.13 24.75 291 32.53 292.28 38a5 5 0 01.12 1.06 3.43 3.43 0 010 .56v.16c0 .05 0 .29-.09.44v.1a6.09 6.09 0 01-.45 1.17l-.22.43c-3 5.3-14.3 12.15-38.9 18.06C225.33 66.54 189 70.15 150.2 70.15S75.07 66.54 47.75 60c-24.6-5.92-35.91-12.77-38.91-18.07l-.21-.43a6.09 6.09 0 01-.45-1.17v-.1c0-.15-.06-.29-.09-.43s0-.11 0-.17a3.43 3.43 0 010-.56C8 33.58 18.44 25.19 47.75 18.16zm204.9 201.94c-27.32 6.55-63.7 10.16-102.45 10.16s-75.13-3.61-102.45-10.16C18.44 213.07 8 204.68 8 199.21V52.62q11.19 8.72 37.89 15.14c27.91 6.7 65 10.39 104.31 10.39s76.4-3.69 104.31-10.38q26.67-6.4 37.89-15.15v146.53c0 5.54-10.4 13.92-39.75 20.95z" fill="#707070"/><path data-name="Path 2771" d="M102.62 157c0-24.9-36.42-18.12-36.42-30 0-3.34 3-5 7.58-5 5.61 0 14.77 3 22 7.19l6.6-13.68a52.31 52.31 0 00-22.25-7.49V93.86h-13v14.57c-11.91 2.26-19.39 9.54-19.39 20.08 0 24.41 36.42 17.13 36.42 29.33 0 3.94-3.44 6-8.95 6-7.19 0-17.82-4.13-24.9-10.33L43.56 167a49.6 49.6 0 0023.62 10.34v15.26h13v-14.87c12.89-1.48 22.44-8.57 22.44-20.73z" fill="#fa8021"/><path data-name="Icon awesome-check" d="M161.29 186.29l-40.72-40.73a6.26 6.26 0 010-8.86l8.86-8.86a6.26 6.26 0 018.86 0l27.43 27.43 58.76-58.76a6.27 6.27 0 018.87 0l8.86 8.86a6.28 6.28 0 010 8.86l-72.06 72.06a6.28 6.28 0 01-8.86 0z" fill="#fa8021"/></g></g></svg>