<svg xmlns="http://www.w3.org/2000/svg" width="123.586" height="100.44" viewBox="0 0 123.586 100.44"><path data-name="Path 258" d="M38.867 100.44c46.638 0 72.143-38.639 72.143-72.143 0-1.1-.022-2.191-.073-3.278a51.592 51.592 0 0012.649-13.13 50.614 50.614 0 01-14.562 3.991 25.441 25.441 0 0011.149-14.026 50.812 50.812 0 01-16.1 6.154 25.379 25.379 0 00-43.21 23.124A71.986 71.986 0 018.6 4.644a25.376 25.376 0 007.849 33.85 25.169 25.169 0 01-11.484-3.172c-.005.106-.005.212-.005.323A25.367 25.367 0 0025.3 60.503a25.316 25.316 0 01-11.451.434 25.385 25.385 0 0023.687 17.611A50.881 50.881 0 016.044 89.402 51.576 51.576 0 010 89.051a71.783 71.783 0 0038.867 11.389" fill="#1da1f2"/></svg>