<svg data-name="Group 188" xmlns="http://www.w3.org/2000/svg" width="118.168" height="119.964" viewBox="0 0 118.168 119.964"><path data-name="Path 177" d="M24.116 77.622A12.058 12.058 0 1112.062 65.56H24.42z" fill="#e01e5a"/><path data-name="Path 178" d="M55.466 109.034a12.058 12.058 0 01-23.513 0V77.622a12.058 12.058 0 0111.756-12.058 12.058 12.058 0 0112.058 12.058z" fill="#e01e5a"/><path data-name="Path 179" d="M43.408 57.968H12.359a12.058 12.058 0 010-23.573H43.71a12.058 12.058 0 010 23.573z" fill="#36c5f0"/><path data-name="Path 180" d="M55.461 26.557H43.408a12.058 12.058 0 1112.053-12.058z" fill="#36c5f0"/><path data-name="Path 181" d="M94.655 46.211a11.756 11.756 0 1111.756 11.757H94.655z" fill="#2fb67d"/><path data-name="Path 182" d="M75.362 119.963c-6.659 0-12.058-4.573-12.058-11.232V96.673h12.058a12.058 12.058 0 019.243 14.331 11.725 11.725 0 01-9.243 8.96z" fill="#ecb22e"/><path data-name="Path 183" d="M106.291 89.378h-31.35a12.058 12.058 0 010-23.573h31.35a12.058 12.058 0 010 23.573z" fill="#ecb22e"/><path data-name="Path 184" d="M86.666 51.499a12.058 12.058 0 01-23.513 0V12.058A12.058 12.058 0 0174.909 0a12.058 12.058 0 0112.058 12.058z" fill="#2fb67d"/></svg>