<svg xmlns="http://www.w3.org/2000/svg" viewBox="0 0 348.64 296.77"><g data-name="Layer 2"><g data-name="Layer 1"><path d="M64.87 74H82l-9.43-11 20.69-20.68 24.58 21a6.5 6.5 0 007.69.56A99 99 0 01156.43 51a6.49 6.49 0 005-5.83L164 13h29.26l2.54 32.21a6.49 6.49 0 005 5.83 98.87 98.87 0 0130.9 12.83 6.5 6.5 0 007.69-.56l24.59-21L284.71 63l-9.4 11h17.09l6.1-7.14a6.5 6.5 0 00-.35-8.82L269 28.86a6.52 6.52 0 00-8.82-.34l-25.6 21.87a111.66 111.66 0 00-26.18-10.86L205.76 6a6.51 6.51 0 00-6.48-6H158a6.51 6.51 0 00-6.48 6l-2.64 33.54a111.49 111.49 0 00-26.15 10.86l-25.6-21.87a6.49 6.49 0 00-8.82.35L59.13 58.06a6.5 6.5 0 00-.35 8.82zm212.37 131h-15.08a6.52 6.52 0 001.54 4.17l21 24.59-20.7 20.69-24.59-21a6.5 6.5 0 00-7.69-.56 98.87 98.87 0 01-30.9 12.83 6.49 6.49 0 00-5 5.83l-2.54 32.21H164l-2.54-32.21a6.5 6.5 0 00-5-5.83 99 99 0 01-30.9-12.83 6.5 6.5 0 00-7.69.55l-24.58 21-20.72-20.68 21-24.59a6.44 6.44 0 001.54-4.17H80l-21.22 24.88a6.5 6.5 0 00.35 8.82l29.18 29.19a6.5 6.5 0 008.82.35l25.6-21.86a111.49 111.49 0 0026.15 10.86l2.64 33.54a6.51 6.51 0 006.48 6h41.28a6.49 6.49 0 006.47-6l2.65-33.54a111.84 111.84 0 0026.15-10.86l25.6 21.86a6.49 6.49 0 008.81-.34l29.19-29.19a6.5 6.5 0 00.35-8.82z" fill="#707070"/><path data-name="Path 2774" d="M59.51 78.72c-31.3 0-51.6 15.13-51.6 39.21 0 42.32 62.44 32 62.44 47.65 0 4.3-3.79 6.19-9.63 6.19-12.22 0-33.54-8.43-45.93-18.75L0 183c16 12.21 39.39 19.26 60.37 19.26 27.18 0 50.74-11.87 50.74-38.7 0-43.69-62.43-34.23-62.43-49.36 0-3.62 2.92-5 7.4-5 10.49 0 29.24 7.4 41.45 14.1L112 93c-13.62-8.61-33.4-14.28-52.49-14.28zm180.26 115.75c-6.88 5-14.45 8.26-19.27 8.26-3.95 0-7.4-2.24-10-5.68 22.7-9.46 37.32-30.44 37.32-56.41 0-35.6-27.86-61.4-66.22-61.4s-66.22 25.63-66.22 61.4c0 34.4 25.63 59.85 61.4 61.92 6.37 17.54 21.16 28.9 39.39 28.9 12.56 0 27.52-5.33 36.81-13.42zm-83.42-53.66c0-16.51 11.87-28.38 25.8-28.38 13.76 0 24.77 11.87 24.77 28.38s-11 28.72-24.77 28.72-25.8-12.21-25.8-28.72zm142.07 27V80.43h-39.9V201h90.12v-33.2z" fill="#fa8021"/></g></g></svg>