<svg xmlns="http://www.w3.org/2000/svg" width="34" height="34" viewBox="0 0 34 34"><path data-name="Icon ionic-logo-linkedin" d="M31.281 0H2.9A2.774 2.774 0 000 2.648v28.438A2.992 2.992 0 002.9 34h28.372A2.84 2.84 0 0034 31.086V2.648A2.607 2.607 0 0031.281 0zM10.539 28.341H5.668V13.2h4.871zM8.272 10.894h-.035a2.5 2.5 0 01-2.568-2.613 2.516 2.516 0 012.63-2.613 2.509 2.509 0 012.6 2.613 2.515 2.515 0 01-2.627 2.613zm20.069 17.447H23.47V20.06c0-1.984-.709-3.339-2.471-3.339a2.665 2.665 0 00-2.5 1.8 3.28 3.28 0 00-.168 1.2v8.626h-4.869V13.2h4.871v2.1a4.931 4.931 0 014.393-2.462c3.2 0 5.615 2.108 5.615 6.651v8.848z" fill="#fff"/></svg>