<svg xmlns="http://www.w3.org/2000/svg" width="38.365" height="31.179" viewBox="0 0 38.365 31.179"><path data-name="Path 176" d="M12.065 31.179c14.478 0 22.4-11.994 22.4-22.4 0-.341-.007-.68-.023-1.018a16.016 16.016 0 003.927-4.075 15.712 15.712 0 01-4.52 1.239A7.9 7.9 0 0037.31.571a15.773 15.773 0 01-5 1.91 7.878 7.878 0 00-13.413 7.178A22.346 22.346 0 012.67 1.442 7.877 7.877 0 005.107 11.95a7.813 7.813 0 01-3.565-.985v.1a7.874 7.874 0 006.315 7.717 7.859 7.859 0 01-3.555.135 7.88 7.88 0 007.353 5.467 15.8 15.8 0 01-9.776 3.369A16.012 16.012 0 010 27.644a22.283 22.283 0 0012.065 3.536" fill="#fff"/></svg>