<svg xmlns="http://www.w3.org/2000/svg" width="313.875" height="113.106" viewBox="0 0 313.875 113.106"><path data-name="Path 1135" d="M313.858 66.074a4.772 4.772 0 00-.311-1.3c-1.046-2.72-5.808-.184-7.434.5-2.927 1.227-6.275 2.845-9.515 1.917-.9-.257-.633-1.021 0-1.411a24.991 24.991 0 0011.087-15.335c3.919-16.692-8.107-21.335-12.852-21.9-4.824-.571-10.205.172-12.473 1.086-6.427 2.582-8.1 8.322-8.548 11.76-.608 4.728-.679 12.979-1.264 16.692-.385 2.446-2.206 6.159-5.791 5.805-6.919-.681-10.1-3.337-9.877-7.7a80.425 80.425 0 011.075-10.474c.829-5.825 1.352-7.213 1.352-8.545 0-3.815-5.127-4.584-6.84-2.867-1.323 1.326-1.654 4.032-1.985 8.6A91.426 91.426 0 01248.66 56.2c-1.323 5.308-1.855 5.695-3.062 7.213-2.508 3.156-7.143 2.177-9.4.025-1.329-1.267-1.51-2.389-1.253-6.108s.865-10.2 1.719-16.952c.744-5.91.232-6.8-1.583-8.455-1.688-1.544-8.155-1.315-11.15-1.315-4.635 0-4.357 2.206-4.663 9.727-.133 3.283-.286 8.265-.614 12.122-.532 6.278-12.513 11-18.021 10.717-5.709-.294-6.258-10.952-6.617-13.432s-.509-23.866.107-24.593c.438-.509 3.874-.9 7.79-1.666 8.673-1.7 9.92-2.811 9.931-5.525.006-1.332-.079-3.2-1.555-3.7a42.489 42.489 0 00-6.088-.978c-8.588-1.012-9.8-.7-9.846-1.79-.082-1.906.1-5.573-.054-7.018-.377-3.542-4.539-4.735-9.228-4.424-.925.059-2.206.359-2.307 1.6s-.093 2.2-.243 4.3c-.331 4.669-.424 5.175-2.234 5.166-1.612-.008-15.021-1.193-17.6-.368s-2.474 2.582-2.681 3.461.254 6.145.515 8.418a29.718 29.718 0 001.063 5.825c.311.467 1.278 1.784 3.97 1.448a158 158 0 0016.483-2.836c1.236-.311 1.377-.467 1.391.515.006.557.238 11.724.277 15.041.065 5.672 1.024 22.1-14.263 24.652-6.359 1.06-12.32-.792-15.032-3.781-1.538-1.7-.783-1.917-.1-3.02 1.029-1.677 9.62-11.769 2.421-22.237-4.244-6.176-14.424-6.665-18.12-5.062-2.864 1.241-5.18 5.09-5.627 9.784a32.97 32.97 0 007.228 23.985c.385.662-1.063 2.794-6.125 3.535-6.786 1-17.207-7.191-16.938-8.257.133-.509 4.748-8.067 4.858-15.371a20.267 20.267 0 00-2.483-9.063c-1.7-3.306-7.058-8.407-12.855-7.287C93.029 33.12 94.584 46.6 95.528 50.276c1.962 7.607 6.557 14.319 7.307 15.663 1.021 1.824-28.862 13.683-30.019 2.582C71.665 57.515 88 33.785 86.717 24.578c-1.159-8.294-6.736-10.03-11.585-10.115-4.714-.085-5.958.667-7.553 1.595-.919.534-2.24 1.592-4.072-.156-1.219-1.162-2.025-1.977-3.314-3.009a6.872 6.872 0 00-3.453-1.445 11.282 11.282 0 00-5.463.619 15.038 15.038 0 00-3.764 2.737c-1.188 1.032-4.193 4.408-7 3.164-1.216-.54-5.336-2.6-8.3-3.888-5.737-2.488-14.011 1.541-16.989 6.846-4.437 7.895-13.188 38.909-14.512 43C-2.262 73.11 4.473 80.6 13.564 80.168c3.84-.184 6.4-1.589 8.825-6.012 1.4-2.553 14.58-37.034 15.558-38.686.713-1.2 3.082-2.782 5.09-1.753s2.412 3.19 2.115 5.217c-.481 3.28-9.773 24.318-10.129 26.7-.608 4.049 1.312 6.3 5.506 6.521 2.873.15 5.737-.885 8.011-5.18 1.272-2.4 15.923-31.806 17.221-33.768 1.425-2.155 2.573-2.864 4.021-2.788 1.128.057 2.93.348 2.477 3.73-.441 3.314-12.221 24.892-13.46 30.174-1.875 8.014 3.255 18.793 16.994 19.288 6.826.249 22.627-2.732 31.529-9.493 3.232-2.454 2.378-2.667 4.391-.879 2.9 2.57 8.277 6.19 13.573 6.19 12.026 0 20.809-7.522 21.208-7.793a.314.314 0 01.41.048c.73.792 8.186 4.951 13.412 5.124a28.108 28.108 0 0022.584-9.764 62.3 62.3 0 004.275-5.619.444.444 0 01.7-.051c.744.82 6.354 11.147 17.5 9.722 6.215-.795 15.459-6.048 16.107-6.758a.283.283 0 01.481.1 19.294 19.294 0 007.445 10c4.671 3.306 13.663 3.967 17.653 1.77a25.683 25.683 0 006.95-5.3 5.216 5.216 0 015.243-1.428c3.054.648 11.124 2.078 11.639 2.324.58.274.67 1.329.5 2.432-.277 1.736-.933 7.821-1.6 13.5s-2.811 24.635 2.262 25.336c3.065.424 5.726-2.483 6.43-5.319 1.764-7.117 2.087-15.128 3.246-22 1.386-8.181 1.934-10.474 2.432-11.387.413-.758.413-.58 6.128-.093 3.959.339 7.171.891 11.941.223 3.953-.554 12.066-3.552 11.63-8.415M116.21 47.689a14.319 14.319 0 01-2.293 6.84c-.885 1.538-1.8.387-2.333-.373-.763-1.091-4.666-10.587-1.685-12.547a3.918 3.918 0 013.71-.192 4.649 4.649 0 012.262 2.749 7.89 7.89 0 01.339 3.523m37.02 1.38a10.718 10.718 0 01-2.135 5.474c-.851 1.142-1.193 1.592-2.008.763a24.623 24.623 0 01-3.492-9.035c-.2-1.787.3-4.341 1.8-4.94a3.468 3.468 0 014.3 1.123 8.292 8.292 0 011.538 6.614m134.344 13.509c-1.858.763-2.667.3-2.559-2.777.023-.662 3.006-16.081 8.709-18.875 1.617-.792 3.258-.758 4.394.509 2.149 2.4 1.583 6.085-.034 9.45-2.341 4.883-7.957 10.643-10.511 11.693" fill="#f64060" fill-rule="evenodd"/></svg>