<svg xmlns="http://www.w3.org/2000/svg" width="393.41" height="90.2" viewBox="0 0 393.41 90.2"><path data-name="Path 476" d="M15.42 77.63a15.39 15.39 0 01-9.19-3V90.2H0V40.03h5.26l.52 3.71c1.71-2.37 5.71-4.45 10.09-4.45 10.82 0 13.64 8.75 13.64 19.13 0 11.57-3.86 19.21-14.09 19.21m-9.19-7.94a13.52 13.52 0 008.3 2.89c7.19 0 8.75-5.63 8.75-14.23s-1.33-14-8.3-14a13.15 13.15 0 00-8.75 3.64v21.72zM55.9 45.22a45 45 0 00-11.49 3.86v27.73h-6.23V40.03h5.12l.67 4.3a18.73 18.73 0 0111.12-4.82zm9.8 15.95c.37 7.78 2.3 11.49 9.79 11.49a31.27 31.27 0 0010.81-2.08l1 4.75a34.64 34.64 0 01-11.9 2.25c-13.27 0-15.94-9-15.94-19.35 0-10.6 3.49-18.91 14.76-18.91 10 0 14.16 7.05 14.16 15.87v6zm0-4.9h16.67v-1.33c0-6.83-2.14-11-8.23-11-6.89 0-8.37 5-8.45 12.31m40.34 21.33a27.91 27.91 0 01-11.65-2.45l1.19-4.89a26.19 26.19 0 0010.16 2.3c4.89 0 7.49-1.33 7.49-5.49 0-3.93-2.67-5.11-7.64-6.3-8.08-1.93-11.12-4.75-11.12-11 0-6.89 3.78-10.38 12.38-10.38a25.5 25.5 0 019.94 1.86l-1 5a25.25 25.25 0 00-8.75-1.78c-4.67 0-6.45 1.26-6.45 5 0 3.86 1.78 4.6 7 6 7.2 1.93 11.72 4.22 11.72 11.27 0 7.71-5.64 11-13.27 11m39.81-1.28a27.739 27.739 0 01-7.56 1.11c-6.3 0-9-3.48-9-9.19V45.08h-6.38v-5h6.38v-9l6.22-.89v9.86h10.46l-.52 5h-9.94v23c0 3.41.82 4.45 4.23 4.45a27.34 27.34 0 005.56-.74zm20.61 1.14c-10.68 0-15.49-8-15.49-19.13s4.81-19.13 15.49-19.13 15.5 8 15.5 19.13-4.82 19.13-15.5 19.13m0-33.22c-7.71 0-9.27 6.31-9.27 14.09s1.56 14.09 9.27 14.09 9.27-6.3 9.27-14.09-1.56-14.09-9.27-14.09M352.98 0a4.22 4.22 0 11-2.988 1.24A4.23 4.23 0 01352.98 0m11.6 11.14a4.68 4.68 0 11-3.319 1.371 4.69 4.69 0 013.319-1.371m11.6 11.13a5.16 5.16 0 11-5.16 5.15 5.16 5.16 0 015.16-5.15m11.59 11.13a5.63 5.63 0 11-5.62 5.62 5.63 5.63 0 015.62-5.62M329.78.47a3.75 3.75 0 11-2.655 1.1 3.76 3.76 0 012.655-1.1m11.6 11.11a4.23 4.23 0 11-4.22 4.22 4.23 4.23 0 014.22-4.22m11.6 11.15a4.69 4.69 0 11-4.69 4.69 4.69 4.69 0 014.69-4.69m11.6 11.14a5.15 5.15 0 11-3.648 1.5 5.16 5.16 0 013.648-1.5M376.18 45a5.62 5.62 0 11-3.98 1.643A5.63 5.63 0 01376.18 45M306.58.94a3.29 3.29 0 11-3.28 3.28 3.29 3.29 0 013.28-3.28m11.6 11.13a3.76 3.76 0 11-3.75 3.75 3.76 3.76 0 013.75-3.75m11.6 11.13a4.22 4.22 0 11-4.22 4.22 4.22 4.22 0 014.22-4.22m11.6 11.13a4.69 4.69 0 11-4.69 4.69 4.69 4.69 0 014.69-4.69m11.6 11.13a5.15 5.15 0 11-3.652 1.508 5.16 5.16 0 013.652-1.508m11.6 11.12a5.63 5.63 0 11-5.63 5.63 5.63 5.63 0 015.63-5.63m-34.8-9.71a3.75 3.75 0 11-3.75 3.75 3.75 3.75 0 013.75-3.75m-11.6 11.6a3.75 3.75 0 11-3.75 3.75 3.75 3.75 0 013.75-3.75m-11.6 11.59a3.76 3.76 0 11-3.75 3.76 3.76 3.76 0 013.75-3.76m23.2.01a3.75 3.75 0 11-3.75 3.75 3.75 3.75 0 013.75-3.75m23.2 0a3.75 3.75 0 11-2.658 1.095 3.75 3.75 0 012.658-1.095m-11.6-11.6a3.75 3.75 0 11-3.75 3.75 3.75 3.75 0 013.75-3.75m-92.75 0a28.931 28.931 0 01-1.43 9.46c-2.13 5.89-6.44 9.11-12.7 9.45a23.36 23.36 0 01-6-.39c-4.95-1-8.06-4.08-9.71-8.77a30.8 30.8 0 01-1.35-11.2 24.89 24.89 0 011.65-8.66c2.07-5.17 5.94-7.94 11.39-8.61a21.71 21.71 0 017 .28 12.35 12.35 0 019.38 7.81 28.77 28.77 0 011.78 10.63m-6.31-.18c-.05-1-.07-2.3-.18-3.59a17.93 17.93 0 00-1.28-5.63 6.9 6.9 0 00-5.48-4.4 14.32 14.32 0 00-5.26.11 6.59 6.59 0 00-4.92 4 12.429 12.429 0 00-.62 1.71 35.61 35.61 0 00-.74 11.6 18.119 18.119 0 001.08 5.34 7.06 7.06 0 005.73 4.91 14.17 14.17 0 003.04.24c4.39-.25 6.71-2.15 7.82-6.4a35.14 35.14 0 00.8-7.86m13.65.26V41.16c0-.88.26-1.07 1.07-1 1.4.06 2.82 0 4.23 0 .5 0 .68.16.65.66v2c0 .87.05.91.81.53a52.688 52.688 0 015.78-2.49 18.8 18.8 0 019.45-1c3.68.65 5.54 3 5.69 7 .06 1.36 0 2.71 0 4.07v25.12c0 .75-.2.93-.92.9q-2.07-.09-4.14 0c-.73 0-.86-.22-.86-.89V51.35c0-1 0-2.1-.09-3.15a2.86 2.86 0 00-2.77-3 19.69 19.69 0 00-9.27 1.26c-1 .36-2 .86-3.06 1.26a1 1 0 00-.71 1.11V76.2c0 .52-.13.72-.69.71-1.46 0-2.93-.05-4.39 0-.69 0-.88-.17-.88-.87V58.55m-67.01.03a31.75 31.75 0 011-8.94c1.87-6.51 6.16-9.85 12.93-10a30.2 30.2 0 018.92 1.16c.42.11.57.26.49.74-.25 1.3-.44 2.61-.61 3.93-.09.66-.22.94-1 .65a19.13 19.13 0 00-6.08-1.18c-4.77-.11-7.64 2-8.66 6.7a32.55 32.55 0 00.14 14.79 10.067 10.067 0 00.33 1 6.69 6.69 0 006.37 4.69 18.68 18.68 0 008.53-1.7c1-.39 1-.39 1.14.67.18 1.28.34 2.57.53 3.86a.48.48 0 01-.31.61c-4.59 1.76-9.28 2.52-14.13 1.32s-7.32-4.46-8.54-9a34.53 34.53 0 01-1.05-9.28" fill="#fff"/></svg>