<svg xmlns="http://www.w3.org/2000/svg" width="200" height="33.294" viewBox="0 0 200 33.294"><g data-name="Group 408" fill="#ce1632" fill-rule="evenodd"><path data-name="Path 465" d="M95.019 6.605V1.422H73.342v31.083h21.679v-5.181H78.537v-7.763H94.23v-5.18H78.537V6.605H95.02m16.083 25.9V1.423h5.2v25.9h15v5.182h-20.2m24.434 0V1.423h5.2v25.9h15v5.182h-20.201m-35.059 0h5.191V1.418h-5.191zM8.43 9.314a11.1 11.1 0 107.814-3.209A11 11 0 008.43 9.314M0 17.105a16.243 16.243 0 1116.242 16.189A16.22 16.22 0 010 17.105m48.555-2.726V6.605H59.03a3.889 3.889 0 110 7.777H48.555zm13.079 4.8a9.061 9.061 0 00-2.6-17.75H43.353v31.076h5.2V19.56h7.248l7.829 12.945h6.07l-8.07-13.333zM39.674 4.731A3.826 3.826 0 1135.848.915a3.82 3.82 0 013.826 3.816m139.232-3.31h-6.318l-8 11.543-8-11.543h-6.318l11.712 16.91v14.174h5.2V18.346l11.725-16.924m12.932 13.556a6.844 6.844 0 116.859-6.836 6.85 6.85 0 01-6.859 6.836m0-14.978a8.146 8.146 0 105.769 2.38 8.157 8.157 0 00-5.769-2.375"/><path data-name="Path 466" d="M189.866 5.307h3.214a1.036 1.036 0 110 2.072h-3.214zm5.639 1.047a2.426 2.426 0 00-2.425-2.434h-4.606v8.307h1.392V8.775h2.323l1.671 3.451h1.547l-1.716-3.535a2.406 2.406 0 001.814-2.337z"/></g></svg>