<svg data-name="Layer 2" xmlns="http://www.w3.org/2000/svg" width="567.639" height="142.88" viewBox="0 0 567.639 142.88"><g data-name="Layer 1"><path data-name="Path 260" d="M13.766 69.273a13.712 13.712 0 01-8.206-2.666v13.839H0V35.72h4.7l.462 3.357c1.519-2.123 5.1-3.97 9-3.97 9.663 0 12.176 7.807 12.176 17.07-.005 10.276-3.438 17.096-12.572 17.096zm-8.206-7.1a12.1 12.1 0 007.407 2.584c6.421 0 7.807-5.027 7.807-12.7s-1.19-12.5-7.407-12.5a11.732 11.732 0 00-7.807 3.25zm44.325-21.817a39.752 39.752 0 00-10.258 3.437v24.743h-5.56V35.729h4.565l.6 3.837a16.7 16.7 0 019.929-4.307zm8.73 14.21c.337 6.963 2.052 10.267 8.739 10.267a28.038 28.038 0 009.654-1.847l.888 4.227a30.693 30.693 0 01-10.586 1.994c-11.838 0-14.21-8.078-14.21-17.27 0-9.467 3.108-16.874 13.171-16.874 8.934 0 12.638 6.288 12.638 14.157v5.329zm0-4.37H73.5v-1.172c0-6.092-1.918-9.769-7.345-9.769-6.146-.027-7.469 4.405-7.54 10.959zm36 18.988A24.974 24.974 0 0184.22 67l1.039-4.343a23.3 23.3 0 009.068 2.05c4.361 0 6.679-1.2 6.679-4.9 0-3.552-2.38-4.565-6.812-5.622-7.158-1.723-9.9-4.236-9.9-9.858 0-6.155 3.375-9.263 11.048-9.263a22.834 22.834 0 018.881 1.652l-.888 4.441a22.452 22.452 0 00-7.807-1.581c-4.174 0-5.764 1.119-5.764 4.441s1.59 4.1 6.288 5.329c6.419 1.721 10.448 3.773 10.448 10.061-.053 6.883-5.08 9.8-11.892 9.8zm35.525-.995a24.441 24.441 0 01-6.75.995c-5.622 0-7.993-3.108-7.993-8.206V40.223H109.7v-4.5h5.693v-7.996l5.56-.79v8.792h9.325l-.462 4.5h-8.881v20.519c0 3.037.728 3.97 3.766 3.97a24.343 24.343 0 004.965-.666l.462 4.165zm18.393.995c-9.529 0-13.828-7.1-13.828-17.07s4.3-17.07 13.828-17.07 13.828 7.149 13.828 17.07-4.276 17.093-13.833 17.093zm0-29.636c-6.883 0-8.268 5.622-8.268 12.567s1.385 12.576 8.268 12.576 8.268-5.631 8.268-12.576-1.377-12.549-8.268-12.549z"/><circle data-name="Ellipse 222" cx="3.766" cy="3.766" r="3.766" transform="translate(217.348)" fill="#5b87da"/><circle data-name="Ellipse 223" cx="4.183" cy="4.183" r="4.183" transform="translate(227.286 9.938)" fill="#5b87da"/><circle data-name="Ellipse 224" cx="4.6" cy="4.6" r="4.6" transform="rotate(-45 147.203 -271.814)" fill="#5b87da"/><circle data-name="Ellipse 225" cx="5.018" cy="5.018" r="5.018" transform="rotate(-45 164.577 -278.413)" fill="#5b87da"/><circle data-name="Ellipse 226" cx="3.348" cy="3.348" r="3.348" transform="translate(197.064 .417)" fill="#1edcff"/><circle data-name="Ellipse 227" cx="3.766" cy="3.766" r="3.766" transform="translate(207.002 10.355)" fill="#1edcff"/><circle data-name="Ellipse 228" cx="4.183" cy="4.183" r="4.183" transform="translate(216.931 20.285)" fill="#1edcff"/><circle data-name="Ellipse 229" cx="4.6" cy="4.6" r="4.6" transform="rotate(-45 154.502 -254.132)" fill="#1edcff"/><circle data-name="Ellipse 230" cx="5.018" cy="5.018" r="5.018" transform="rotate(-45 171.894 -260.746)" fill="#1edcff"/><circle data-name="Ellipse 231" cx="2.931" cy="2.931" r="2.931" transform="translate(176.797 .844)"/><circle data-name="Ellipse 232" cx="3.348" cy="3.348" r="3.348" transform="translate(186.717 10.764)"/><circle data-name="Ellipse 233" cx="3.766" cy="3.766" r="3.766" transform="translate(196.655 20.711)"/><circle data-name="Ellipse 234" cx="4.183" cy="4.183" r="4.183" transform="translate(206.585 30.649)"/><circle data-name="Ellipse 235" cx="4.6" cy="4.6" r="4.6" transform="rotate(-45 161.836 -236.476)"/><circle data-name="Ellipse 236" cx="5.018" cy="5.018" r="5.018" transform="rotate(-45 179.2 -243.07)"/><circle data-name="Ellipse 237" cx="3.348" cy="3.348" r="3.348" transform="translate(197.064 41.812)" fill="#5b87da"/><circle data-name="Ellipse 238" cx="3.348" cy="3.348" r="3.348" transform="translate(186.717 52.168)" fill="#5b87da"/><circle data-name="Ellipse 239" cx="3.348" cy="3.348" r="3.348" transform="translate(176.371 62.523)" fill="#5b87da"/><circle data-name="Ellipse 240" cx="3.348" cy="3.348" r="3.348" transform="translate(197.064 62.514)" fill="#5b87da"/><circle data-name="Ellipse 241" cx="3.348" cy="3.348" r="3.348" transform="rotate(-45 187.703 -228.264)" fill="#5b87da"/><circle data-name="Ellipse 242" cx="3.348" cy="3.348" r="3.348" transform="rotate(-45 170.026 -220.942)" fill="#5b87da"/><path data-name="Path 261" d="M281.959 25.365v15.7h17.416v4.92h-17.416v22.4h-5.755V20.427h25.276v4.92z"/><path data-name="Path 262" d="M318.638 69.211c-10.657 0-14.343-5.4-14.343-17.141s3.686-17.15 14.343-17.15 14.343 5.4 14.343 17.15-3.686 17.141-14.343 17.141zm0-29.85c-6.421 0-8.881 1.909-8.881 12.709s2.46 12.7 8.881 12.7 8.881-1.909 8.881-12.7-2.469-12.708-8.881-12.708z"/><path data-name="Path 263" d="M360.575 68.385l-.959-3.206c-2.593 1.847-6.83 4.032-11.066 4.032-7.442 0-8.81-4.574-8.81-8.331V35.747h5.46v25.471c0 2.8 2.46 3.757 4.236 3.757 3.348 0 7.513-2.256 10.045-4.032V35.747h5.462v32.638z"/><path data-name="Path 264" d="M392.672 68.385V42.914c0-2.8-2.46-3.757-4.236-3.757-3.348 0-7.513 2.256-10.036 4.032v25.2h-5.471V35.747h4.378l.95 3.206c2.6-1.847 6.83-4.032 11.066-4.032 7.442 0 8.81 4.574 8.81 8.331v25.133z"/><path data-name="Path 265" d="M428.192 68.385l-.826-3.552a12.913 12.913 0 01-9.281 4.37c-8.615 0-13.188-5.462-13.188-17.487 0-9.29 4.37-16.8 13.251-16.8a30.063 30.063 0 018.952 1.368V20.427h5.462v47.958zm-1.1-27.531a24.867 24.867 0 00-8.339-1.572c-4.778 0-8.331 3.277-8.331 12.5 0 6.483 1.439 12.975 8.126 12.975 3.9 0 7.585-3.144 8.544-4.645z"/><path data-name="Path 266" d="M458.028 68.385l-.648-2.931a20.56 20.56 0 01-10.791 3.615c-4.982 0-8.055-2.931-8.055-9.494 0-8.668 4.3-10.995 16.119-10.995.888 0 1.776.071 2.727.071v-4.307c0-2.318-1.021-4.982-5.8-4.982a28.42 28.42 0 00-10.728 2.46v-4.921a39.815 39.815 0 0111.2-1.98c7.5 0 10.791 3.481 10.791 10.382v23.082zm-.648-15.5c-.95 0-1.776-.071-2.593-.071-9.085 0-10.862 1.226-10.862 6.288 0 4.441 1.643 5.533 3.961 5.533 3.073 0 7.247-2.123 9.494-3.828z"/><path data-name="Path 267" d="M476.918 39.911v19.877c0 3.41.542 4.441 3.135 4.441a19.2 19.2 0 006.217-1.155v5.116a29.7 29.7 0 01-7.513.826c-6.688 0-7.309-2.46-7.309-9.974V39.911h-4.85v-4.164h4.849v-9.636h5.471v9.636h9.494v4.164z"/><path data-name="Path 268" d="M494.911 29.458c-2.389 0-3.348-1.092-3.348-3.481s.959-3.419 3.348-3.419 3.322 1.03 3.322 3.419-.888 3.481-3.322 3.481zm-2.738 38.927V35.747h5.462v32.638z"/><path data-name="Path 269" d="M519.636 69.211c-10.657 0-14.343-5.4-14.343-17.141s3.686-17.15 14.343-17.15 14.343 5.4 14.343 17.15-3.694 17.141-14.343 17.141zm0-29.85c-6.421 0-8.881 1.909-8.881 12.709s2.46 12.7 8.881 12.7 8.881-1.909 8.881-12.7-2.469-12.708-8.881-12.708z"/><path data-name="Path 270" d="M560.744 68.385V42.914c0-2.8-2.46-3.757-4.236-3.757-3.348 0-7.513 2.256-10.036 4.032v25.2h-5.468V35.747h4.378l.95 3.206c2.6-1.847 6.83-4.032 11.066-4.032 7.442 0 8.81 4.574 8.81 8.331v25.133z"/><path d="M41.271 109.807v2.664h11.306v29.779h3.091v-29.815h11.3v-2.664zm51.093 0v14.068H73.101v-14.068H70.01v32.407h3.091v-15.7h19.263v15.7h3.082v-32.407zm9.609 0v32.407h22.6v-2.664h-19.536v-12.772h18.064v-2.664h-18.048v-11.679h19.281v-2.664zm194.329.044v32.314h3.082v-15.387h15.48v-2.664h-15.48v-11.635h17.425v-2.664zm37.843 30.365c8.508 0 12.132-7.1 12.132-14.21s-3.623-14.21-12.132-14.21-12.176 7.149-12.176 14.21 3.624 14.21 12.176 14.21m0-31.084c10.142 0 15.213 7.993 15.213 16.874s-5.071 16.874-15.213 16.874-15.249-7.993-15.249-16.874 5.062-16.874 15.249-16.874m19.698.719h3.08v20c0 7.469 3.481 10.364 9.45 10.364s9.5-2.9 9.5-10.364v-20h3.082v20.7c0 6.652-3.552 12.309-12.585 12.309s-12.531-5.657-12.531-12.309zm31.279 0h3.437l18.828 27.336h.1v-27.336h3.073v32.31h-3.437l-18.828-27.336h-.089v27.336h-3.084zm34.957 29.69h6.563c9.281 0 13.322-3.846 13.322-13.535s-4.023-13.535-13.322-13.535h-6.563zm-3.082-29.69h11.181c9.769.222 14.849 5.471 14.849 16.155s-5.07 15.933-14.849 16.155h-11.145zm35.622 19.645h12.753l-6.217-16.572zm4.887-19.645h3.428l12.672 32.31h-3.3l-3.934-10.045h-14.7l-3.902 10.045h-3.3z" fill="#043863"/><path data-name="path4" d="M470 109.851v2.664h11.27v29.7h3.082v-29.748h11.27v-2.66z" fill="#043863"/><path d="M498.881 109.851h3.07v32.31h-3.07z" fill="#043863"/><path data-name="path12" d="M522.212 140.216c8.508 0 12.123-7.1 12.123-14.21s-3.615-14.21-12.123-14.21-12.176 7.149-12.176 14.21 3.615 14.21 12.176 14.21m0-31.084c10.133 0 15.2 7.993 15.2 16.874s-5.071 16.874-15.2 16.874-15.258-7.993-15.258-16.874 5.071-16.874 15.258-16.874" fill="#043863"/><path data-name="path16" d="M542.203 109.851h3.437l18.828 27.336h.089v-27.336h3.082v32.31h-3.437l-18.828-27.336h-.071v27.336h-3.073z" fill="#043863"/><path d="M133.333 109.442h9.97v24.07h14.32v8.286h-24.29zm30.808 0h9.974v32.363h-9.974zm17.399 0h10.2l9.432 17.309h.089v-17.309h9.423v32.354h-9.7l-9.92-17.673h-.115v17.673h-9.409zm65.978 19.849c0 9.023-4.76 13.277-14.725 13.277s-14.778-4.256-14.778-13.277v-19.849h9.974v17.629c0 3.259 0 7.434 4.849 7.434 4.707 0 4.707-4.174 4.707-7.434v-17.629h9.974zm15.861-4.706l-10.657-15.1h11.7l4.894 8.792 4.8-8.792h11.057l-10.38 15.233 11.546 17.123h-12l-5.524-9.645-5.711 9.645h-11.421z" fill="#043863"/><path d="M6.919 135.757v-12.993H.409v19.485h19.54v-6.492z" fill="#1896d2"/><path d="M32.861 109.762H.409v9.769h6.5v-3.215h19.486v19.467h-3.246v6.489h9.707z" fill="#043863"/><path data-name="Rectangle 31" fill="#5b87da" d="M0 91.103h567.639v1.954H0z"/></g></svg>