<svg xmlns="http://www.w3.org/2000/svg" viewBox="0 0 800 197"><path d="M45.265 165.386c-7.567 0-14.556-3.058-18.05-5.969v30.567H14.988V91.585H25.32l1.02 7.279c3.348-4.659 11.208-8.735 19.797-8.735 21.25 0 26.78 17.178 26.78 37.554.003 22.708-7.566 37.702-27.652 37.702m-18.05-15.575a26.642 26.642 0 0016.3 5.677c14.12 0 17.177-11.06 17.177-27.945 0-16.887-2.62-27.515-16.304-27.515-7.278 0-13.098 3.495-17.175 7.133v42.65zm97.523-48.035a87.369 87.369 0 00-22.562 7.569v54.436H89.95V91.584h10.047l1.306 8.443c4.368-4.364 12.375-8.585 21.835-9.46zm19.213 31.295c.73 15.285 4.515 22.563 19.215 22.563a61.386 61.386 0 0021.25-4.073l1.893 9.312a67.698 67.698 0 01-23.29 4.369c-26.056 0-31.295-17.761-31.295-37.992 0-20.814 6.84-37.118 28.967-37.118 19.651 0 27.802 13.83 27.802 31.15v11.79zm0-9.606h32.752v-2.621c0-13.394-4.219-21.543-16.157-21.543-13.536 0-16.448 9.753-16.595 24.164m79.184 41.777c-7.279 0-16.594-1.604-22.854-4.808l2.329-9.604a51.261 51.261 0 0019.943 4.516c9.604 0 14.7-2.623 14.7-10.772 0-7.718-5.241-10.045-14.994-12.375-15.865-3.784-21.831-9.318-21.831-21.689 0-13.539 7.423-20.378 24.307-20.378 6.985 0 14.411 1.31 19.504 3.636l-2.037 9.755a49.368 49.368 0 00-17.174-3.496c-9.172 0-12.664 2.476-12.664 9.756 0 7.568 3.492 9.025 13.828 11.788 14.119 3.786 22.998 8.298 22.998 22.126-.002 15.138-11.066 21.545-26.055 21.545m78.163-2.186c-3.057 1.165-10.19 2.185-14.845 2.185-12.375 0-17.614-6.845-17.614-18.055v-45.701h-12.517v-9.901h12.517V73.972l12.227-1.746v19.358h20.523l-1.018 9.902h-19.505v45.123c0 6.693 1.6 8.737 8.297 8.737a53.93 53.93 0 0010.918-1.46zm40.464 2.187c-20.96 0-30.423-15.721-30.423-37.556s9.462-37.556 30.423-37.556c20.96 0 30.421 15.722 30.421 37.556.002 21.835-9.462 37.556-30.42 37.556m0-65.215c-15.14 0-18.198 12.371-18.198 27.66 0 15.281 3.06 27.655 18.197 27.655 15.136 0 18.196-12.376 18.196-27.656 0-15.288-3.06-27.659-18.196-27.659M501.467 13a8.288 8.288 0 11-8.288 8.288A8.287 8.287 0 01501.467 13m22.771 21.852a9.206 9.206 0 11-9.206 9.207 9.207 9.207 0 019.206-9.207m22.771 21.852a10.125 10.125 0 11-10.126 10.126 10.126 10.126 0 0110.126-10.126m22.771 21.853A11.043 11.043 0 11558.736 89.6a11.043 11.043 0 0111.044-11.043M455.928 13.92a7.367 7.367 0 11-7.369 7.367 7.367 7.367 0 017.369-7.367m22.768 21.85a8.288 8.288 0 11-8.288 8.287 8.287 8.287 0 018.288-8.288m22.772 21.854a9.206 9.206 0 11-9.205 9.207 9.207 9.207 0 019.205-9.207m22.77 21.852a10.125 10.125 0 11-10.126 10.126 10.125 10.125 0 0110.126-10.126m22.771 21.853a11.044 11.044 0 11-11.044 11.043 11.045 11.045 0 0111.044-11.043m-136.623-86.49a6.448 6.448 0 11-6.448 6.448 6.447 6.447 0 016.448-6.448m22.771 21.852a7.367 7.367 0 11-7.369 7.367 7.367 7.367 0 017.369-7.367m22.771 21.85a8.288 8.288 0 11-8.288 8.287 8.288 8.288 0 018.288-8.287m22.771 21.852a9.206 9.206 0 11-9.207 9.207 9.207 9.207 0 019.207-9.207m22.768 21.852a10.125 10.125 0 11-10.126 10.126 10.126 10.126 0 0110.126-10.126m22.773 21.853a11.043 11.043 0 11-11.044 11.043 11.045 11.045 0 0111.043-11.043m-68.309-19.095a7.367 7.367 0 11-7.37 7.367 7.367 7.367 0 017.37-7.367m-22.772 22.772a7.366 7.366 0 11-7.367 7.367 7.367 7.367 0 017.367-7.367m-22.771 22.766a7.369 7.369 0 11-7.368 7.369 7.369 7.369 0 017.368-7.369m45.543.005a7.366 7.366 0 11-7.37 7.367 7.367 7.367 0 017.37-7.367m45.537.002a7.366 7.366 0 11-7.367 7.367 7.367 7.367 0 017.367-7.367m-22.768-22.773a7.366 7.366 0 11-7.369 7.367 7.367 7.367 0 017.369-7.367m242.343.006c-.123 6.32-.625 12.564-2.802 18.571-4.195 11.56-12.656 17.88-24.941 18.546a45.07 45.07 0 01-11.817-.76c-9.708-2.042-15.83-8.014-19.063-17.216-2.51-7.137-2.84-14.534-2.64-21.994a48.702 48.702 0 013.225-16.997c4.065-10.144 11.66-15.586 22.37-16.909a42.134 42.134 0 0113.754.566c8.887 1.826 14.95 6.98 18.41 15.322 2.779 6.696 3.373 13.744 3.504 20.872m-12.384-.362c-.095-1.954-.137-4.507-.36-7.044a35.308 35.308 0 00-2.505-11.043c-2.063-4.785-5.52-7.784-10.755-8.64a28.243 28.243 0 00-10.34.206 12.956 12.956 0 00-9.646 7.917 24.122 24.122 0 00-1.222 3.353c-2.054 7.487-1.891 15.128-1.45 22.775a35.34 35.34 0 002.122 10.476c1.98 5.269 5.523 8.726 11.238 9.648a27.672 27.672 0 005.994.349c8.623-.493 13.175-4.224 15.341-12.56 1.267-4.873 1.425-9.855 1.583-15.437m26.797.508c0-11.397.043-22.794-.046-34.19-.012-1.725.514-2.093 2.099-2.022 2.762.123 5.535.068 8.302.016.992-.018 1.349.309 1.292 1.307-.073 1.298-.024 2.605-.016 3.907.013 1.704.097 1.772 1.606 1.039a100.696 100.696 0 0111.337-4.886c6.038-2.063 12.211-3.094 18.564-1.971 7.217 1.276 10.872 5.844 11.17 13.786.1 2.655.044 5.317.044 7.976.004 16.445-.019 32.89.04 49.33.006 1.474-.392 1.821-1.799 1.761a93.684 93.684 0 00-8.139 0c-1.415.063-1.675-.43-1.672-1.738q.068-24.26.023-48.516c-.002-2.061-.03-4.126-.171-6.18-.24-3.49-1.948-5.32-5.435-5.809-6.287-.883-12.304.428-18.194 2.465-2.045.708-3.992 1.688-6.012 2.465a1.97 1.97 0 00-1.39 2.187q.061 23.69.026 47.378c0 2.116-.048 4.235.021 6.35.034 1.033-.237 1.418-1.342 1.389-2.873-.075-5.755-.094-8.627.006-1.342.049-1.718-.334-1.714-1.698.059-11.45.033-22.902.033-34.352M603.709 128a62.041 62.041 0 012.045-17.552c3.662-12.778 12.088-19.342 25.374-19.735a59.177 59.177 0 0117.52 2.271c.817.225 1.12.522.945 1.456a139.37 139.37 0 00-1.19 7.714c-.169 1.3-.432 1.843-1.965 1.282a37.099 37.099 0 00-11.923-2.32c-9.38-.217-15.007 3.968-17.02 13.155a63.898 63.898 0 00.283 29.03 20.754 20.754 0 00.655 2.006c2.095 5.879 6.345 8.773 12.5 9.216 5.912.425 11.378-1.152 16.747-3.339 1.898-.773 1.926-.773 2.23 1.309.366 2.521.671 5.052 1.041 7.574a.953.953 0 01-.683 1.232c-9.006 3.442-18.21 4.946-27.733 2.584-9.306-2.31-14.37-8.751-16.778-17.667A68.12 68.12 0 01603.709 128" fill="#fff"/></svg>