<svg xmlns="http://www.w3.org/2000/svg" width="280.253" height="18.326" viewBox="0 0 280.253 18.326"><defs><clipPath id="a"><path data-name="Rectangle 99" fill="none" d="M0 0h280.253v18.326H0z"/></clipPath></defs><g data-name="Group 328"><g data-name="Group 323" clip-path="url(#a)" fill="#32dbfc" opacity=".448"><path data-name="Path 387" d="M0 9.165a5.349 5.349 0 115.349 5.349A5.349 5.349 0 010 9.165"/><path data-name="Path 388" d="M25.92 9.164a6.112 6.112 0 116.112 6.112 6.111 6.111 0 01-6.112-6.112"/><path data-name="Path 389" d="M51.9 9.166a6.875 6.875 0 116.875 6.875A6.875 6.875 0 0151.9 9.166"/><path data-name="Path 390" d="M77.847 9.167a7.637 7.637 0 117.637 7.633 7.637 7.637 0 01-7.637-7.637"/><path data-name="Path 391" d="M103.8 9.171a8.4 8.4 0 118.4 8.4 8.4 8.4 0 01-8.4-8.4"/><path data-name="Path 392" d="M129.722 9.163a9.163 9.163 0 119.163 9.163 9.162 9.162 0 01-9.163-9.163"/><path data-name="Path 393" d="M280.253 8.554A5.349 5.349 0 11274.9 3.2a5.349 5.349 0 015.349 5.349"/><path data-name="Path 394" d="M254.333 8.554a6.112 6.112 0 11-6.112-6.112 6.111 6.111 0 016.112 6.112"/><path data-name="Path 395" d="M228.354 8.552a6.875 6.875 0 11-6.875-6.875 6.875 6.875 0 016.875 6.875"/><path data-name="Path 396" d="M202.406 8.552a7.637 7.637 0 11-7.637-7.637 7.637 7.637 0 017.637 7.637"/><path data-name="Path 397" d="M176.453 8.548a8.4 8.4 0 11-8.4-8.4 8.4 8.4 0 018.4 8.4"/></g></g></svg>